G04 #@! TF.GenerationSoftware,KiCad,Pcbnew,8.0.4*
G04 #@! TF.CreationDate,2024-08-01T22:41:18+02:00*
G04 #@! TF.ProjectId,Headless TEF Audio board,48656164-6c65-4737-9320-544546204175,1*
G04 #@! TF.SameCoordinates,Original*
G04 #@! TF.FileFunction,Legend,Bot*
G04 #@! TF.FilePolarity,Positive*
%FSLAX46Y46*%
G04 Gerber Fmt 4.6, Leading zero omitted, Abs format (unit mm)*
G04 Created by KiCad (PCBNEW 8.0.4) date 2024-08-01 22:41:18*
%MOMM*%
%LPD*%
G01*
G04 APERTURE LIST*
%ADD10C,0.250000*%
%ADD11C,0.300000*%
%ADD12C,0.000000*%
%ADD13C,0.120000*%
%ADD14C,1.400000*%
%ADD15R,1.700000X1.700000*%
%ADD16O,1.700000X1.700000*%
G04 APERTURE END LIST*
D10*
X178053352Y-83933428D02*
X178053352Y-84504857D01*
X178396209Y-83819142D02*
X177196209Y-84219142D01*
X177196209Y-84219142D02*
X178396209Y-84619142D01*
X177196209Y-85019142D02*
X178167638Y-85019142D01*
X178167638Y-85019142D02*
X178281924Y-85076285D01*
X178281924Y-85076285D02*
X178339067Y-85133428D01*
X178339067Y-85133428D02*
X178396209Y-85247713D01*
X178396209Y-85247713D02*
X178396209Y-85476285D01*
X178396209Y-85476285D02*
X178339067Y-85590570D01*
X178339067Y-85590570D02*
X178281924Y-85647713D01*
X178281924Y-85647713D02*
X178167638Y-85704856D01*
X178167638Y-85704856D02*
X177196209Y-85704856D01*
X178396209Y-86276285D02*
X177196209Y-86276285D01*
X177196209Y-86276285D02*
X177196209Y-86561999D01*
X177196209Y-86561999D02*
X177253352Y-86733428D01*
X177253352Y-86733428D02*
X177367638Y-86847713D01*
X177367638Y-86847713D02*
X177481924Y-86904856D01*
X177481924Y-86904856D02*
X177710495Y-86961999D01*
X177710495Y-86961999D02*
X177881924Y-86961999D01*
X177881924Y-86961999D02*
X178110495Y-86904856D01*
X178110495Y-86904856D02*
X178224781Y-86847713D01*
X178224781Y-86847713D02*
X178339067Y-86733428D01*
X178339067Y-86733428D02*
X178396209Y-86561999D01*
X178396209Y-86561999D02*
X178396209Y-86276285D01*
X178396209Y-87476285D02*
X177196209Y-87476285D01*
X177196209Y-88276285D02*
X177196209Y-88504857D01*
X177196209Y-88504857D02*
X177253352Y-88619142D01*
X177253352Y-88619142D02*
X177367638Y-88733428D01*
X177367638Y-88733428D02*
X177596209Y-88790571D01*
X177596209Y-88790571D02*
X177996209Y-88790571D01*
X177996209Y-88790571D02*
X178224781Y-88733428D01*
X178224781Y-88733428D02*
X178339067Y-88619142D01*
X178339067Y-88619142D02*
X178396209Y-88504857D01*
X178396209Y-88504857D02*
X178396209Y-88276285D01*
X178396209Y-88276285D02*
X178339067Y-88162000D01*
X178339067Y-88162000D02*
X178224781Y-88047714D01*
X178224781Y-88047714D02*
X177996209Y-87990571D01*
X177996209Y-87990571D02*
X177596209Y-87990571D01*
X177596209Y-87990571D02*
X177367638Y-88047714D01*
X177367638Y-88047714D02*
X177253352Y-88162000D01*
X177253352Y-88162000D02*
X177196209Y-88276285D01*
X180328142Y-85047714D02*
X179128142Y-85047714D01*
X179699571Y-85047714D02*
X179699571Y-85733428D01*
X180328142Y-85733428D02*
X179128142Y-85733428D01*
X179985285Y-86247714D02*
X179985285Y-86819143D01*
X180328142Y-86133428D02*
X179128142Y-86533428D01*
X179128142Y-86533428D02*
X180328142Y-86933428D01*
X179128142Y-87161999D02*
X179128142Y-87847714D01*
X180328142Y-87504856D02*
X179128142Y-87504856D01*
D11*
X179411257Y-94420510D02*
X179354114Y-94306225D01*
X179354114Y-94306225D02*
X179354114Y-94077653D01*
X179354114Y-94077653D02*
X179411257Y-93963368D01*
X179411257Y-93963368D02*
X179525542Y-93849082D01*
X179525542Y-93849082D02*
X179639828Y-93791939D01*
X179639828Y-93791939D02*
X179868400Y-93791939D01*
X179868400Y-93791939D02*
X179982685Y-93849082D01*
X179982685Y-93849082D02*
X180096971Y-93963368D01*
X180096971Y-93963368D02*
X180154114Y-94077653D01*
X180154114Y-94077653D02*
X180154114Y-94306225D01*
X180154114Y-94306225D02*
X180096971Y-94420510D01*
X178954114Y-94191939D02*
X179011257Y-93906225D01*
X179011257Y-93906225D02*
X179182685Y-93620510D01*
X179182685Y-93620510D02*
X179468400Y-93449082D01*
X179468400Y-93449082D02*
X179754114Y-93391939D01*
X179754114Y-93391939D02*
X180039828Y-93449082D01*
X180039828Y-93449082D02*
X180325542Y-93620510D01*
X180325542Y-93620510D02*
X180496971Y-93906225D01*
X180496971Y-93906225D02*
X180554114Y-94191939D01*
X180554114Y-94191939D02*
X180496971Y-94477653D01*
X180496971Y-94477653D02*
X180325542Y-94763368D01*
X180325542Y-94763368D02*
X180039828Y-94934796D01*
X180039828Y-94934796D02*
X179754114Y-94991939D01*
X179754114Y-94991939D02*
X179468400Y-94934796D01*
X179468400Y-94934796D02*
X179182685Y-94763368D01*
X179182685Y-94763368D02*
X179011257Y-94477653D01*
X179011257Y-94477653D02*
X178954114Y-94191939D01*
X179239828Y-96363368D02*
X179182685Y-96420511D01*
X179182685Y-96420511D02*
X179125542Y-96534797D01*
X179125542Y-96534797D02*
X179125542Y-96820511D01*
X179125542Y-96820511D02*
X179182685Y-96934797D01*
X179182685Y-96934797D02*
X179239828Y-96991939D01*
X179239828Y-96991939D02*
X179354114Y-97049082D01*
X179354114Y-97049082D02*
X179468400Y-97049082D01*
X179468400Y-97049082D02*
X179639828Y-96991939D01*
X179639828Y-96991939D02*
X180325542Y-96306225D01*
X180325542Y-96306225D02*
X180325542Y-97049082D01*
X179125542Y-97791939D02*
X179125542Y-97906225D01*
X179125542Y-97906225D02*
X179182685Y-98020511D01*
X179182685Y-98020511D02*
X179239828Y-98077654D01*
X179239828Y-98077654D02*
X179354114Y-98134796D01*
X179354114Y-98134796D02*
X179582685Y-98191939D01*
X179582685Y-98191939D02*
X179868400Y-98191939D01*
X179868400Y-98191939D02*
X180096971Y-98134796D01*
X180096971Y-98134796D02*
X180211257Y-98077654D01*
X180211257Y-98077654D02*
X180268400Y-98020511D01*
X180268400Y-98020511D02*
X180325542Y-97906225D01*
X180325542Y-97906225D02*
X180325542Y-97791939D01*
X180325542Y-97791939D02*
X180268400Y-97677654D01*
X180268400Y-97677654D02*
X180211257Y-97620511D01*
X180211257Y-97620511D02*
X180096971Y-97563368D01*
X180096971Y-97563368D02*
X179868400Y-97506225D01*
X179868400Y-97506225D02*
X179582685Y-97506225D01*
X179582685Y-97506225D02*
X179354114Y-97563368D01*
X179354114Y-97563368D02*
X179239828Y-97620511D01*
X179239828Y-97620511D02*
X179182685Y-97677654D01*
X179182685Y-97677654D02*
X179125542Y-97791939D01*
X179239828Y-98649082D02*
X179182685Y-98706225D01*
X179182685Y-98706225D02*
X179125542Y-98820511D01*
X179125542Y-98820511D02*
X179125542Y-99106225D01*
X179125542Y-99106225D02*
X179182685Y-99220511D01*
X179182685Y-99220511D02*
X179239828Y-99277653D01*
X179239828Y-99277653D02*
X179354114Y-99334796D01*
X179354114Y-99334796D02*
X179468400Y-99334796D01*
X179468400Y-99334796D02*
X179639828Y-99277653D01*
X179639828Y-99277653D02*
X180325542Y-98591939D01*
X180325542Y-98591939D02*
X180325542Y-99334796D01*
X179525542Y-100363368D02*
X180325542Y-100363368D01*
X179068400Y-100077653D02*
X179925542Y-99791939D01*
X179925542Y-99791939D02*
X179925542Y-100534796D01*
X179696971Y-102306225D02*
X179696971Y-101906225D01*
X180325542Y-101906225D02*
X179125542Y-101906225D01*
X179125542Y-101906225D02*
X179125542Y-102477653D01*
X180325542Y-102934796D02*
X179125542Y-102934796D01*
X179125542Y-102934796D02*
X179982685Y-103334796D01*
X179982685Y-103334796D02*
X179125542Y-103734796D01*
X179125542Y-103734796D02*
X180325542Y-103734796D01*
X180325542Y-104306225D02*
X179125542Y-104306225D01*
X179125542Y-104306225D02*
X179125542Y-104591939D01*
X179125542Y-104591939D02*
X179182685Y-104763368D01*
X179182685Y-104763368D02*
X179296971Y-104877653D01*
X179296971Y-104877653D02*
X179411257Y-104934796D01*
X179411257Y-104934796D02*
X179639828Y-104991939D01*
X179639828Y-104991939D02*
X179811257Y-104991939D01*
X179811257Y-104991939D02*
X180039828Y-104934796D01*
X180039828Y-104934796D02*
X180154114Y-104877653D01*
X180154114Y-104877653D02*
X180268400Y-104763368D01*
X180268400Y-104763368D02*
X180325542Y-104591939D01*
X180325542Y-104591939D02*
X180325542Y-104306225D01*
X179125542Y-105391939D02*
X180325542Y-106191939D01*
X179125542Y-106191939D02*
X180325542Y-105391939D01*
X180211257Y-106649082D02*
X180268400Y-106706225D01*
X180268400Y-106706225D02*
X180325542Y-106649082D01*
X180325542Y-106649082D02*
X180268400Y-106591939D01*
X180268400Y-106591939D02*
X180211257Y-106649082D01*
X180211257Y-106649082D02*
X180325542Y-106649082D01*
X180325542Y-107391939D02*
X180268400Y-107277654D01*
X180268400Y-107277654D02*
X180211257Y-107220511D01*
X180211257Y-107220511D02*
X180096971Y-107163368D01*
X180096971Y-107163368D02*
X179754114Y-107163368D01*
X179754114Y-107163368D02*
X179639828Y-107220511D01*
X179639828Y-107220511D02*
X179582685Y-107277654D01*
X179582685Y-107277654D02*
X179525542Y-107391939D01*
X179525542Y-107391939D02*
X179525542Y-107563368D01*
X179525542Y-107563368D02*
X179582685Y-107677654D01*
X179582685Y-107677654D02*
X179639828Y-107734797D01*
X179639828Y-107734797D02*
X179754114Y-107791939D01*
X179754114Y-107791939D02*
X180096971Y-107791939D01*
X180096971Y-107791939D02*
X180211257Y-107734797D01*
X180211257Y-107734797D02*
X180268400Y-107677654D01*
X180268400Y-107677654D02*
X180325542Y-107563368D01*
X180325542Y-107563368D02*
X180325542Y-107391939D01*
X180325542Y-108306225D02*
X179525542Y-108306225D01*
X179754114Y-108306225D02*
X179639828Y-108363368D01*
X179639828Y-108363368D02*
X179582685Y-108420511D01*
X179582685Y-108420511D02*
X179525542Y-108534796D01*
X179525542Y-108534796D02*
X179525542Y-108649082D01*
X179525542Y-109563368D02*
X180496971Y-109563368D01*
X180496971Y-109563368D02*
X180611257Y-109506225D01*
X180611257Y-109506225D02*
X180668400Y-109449082D01*
X180668400Y-109449082D02*
X180725542Y-109334796D01*
X180725542Y-109334796D02*
X180725542Y-109163368D01*
X180725542Y-109163368D02*
X180668400Y-109049082D01*
X180268400Y-109563368D02*
X180325542Y-109449082D01*
X180325542Y-109449082D02*
X180325542Y-109220510D01*
X180325542Y-109220510D02*
X180268400Y-109106225D01*
X180268400Y-109106225D02*
X180211257Y-109049082D01*
X180211257Y-109049082D02*
X180096971Y-108991939D01*
X180096971Y-108991939D02*
X179754114Y-108991939D01*
X179754114Y-108991939D02*
X179639828Y-109049082D01*
X179639828Y-109049082D02*
X179582685Y-109106225D01*
X179582685Y-109106225D02*
X179525542Y-109220510D01*
X179525542Y-109220510D02*
X179525542Y-109449082D01*
X179525542Y-109449082D02*
X179582685Y-109563368D01*
D12*
G04 #@! TO.C,G\u002A\u002A\u002A*
G36*
X176438641Y-92159022D02*
G01*
X176502745Y-92228942D01*
X176850640Y-92861857D01*
X177121695Y-93838354D01*
X177312758Y-95143660D01*
X177420680Y-96763007D01*
X177438674Y-97413059D01*
X177417410Y-98943929D01*
X177290955Y-100154114D01*
X177055785Y-101068081D01*
X176708377Y-101710295D01*
X176308532Y-102059183D01*
X175713262Y-102181623D01*
X175240663Y-102123865D01*
X174932614Y-101910530D01*
X174798383Y-101494325D01*
X174823291Y-100828048D01*
X174992658Y-99864493D01*
X175154289Y-98801788D01*
X175222362Y-97121437D01*
X175101168Y-95411139D01*
X174796097Y-93836163D01*
X174663129Y-93319399D01*
X174596393Y-92894287D01*
X174640061Y-92600988D01*
X174793962Y-92317684D01*
X174908955Y-92176909D01*
X175390521Y-91910571D01*
X175951425Y-91899688D01*
X176438641Y-92159022D01*
G37*
G36*
X149843356Y-91936307D02*
G01*
X150210110Y-92184324D01*
X150370650Y-92671454D01*
X150335504Y-93426014D01*
X150115199Y-94476316D01*
X150031182Y-94909383D01*
X149939529Y-95862269D01*
X149906603Y-97027151D01*
X149931823Y-98309718D01*
X150014612Y-99615660D01*
X150154387Y-100850666D01*
X150181916Y-101482131D01*
X150041184Y-101909000D01*
X149896218Y-102032915D01*
X149417211Y-102169139D01*
X148867689Y-102099891D01*
X148406632Y-101832604D01*
X148394099Y-101819813D01*
X148067691Y-101279416D01*
X147808256Y-100452288D01*
X147622498Y-99412301D01*
X147517122Y-98233332D01*
X147498833Y-96989253D01*
X147574335Y-95753939D01*
X147750333Y-94601265D01*
X147818316Y-94289349D01*
X148101888Y-93236586D01*
X148408634Y-92510910D01*
X148755812Y-92079378D01*
X149160680Y-91909044D01*
X149259860Y-91899091D01*
X149843356Y-91936307D01*
G37*
G36*
X170466114Y-89314178D02*
G01*
X170801414Y-89432763D01*
X171143455Y-89723671D01*
X171590316Y-90254315D01*
X172431055Y-91450818D01*
X173300457Y-93188196D01*
X173819646Y-95020071D01*
X173996484Y-96968380D01*
X173861221Y-98929275D01*
X173417853Y-100818062D01*
X172673353Y-102520504D01*
X171635362Y-104013799D01*
X171581622Y-104076103D01*
X171155856Y-104505684D01*
X170777800Y-104707874D01*
X170312904Y-104758435D01*
X169764373Y-104692738D01*
X169325721Y-104425041D01*
X169188314Y-103966932D01*
X169355847Y-103335390D01*
X169832011Y-102547394D01*
X170280586Y-101881280D01*
X171076168Y-100269474D01*
X171543477Y-98581392D01*
X171681314Y-96863132D01*
X171488485Y-95160792D01*
X170963792Y-93520470D01*
X170106039Y-91988265D01*
X169826532Y-91587302D01*
X169410522Y-90965602D01*
X169172407Y-90539219D01*
X169086571Y-90239492D01*
X169127400Y-89997762D01*
X169269278Y-89745368D01*
X169283581Y-89723904D01*
X169648532Y-89392657D01*
X170198369Y-89297566D01*
X170466114Y-89314178D01*
G37*
G36*
X155377167Y-89356508D02*
G01*
X155797023Y-89622585D01*
X155926075Y-90078161D01*
X155759364Y-90695992D01*
X155291932Y-91448832D01*
X154582261Y-92521799D01*
X153845589Y-94173976D01*
X153446997Y-95923697D01*
X153401499Y-97721142D01*
X153644828Y-99221510D01*
X154202261Y-100775358D01*
X155091950Y-102345071D01*
X155503438Y-102977209D01*
X155783186Y-103469447D01*
X155899160Y-103816533D01*
X155877258Y-104100260D01*
X155743379Y-104402419D01*
X155644250Y-104541336D01*
X155318949Y-104710383D01*
X154740360Y-104758435D01*
X154430124Y-104752458D01*
X154102252Y-104693305D01*
X153826352Y-104518510D01*
X153515241Y-104165743D01*
X153081734Y-103572675D01*
X152637744Y-102911393D01*
X151905593Y-101524264D01*
X151414882Y-100048917D01*
X151118721Y-98360860D01*
X151105110Y-98243042D01*
X151017878Y-97319823D01*
X151003319Y-96589236D01*
X151065660Y-95898639D01*
X151209127Y-95095392D01*
X151224826Y-95019835D01*
X151551264Y-93823921D01*
X152000906Y-92664645D01*
X152539560Y-91595713D01*
X153133032Y-90670833D01*
X153747129Y-89943711D01*
X154347658Y-89468053D01*
X154900425Y-89297566D01*
X155377167Y-89356508D01*
G37*
G36*
X166304896Y-97995236D02*
G01*
X165871011Y-98993809D01*
X165140621Y-99876244D01*
X164124493Y-100587894D01*
X163518670Y-100793734D01*
X162631746Y-100879937D01*
X161718919Y-100795233D01*
X160942160Y-100541958D01*
X160175868Y-100044947D01*
X159375635Y-99188658D01*
X158870644Y-98165347D01*
X158694782Y-97028000D01*
X158713691Y-96844122D01*
X161123547Y-96844122D01*
X161181863Y-97472410D01*
X161539315Y-98048685D01*
X161914002Y-98328404D01*
X162560000Y-98500464D01*
X162834792Y-98469527D01*
X163432587Y-98178962D01*
X163865600Y-97664664D01*
X164032464Y-97028000D01*
X164001527Y-96753208D01*
X163710962Y-96155413D01*
X163196664Y-95722400D01*
X162560000Y-95555537D01*
X162366520Y-95567789D01*
X161753564Y-95799751D01*
X161326677Y-96255882D01*
X161123547Y-96844122D01*
X158713691Y-96844122D01*
X158779529Y-96203903D01*
X159149182Y-95197669D01*
X159760623Y-94369284D01*
X160557406Y-93741151D01*
X161483086Y-93335670D01*
X162481218Y-93175244D01*
X163495357Y-93282276D01*
X164469056Y-93679166D01*
X165345872Y-94388318D01*
X165719865Y-94849146D01*
X166240089Y-95868258D01*
X166431510Y-96935170D01*
X166420422Y-97028000D01*
X166304896Y-97995236D01*
G37*
G36*
X170174238Y-97399554D02*
G01*
X170098590Y-98202882D01*
X169989722Y-98930311D01*
X169853893Y-99481085D01*
X169651093Y-100039819D01*
X169254345Y-100911846D01*
X168768754Y-101655007D01*
X168102202Y-102424066D01*
X167687416Y-102835315D01*
X166359059Y-103836159D01*
X164900106Y-104499442D01*
X164365784Y-104615198D01*
X163437099Y-104697941D01*
X162283913Y-104708137D01*
X161693995Y-104690650D01*
X160953032Y-104639512D01*
X160375399Y-104537750D01*
X159834226Y-104359447D01*
X159202644Y-104078684D01*
X158781129Y-103862383D01*
X157472281Y-102946741D01*
X156384783Y-101797197D01*
X155547637Y-100467717D01*
X154989844Y-99012264D01*
X154740406Y-97484803D01*
X154766184Y-97031661D01*
X157221618Y-97031661D01*
X157324260Y-98255005D01*
X157655379Y-99328725D01*
X157811594Y-99627873D01*
X158509350Y-100570799D01*
X159417632Y-101403758D01*
X160418116Y-102011834D01*
X161275341Y-102280874D01*
X162468435Y-102380608D01*
X163706338Y-102231826D01*
X164868640Y-101839196D01*
X165780735Y-101290453D01*
X166731858Y-100370596D01*
X167414792Y-99260390D01*
X167805621Y-98016319D01*
X167880428Y-96694867D01*
X167615296Y-95352517D01*
X167514427Y-95086957D01*
X166948806Y-94112822D01*
X166147398Y-93202691D01*
X165209769Y-92456130D01*
X164235483Y-91972704D01*
X163865909Y-91864908D01*
X162554513Y-91705252D01*
X161266117Y-91864394D01*
X160060576Y-92314150D01*
X158997746Y-93026339D01*
X158137486Y-93972778D01*
X157539652Y-95125286D01*
X157351365Y-95800754D01*
X157221618Y-97031661D01*
X154766184Y-97031661D01*
X154828325Y-95939299D01*
X154857993Y-95776988D01*
X155354457Y-94128532D01*
X156177805Y-92648938D01*
X157329588Y-91335349D01*
X158170508Y-90615473D01*
X159087129Y-90029501D01*
X160057514Y-89655589D01*
X161181769Y-89456610D01*
X162560000Y-89395434D01*
X162590895Y-89395346D01*
X163482886Y-89401884D01*
X164124477Y-89440991D01*
X164629882Y-89533264D01*
X165113314Y-89699299D01*
X165688985Y-89959692D01*
X166357854Y-90317389D01*
X167597517Y-91215463D01*
X168628187Y-92290303D01*
X169396837Y-93481158D01*
X169850439Y-94727276D01*
X169972016Y-95161540D01*
X170103484Y-95463508D01*
X170139260Y-95541761D01*
X170200832Y-95968235D01*
X170210405Y-96621085D01*
X170206977Y-96694867D01*
X170174238Y-97399554D01*
G37*
D13*
G04 #@! TO.C,J4*
X141042000Y-81804000D02*
X141042000Y-84464000D01*
X141042000Y-81804000D02*
X151262000Y-81804000D01*
X141042000Y-84464000D02*
X151262000Y-84464000D01*
X151262000Y-81804000D02*
X151262000Y-84464000D01*
X153862000Y-83134000D02*
X153862000Y-84464000D01*
X153862000Y-84464000D02*
X152532000Y-84464000D01*
G04 #@! TO.C,J3*
X143982000Y-105554000D02*
X145312000Y-105554000D01*
X143982000Y-106884000D02*
X143982000Y-105554000D01*
X146582000Y-108214000D02*
X146582000Y-105554000D01*
X156802000Y-105554000D02*
X146582000Y-105554000D01*
X156802000Y-108214000D02*
X146582000Y-108214000D01*
X156802000Y-108214000D02*
X156802000Y-105554000D01*
G04 #@! TO.C,J6*
X141042000Y-85704000D02*
X141042000Y-88364000D01*
X141042000Y-85704000D02*
X148722000Y-85704000D01*
X141042000Y-88364000D02*
X148722000Y-88364000D01*
X148722000Y-85704000D02*
X148722000Y-88364000D01*
X151322000Y-87034000D02*
X151322000Y-88364000D01*
X151322000Y-88364000D02*
X149992000Y-88364000D01*
G04 #@! TO.C,J1*
X169379000Y-109154000D02*
X169379000Y-111814000D01*
X169379000Y-109154000D02*
X174519000Y-109154000D01*
X169379000Y-111814000D02*
X174519000Y-111814000D01*
X174519000Y-109154000D02*
X174519000Y-111814000D01*
X177119000Y-110484000D02*
X177119000Y-111814000D01*
X177119000Y-111814000D02*
X175789000Y-111814000D01*
G04 #@! TO.C,J5*
X147535000Y-109154000D02*
X148865000Y-109154000D01*
X147535000Y-110484000D02*
X147535000Y-109154000D01*
X150135000Y-111814000D02*
X150135000Y-109154000D01*
X165435000Y-109154000D02*
X150135000Y-109154000D01*
X165435000Y-111814000D02*
X150135000Y-111814000D01*
X165435000Y-111814000D02*
X165435000Y-109154000D01*
G04 #@! TD*
%LPC*%
D14*
G04 #@! TO.C,JP1*
X140864000Y-105158000D03*
X140864000Y-107698000D03*
G04 #@! TD*
D15*
G04 #@! TO.C,J4*
X152532000Y-83134000D03*
D16*
X149992000Y-83134000D03*
X147452000Y-83134000D03*
X144912000Y-83134000D03*
X142372000Y-83134000D03*
G04 #@! TD*
D15*
G04 #@! TO.C,J3*
X145312000Y-106884000D03*
D16*
X147852000Y-106884000D03*
X150392000Y-106884000D03*
X152932000Y-106884000D03*
X155472000Y-106884000D03*
G04 #@! TD*
D15*
G04 #@! TO.C,J6*
X149992000Y-87034000D03*
D16*
X147452000Y-87034000D03*
X144912000Y-87034000D03*
X142372000Y-87034000D03*
G04 #@! TD*
D15*
G04 #@! TO.C,J1*
X175789000Y-110484000D03*
D16*
X173249000Y-110484000D03*
X170709000Y-110484000D03*
G04 #@! TD*
D15*
G04 #@! TO.C,J5*
X148865000Y-110484000D03*
D16*
X151405000Y-110484000D03*
X153945000Y-110484000D03*
X156485000Y-110484000D03*
X159025000Y-110484000D03*
X161565000Y-110484000D03*
X164105000Y-110484000D03*
G04 #@! TD*
%LPD*%
M02*
