G04 #@! TF.GenerationSoftware,KiCad,Pcbnew,8.0.4*
G04 #@! TF.CreationDate,2024-08-01T22:41:17+02:00*
G04 #@! TF.ProjectId,Headless TEF Audio board,48656164-6c65-4737-9320-544546204175,1*
G04 #@! TF.SameCoordinates,Original*
G04 #@! TF.FileFunction,Copper,L1,Top*
G04 #@! TF.FilePolarity,Positive*
%FSLAX46Y46*%
G04 Gerber Fmt 4.6, Leading zero omitted, Abs format (unit mm)*
G04 Created by KiCad (PCBNEW 8.0.4) date 2024-08-01 22:41:17*
%MOMM*%
%LPD*%
G01*
G04 APERTURE LIST*
G04 Aperture macros list*
%AMRoundRect*
0 Rectangle with rounded corners*
0 $1 Rounding radius*
0 $2 $3 $4 $5 $6 $7 $8 $9 X,Y pos of 4 corners*
0 Add a 4 corners polygon primitive as box body*
4,1,4,$2,$3,$4,$5,$6,$7,$8,$9,$2,$3,0*
0 Add four circle primitives for the rounded corners*
1,1,$1+$1,$2,$3*
1,1,$1+$1,$4,$5*
1,1,$1+$1,$6,$7*
1,1,$1+$1,$8,$9*
0 Add four rect primitives between the rounded corners*
20,1,$1+$1,$2,$3,$4,$5,0*
20,1,$1+$1,$4,$5,$6,$7,0*
20,1,$1+$1,$6,$7,$8,$9,0*
20,1,$1+$1,$8,$9,$2,$3,0*%
G04 Aperture macros list end*
G04 #@! TA.AperFunction,SMDPad,CuDef*
%ADD10RoundRect,0.225000X0.250000X-0.225000X0.250000X0.225000X-0.250000X0.225000X-0.250000X-0.225000X0*%
G04 #@! TD*
G04 #@! TA.AperFunction,SMDPad,CuDef*
%ADD11RoundRect,0.150000X-0.150000X0.512500X-0.150000X-0.512500X0.150000X-0.512500X0.150000X0.512500X0*%
G04 #@! TD*
G04 #@! TA.AperFunction,ComponentPad*
%ADD12C,1.400000*%
G04 #@! TD*
G04 #@! TA.AperFunction,SMDPad,CuDef*
%ADD13RoundRect,0.200000X-0.275000X0.200000X-0.275000X-0.200000X0.275000X-0.200000X0.275000X0.200000X0*%
G04 #@! TD*
G04 #@! TA.AperFunction,SMDPad,CuDef*
%ADD14RoundRect,0.218750X-0.218750X-0.256250X0.218750X-0.256250X0.218750X0.256250X-0.218750X0.256250X0*%
G04 #@! TD*
G04 #@! TA.AperFunction,SMDPad,CuDef*
%ADD15RoundRect,0.200000X0.275000X-0.200000X0.275000X0.200000X-0.275000X0.200000X-0.275000X-0.200000X0*%
G04 #@! TD*
G04 #@! TA.AperFunction,SMDPad,CuDef*
%ADD16RoundRect,0.500000X0.500000X-1.000000X0.500000X1.000000X-0.500000X1.000000X-0.500000X-1.000000X0*%
G04 #@! TD*
G04 #@! TA.AperFunction,SMDPad,CuDef*
%ADD17RoundRect,0.375000X0.375000X-1.125000X0.375000X1.125000X-0.375000X1.125000X-0.375000X-1.125000X0*%
G04 #@! TD*
G04 #@! TA.AperFunction,SMDPad,CuDef*
%ADD18RoundRect,0.200000X0.200000X0.275000X-0.200000X0.275000X-0.200000X-0.275000X0.200000X-0.275000X0*%
G04 #@! TD*
G04 #@! TA.AperFunction,SMDPad,CuDef*
%ADD19RoundRect,0.250000X0.475000X-0.250000X0.475000X0.250000X-0.475000X0.250000X-0.475000X-0.250000X0*%
G04 #@! TD*
G04 #@! TA.AperFunction,SMDPad,CuDef*
%ADD20RoundRect,0.150000X0.150000X-0.825000X0.150000X0.825000X-0.150000X0.825000X-0.150000X-0.825000X0*%
G04 #@! TD*
G04 #@! TA.AperFunction,SMDPad,CuDef*
%ADD21RoundRect,0.243750X-0.456250X0.243750X-0.456250X-0.243750X0.456250X-0.243750X0.456250X0.243750X0*%
G04 #@! TD*
G04 #@! TA.AperFunction,SMDPad,CuDef*
%ADD22RoundRect,0.225000X-0.250000X0.225000X-0.250000X-0.225000X0.250000X-0.225000X0.250000X0.225000X0*%
G04 #@! TD*
G04 #@! TA.AperFunction,SMDPad,CuDef*
%ADD23RoundRect,0.250000X-0.475000X0.250000X-0.475000X-0.250000X0.475000X-0.250000X0.475000X0.250000X0*%
G04 #@! TD*
G04 #@! TA.AperFunction,SMDPad,CuDef*
%ADD24RoundRect,0.225000X-0.225000X-0.250000X0.225000X-0.250000X0.225000X0.250000X-0.225000X0.250000X0*%
G04 #@! TD*
G04 #@! TA.AperFunction,SMDPad,CuDef*
%ADD25RoundRect,0.200000X-0.200000X-0.275000X0.200000X-0.275000X0.200000X0.275000X-0.200000X0.275000X0*%
G04 #@! TD*
G04 #@! TA.AperFunction,ComponentPad*
%ADD26R,1.700000X1.700000*%
G04 #@! TD*
G04 #@! TA.AperFunction,ComponentPad*
%ADD27O,1.700000X1.700000*%
G04 #@! TD*
G04 #@! TA.AperFunction,ViaPad*
%ADD28C,0.600000*%
G04 #@! TD*
G04 #@! TA.AperFunction,Conductor*
%ADD29C,0.200000*%
G04 #@! TD*
G04 #@! TA.AperFunction,Conductor*
%ADD30C,0.800000*%
G04 #@! TD*
G04 APERTURE END LIST*
D10*
G04 #@! TO.P,C5,1*
G04 #@! TO.N,Net-(U1B-+)*
X169312000Y-95024000D03*
G04 #@! TO.P,C5,2*
G04 #@! TO.N,GND*
X169312000Y-93474000D03*
G04 #@! TD*
G04 #@! TO.P,C13,1*
G04 #@! TO.N,Net-(U2-OUT)*
X169312000Y-84610000D03*
G04 #@! TO.P,C13,2*
G04 #@! TO.N,GND*
X169312000Y-83060000D03*
G04 #@! TD*
G04 #@! TO.P,C10,1*
G04 #@! TO.N,Net-(U1C-V+)*
X158898000Y-91772000D03*
G04 #@! TO.P,C10,2*
G04 #@! TO.N,GND*
X158898000Y-90222000D03*
G04 #@! TD*
G04 #@! TO.P,C14,1*
G04 #@! TO.N,Net-(U2-OUT)*
X172106000Y-84584000D03*
G04 #@! TO.P,C14,2*
G04 #@! TO.N,GND*
X172106000Y-83034000D03*
G04 #@! TD*
D11*
G04 #@! TO.P,U2,1,IN*
G04 #@! TO.N,Net-(U2-EN)*
X166518000Y-82563000D03*
G04 #@! TO.P,U2,2,GND*
G04 #@! TO.N,GND*
X165568000Y-82563000D03*
G04 #@! TO.P,U2,3,EN*
G04 #@! TO.N,Net-(U2-EN)*
X164618000Y-82563000D03*
G04 #@! TO.P,U2,4,NC*
G04 #@! TO.N,unconnected-(U2-NC-Pad4)*
X164618000Y-84838000D03*
G04 #@! TO.P,U2,5,OUT*
G04 #@! TO.N,Net-(U2-OUT)*
X166518000Y-84838000D03*
G04 #@! TD*
D10*
G04 #@! TO.P,C6,1*
G04 #@! TO.N,Net-(U1B--)*
X161692000Y-88470000D03*
G04 #@! TO.P,C6,2*
G04 #@! TO.N,GND*
X161692000Y-86920000D03*
G04 #@! TD*
D12*
G04 #@! TO.P,JP1,1,A*
G04 #@! TO.N,GND*
X140864000Y-105158000D03*
G04 #@! TO.P,JP1,2,B*
G04 #@! TO.N,Net-(J5-Pin_2)*
X140864000Y-107698000D03*
G04 #@! TD*
D13*
G04 #@! TO.P,R5,1*
G04 #@! TO.N,Net-(C1-Pad1)*
X169312000Y-90172000D03*
G04 #@! TO.P,R5,2*
G04 #@! TO.N,Net-(U1B-+)*
X169312000Y-91822000D03*
G04 #@! TD*
D14*
G04 #@! TO.P,FB1,1*
G04 #@! TO.N,Net-(U1C-V+)*
X160117000Y-84838000D03*
G04 #@! TO.P,FB1,2*
G04 #@! TO.N,Net-(U2-OUT)*
X161692000Y-84838000D03*
G04 #@! TD*
D15*
G04 #@! TO.P,R4,1*
G04 #@! TO.N,Net-(C4-Pad2)*
X172106000Y-99900000D03*
G04 #@! TO.P,R4,2*
G04 #@! TO.N,Net-(U1A-+)*
X172106000Y-98250000D03*
G04 #@! TD*
D13*
G04 #@! TO.P,R3,1*
G04 #@! TO.N,Net-(C3-Pad2)*
X172106000Y-93424000D03*
G04 #@! TO.P,R3,2*
G04 #@! TO.N,Net-(U1B-+)*
X172106000Y-95074000D03*
G04 #@! TD*
D16*
G04 #@! TO.P,J2,1*
G04 #@! TO.N,GND*
X138892000Y-92005000D03*
G04 #@! TO.P,J2,2*
G04 #@! TO.N,Net-(C12-Pad2)*
X145392000Y-101784000D03*
D17*
G04 #@! TO.P,J2,3*
G04 #@! TO.N,Net-(C11-Pad2)*
X145092000Y-92005000D03*
G04 #@! TD*
D18*
G04 #@! TO.P,R6,1*
G04 #@! TO.N,Net-(C1-Pad1)*
X176550000Y-98300000D03*
G04 #@! TO.P,R6,2*
G04 #@! TO.N,Net-(U1A-+)*
X174900000Y-98300000D03*
G04 #@! TD*
D19*
G04 #@! TO.P,C3,1*
G04 #@! TO.N,Net-(J1-Pin_1)*
X175662000Y-106428000D03*
G04 #@! TO.P,C3,2*
G04 #@! TO.N,Net-(C3-Pad2)*
X175662000Y-104528000D03*
G04 #@! TD*
D15*
G04 #@! TO.P,R1,1*
G04 #@! TO.N,Net-(U1C-V+)*
X156104000Y-88457000D03*
G04 #@! TO.P,R1,2*
G04 #@! TO.N,Net-(C1-Pad1)*
X156104000Y-86807000D03*
G04 #@! TD*
D20*
G04 #@! TO.P,U1,1*
G04 #@! TO.N,Net-(R10-Pad2)*
X163216000Y-99186000D03*
G04 #@! TO.P,U1,2,-*
G04 #@! TO.N,Net-(U1A--)*
X164486000Y-99186000D03*
G04 #@! TO.P,U1,3,+*
G04 #@! TO.N,Net-(U1A-+)*
X165756000Y-99186000D03*
G04 #@! TO.P,U1,4,V-*
G04 #@! TO.N,GND*
X167026000Y-99186000D03*
G04 #@! TO.P,U1,5,+*
G04 #@! TO.N,Net-(U1B-+)*
X167026000Y-94236000D03*
G04 #@! TO.P,U1,6,-*
G04 #@! TO.N,Net-(U1B--)*
X165756000Y-94236000D03*
G04 #@! TO.P,U1,7*
G04 #@! TO.N,Net-(R11-Pad1)*
X164486000Y-94236000D03*
G04 #@! TO.P,U1,8,V+*
G04 #@! TO.N,Net-(U1C-V+)*
X163216000Y-94236000D03*
G04 #@! TD*
D10*
G04 #@! TO.P,C1,1*
G04 #@! TO.N,Net-(C1-Pad1)*
X172106000Y-88394000D03*
G04 #@! TO.P,C1,2*
G04 #@! TO.N,GND*
X172106000Y-86844000D03*
G04 #@! TD*
D21*
G04 #@! TO.P,F1,1*
G04 #@! TO.N,Net-(U2-EN)*
X138578000Y-86265000D03*
G04 #@! TO.P,F1,2*
G04 #@! TO.N,Net-(J6-Pin_4)*
X138578000Y-88140000D03*
G04 #@! TD*
D13*
G04 #@! TO.P,R13,1*
G04 #@! TO.N,Net-(C11-Pad2)*
X151024000Y-92078000D03*
G04 #@! TO.P,R13,2*
G04 #@! TO.N,GND*
X151024000Y-93728000D03*
G04 #@! TD*
D18*
G04 #@! TO.P,R11,1*
G04 #@! TO.N,Net-(R11-Pad1)*
X159152000Y-93982000D03*
G04 #@! TO.P,R11,2*
G04 #@! TO.N,Net-(C11-Pad1)*
X157502000Y-93982000D03*
G04 #@! TD*
D22*
G04 #@! TO.P,C7,1*
G04 #@! TO.N,Net-(U1A-+)*
X169312000Y-98300000D03*
G04 #@! TO.P,C7,2*
G04 #@! TO.N,GND*
X169312000Y-99850000D03*
G04 #@! TD*
D18*
G04 #@! TO.P,R12,1*
G04 #@! TO.N,Net-(R10-Pad2)*
X159152000Y-99824000D03*
G04 #@! TO.P,R12,2*
G04 #@! TO.N,Net-(C12-Pad1)*
X157502000Y-99824000D03*
G04 #@! TD*
D13*
G04 #@! TO.P,R2,1*
G04 #@! TO.N,Net-(C1-Pad1)*
X158898000Y-86807000D03*
G04 #@! TO.P,R2,2*
G04 #@! TO.N,GND*
X158898000Y-88457000D03*
G04 #@! TD*
D10*
G04 #@! TO.P,C9,1*
G04 #@! TO.N,Net-(U1C-V+)*
X161692000Y-91772000D03*
G04 #@! TO.P,C9,2*
G04 #@! TO.N,GND*
X161692000Y-90222000D03*
G04 #@! TD*
D13*
G04 #@! TO.P,R9,1*
G04 #@! TO.N,Net-(U1B--)*
X164486000Y-90172000D03*
G04 #@! TO.P,R9,2*
G04 #@! TO.N,Net-(R11-Pad1)*
X164486000Y-91822000D03*
G04 #@! TD*
G04 #@! TO.P,R15,1*
G04 #@! TO.N,Net-(U1C-V+)*
X138578000Y-105540000D03*
G04 #@! TO.P,R15,2*
G04 #@! TO.N,Net-(J5-Pin_2)*
X138578000Y-107190000D03*
G04 #@! TD*
D23*
G04 #@! TO.P,C12,1*
G04 #@! TO.N,Net-(C12-Pad1)*
X154072000Y-99953000D03*
G04 #@! TO.P,C12,2*
G04 #@! TO.N,Net-(C12-Pad2)*
X154072000Y-101853000D03*
G04 #@! TD*
D24*
G04 #@! TO.P,C8,1*
G04 #@! TO.N,Net-(U1A--)*
X165934000Y-104904000D03*
G04 #@! TO.P,C8,2*
G04 #@! TO.N,GND*
X167484000Y-104904000D03*
G04 #@! TD*
D15*
G04 #@! TO.P,R14,1*
G04 #@! TO.N,Net-(C12-Pad2)*
X151024000Y-101728000D03*
G04 #@! TO.P,R14,2*
G04 #@! TO.N,GND*
X151024000Y-100078000D03*
G04 #@! TD*
D19*
G04 #@! TO.P,C11,1*
G04 #@! TO.N,Net-(C11-Pad1)*
X154072000Y-93853000D03*
G04 #@! TO.P,C11,2*
G04 #@! TO.N,Net-(C11-Pad2)*
X154072000Y-91953000D03*
G04 #@! TD*
D18*
G04 #@! TO.P,R10,1*
G04 #@! TO.N,Net-(U1A--)*
X164295000Y-102110000D03*
G04 #@! TO.P,R10,2*
G04 #@! TO.N,Net-(R10-Pad2)*
X162645000Y-102110000D03*
G04 #@! TD*
D15*
G04 #@! TO.P,R7,1*
G04 #@! TO.N,Net-(U1B--)*
X164486000Y-88520000D03*
G04 #@! TO.P,R7,2*
G04 #@! TO.N,GND*
X164486000Y-86870000D03*
G04 #@! TD*
D10*
G04 #@! TO.P,C2,1*
G04 #@! TO.N,Net-(C1-Pad1)*
X169312000Y-88420000D03*
G04 #@! TO.P,C2,2*
G04 #@! TO.N,GND*
X169312000Y-86870000D03*
G04 #@! TD*
D19*
G04 #@! TO.P,C4,1*
G04 #@! TO.N,Net-(J1-Pin_3)*
X170836000Y-106428000D03*
G04 #@! TO.P,C4,2*
G04 #@! TO.N,Net-(C4-Pad2)*
X170836000Y-104528000D03*
G04 #@! TD*
D25*
G04 #@! TO.P,R8,1*
G04 #@! TO.N,Net-(U1A--)*
X165884000Y-102110000D03*
G04 #@! TO.P,R8,2*
G04 #@! TO.N,GND*
X167534000Y-102110000D03*
G04 #@! TD*
D26*
G04 #@! TO.P,J4,1,Pin_1*
G04 #@! TO.N,unconnected-(J4-Pin_1-Pad1)*
X152532000Y-83134000D03*
D27*
G04 #@! TO.P,J4,2,Pin_2*
G04 #@! TO.N,unconnected-(J4-Pin_2-Pad2)*
X149992000Y-83134000D03*
G04 #@! TO.P,J4,3,Pin_3*
G04 #@! TO.N,unconnected-(J4-Pin_3-Pad3)*
X147452000Y-83134000D03*
G04 #@! TO.P,J4,4,Pin_4*
G04 #@! TO.N,unconnected-(J4-Pin_4-Pad4)*
X144912000Y-83134000D03*
G04 #@! TO.P,J4,5,Pin_5*
G04 #@! TO.N,unconnected-(J4-Pin_5-Pad5)*
X142372000Y-83134000D03*
G04 #@! TD*
D26*
G04 #@! TO.P,J3,1,Pin_1*
G04 #@! TO.N,GND*
X145312000Y-106884000D03*
D27*
G04 #@! TO.P,J3,2,Pin_2*
G04 #@! TO.N,unconnected-(J3-Pin_2-Pad2)*
X147852000Y-106884000D03*
G04 #@! TO.P,J3,3,Pin_3*
G04 #@! TO.N,unconnected-(J3-Pin_3-Pad3)*
X150392000Y-106884000D03*
G04 #@! TO.P,J3,4,Pin_4*
G04 #@! TO.N,unconnected-(J3-Pin_4-Pad4)*
X152932000Y-106884000D03*
G04 #@! TO.P,J3,5,Pin_5*
G04 #@! TO.N,unconnected-(J3-Pin_5-Pad5)*
X155472000Y-106884000D03*
G04 #@! TD*
D26*
G04 #@! TO.P,J6,1,Pin_1*
G04 #@! TO.N,unconnected-(J6-Pin_1-Pad1)*
X149992000Y-87034000D03*
D27*
G04 #@! TO.P,J6,2,Pin_2*
G04 #@! TO.N,unconnected-(J6-Pin_2-Pad2)*
X147452000Y-87034000D03*
G04 #@! TO.P,J6,3,Pin_3*
G04 #@! TO.N,GND*
X144912000Y-87034000D03*
G04 #@! TO.P,J6,4,Pin_4*
G04 #@! TO.N,Net-(J6-Pin_4)*
X142372000Y-87034000D03*
G04 #@! TD*
D26*
G04 #@! TO.P,J1,1,Pin_1*
G04 #@! TO.N,Net-(J1-Pin_1)*
X175789000Y-110484000D03*
D27*
G04 #@! TO.P,J1,2,Pin_2*
G04 #@! TO.N,GND*
X173249000Y-110484000D03*
G04 #@! TO.P,J1,3,Pin_3*
G04 #@! TO.N,Net-(J1-Pin_3)*
X170709000Y-110484000D03*
G04 #@! TD*
D26*
G04 #@! TO.P,J5,1,Pin_1*
G04 #@! TO.N,unconnected-(J5-Pin_1-Pad1)*
X148865000Y-110484000D03*
D27*
G04 #@! TO.P,J5,2,Pin_2*
G04 #@! TO.N,Net-(J5-Pin_2)*
X151405000Y-110484000D03*
G04 #@! TO.P,J5,3,Pin_3*
G04 #@! TO.N,unconnected-(J5-Pin_3-Pad3)*
X153945000Y-110484000D03*
G04 #@! TO.P,J5,4,Pin_4*
G04 #@! TO.N,unconnected-(J5-Pin_4-Pad4)*
X156485000Y-110484000D03*
G04 #@! TO.P,J5,5,Pin_5*
G04 #@! TO.N,unconnected-(J5-Pin_5-Pad5)*
X159025000Y-110484000D03*
G04 #@! TO.P,J5,6,Pin_6*
G04 #@! TO.N,GND*
X161565000Y-110484000D03*
G04 #@! TO.P,J5,7,Pin_7*
G04 #@! TO.N,unconnected-(J5-Pin_7-Pad7)*
X164105000Y-110484000D03*
G04 #@! TD*
D28*
G04 #@! TO.N,GND*
X141319938Y-90969965D03*
X168843974Y-104908598D03*
X169312000Y-81790000D03*
X143275407Y-90969965D03*
X169166722Y-101714731D03*
X165502000Y-83822000D03*
X163082724Y-86458275D03*
X141307925Y-92987358D03*
X157807514Y-89294359D03*
X170675786Y-86283465D03*
X151024864Y-98862086D03*
X172106000Y-81790000D03*
X151031783Y-94861624D03*
X166983430Y-100841414D03*
X163066608Y-89726419D03*
G04 #@! TD*
D29*
G04 #@! TO.N,Net-(J1-Pin_1)*
X175789000Y-110484000D02*
X175789000Y-106555000D01*
X175789000Y-106555000D02*
X175662000Y-106428000D01*
G04 #@! TO.N,Net-(J1-Pin_3)*
X170709000Y-106555000D02*
X170836000Y-106428000D01*
X170709000Y-110484000D02*
X170709000Y-106555000D01*
G04 #@! TO.N,Net-(C4-Pad2)*
X170836000Y-104528000D02*
X172106000Y-103258000D01*
X172106000Y-103258000D02*
X172106000Y-99900000D01*
G04 #@! TO.N,Net-(U1A-+)*
X172106000Y-98250000D02*
X174850000Y-98250000D01*
X169312000Y-98300000D02*
X168923000Y-97911000D01*
X168923000Y-97911000D02*
X166056001Y-97911000D01*
X166056001Y-97911000D02*
X165756000Y-98211001D01*
X165756000Y-98211001D02*
X165756000Y-99186000D01*
X174850000Y-98250000D02*
X174900000Y-98300000D01*
X172056000Y-98300000D02*
X172106000Y-98250000D01*
X169312000Y-98300000D02*
X172056000Y-98300000D01*
G04 #@! TO.N,Net-(U1A--)*
X164295000Y-102110000D02*
X165884000Y-102110000D01*
X164486000Y-99186000D02*
X164486000Y-101919000D01*
X164486000Y-101919000D02*
X164295000Y-102110000D01*
X165884000Y-102492000D02*
X165934000Y-102542000D01*
X165934000Y-102542000D02*
X165934000Y-104904000D01*
X165884000Y-104804000D02*
X165984000Y-104904000D01*
X165884000Y-102110000D02*
X165884000Y-102492000D01*
G04 #@! TO.N,Net-(U1C-V+)*
X160117000Y-84838000D02*
X156358000Y-84838000D01*
X157958000Y-91772000D02*
X158898000Y-91772000D01*
X161692000Y-91772000D02*
X158898000Y-91772000D01*
X138578000Y-105540000D02*
X142388000Y-101730000D01*
X156104000Y-89918000D02*
X157958000Y-91772000D01*
X156104000Y-88457000D02*
X156104000Y-89664000D01*
X155151000Y-88457000D02*
X156104000Y-88457000D01*
X154834000Y-88140000D02*
X155151000Y-88457000D01*
X156104000Y-89664000D02*
X156104000Y-89918000D01*
X142388000Y-101730000D02*
X142388000Y-90172000D01*
X154834000Y-86362000D02*
X154834000Y-88140000D01*
X142896000Y-89664000D02*
X156104000Y-89664000D01*
X161692000Y-91772000D02*
X161692000Y-92712000D01*
X142388000Y-90172000D02*
X142896000Y-89664000D01*
X161692000Y-92712000D02*
X163216000Y-94236000D01*
X156358000Y-84838000D02*
X154834000Y-86362000D01*
G04 #@! TO.N,Net-(C11-Pad1)*
X154203000Y-93982000D02*
X154072000Y-94113000D01*
X157502000Y-93982000D02*
X154201000Y-93982000D01*
X154201000Y-93982000D02*
X154072000Y-93853000D01*
G04 #@! TO.N,Net-(C11-Pad2)*
X153937000Y-92078000D02*
X154072000Y-92213000D01*
X153947000Y-92078000D02*
X154072000Y-91953000D01*
X145165000Y-92078000D02*
X145092000Y-92005000D01*
X151024000Y-92078000D02*
X145165000Y-92078000D01*
X151024000Y-92078000D02*
X153947000Y-92078000D01*
G04 #@! TO.N,Net-(C12-Pad2)*
X153947000Y-101728000D02*
X154072000Y-101853000D01*
X151024000Y-101728000D02*
X150644000Y-101728000D01*
X150588000Y-101784000D02*
X145392000Y-101784000D01*
X151024000Y-101728000D02*
X153947000Y-101728000D01*
X153814000Y-101728000D02*
X154072000Y-101470000D01*
X150644000Y-101728000D02*
X150588000Y-101784000D01*
G04 #@! TO.N,Net-(C12-Pad1)*
X157502000Y-99824000D02*
X154201000Y-99824000D01*
X154326000Y-99824000D02*
X154072000Y-99570000D01*
X154201000Y-99824000D02*
X154072000Y-99953000D01*
G04 #@! TO.N,Net-(U2-OUT)*
X169084000Y-84838000D02*
X169312000Y-84610000D01*
X162654500Y-85800500D02*
X161692000Y-84838000D01*
X165555500Y-85800500D02*
X162654500Y-85800500D01*
X166518000Y-84838000D02*
X165555500Y-85800500D01*
X169618000Y-84584000D02*
X172106000Y-84584000D01*
X169312000Y-84610000D02*
X169592000Y-84610000D01*
X169592000Y-84610000D02*
X169618000Y-84584000D01*
X166518000Y-84838000D02*
X169084000Y-84838000D01*
G04 #@! TO.N,Net-(U2-EN)*
X164618000Y-81900501D02*
X164618000Y-82563000D01*
X166518000Y-82563000D02*
X166518000Y-81900501D01*
X162211000Y-82563000D02*
X164618000Y-82563000D01*
X162200000Y-82552000D02*
X162211000Y-82563000D01*
D30*
X138578000Y-86265000D02*
X139751000Y-85092000D01*
X140102000Y-85092000D02*
X154326000Y-85092000D01*
X139751000Y-85092000D02*
X140102000Y-85092000D01*
X157120000Y-82552000D02*
X162200000Y-82552000D01*
D29*
X166518000Y-81900501D02*
X166153499Y-81536000D01*
D30*
X154580000Y-85092000D02*
X157120000Y-82552000D01*
D29*
X166153499Y-81536000D02*
X164982501Y-81536000D01*
D30*
X154326000Y-85092000D02*
X154580000Y-85092000D01*
D29*
X164982501Y-81536000D02*
X164618000Y-81900501D01*
G04 #@! TO.N,Net-(R11-Pad1)*
X159152000Y-93982000D02*
X160681000Y-95511000D01*
X164185999Y-95511000D02*
X164486000Y-95210999D01*
X164486000Y-95210999D02*
X164486000Y-94236000D01*
X160681000Y-95511000D02*
X164185999Y-95511000D01*
X164486000Y-91822000D02*
X164486000Y-94236000D01*
G04 #@! TO.N,Net-(R10-Pad2)*
X162578000Y-99824000D02*
X163216000Y-99186000D01*
X162645000Y-99757000D02*
X163216000Y-99186000D01*
X159152000Y-99824000D02*
X162578000Y-99824000D01*
X162645000Y-102110000D02*
X162645000Y-99757000D01*
G04 #@! TO.N,Net-(C1-Pad1)*
X169312000Y-88420000D02*
X169312000Y-90172000D01*
X172106000Y-88394000D02*
X169338000Y-88394000D01*
X172614000Y-90172000D02*
X169312000Y-90172000D01*
X158898000Y-86807000D02*
X156104000Y-86807000D01*
X176550000Y-98300000D02*
X176550000Y-94108000D01*
X169338000Y-88394000D02*
X169312000Y-88420000D01*
X176550000Y-94108000D02*
X172614000Y-90172000D01*
X168562000Y-87670000D02*
X169312000Y-88420000D01*
X159761000Y-87670000D02*
X168562000Y-87670000D01*
X158898000Y-86807000D02*
X159761000Y-87670000D01*
G04 #@! TO.N,Net-(C3-Pad2)*
X175662000Y-96980000D02*
X172106000Y-93424000D01*
X175662000Y-104528000D02*
X175662000Y-96980000D01*
G04 #@! TO.N,Net-(U1B-+)*
X169590000Y-95074000D02*
X170836000Y-95074000D01*
X167814000Y-95024000D02*
X167026000Y-94236000D01*
X169312000Y-91822000D02*
X169946000Y-91822000D01*
X169540000Y-95024000D02*
X169590000Y-95074000D01*
X169946000Y-91822000D02*
X170836000Y-92712000D01*
X170836000Y-92712000D02*
X170836000Y-95074000D01*
X170836000Y-95074000D02*
X172106000Y-95074000D01*
X169312000Y-95024000D02*
X169540000Y-95024000D01*
X169312000Y-95024000D02*
X167814000Y-95024000D01*
G04 #@! TO.N,Net-(U1B--)*
X165756000Y-94236000D02*
X165756000Y-91442000D01*
X165756000Y-91442000D02*
X164486000Y-90172000D01*
X161742000Y-88520000D02*
X161692000Y-88470000D01*
X164486000Y-90172000D02*
X164486000Y-88520000D01*
X164486000Y-88520000D02*
X161742000Y-88520000D01*
D30*
G04 #@! TO.N,Net-(J6-Pin_4)*
X138578000Y-88140000D02*
X141266000Y-88140000D01*
X141266000Y-88140000D02*
X142372000Y-87034000D01*
D29*
G04 #@! TO.N,Net-(J5-Pin_2)*
X150816000Y-108398000D02*
X151384000Y-108966000D01*
X140864000Y-107698000D02*
X141564000Y-108398000D01*
X139086000Y-107698000D02*
X138578000Y-107190000D01*
X140864000Y-107698000D02*
X139086000Y-107698000D01*
X151384000Y-109220000D02*
X151405000Y-109241000D01*
X141564000Y-108398000D02*
X150816000Y-108398000D01*
X151405000Y-109241000D02*
X151405000Y-110484000D01*
X151384000Y-108966000D02*
X151384000Y-109220000D01*
G04 #@! TD*
G04 #@! TA.AperFunction,Conductor*
G04 #@! TO.N,GND*
G36*
X164712336Y-81292806D02*
G01*
X164730642Y-81337000D01*
X164712336Y-81381194D01*
X164433489Y-81660040D01*
X164433488Y-81660041D01*
X164401162Y-81692366D01*
X164370947Y-81707527D01*
X164371246Y-81708494D01*
X164366608Y-81709926D01*
X164366607Y-81709927D01*
X164261517Y-81761302D01*
X164261515Y-81761303D01*
X164178803Y-81844015D01*
X164127426Y-81949109D01*
X164117500Y-82017240D01*
X164117500Y-82200000D01*
X164099194Y-82244194D01*
X164055000Y-82262500D01*
X162762340Y-82262500D01*
X162718146Y-82244194D01*
X162708214Y-82231250D01*
X162680521Y-82183285D01*
X162568720Y-82071484D01*
X162568716Y-82071480D01*
X162472464Y-82015909D01*
X162431783Y-81992422D01*
X162431780Y-81992421D01*
X162279063Y-81951501D01*
X162279058Y-81951500D01*
X162279057Y-81951500D01*
X157199057Y-81951500D01*
X157040942Y-81951500D01*
X157040937Y-81951500D01*
X157006839Y-81960637D01*
X157000019Y-81962465D01*
X156888219Y-81992421D01*
X156888216Y-81992422D01*
X156791964Y-82047993D01*
X156751284Y-82071480D01*
X156751283Y-82071481D01*
X156751279Y-82071484D01*
X156639478Y-82183286D01*
X154349571Y-84473194D01*
X154305377Y-84491500D01*
X139833899Y-84491500D01*
X139833883Y-84491499D01*
X139830058Y-84491499D01*
X139671943Y-84491499D01*
X139671937Y-84491499D01*
X139519218Y-84532422D01*
X139519216Y-84532422D01*
X139474951Y-84557979D01*
X139382284Y-84611480D01*
X139382282Y-84611481D01*
X139382280Y-84611483D01*
X139382277Y-84611485D01*
X138435071Y-85558694D01*
X138390877Y-85577000D01*
X138068236Y-85577000D01*
X138060520Y-85577723D01*
X138038228Y-85579813D01*
X138038226Y-85579814D01*
X137911819Y-85624045D01*
X137804070Y-85703570D01*
X137724545Y-85811319D01*
X137680314Y-85937726D01*
X137680313Y-85937728D01*
X137677500Y-85967739D01*
X137677500Y-86562260D01*
X137680313Y-86592271D01*
X137680313Y-86592272D01*
X137680314Y-86592274D01*
X137694100Y-86631672D01*
X137724545Y-86718680D01*
X137743233Y-86744000D01*
X137804070Y-86826430D01*
X137877066Y-86880304D01*
X137911819Y-86905954D01*
X137911820Y-86905954D01*
X137911821Y-86905955D01*
X138038226Y-86950186D01*
X138068236Y-86953000D01*
X138068239Y-86953000D01*
X139087761Y-86953000D01*
X139087764Y-86953000D01*
X139117774Y-86950186D01*
X139244179Y-86905955D01*
X139351930Y-86826430D01*
X139431455Y-86718679D01*
X139475686Y-86592274D01*
X139478500Y-86562264D01*
X139478500Y-86239623D01*
X139496806Y-86195429D01*
X139981430Y-85710806D01*
X140025624Y-85692500D01*
X154246943Y-85692500D01*
X154497102Y-85692500D01*
X154497118Y-85692501D01*
X154500943Y-85692501D01*
X154659055Y-85692501D01*
X154659057Y-85692501D01*
X154811785Y-85651577D01*
X154873425Y-85615989D01*
X154948716Y-85572520D01*
X155060520Y-85460716D01*
X155060520Y-85460714D01*
X155065661Y-85455574D01*
X155065664Y-85455569D01*
X157350429Y-83170806D01*
X157394623Y-83152500D01*
X162279056Y-83152500D01*
X162279057Y-83152500D01*
X162431784Y-83111577D01*
X162568716Y-83032520D01*
X162680520Y-82920716D01*
X162695511Y-82894749D01*
X162733461Y-82865630D01*
X162749638Y-82863500D01*
X164055000Y-82863500D01*
X164099194Y-82881806D01*
X164117500Y-82926000D01*
X164117500Y-83108760D01*
X164117911Y-83111578D01*
X164127426Y-83176890D01*
X164127426Y-83176891D01*
X164127427Y-83176893D01*
X164178802Y-83281983D01*
X164261517Y-83364698D01*
X164366607Y-83416073D01*
X164434740Y-83426000D01*
X164434741Y-83426000D01*
X164801259Y-83426000D01*
X164801260Y-83426000D01*
X164869393Y-83416073D01*
X164974483Y-83364698D01*
X165057198Y-83281983D01*
X165077008Y-83241459D01*
X165112863Y-83209797D01*
X165160606Y-83212760D01*
X165181378Y-83230702D01*
X165181422Y-83230659D01*
X165182018Y-83231255D01*
X165184720Y-83233589D01*
X165185520Y-83234757D01*
X165258744Y-83307981D01*
X165353483Y-83349812D01*
X165376644Y-83352499D01*
X165467999Y-83352499D01*
X165468000Y-83352498D01*
X165468000Y-82525500D01*
X165486306Y-82481306D01*
X165530500Y-82463000D01*
X165605500Y-82463000D01*
X165649694Y-82481306D01*
X165668000Y-82525500D01*
X165668000Y-83352499D01*
X165759355Y-83352499D01*
X165782521Y-83349812D01*
X165782522Y-83349811D01*
X165877252Y-83307983D01*
X165877254Y-83307983D01*
X165950477Y-83234759D01*
X165951275Y-83233595D01*
X165952328Y-83232908D01*
X165954578Y-83230659D01*
X165955052Y-83231133D01*
X165991350Y-83207476D01*
X166038157Y-83217343D01*
X166058991Y-83241460D01*
X166078800Y-83281980D01*
X166078802Y-83281983D01*
X166161517Y-83364698D01*
X166266607Y-83416073D01*
X166334740Y-83426000D01*
X166334741Y-83426000D01*
X166701259Y-83426000D01*
X166701260Y-83426000D01*
X166769393Y-83416073D01*
X166874483Y-83364698D01*
X166920778Y-83318403D01*
X168710001Y-83318403D01*
X168719968Y-83386824D01*
X168719969Y-83386825D01*
X168771565Y-83492368D01*
X168854631Y-83575434D01*
X168960175Y-83627031D01*
X169028588Y-83636998D01*
X169028602Y-83636999D01*
X169211999Y-83636999D01*
X169412000Y-83636999D01*
X169595404Y-83636999D01*
X169663824Y-83627031D01*
X169663825Y-83627030D01*
X169769368Y-83575434D01*
X169852434Y-83492368D01*
X169904031Y-83386824D01*
X169914000Y-83318404D01*
X169914000Y-83292403D01*
X171504001Y-83292403D01*
X171513968Y-83360824D01*
X171513969Y-83360825D01*
X171565565Y-83466368D01*
X171648631Y-83549434D01*
X171754175Y-83601031D01*
X171822588Y-83610998D01*
X171822602Y-83610999D01*
X172005999Y-83610999D01*
X172206000Y-83610999D01*
X172389404Y-83610999D01*
X172457824Y-83601031D01*
X172457825Y-83601030D01*
X172563368Y-83549434D01*
X172646434Y-83466368D01*
X172698031Y-83360824D01*
X172708000Y-83292404D01*
X172708000Y-83134000D01*
X172206000Y-83134000D01*
X172206000Y-83610999D01*
X172005999Y-83610999D01*
X172006000Y-83610998D01*
X172006000Y-83134000D01*
X171504001Y-83134000D01*
X171504001Y-83292403D01*
X169914000Y-83292403D01*
X169914000Y-83160000D01*
X169412000Y-83160000D01*
X169412000Y-83636999D01*
X169211999Y-83636999D01*
X169212000Y-83636998D01*
X169212000Y-83160000D01*
X168710001Y-83160000D01*
X168710001Y-83318403D01*
X166920778Y-83318403D01*
X166957198Y-83281983D01*
X167008573Y-83176893D01*
X167018500Y-83108760D01*
X167018500Y-82801595D01*
X168710000Y-82801595D01*
X168710000Y-82960000D01*
X169212000Y-82960000D01*
X169412000Y-82960000D01*
X169913999Y-82960000D01*
X169913999Y-82801596D01*
X169910211Y-82775595D01*
X171504000Y-82775595D01*
X171504000Y-82934000D01*
X172006000Y-82934000D01*
X172206000Y-82934000D01*
X172707999Y-82934000D01*
X172707999Y-82775596D01*
X172698031Y-82707175D01*
X172698030Y-82707174D01*
X172646434Y-82601631D01*
X172563368Y-82518565D01*
X172457824Y-82466968D01*
X172389404Y-82457000D01*
X172206000Y-82457000D01*
X172206000Y-82934000D01*
X172006000Y-82934000D01*
X172006000Y-82457000D01*
X171822596Y-82457000D01*
X171754175Y-82466968D01*
X171754174Y-82466969D01*
X171648631Y-82518565D01*
X171565565Y-82601631D01*
X171513968Y-82707175D01*
X171504000Y-82775595D01*
X169910211Y-82775595D01*
X169904031Y-82733175D01*
X169904030Y-82733174D01*
X169852434Y-82627631D01*
X169769368Y-82544565D01*
X169663824Y-82492968D01*
X169595404Y-82483000D01*
X169412000Y-82483000D01*
X169412000Y-82960000D01*
X169212000Y-82960000D01*
X169212000Y-82483000D01*
X169028596Y-82483000D01*
X168960175Y-82492968D01*
X168960174Y-82492969D01*
X168854631Y-82544565D01*
X168771565Y-82627631D01*
X168719968Y-82733175D01*
X168710000Y-82801595D01*
X167018500Y-82801595D01*
X167018500Y-82017240D01*
X167008573Y-81949107D01*
X166957198Y-81844017D01*
X166874483Y-81761302D01*
X166769393Y-81709927D01*
X166769389Y-81709926D01*
X166764754Y-81708494D01*
X166765052Y-81707527D01*
X166734835Y-81692365D01*
X166423664Y-81381194D01*
X166405358Y-81337000D01*
X166423664Y-81292806D01*
X166467858Y-81274500D01*
X178132060Y-81274500D01*
X178133827Y-81274614D01*
X178136940Y-81274608D01*
X178136941Y-81274609D01*
X178200951Y-81274502D01*
X178204718Y-81274609D01*
X178500987Y-81292036D01*
X178508447Y-81292929D01*
X178798603Y-81345603D01*
X178805928Y-81347395D01*
X179087608Y-81434657D01*
X179094662Y-81437320D01*
X179363761Y-81557892D01*
X179370441Y-81561384D01*
X179623057Y-81713523D01*
X179629264Y-81717792D01*
X179790932Y-81844017D01*
X179861688Y-81899261D01*
X179867344Y-81904255D01*
X179976124Y-82012673D01*
X180076205Y-82112422D01*
X180081219Y-82118063D01*
X180263462Y-82349883D01*
X180267758Y-82356086D01*
X180420728Y-82608182D01*
X180424240Y-82614846D01*
X180465980Y-82707175D01*
X180545714Y-82883551D01*
X180548402Y-82890604D01*
X180636597Y-83171983D01*
X180638415Y-83179308D01*
X180692049Y-83469255D01*
X180692972Y-83476745D01*
X180707353Y-83708108D01*
X180711380Y-83772884D01*
X180711500Y-83776762D01*
X180711500Y-109775236D01*
X180711380Y-109779114D01*
X180692972Y-110075254D01*
X180692049Y-110082744D01*
X180638415Y-110372691D01*
X180636597Y-110380016D01*
X180548402Y-110661395D01*
X180545714Y-110668448D01*
X180424244Y-110937147D01*
X180420725Y-110943824D01*
X180267759Y-111195912D01*
X180263462Y-111202116D01*
X180081219Y-111433936D01*
X180076205Y-111439577D01*
X179867346Y-111647743D01*
X179861688Y-111652738D01*
X179629270Y-111834203D01*
X179623052Y-111838480D01*
X179370445Y-111990613D01*
X179363756Y-111994109D01*
X179094665Y-112114678D01*
X179087604Y-112117343D01*
X178805929Y-112204603D01*
X178798598Y-112206397D01*
X178555277Y-112250568D01*
X178508463Y-112259067D01*
X178500972Y-112259964D01*
X178204722Y-112277389D01*
X178200948Y-112277497D01*
X178133827Y-112277385D01*
X178132060Y-112277500D01*
X138837238Y-112277500D01*
X138833040Y-112277359D01*
X138801818Y-112275256D01*
X138541436Y-112257721D01*
X138533917Y-112256753D01*
X138248378Y-112202246D01*
X138241031Y-112200376D01*
X137964178Y-112111694D01*
X137957112Y-112108948D01*
X137693035Y-111987398D01*
X137686353Y-111983816D01*
X137438935Y-111831186D01*
X137432736Y-111826821D01*
X137205625Y-111645362D01*
X137200000Y-111640279D01*
X136996528Y-111432653D01*
X136991569Y-111426939D01*
X136814717Y-111196185D01*
X136810487Y-111189910D01*
X136662880Y-110939447D01*
X136659444Y-110932714D01*
X136543250Y-110666226D01*
X136540647Y-110659106D01*
X136528376Y-110617953D01*
X136457574Y-110380510D01*
X136455858Y-110373154D01*
X136407127Y-110086539D01*
X136406313Y-110079009D01*
X136406136Y-110075254D01*
X136392569Y-109787019D01*
X136392500Y-109784080D01*
X136392500Y-109781805D01*
X136392506Y-109780951D01*
X136393353Y-109718945D01*
X136392929Y-109715344D01*
X136392500Y-109708035D01*
X136392500Y-109614251D01*
X147814500Y-109614251D01*
X147814500Y-111353748D01*
X147826132Y-111412230D01*
X147826133Y-111412232D01*
X147870447Y-111478552D01*
X147936767Y-111522866D01*
X147936769Y-111522867D01*
X147995252Y-111534500D01*
X149734748Y-111534500D01*
X149793231Y-111522867D01*
X149859552Y-111478552D01*
X149903867Y-111412231D01*
X149915500Y-111353748D01*
X149915500Y-109614252D01*
X149903867Y-109555769D01*
X149903866Y-109555767D01*
X149859552Y-109489447D01*
X149793232Y-109445133D01*
X149793230Y-109445132D01*
X149734748Y-109433500D01*
X147995252Y-109433500D01*
X147936769Y-109445132D01*
X147936767Y-109445133D01*
X147870447Y-109489447D01*
X147826133Y-109555767D01*
X147826132Y-109555769D01*
X147814500Y-109614251D01*
X136392500Y-109614251D01*
X136392500Y-106958483D01*
X137902500Y-106958483D01*
X137902500Y-107421514D01*
X137902501Y-107421519D01*
X137917354Y-107515304D01*
X137917354Y-107515305D01*
X137974950Y-107628342D01*
X138064658Y-107718050D01*
X138177696Y-107775646D01*
X138177699Y-107775646D01*
X138177701Y-107775647D01*
X138271467Y-107790498D01*
X138271469Y-107790498D01*
X138271481Y-107790500D01*
X138727640Y-107790499D01*
X138771834Y-107808805D01*
X138845540Y-107882511D01*
X138901489Y-107938460D01*
X138970011Y-107978021D01*
X138993396Y-107984287D01*
X139046432Y-107998499D01*
X139046438Y-107998500D01*
X139969388Y-107998500D01*
X140013582Y-108016806D01*
X140028829Y-108041687D01*
X140036818Y-108066278D01*
X140036820Y-108066282D01*
X140036821Y-108066284D01*
X140131467Y-108230216D01*
X140244118Y-108355327D01*
X140258128Y-108370887D01*
X140258129Y-108370888D01*
X140411265Y-108482148D01*
X140411274Y-108482153D01*
X140584185Y-108559139D01*
X140584188Y-108559140D01*
X140584197Y-108559144D01*
X140769354Y-108598500D01*
X140958646Y-108598500D01*
X141143803Y-108559144D01*
X141212760Y-108528441D01*
X141260576Y-108527189D01*
X141282373Y-108541344D01*
X141323540Y-108582511D01*
X141379489Y-108638460D01*
X141448011Y-108678021D01*
X141471396Y-108684287D01*
X141524432Y-108698499D01*
X141524438Y-108698500D01*
X150665641Y-108698500D01*
X150709835Y-108716806D01*
X151065194Y-109072165D01*
X151083500Y-109116359D01*
X151083500Y-109259567D01*
X151102370Y-109329984D01*
X151104500Y-109346161D01*
X151104500Y-109431032D01*
X151086194Y-109475226D01*
X151060145Y-109490839D01*
X151001046Y-109508768D01*
X151001043Y-109508769D01*
X151001041Y-109508770D01*
X150818555Y-109606311D01*
X150818544Y-109606319D01*
X150658591Y-109737588D01*
X150658588Y-109737591D01*
X150527319Y-109897544D01*
X150527311Y-109897555D01*
X150429768Y-110080045D01*
X150429766Y-110080050D01*
X150369700Y-110278064D01*
X150369699Y-110278069D01*
X150349417Y-110483999D01*
X150349417Y-110484000D01*
X150369699Y-110689930D01*
X150369700Y-110689935D01*
X150429766Y-110887949D01*
X150429768Y-110887954D01*
X150527311Y-111070444D01*
X150527319Y-111070455D01*
X150630506Y-111196190D01*
X150658590Y-111230410D01*
X150818550Y-111361685D01*
X150818553Y-111361686D01*
X150818555Y-111361688D01*
X150873385Y-111390995D01*
X151001046Y-111459232D01*
X151199066Y-111519300D01*
X151405000Y-111539583D01*
X151610934Y-111519300D01*
X151808954Y-111459232D01*
X151991450Y-111361685D01*
X152151410Y-111230410D01*
X152282685Y-111070450D01*
X152380232Y-110887954D01*
X152440300Y-110689934D01*
X152460583Y-110484000D01*
X152460583Y-110483999D01*
X152889417Y-110483999D01*
X152889417Y-110484000D01*
X152909699Y-110689930D01*
X152909700Y-110689935D01*
X152969766Y-110887949D01*
X152969768Y-110887954D01*
X153067311Y-111070444D01*
X153067319Y-111070455D01*
X153170506Y-111196190D01*
X153198590Y-111230410D01*
X153358550Y-111361685D01*
X153358553Y-111361686D01*
X153358555Y-111361688D01*
X153413385Y-111390995D01*
X153541046Y-111459232D01*
X153739066Y-111519300D01*
X153945000Y-111539583D01*
X154150934Y-111519300D01*
X154348954Y-111459232D01*
X154531450Y-111361685D01*
X154691410Y-111230410D01*
X154822685Y-111070450D01*
X154920232Y-110887954D01*
X154980300Y-110689934D01*
X155000583Y-110484000D01*
X155000583Y-110483999D01*
X155429417Y-110483999D01*
X155429417Y-110484000D01*
X155449699Y-110689930D01*
X155449700Y-110689935D01*
X155509766Y-110887949D01*
X155509768Y-110887954D01*
X155607311Y-111070444D01*
X155607319Y-111070455D01*
X155710506Y-111196190D01*
X155738590Y-111230410D01*
X155898550Y-111361685D01*
X155898553Y-111361686D01*
X155898555Y-111361688D01*
X155953385Y-111390995D01*
X156081046Y-111459232D01*
X156279066Y-111519300D01*
X156485000Y-111539583D01*
X156690934Y-111519300D01*
X156888954Y-111459232D01*
X157071450Y-111361685D01*
X157231410Y-111230410D01*
X157362685Y-111070450D01*
X157460232Y-110887954D01*
X157520300Y-110689934D01*
X157540583Y-110484000D01*
X157540583Y-110483999D01*
X157969417Y-110483999D01*
X157969417Y-110484000D01*
X157989699Y-110689930D01*
X157989700Y-110689935D01*
X158049766Y-110887949D01*
X158049768Y-110887954D01*
X158147311Y-111070444D01*
X158147319Y-111070455D01*
X158250506Y-111196190D01*
X158278590Y-111230410D01*
X158438550Y-111361685D01*
X158438553Y-111361686D01*
X158438555Y-111361688D01*
X158493385Y-111390995D01*
X158621046Y-111459232D01*
X158819066Y-111519300D01*
X159025000Y-111539583D01*
X159230934Y-111519300D01*
X159428954Y-111459232D01*
X159611450Y-111361685D01*
X159771410Y-111230410D01*
X159902685Y-111070450D01*
X160000232Y-110887954D01*
X160060300Y-110689934D01*
X160080583Y-110484000D01*
X160070734Y-110383999D01*
X160593121Y-110383999D01*
X160593122Y-110384000D01*
X161074157Y-110384000D01*
X161065000Y-110418174D01*
X161065000Y-110549826D01*
X161074157Y-110584000D01*
X160593122Y-110584000D01*
X160602137Y-110675524D01*
X160658004Y-110859692D01*
X160748720Y-111029412D01*
X160748728Y-111029423D01*
X160870812Y-111178184D01*
X160870815Y-111178187D01*
X161019576Y-111300271D01*
X161019587Y-111300279D01*
X161189307Y-111390995D01*
X161373476Y-111446863D01*
X161465000Y-111455876D01*
X161465000Y-110974842D01*
X161499174Y-110984000D01*
X161630826Y-110984000D01*
X161665000Y-110974842D01*
X161665000Y-111455876D01*
X161756523Y-111446863D01*
X161940692Y-111390995D01*
X162110412Y-111300279D01*
X162110423Y-111300271D01*
X162259184Y-111178187D01*
X162259187Y-111178184D01*
X162381271Y-111029423D01*
X162381279Y-111029412D01*
X162471995Y-110859692D01*
X162527862Y-110675524D01*
X162536878Y-110584000D01*
X162055843Y-110584000D01*
X162065000Y-110549826D01*
X162065000Y-110483999D01*
X163049417Y-110483999D01*
X163049417Y-110484000D01*
X163069699Y-110689930D01*
X163069700Y-110689935D01*
X163129766Y-110887949D01*
X163129768Y-110887954D01*
X163227311Y-111070444D01*
X163227319Y-111070455D01*
X163330506Y-111196190D01*
X163358590Y-111230410D01*
X163518550Y-111361685D01*
X163518553Y-111361686D01*
X163518555Y-111361688D01*
X163573385Y-111390995D01*
X163701046Y-111459232D01*
X163899066Y-111519300D01*
X164105000Y-111539583D01*
X164310934Y-111519300D01*
X164508954Y-111459232D01*
X164691450Y-111361685D01*
X164851410Y-111230410D01*
X164982685Y-111070450D01*
X165080232Y-110887954D01*
X165140300Y-110689934D01*
X165160583Y-110484000D01*
X165160583Y-110483999D01*
X169653417Y-110483999D01*
X169653417Y-110484000D01*
X169673699Y-110689930D01*
X169673700Y-110689935D01*
X169733766Y-110887949D01*
X169733768Y-110887954D01*
X169831311Y-111070444D01*
X169831319Y-111070455D01*
X169934506Y-111196190D01*
X169962590Y-111230410D01*
X170122550Y-111361685D01*
X170122553Y-111361686D01*
X170122555Y-111361688D01*
X170177385Y-111390995D01*
X170305046Y-111459232D01*
X170503066Y-111519300D01*
X170709000Y-111539583D01*
X170914934Y-111519300D01*
X171112954Y-111459232D01*
X171295450Y-111361685D01*
X171455410Y-111230410D01*
X171586685Y-111070450D01*
X171684232Y-110887954D01*
X171744300Y-110689934D01*
X171764583Y-110484000D01*
X171754734Y-110383999D01*
X172277121Y-110383999D01*
X172277122Y-110384000D01*
X172758157Y-110384000D01*
X172749000Y-110418174D01*
X172749000Y-110549826D01*
X172758157Y-110584000D01*
X172277122Y-110584000D01*
X172286137Y-110675524D01*
X172342004Y-110859692D01*
X172432720Y-111029412D01*
X172432728Y-111029423D01*
X172554812Y-111178184D01*
X172554815Y-111178187D01*
X172703576Y-111300271D01*
X172703587Y-111300279D01*
X172873307Y-111390995D01*
X173057476Y-111446863D01*
X173149000Y-111455876D01*
X173149000Y-110974842D01*
X173183174Y-110984000D01*
X173314826Y-110984000D01*
X173349000Y-110974842D01*
X173349000Y-111455876D01*
X173440523Y-111446863D01*
X173624692Y-111390995D01*
X173794412Y-111300279D01*
X173794423Y-111300271D01*
X173943184Y-111178187D01*
X173943187Y-111178184D01*
X174065271Y-111029423D01*
X174065279Y-111029412D01*
X174155995Y-110859692D01*
X174211862Y-110675524D01*
X174220878Y-110584000D01*
X173739843Y-110584000D01*
X173749000Y-110549826D01*
X173749000Y-110418174D01*
X173739843Y-110384000D01*
X174220878Y-110384000D01*
X174220878Y-110383999D01*
X174211862Y-110292475D01*
X174155995Y-110108307D01*
X174065279Y-109938587D01*
X174065271Y-109938576D01*
X173943187Y-109789815D01*
X173943184Y-109789812D01*
X173794423Y-109667728D01*
X173794412Y-109667720D01*
X173624692Y-109577004D01*
X173440524Y-109521137D01*
X173349000Y-109512121D01*
X173349000Y-109993157D01*
X173314826Y-109984000D01*
X173183174Y-109984000D01*
X173149000Y-109993157D01*
X173149000Y-109512121D01*
X173148999Y-109512121D01*
X173057475Y-109521137D01*
X172873307Y-109577004D01*
X172703587Y-109667720D01*
X172703576Y-109667728D01*
X172554815Y-109789812D01*
X172554812Y-109789815D01*
X172432728Y-109938576D01*
X172432720Y-109938587D01*
X172342004Y-110108307D01*
X172286137Y-110292475D01*
X172277121Y-110383999D01*
X171754734Y-110383999D01*
X171744300Y-110278066D01*
X171684232Y-110080046D01*
X171586685Y-109897550D01*
X171455410Y-109737590D01*
X171428589Y-109715579D01*
X171295455Y-109606319D01*
X171295453Y-109606318D01*
X171295450Y-109606315D01*
X171295448Y-109606313D01*
X171295444Y-109606311D01*
X171112958Y-109508770D01*
X171112957Y-109508769D01*
X171112954Y-109508768D01*
X171053855Y-109490840D01*
X171016880Y-109460494D01*
X171009500Y-109431032D01*
X171009500Y-107191000D01*
X171027806Y-107146806D01*
X171072000Y-107128500D01*
X171365262Y-107128500D01*
X171365266Y-107128500D01*
X171395699Y-107125646D01*
X171523882Y-107080793D01*
X171633150Y-107000150D01*
X171713793Y-106890882D01*
X171758646Y-106762699D01*
X171761500Y-106732266D01*
X171761500Y-106123737D01*
X174736500Y-106123737D01*
X174736500Y-106732262D01*
X174739353Y-106762696D01*
X174739354Y-106762701D01*
X174784207Y-106890882D01*
X174784207Y-106890883D01*
X174824528Y-106945516D01*
X174864850Y-107000150D01*
X174974118Y-107080793D01*
X175102301Y-107125646D01*
X175132734Y-107128500D01*
X175426000Y-107128500D01*
X175470194Y-107146806D01*
X175488500Y-107191000D01*
X175488500Y-109371000D01*
X175470194Y-109415194D01*
X175426000Y-109433500D01*
X174919252Y-109433500D01*
X174860769Y-109445132D01*
X174860767Y-109445133D01*
X174794447Y-109489447D01*
X174750133Y-109555767D01*
X174750132Y-109555769D01*
X174738500Y-109614251D01*
X174738500Y-111353748D01*
X174750132Y-111412230D01*
X174750133Y-111412232D01*
X174794447Y-111478552D01*
X174860767Y-111522866D01*
X174860769Y-111522867D01*
X174919252Y-111534500D01*
X176658748Y-111534500D01*
X176717231Y-111522867D01*
X176783552Y-111478552D01*
X176827867Y-111412231D01*
X176839500Y-111353748D01*
X176839500Y-109614252D01*
X176827867Y-109555769D01*
X176827866Y-109555767D01*
X176783552Y-109489447D01*
X176717232Y-109445133D01*
X176717230Y-109445132D01*
X176658748Y-109433500D01*
X176152000Y-109433500D01*
X176107806Y-109415194D01*
X176089500Y-109371000D01*
X176089500Y-107191000D01*
X176107806Y-107146806D01*
X176152000Y-107128500D01*
X176191262Y-107128500D01*
X176191266Y-107128500D01*
X176221699Y-107125646D01*
X176349882Y-107080793D01*
X176459150Y-107000150D01*
X176539793Y-106890882D01*
X176584646Y-106762699D01*
X176587500Y-106732266D01*
X176587500Y-106123734D01*
X176584646Y-106093301D01*
X176539793Y-105965118D01*
X176523054Y-105942438D01*
X176498205Y-105908768D01*
X176459150Y-105855850D01*
X176349882Y-105775207D01*
X176221701Y-105730354D01*
X176221696Y-105730353D01*
X176201699Y-105728478D01*
X176191266Y-105727500D01*
X175132734Y-105727500D01*
X175123124Y-105728401D01*
X175102303Y-105730353D01*
X175102298Y-105730354D01*
X174974117Y-105775207D01*
X174974116Y-105775207D01*
X174864850Y-105855850D01*
X174784207Y-105965116D01*
X174784207Y-105965117D01*
X174739354Y-106093298D01*
X174739353Y-106093303D01*
X174736500Y-106123737D01*
X171761500Y-106123737D01*
X171761500Y-106123734D01*
X171758646Y-106093301D01*
X171713793Y-105965118D01*
X171697054Y-105942438D01*
X171672205Y-105908768D01*
X171633150Y-105855850D01*
X171523882Y-105775207D01*
X171395701Y-105730354D01*
X171395696Y-105730353D01*
X171375699Y-105728478D01*
X171365266Y-105727500D01*
X170306734Y-105727500D01*
X170297124Y-105728401D01*
X170276303Y-105730353D01*
X170276298Y-105730354D01*
X170148117Y-105775207D01*
X170148116Y-105775207D01*
X170038850Y-105855850D01*
X169958207Y-105965116D01*
X169958207Y-105965117D01*
X169913354Y-106093298D01*
X169913353Y-106093303D01*
X169910500Y-106123737D01*
X169910500Y-106732262D01*
X169913353Y-106762696D01*
X169913354Y-106762701D01*
X169958207Y-106890882D01*
X169958207Y-106890883D01*
X169998528Y-106945516D01*
X170038850Y-107000150D01*
X170148118Y-107080793D01*
X170276301Y-107125646D01*
X170306734Y-107128500D01*
X170346000Y-107128500D01*
X170390194Y-107146806D01*
X170408500Y-107191000D01*
X170408500Y-109431032D01*
X170390194Y-109475226D01*
X170364145Y-109490839D01*
X170305046Y-109508768D01*
X170305043Y-109508769D01*
X170305041Y-109508770D01*
X170122555Y-109606311D01*
X170122544Y-109606319D01*
X169962591Y-109737588D01*
X169962588Y-109737591D01*
X169831319Y-109897544D01*
X169831311Y-109897555D01*
X169733768Y-110080045D01*
X169733766Y-110080050D01*
X169673700Y-110278064D01*
X169673699Y-110278069D01*
X169653417Y-110483999D01*
X165160583Y-110483999D01*
X165140300Y-110278066D01*
X165080232Y-110080046D01*
X164982685Y-109897550D01*
X164851410Y-109737590D01*
X164824589Y-109715579D01*
X164691455Y-109606319D01*
X164691453Y-109606318D01*
X164691450Y-109606315D01*
X164691448Y-109606313D01*
X164691444Y-109606311D01*
X164508954Y-109508768D01*
X164508949Y-109508766D01*
X164310935Y-109448700D01*
X164310930Y-109448699D01*
X164105000Y-109428417D01*
X163899069Y-109448699D01*
X163899064Y-109448700D01*
X163701050Y-109508766D01*
X163701045Y-109508768D01*
X163518555Y-109606311D01*
X163518544Y-109606319D01*
X163358591Y-109737588D01*
X163358588Y-109737591D01*
X163227319Y-109897544D01*
X163227311Y-109897555D01*
X163129768Y-110080045D01*
X163129766Y-110080050D01*
X163069700Y-110278064D01*
X163069699Y-110278069D01*
X163049417Y-110483999D01*
X162065000Y-110483999D01*
X162065000Y-110418174D01*
X162055843Y-110384000D01*
X162536878Y-110384000D01*
X162536878Y-110383999D01*
X162527862Y-110292475D01*
X162471995Y-110108307D01*
X162381279Y-109938587D01*
X162381271Y-109938576D01*
X162259187Y-109789815D01*
X162259184Y-109789812D01*
X162110423Y-109667728D01*
X162110412Y-109667720D01*
X161940692Y-109577004D01*
X161756524Y-109521137D01*
X161665000Y-109512121D01*
X161665000Y-109993157D01*
X161630826Y-109984000D01*
X161499174Y-109984000D01*
X161465000Y-109993157D01*
X161465000Y-109512121D01*
X161464999Y-109512121D01*
X161373475Y-109521137D01*
X161189307Y-109577004D01*
X161019587Y-109667720D01*
X161019576Y-109667728D01*
X160870815Y-109789812D01*
X160870812Y-109789815D01*
X160748728Y-109938576D01*
X160748720Y-109938587D01*
X160658004Y-110108307D01*
X160602137Y-110292475D01*
X160593121Y-110383999D01*
X160070734Y-110383999D01*
X160060300Y-110278066D01*
X160000232Y-110080046D01*
X159902685Y-109897550D01*
X159771410Y-109737590D01*
X159744589Y-109715579D01*
X159611455Y-109606319D01*
X159611453Y-109606318D01*
X159611450Y-109606315D01*
X159611448Y-109606313D01*
X159611444Y-109606311D01*
X159428954Y-109508768D01*
X159428949Y-109508766D01*
X159230935Y-109448700D01*
X159230930Y-109448699D01*
X159025000Y-109428417D01*
X158819069Y-109448699D01*
X158819064Y-109448700D01*
X158621050Y-109508766D01*
X158621045Y-109508768D01*
X158438555Y-109606311D01*
X158438544Y-109606319D01*
X158278591Y-109737588D01*
X158278588Y-109737591D01*
X158147319Y-109897544D01*
X158147311Y-109897555D01*
X158049768Y-110080045D01*
X158049766Y-110080050D01*
X157989700Y-110278064D01*
X157989699Y-110278069D01*
X157969417Y-110483999D01*
X157540583Y-110483999D01*
X157520300Y-110278066D01*
X157460232Y-110080046D01*
X157362685Y-109897550D01*
X157231410Y-109737590D01*
X157204589Y-109715579D01*
X157071455Y-109606319D01*
X157071453Y-109606318D01*
X157071450Y-109606315D01*
X157071448Y-109606313D01*
X157071444Y-109606311D01*
X156888954Y-109508768D01*
X156888949Y-109508766D01*
X156690935Y-109448700D01*
X156690930Y-109448699D01*
X156485000Y-109428417D01*
X156279069Y-109448699D01*
X156279064Y-109448700D01*
X156081050Y-109508766D01*
X156081045Y-109508768D01*
X155898555Y-109606311D01*
X155898544Y-109606319D01*
X155738591Y-109737588D01*
X155738588Y-109737591D01*
X155607319Y-109897544D01*
X155607311Y-109897555D01*
X155509768Y-110080045D01*
X155509766Y-110080050D01*
X155449700Y-110278064D01*
X155449699Y-110278069D01*
X155429417Y-110483999D01*
X155000583Y-110483999D01*
X154980300Y-110278066D01*
X154920232Y-110080046D01*
X154822685Y-109897550D01*
X154691410Y-109737590D01*
X154664589Y-109715579D01*
X154531455Y-109606319D01*
X154531453Y-109606318D01*
X154531450Y-109606315D01*
X154531448Y-109606313D01*
X154531444Y-109606311D01*
X154348954Y-109508768D01*
X154348949Y-109508766D01*
X154150935Y-109448700D01*
X154150930Y-109448699D01*
X153945000Y-109428417D01*
X153739069Y-109448699D01*
X153739064Y-109448700D01*
X153541050Y-109508766D01*
X153541045Y-109508768D01*
X153358555Y-109606311D01*
X153358544Y-109606319D01*
X153198591Y-109737588D01*
X153198588Y-109737591D01*
X153067319Y-109897544D01*
X153067311Y-109897555D01*
X152969768Y-110080045D01*
X152969766Y-110080050D01*
X152909700Y-110278064D01*
X152909699Y-110278069D01*
X152889417Y-110483999D01*
X152460583Y-110483999D01*
X152440300Y-110278066D01*
X152380232Y-110080046D01*
X152282685Y-109897550D01*
X152151410Y-109737590D01*
X152124589Y-109715579D01*
X151991455Y-109606319D01*
X151991453Y-109606318D01*
X151991450Y-109606315D01*
X151991448Y-109606313D01*
X151991444Y-109606311D01*
X151808958Y-109508770D01*
X151808957Y-109508769D01*
X151808954Y-109508768D01*
X151749855Y-109490840D01*
X151712880Y-109460494D01*
X151705500Y-109431032D01*
X151705500Y-109201438D01*
X151705499Y-109201432D01*
X151686630Y-109131015D01*
X151684500Y-109114838D01*
X151684500Y-108926438D01*
X151684499Y-108926432D01*
X151673616Y-108885822D01*
X151664021Y-108850011D01*
X151624460Y-108781489D01*
X151568511Y-108725540D01*
X151325119Y-108482148D01*
X151000516Y-108157544D01*
X151000512Y-108157541D01*
X151000511Y-108157540D01*
X150931989Y-108117979D01*
X150931988Y-108117978D01*
X150931987Y-108117978D01*
X150855567Y-108097500D01*
X150855562Y-108097500D01*
X141767061Y-108097500D01*
X141722867Y-108079194D01*
X141704561Y-108035000D01*
X141707620Y-108015687D01*
X141749673Y-107886258D01*
X141749674Y-107886256D01*
X141764362Y-107746507D01*
X144334999Y-107746507D01*
X144342369Y-107783553D01*
X144342369Y-107783554D01*
X144370438Y-107825561D01*
X144412446Y-107853630D01*
X144449493Y-107861000D01*
X145212000Y-107861000D01*
X145212000Y-107374842D01*
X145246174Y-107384000D01*
X145377826Y-107384000D01*
X145412000Y-107374842D01*
X145412000Y-107861000D01*
X146174507Y-107861000D01*
X146211553Y-107853630D01*
X146211554Y-107853630D01*
X146253561Y-107825561D01*
X146281630Y-107783554D01*
X146281630Y-107783553D01*
X146289000Y-107746507D01*
X146289000Y-106984000D01*
X145802843Y-106984000D01*
X145812000Y-106949826D01*
X145812000Y-106883999D01*
X146796417Y-106883999D01*
X146796417Y-106884000D01*
X146816699Y-107089930D01*
X146816700Y-107089935D01*
X146876766Y-107287949D01*
X146876768Y-107287954D01*
X146974311Y-107470444D01*
X146974319Y-107470455D01*
X147103892Y-107628342D01*
X147105590Y-107630410D01*
X147265550Y-107761685D01*
X147265553Y-107761686D01*
X147265555Y-107761688D01*
X147340912Y-107801967D01*
X147448046Y-107859232D01*
X147646066Y-107919300D01*
X147852000Y-107939583D01*
X148057934Y-107919300D01*
X148255954Y-107859232D01*
X148438450Y-107761685D01*
X148598410Y-107630410D01*
X148729685Y-107470450D01*
X148827232Y-107287954D01*
X148887300Y-107089934D01*
X148907583Y-106884000D01*
X148907583Y-106883999D01*
X149336417Y-106883999D01*
X149336417Y-106884000D01*
X149356699Y-107089930D01*
X149356700Y-107089935D01*
X149416766Y-107287949D01*
X149416768Y-107287954D01*
X149514311Y-107470444D01*
X149514319Y-107470455D01*
X149643892Y-107628342D01*
X149645590Y-107630410D01*
X149805550Y-107761685D01*
X149805553Y-107761686D01*
X149805555Y-107761688D01*
X149880912Y-107801967D01*
X149988046Y-107859232D01*
X150186066Y-107919300D01*
X150392000Y-107939583D01*
X150597934Y-107919300D01*
X150795954Y-107859232D01*
X150978450Y-107761685D01*
X151138410Y-107630410D01*
X151269685Y-107470450D01*
X151367232Y-107287954D01*
X151427300Y-107089934D01*
X151447583Y-106884000D01*
X151447583Y-106883999D01*
X151876417Y-106883999D01*
X151876417Y-106884000D01*
X151896699Y-107089930D01*
X151896700Y-107089935D01*
X151956766Y-107287949D01*
X151956768Y-107287954D01*
X152054311Y-107470444D01*
X152054319Y-107470455D01*
X152183892Y-107628342D01*
X152185590Y-107630410D01*
X152345550Y-107761685D01*
X152345553Y-107761686D01*
X152345555Y-107761688D01*
X152420912Y-107801967D01*
X152528046Y-107859232D01*
X152726066Y-107919300D01*
X152932000Y-107939583D01*
X153137934Y-107919300D01*
X153335954Y-107859232D01*
X153518450Y-107761685D01*
X153678410Y-107630410D01*
X153809685Y-107470450D01*
X153907232Y-107287954D01*
X153967300Y-107089934D01*
X153987583Y-106884000D01*
X153987583Y-106883999D01*
X154416417Y-106883999D01*
X154416417Y-106884000D01*
X154436699Y-107089930D01*
X154436700Y-107089935D01*
X154496766Y-107287949D01*
X154496768Y-107287954D01*
X154594311Y-107470444D01*
X154594319Y-107470455D01*
X154723892Y-107628342D01*
X154725590Y-107630410D01*
X154885550Y-107761685D01*
X154885553Y-107761686D01*
X154885555Y-107761688D01*
X154960912Y-107801967D01*
X155068046Y-107859232D01*
X155266066Y-107919300D01*
X155472000Y-107939583D01*
X155677934Y-107919300D01*
X155875954Y-107859232D01*
X156058450Y-107761685D01*
X156218410Y-107630410D01*
X156349685Y-107470450D01*
X156447232Y-107287954D01*
X156507300Y-107089934D01*
X156527583Y-106884000D01*
X156525681Y-106864694D01*
X156512638Y-106732262D01*
X156507300Y-106678066D01*
X156447232Y-106480046D01*
X156349685Y-106297550D01*
X156220798Y-106140500D01*
X156218411Y-106137591D01*
X156218408Y-106137588D01*
X156058455Y-106006319D01*
X156058453Y-106006318D01*
X156058450Y-106006315D01*
X156058448Y-106006313D01*
X156058444Y-106006311D01*
X155875954Y-105908768D01*
X155875949Y-105908766D01*
X155677935Y-105848700D01*
X155677930Y-105848699D01*
X155472000Y-105828417D01*
X155266069Y-105848699D01*
X155266064Y-105848700D01*
X155068050Y-105908766D01*
X155068045Y-105908768D01*
X154885555Y-106006311D01*
X154885544Y-106006319D01*
X154725591Y-106137588D01*
X154725588Y-106137591D01*
X154594319Y-106297544D01*
X154594311Y-106297555D01*
X154496768Y-106480045D01*
X154496766Y-106480050D01*
X154436700Y-106678064D01*
X154436699Y-106678069D01*
X154416417Y-106883999D01*
X153987583Y-106883999D01*
X153985681Y-106864694D01*
X153972638Y-106732262D01*
X153967300Y-106678066D01*
X153907232Y-106480046D01*
X153809685Y-106297550D01*
X153680798Y-106140500D01*
X153678411Y-106137591D01*
X153678408Y-106137588D01*
X153518455Y-106006319D01*
X153518453Y-106006318D01*
X153518450Y-106006315D01*
X153518448Y-106006313D01*
X153518444Y-106006311D01*
X153335954Y-105908768D01*
X153335949Y-105908766D01*
X153137935Y-105848700D01*
X153137930Y-105848699D01*
X152932000Y-105828417D01*
X152726069Y-105848699D01*
X152726064Y-105848700D01*
X152528050Y-105908766D01*
X152528045Y-105908768D01*
X152345555Y-106006311D01*
X152345544Y-106006319D01*
X152185591Y-106137588D01*
X152185588Y-106137591D01*
X152054319Y-106297544D01*
X152054311Y-106297555D01*
X151956768Y-106480045D01*
X151956766Y-106480050D01*
X151896700Y-106678064D01*
X151896699Y-106678069D01*
X151876417Y-106883999D01*
X151447583Y-106883999D01*
X151445681Y-106864694D01*
X151432638Y-106732262D01*
X151427300Y-106678066D01*
X151367232Y-106480046D01*
X151269685Y-106297550D01*
X151140798Y-106140500D01*
X151138411Y-106137591D01*
X151138408Y-106137588D01*
X150978455Y-106006319D01*
X150978453Y-106006318D01*
X150978450Y-106006315D01*
X150978448Y-106006313D01*
X150978444Y-106006311D01*
X150795954Y-105908768D01*
X150795949Y-105908766D01*
X150597935Y-105848700D01*
X150597930Y-105848699D01*
X150392000Y-105828417D01*
X150186069Y-105848699D01*
X150186064Y-105848700D01*
X149988050Y-105908766D01*
X149988045Y-105908768D01*
X149805555Y-106006311D01*
X149805544Y-106006319D01*
X149645591Y-106137588D01*
X149645588Y-106137591D01*
X149514319Y-106297544D01*
X149514311Y-106297555D01*
X149416768Y-106480045D01*
X149416766Y-106480050D01*
X149356700Y-106678064D01*
X149356699Y-106678069D01*
X149336417Y-106883999D01*
X148907583Y-106883999D01*
X148905681Y-106864694D01*
X148892638Y-106732262D01*
X148887300Y-106678066D01*
X148827232Y-106480046D01*
X148729685Y-106297550D01*
X148600798Y-106140500D01*
X148598411Y-106137591D01*
X148598408Y-106137588D01*
X148438455Y-106006319D01*
X148438453Y-106006318D01*
X148438450Y-106006315D01*
X148438448Y-106006313D01*
X148438444Y-106006311D01*
X148255954Y-105908768D01*
X148255949Y-105908766D01*
X148057935Y-105848700D01*
X148057930Y-105848699D01*
X147852000Y-105828417D01*
X147646069Y-105848699D01*
X147646064Y-105848700D01*
X147448050Y-105908766D01*
X147448045Y-105908768D01*
X147265555Y-106006311D01*
X147265544Y-106006319D01*
X147105591Y-106137588D01*
X147105588Y-106137591D01*
X146974319Y-106297544D01*
X146974311Y-106297555D01*
X146876768Y-106480045D01*
X146876766Y-106480050D01*
X146816700Y-106678064D01*
X146816699Y-106678069D01*
X146796417Y-106883999D01*
X145812000Y-106883999D01*
X145812000Y-106818174D01*
X145802843Y-106784000D01*
X146289000Y-106784000D01*
X146289000Y-106021492D01*
X146281630Y-105984446D01*
X146281630Y-105984445D01*
X146253561Y-105942438D01*
X146211553Y-105914369D01*
X146174507Y-105907000D01*
X145412000Y-105907000D01*
X145412000Y-106393157D01*
X145377826Y-106384000D01*
X145246174Y-106384000D01*
X145212000Y-106393157D01*
X145212000Y-105907000D01*
X144449493Y-105907000D01*
X144412446Y-105914369D01*
X144412445Y-105914369D01*
X144370438Y-105942438D01*
X144342369Y-105984445D01*
X144342369Y-105984446D01*
X144335000Y-106021492D01*
X144335000Y-106784000D01*
X144821157Y-106784000D01*
X144812000Y-106818174D01*
X144812000Y-106949826D01*
X144821157Y-106984000D01*
X144335000Y-106984000D01*
X144335000Y-107746507D01*
X144334999Y-107746507D01*
X141764362Y-107746507D01*
X141769460Y-107698000D01*
X141749674Y-107509744D01*
X141721008Y-107421519D01*
X141691181Y-107329721D01*
X141691180Y-107329719D01*
X141691179Y-107329716D01*
X141596533Y-107165784D01*
X141469871Y-107025112D01*
X141435514Y-107000150D01*
X141316734Y-106913851D01*
X141316725Y-106913846D01*
X141143814Y-106836860D01*
X141143797Y-106836854D01*
X140958646Y-106797500D01*
X140769354Y-106797500D01*
X140584202Y-106836854D01*
X140584185Y-106836860D01*
X140411274Y-106913846D01*
X140411265Y-106913851D01*
X140258129Y-107025111D01*
X140258128Y-107025112D01*
X140131466Y-107165785D01*
X140036818Y-107329721D01*
X140028829Y-107354313D01*
X139997763Y-107390687D01*
X139969388Y-107397500D01*
X139316000Y-107397500D01*
X139271806Y-107379194D01*
X139253500Y-107335000D01*
X139253499Y-106958485D01*
X139253499Y-106958483D01*
X139253499Y-106958482D01*
X139238646Y-106864696D01*
X139181050Y-106751658D01*
X139091342Y-106661950D01*
X138978305Y-106604354D01*
X138978298Y-106604352D01*
X138884532Y-106589501D01*
X138884520Y-106589500D01*
X138884519Y-106589500D01*
X138884516Y-106589500D01*
X138271485Y-106589500D01*
X138271480Y-106589501D01*
X138177695Y-106604354D01*
X138177694Y-106604354D01*
X138064657Y-106661950D01*
X137974950Y-106751657D01*
X137917354Y-106864694D01*
X137917352Y-106864701D01*
X137902501Y-106958467D01*
X137902500Y-106958483D01*
X136392500Y-106958483D01*
X136392500Y-105308483D01*
X137902500Y-105308483D01*
X137902500Y-105771514D01*
X137902501Y-105771519D01*
X137917354Y-105865304D01*
X137917354Y-105865305D01*
X137938599Y-105907000D01*
X137974950Y-105978342D01*
X138064658Y-106068050D01*
X138177696Y-106125646D01*
X138177699Y-106125646D01*
X138177701Y-106125647D01*
X138271467Y-106140498D01*
X138271469Y-106140498D01*
X138271481Y-106140500D01*
X138884518Y-106140499D01*
X138978304Y-106125646D01*
X139091342Y-106068050D01*
X139181050Y-105978342D01*
X139238646Y-105865304D01*
X139253500Y-105771519D01*
X139253499Y-105315357D01*
X139271804Y-105271165D01*
X139384969Y-105158000D01*
X140032445Y-105158000D01*
X140050616Y-105330892D01*
X140104335Y-105496219D01*
X140191258Y-105646776D01*
X140191259Y-105646777D01*
X140211414Y-105669161D01*
X140211415Y-105669161D01*
X140519414Y-105361161D01*
X140543920Y-105403606D01*
X140618394Y-105478080D01*
X140660836Y-105502584D01*
X140353842Y-105809578D01*
X140448217Y-105878145D01*
X140607031Y-105948854D01*
X140607038Y-105948856D01*
X140777079Y-105985000D01*
X140950921Y-105985000D01*
X141120961Y-105948856D01*
X141120968Y-105948854D01*
X141279783Y-105878144D01*
X141374156Y-105809578D01*
X141067162Y-105502584D01*
X141109606Y-105478080D01*
X141184080Y-105403606D01*
X141208584Y-105361162D01*
X141516583Y-105669161D01*
X141536742Y-105646774D01*
X141623664Y-105496219D01*
X141677383Y-105330892D01*
X141695554Y-105158000D01*
X141677383Y-104985107D01*
X141623664Y-104819780D01*
X141536742Y-104669225D01*
X141516583Y-104646837D01*
X141208583Y-104954836D01*
X141184080Y-104912394D01*
X141109606Y-104837920D01*
X141067161Y-104813414D01*
X141374156Y-104506420D01*
X141279779Y-104437853D01*
X141120968Y-104367145D01*
X141120961Y-104367143D01*
X140950921Y-104331000D01*
X140777079Y-104331000D01*
X140607038Y-104367143D01*
X140607023Y-104367148D01*
X140448224Y-104437851D01*
X140448220Y-104437853D01*
X140353843Y-104506421D01*
X140660837Y-104813415D01*
X140618394Y-104837920D01*
X140543920Y-104912394D01*
X140519415Y-104954836D01*
X140211415Y-104646836D01*
X140211414Y-104646837D01*
X140191260Y-104669220D01*
X140104335Y-104819780D01*
X140050616Y-104985107D01*
X140032445Y-105158000D01*
X139384969Y-105158000D01*
X142628460Y-101914511D01*
X142668022Y-101845988D01*
X142688500Y-101769562D01*
X142688500Y-101690438D01*
X142688500Y-100727374D01*
X144191500Y-100727374D01*
X144191500Y-102840625D01*
X144197913Y-102911194D01*
X144197914Y-102911196D01*
X144248522Y-103073606D01*
X144336528Y-103219185D01*
X144456815Y-103339472D01*
X144602394Y-103427478D01*
X144764804Y-103478086D01*
X144835374Y-103484499D01*
X144835377Y-103484500D01*
X144835384Y-103484500D01*
X145948623Y-103484500D01*
X145948624Y-103484499D01*
X146019196Y-103478086D01*
X146181606Y-103427478D01*
X146327185Y-103339472D01*
X146447472Y-103219185D01*
X146535478Y-103073606D01*
X146586086Y-102911196D01*
X146592499Y-102840624D01*
X146592500Y-102840623D01*
X146592500Y-102147000D01*
X146610806Y-102102806D01*
X146655000Y-102084500D01*
X150340949Y-102084500D01*
X150385143Y-102102806D01*
X150396636Y-102118623D01*
X150420950Y-102166342D01*
X150510658Y-102256050D01*
X150623696Y-102313646D01*
X150623699Y-102313646D01*
X150623701Y-102313647D01*
X150717467Y-102328498D01*
X150717469Y-102328498D01*
X150717481Y-102328500D01*
X151330518Y-102328499D01*
X151424304Y-102313646D01*
X151537342Y-102256050D01*
X151627050Y-102166342D01*
X151679896Y-102062625D01*
X151716270Y-102031559D01*
X151735584Y-102028500D01*
X153084000Y-102028500D01*
X153128194Y-102046806D01*
X153146500Y-102091000D01*
X153146500Y-102157262D01*
X153149353Y-102187696D01*
X153149354Y-102187701D01*
X153194207Y-102315882D01*
X153194207Y-102315883D01*
X153203519Y-102328500D01*
X153274850Y-102425150D01*
X153384118Y-102505793D01*
X153512301Y-102550646D01*
X153542734Y-102553500D01*
X153542738Y-102553500D01*
X154601262Y-102553500D01*
X154601266Y-102553500D01*
X154631699Y-102550646D01*
X154759882Y-102505793D01*
X154869150Y-102425150D01*
X154949793Y-102315882D01*
X154994646Y-102187699D01*
X154997500Y-102157266D01*
X154997500Y-101548734D01*
X154994646Y-101518301D01*
X154993235Y-101514270D01*
X154970520Y-101449354D01*
X154949793Y-101390118D01*
X154936421Y-101372000D01*
X154923783Y-101354875D01*
X154869150Y-101280850D01*
X154759882Y-101200207D01*
X154759148Y-101199950D01*
X154631701Y-101155354D01*
X154631696Y-101155353D01*
X154611699Y-101153478D01*
X154601266Y-101152500D01*
X153542734Y-101152500D01*
X153533124Y-101153401D01*
X153512303Y-101155353D01*
X153512298Y-101155354D01*
X153384117Y-101200207D01*
X153384116Y-101200207D01*
X153274850Y-101280850D01*
X153194206Y-101390118D01*
X153192047Y-101394204D01*
X153155213Y-101424723D01*
X153136790Y-101427500D01*
X151735584Y-101427500D01*
X151691390Y-101409194D01*
X151679896Y-101393374D01*
X151678236Y-101390117D01*
X151627050Y-101289658D01*
X151537342Y-101199950D01*
X151424305Y-101142354D01*
X151424298Y-101142352D01*
X151330532Y-101127501D01*
X151330520Y-101127500D01*
X151330519Y-101127500D01*
X151330516Y-101127500D01*
X150717485Y-101127500D01*
X150717480Y-101127501D01*
X150623695Y-101142354D01*
X150623694Y-101142354D01*
X150510657Y-101199950D01*
X150420950Y-101289657D01*
X150363354Y-101402694D01*
X150363354Y-101402695D01*
X150363354Y-101402696D01*
X150358906Y-101430778D01*
X150333913Y-101471564D01*
X150297176Y-101483500D01*
X146655000Y-101483500D01*
X146610806Y-101465194D01*
X146592500Y-101421000D01*
X146592500Y-100727377D01*
X146592499Y-100727374D01*
X146586086Y-100656805D01*
X146584167Y-100650646D01*
X146535478Y-100494394D01*
X146447472Y-100348815D01*
X146414970Y-100316313D01*
X150422001Y-100316313D01*
X150428270Y-100363942D01*
X150477005Y-100468454D01*
X150558545Y-100549994D01*
X150663060Y-100598731D01*
X150710678Y-100604999D01*
X150923999Y-100604999D01*
X151124000Y-100604999D01*
X151337312Y-100604999D01*
X151337313Y-100604998D01*
X151384942Y-100598729D01*
X151489454Y-100549994D01*
X151489455Y-100549994D01*
X151570994Y-100468455D01*
X151570994Y-100468454D01*
X151619731Y-100363939D01*
X151625999Y-100316327D01*
X151626000Y-100316314D01*
X151626000Y-100178000D01*
X151124000Y-100178000D01*
X151124000Y-100604999D01*
X150923999Y-100604999D01*
X150924000Y-100604998D01*
X150924000Y-100178000D01*
X150422001Y-100178000D01*
X150422001Y-100316313D01*
X146414970Y-100316313D01*
X146327185Y-100228528D01*
X146181606Y-100140522D01*
X146091335Y-100112393D01*
X146019193Y-100089913D01*
X146019195Y-100089913D01*
X145948625Y-100083500D01*
X145948616Y-100083500D01*
X144835384Y-100083500D01*
X144835374Y-100083500D01*
X144764805Y-100089913D01*
X144602393Y-100140522D01*
X144456814Y-100228528D01*
X144336528Y-100348814D01*
X144248522Y-100494393D01*
X144197913Y-100656805D01*
X144191500Y-100727374D01*
X142688500Y-100727374D01*
X142688500Y-99839672D01*
X150422000Y-99839672D01*
X150422000Y-99978000D01*
X150924000Y-99978000D01*
X151124000Y-99978000D01*
X151625999Y-99978000D01*
X151625999Y-99839688D01*
X151625998Y-99839686D01*
X151619729Y-99792057D01*
X151570994Y-99687545D01*
X151532186Y-99648737D01*
X153146500Y-99648737D01*
X153146500Y-100257262D01*
X153149353Y-100287696D01*
X153149354Y-100287701D01*
X153194207Y-100415882D01*
X153194207Y-100415883D01*
X153203187Y-100428050D01*
X153274850Y-100525150D01*
X153384118Y-100605793D01*
X153512301Y-100650646D01*
X153542734Y-100653500D01*
X153542738Y-100653500D01*
X154601262Y-100653500D01*
X154601266Y-100653500D01*
X154631699Y-100650646D01*
X154759882Y-100605793D01*
X154869150Y-100525150D01*
X154949793Y-100415882D01*
X154994646Y-100287699D01*
X154997500Y-100257266D01*
X154997500Y-100187000D01*
X155015806Y-100142806D01*
X155060000Y-100124500D01*
X156847167Y-100124500D01*
X156891361Y-100142806D01*
X156908898Y-100177223D01*
X156916354Y-100224304D01*
X156916354Y-100224305D01*
X156968969Y-100327566D01*
X156973950Y-100337342D01*
X157063658Y-100427050D01*
X157176696Y-100484646D01*
X157176699Y-100484646D01*
X157176701Y-100484647D01*
X157270467Y-100499498D01*
X157270469Y-100499498D01*
X157270481Y-100499500D01*
X157733518Y-100499499D01*
X157827304Y-100484646D01*
X157940342Y-100427050D01*
X158030050Y-100337342D01*
X158087646Y-100224304D01*
X158095166Y-100176824D01*
X158102498Y-100130532D01*
X158102498Y-100130531D01*
X158102500Y-100130519D01*
X158102499Y-99517483D01*
X158551500Y-99517483D01*
X158551500Y-100130514D01*
X158551501Y-100130519D01*
X158566354Y-100224304D01*
X158566354Y-100224305D01*
X158618969Y-100327566D01*
X158623950Y-100337342D01*
X158713658Y-100427050D01*
X158826696Y-100484646D01*
X158826699Y-100484646D01*
X158826701Y-100484647D01*
X158920467Y-100499498D01*
X158920469Y-100499498D01*
X158920481Y-100499500D01*
X159383518Y-100499499D01*
X159477304Y-100484646D01*
X159590342Y-100427050D01*
X159680050Y-100337342D01*
X159737646Y-100224304D01*
X159738726Y-100217484D01*
X159745104Y-100177222D01*
X159770098Y-100136436D01*
X159806834Y-100124500D01*
X162282000Y-100124500D01*
X162326194Y-100142806D01*
X162344500Y-100187000D01*
X162344500Y-101398415D01*
X162326194Y-101442609D01*
X162310375Y-101454103D01*
X162206657Y-101506950D01*
X162116950Y-101596657D01*
X162059354Y-101709694D01*
X162059352Y-101709701D01*
X162044501Y-101803467D01*
X162044500Y-101803483D01*
X162044500Y-102416514D01*
X162044501Y-102416519D01*
X162059354Y-102510304D01*
X162059354Y-102510305D01*
X162092550Y-102575454D01*
X162116950Y-102623342D01*
X162206658Y-102713050D01*
X162319696Y-102770646D01*
X162319699Y-102770646D01*
X162319701Y-102770647D01*
X162413467Y-102785498D01*
X162413469Y-102785498D01*
X162413481Y-102785500D01*
X162876518Y-102785499D01*
X162970304Y-102770646D01*
X163083342Y-102713050D01*
X163173050Y-102623342D01*
X163230646Y-102510304D01*
X163230647Y-102510298D01*
X163245498Y-102416532D01*
X163245498Y-102416531D01*
X163245500Y-102416519D01*
X163245499Y-101803483D01*
X163694500Y-101803483D01*
X163694500Y-102416514D01*
X163694501Y-102416519D01*
X163709354Y-102510304D01*
X163709354Y-102510305D01*
X163742550Y-102575454D01*
X163766950Y-102623342D01*
X163856658Y-102713050D01*
X163969696Y-102770646D01*
X163969699Y-102770646D01*
X163969701Y-102770647D01*
X164063467Y-102785498D01*
X164063469Y-102785498D01*
X164063481Y-102785500D01*
X164526518Y-102785499D01*
X164620304Y-102770646D01*
X164733342Y-102713050D01*
X164823050Y-102623342D01*
X164880646Y-102510304D01*
X164880647Y-102510298D01*
X164888104Y-102463222D01*
X164913098Y-102422436D01*
X164949834Y-102410500D01*
X165229167Y-102410500D01*
X165273361Y-102428806D01*
X165290898Y-102463223D01*
X165298354Y-102510304D01*
X165298354Y-102510305D01*
X165331550Y-102575454D01*
X165355950Y-102623342D01*
X165445658Y-102713050D01*
X165558696Y-102770646D01*
X165580777Y-102774143D01*
X165621563Y-102799135D01*
X165633500Y-102835873D01*
X165633500Y-104181773D01*
X165615194Y-104225967D01*
X165580783Y-104243503D01*
X165575876Y-104244280D01*
X165575869Y-104244282D01*
X165455780Y-104305471D01*
X165360471Y-104400780D01*
X165299282Y-104520869D01*
X165299279Y-104520879D01*
X165283501Y-104620498D01*
X165283500Y-104620514D01*
X165283500Y-105187485D01*
X165283501Y-105187501D01*
X165299279Y-105287120D01*
X165299282Y-105287130D01*
X165360471Y-105407219D01*
X165455780Y-105502528D01*
X165575869Y-105563717D01*
X165575871Y-105563717D01*
X165575874Y-105563719D01*
X165575877Y-105563719D01*
X165575879Y-105563720D01*
X165675498Y-105579498D01*
X165675504Y-105579498D01*
X165675512Y-105579500D01*
X165675514Y-105579500D01*
X166192486Y-105579500D01*
X166192488Y-105579500D01*
X166292126Y-105563719D01*
X166412220Y-105502528D01*
X166507528Y-105407220D01*
X166568719Y-105287126D01*
X166584500Y-105187488D01*
X166584500Y-105187403D01*
X166907001Y-105187403D01*
X166916968Y-105255824D01*
X166916969Y-105255825D01*
X166968565Y-105361368D01*
X167051631Y-105444434D01*
X167157175Y-105496031D01*
X167225588Y-105505998D01*
X167225602Y-105505999D01*
X167383999Y-105505999D01*
X167584000Y-105505999D01*
X167742404Y-105505999D01*
X167810824Y-105496031D01*
X167810825Y-105496030D01*
X167916368Y-105444434D01*
X167999434Y-105361368D01*
X168051031Y-105255824D01*
X168061000Y-105187404D01*
X168061000Y-105004000D01*
X167584000Y-105004000D01*
X167584000Y-105505999D01*
X167383999Y-105505999D01*
X167384000Y-105505998D01*
X167384000Y-105004000D01*
X166907001Y-105004000D01*
X166907001Y-105187403D01*
X166584500Y-105187403D01*
X166584500Y-104620595D01*
X166907000Y-104620595D01*
X166907000Y-104804000D01*
X167384000Y-104804000D01*
X167584000Y-104804000D01*
X168060999Y-104804000D01*
X168060999Y-104620596D01*
X168051031Y-104552175D01*
X168051030Y-104552174D01*
X167999434Y-104446631D01*
X167916368Y-104363565D01*
X167810824Y-104311968D01*
X167742404Y-104302000D01*
X167584000Y-104302000D01*
X167584000Y-104804000D01*
X167384000Y-104804000D01*
X167384000Y-104302000D01*
X167225596Y-104302000D01*
X167157175Y-104311968D01*
X167157174Y-104311969D01*
X167051631Y-104363565D01*
X166968565Y-104446631D01*
X166916968Y-104552175D01*
X166907000Y-104620595D01*
X166584500Y-104620595D01*
X166584500Y-104620512D01*
X166573676Y-104552174D01*
X166568720Y-104520879D01*
X166568719Y-104520877D01*
X166568719Y-104520874D01*
X166568717Y-104520871D01*
X166568717Y-104520869D01*
X166507528Y-104400780D01*
X166412219Y-104305471D01*
X166292130Y-104244282D01*
X166292123Y-104244280D01*
X166287217Y-104243503D01*
X166254970Y-104223737D01*
X169910500Y-104223737D01*
X169910500Y-104832262D01*
X169913353Y-104862696D01*
X169913354Y-104862701D01*
X169958207Y-104990882D01*
X169958207Y-104990883D01*
X169998528Y-105045516D01*
X170038850Y-105100150D01*
X170148118Y-105180793D01*
X170276301Y-105225646D01*
X170306734Y-105228500D01*
X170306738Y-105228500D01*
X171365262Y-105228500D01*
X171365266Y-105228500D01*
X171395699Y-105225646D01*
X171523882Y-105180793D01*
X171633150Y-105100150D01*
X171713793Y-104990882D01*
X171758646Y-104862699D01*
X171761500Y-104832266D01*
X171761500Y-104223734D01*
X171758646Y-104193301D01*
X171729370Y-104109635D01*
X171732052Y-104061877D01*
X171744166Y-104044803D01*
X172346460Y-103442511D01*
X172355139Y-103427478D01*
X172386021Y-103373989D01*
X172406500Y-103297562D01*
X172406500Y-100554832D01*
X172424806Y-100510638D01*
X172459220Y-100493102D01*
X172506304Y-100485646D01*
X172619342Y-100428050D01*
X172709050Y-100338342D01*
X172766646Y-100225304D01*
X172781500Y-100131519D01*
X172781499Y-99668482D01*
X172766646Y-99574696D01*
X172709050Y-99461658D01*
X172619342Y-99371950D01*
X172506305Y-99314354D01*
X172506298Y-99314352D01*
X172412532Y-99299501D01*
X172412520Y-99299500D01*
X172412519Y-99299500D01*
X172412516Y-99299500D01*
X171799485Y-99299500D01*
X171799480Y-99299501D01*
X171705695Y-99314354D01*
X171705694Y-99314354D01*
X171592657Y-99371950D01*
X171502950Y-99461657D01*
X171445354Y-99574694D01*
X171445352Y-99574701D01*
X171430501Y-99668467D01*
X171430500Y-99668483D01*
X171430500Y-100131514D01*
X171430501Y-100131519D01*
X171445354Y-100225304D01*
X171445354Y-100225305D01*
X171488728Y-100310430D01*
X171502950Y-100338342D01*
X171592658Y-100428050D01*
X171705696Y-100485646D01*
X171752778Y-100493103D01*
X171793563Y-100518096D01*
X171805500Y-100554833D01*
X171805500Y-103107641D01*
X171787194Y-103151835D01*
X171129835Y-103809194D01*
X171085641Y-103827500D01*
X170306734Y-103827500D01*
X170297124Y-103828401D01*
X170276303Y-103830353D01*
X170276298Y-103830354D01*
X170148117Y-103875207D01*
X170148116Y-103875207D01*
X170038850Y-103955850D01*
X169958207Y-104065116D01*
X169958207Y-104065117D01*
X169913354Y-104193298D01*
X169913353Y-104193303D01*
X169911233Y-104215908D01*
X169910991Y-104218504D01*
X169910500Y-104223737D01*
X166254970Y-104223737D01*
X166246433Y-104218504D01*
X166234500Y-104181773D01*
X166234500Y-102796107D01*
X166252806Y-102751913D01*
X166268626Y-102740419D01*
X166322342Y-102713050D01*
X166412050Y-102623342D01*
X166469646Y-102510304D01*
X166469647Y-102510298D01*
X166483424Y-102423313D01*
X167007001Y-102423313D01*
X167013270Y-102470942D01*
X167062005Y-102575454D01*
X167143545Y-102656994D01*
X167248060Y-102705731D01*
X167295678Y-102711999D01*
X167433999Y-102711999D01*
X167634000Y-102711999D01*
X167772312Y-102711999D01*
X167772313Y-102711998D01*
X167819942Y-102705729D01*
X167924454Y-102656994D01*
X167924455Y-102656994D01*
X168005994Y-102575455D01*
X168005994Y-102575454D01*
X168054731Y-102470939D01*
X168060999Y-102423327D01*
X168061000Y-102423314D01*
X168061000Y-102210000D01*
X167634000Y-102210000D01*
X167634000Y-102711999D01*
X167433999Y-102711999D01*
X167434000Y-102711998D01*
X167434000Y-102210000D01*
X167007001Y-102210000D01*
X167007001Y-102423313D01*
X166483424Y-102423313D01*
X166484498Y-102416532D01*
X166484498Y-102416531D01*
X166484500Y-102416519D01*
X166484499Y-101803482D01*
X166483420Y-101796672D01*
X167007000Y-101796672D01*
X167007000Y-102010000D01*
X167434000Y-102010000D01*
X167634000Y-102010000D01*
X168060999Y-102010000D01*
X168060999Y-101796688D01*
X168060998Y-101796686D01*
X168054729Y-101749057D01*
X168005994Y-101644545D01*
X167924454Y-101563005D01*
X167819939Y-101514268D01*
X167772327Y-101508000D01*
X167634000Y-101508000D01*
X167634000Y-102010000D01*
X167434000Y-102010000D01*
X167434000Y-101508000D01*
X167295688Y-101508000D01*
X167295686Y-101508001D01*
X167248057Y-101514270D01*
X167143545Y-101563005D01*
X167143545Y-101563006D01*
X167062006Y-101644545D01*
X167062005Y-101644545D01*
X167013268Y-101749060D01*
X167007000Y-101796672D01*
X166483420Y-101796672D01*
X166469646Y-101709696D01*
X166412050Y-101596658D01*
X166322342Y-101506950D01*
X166276319Y-101483500D01*
X166209305Y-101449354D01*
X166209298Y-101449352D01*
X166115532Y-101434501D01*
X166115520Y-101434500D01*
X166115519Y-101434500D01*
X166115516Y-101434500D01*
X165652485Y-101434500D01*
X165652480Y-101434501D01*
X165558695Y-101449354D01*
X165558694Y-101449354D01*
X165445657Y-101506950D01*
X165355950Y-101596657D01*
X165298354Y-101709694D01*
X165298352Y-101709701D01*
X165290896Y-101756778D01*
X165265902Y-101797564D01*
X165229166Y-101809500D01*
X164949833Y-101809500D01*
X164905639Y-101791194D01*
X164888102Y-101756777D01*
X164886880Y-101749060D01*
X164880646Y-101709696D01*
X164823050Y-101596658D01*
X164804806Y-101578414D01*
X164786500Y-101534220D01*
X164786500Y-100366580D01*
X164804806Y-100322386D01*
X164821550Y-100310431D01*
X164842483Y-100300198D01*
X164925198Y-100217483D01*
X164976573Y-100112393D01*
X164986500Y-100044260D01*
X164986500Y-98327740D01*
X164976573Y-98259607D01*
X164925198Y-98154517D01*
X164842483Y-98071802D01*
X164737393Y-98020427D01*
X164737391Y-98020426D01*
X164737390Y-98020426D01*
X164683267Y-98012540D01*
X164669260Y-98010500D01*
X164302740Y-98010500D01*
X164291121Y-98012192D01*
X164234609Y-98020426D01*
X164129515Y-98071803D01*
X164046803Y-98154515D01*
X163995426Y-98259609D01*
X163986680Y-98319644D01*
X163985500Y-98327740D01*
X163985500Y-100044260D01*
X163987540Y-100058267D01*
X163995426Y-100112390D01*
X163995426Y-100112391D01*
X163995427Y-100112393D01*
X164046802Y-100217483D01*
X164129517Y-100300198D01*
X164150448Y-100310430D01*
X164182113Y-100346285D01*
X164185500Y-100366580D01*
X164185500Y-101372000D01*
X164167194Y-101416194D01*
X164123001Y-101434500D01*
X164063486Y-101434500D01*
X164063480Y-101434501D01*
X163969695Y-101449354D01*
X163969694Y-101449354D01*
X163856657Y-101506950D01*
X163766950Y-101596657D01*
X163709354Y-101709694D01*
X163709352Y-101709701D01*
X163694501Y-101803467D01*
X163694500Y-101803483D01*
X163245499Y-101803483D01*
X163245499Y-101803482D01*
X163230646Y-101709696D01*
X163173050Y-101596658D01*
X163083342Y-101506950D01*
X163037319Y-101483500D01*
X162979625Y-101454103D01*
X162948559Y-101417728D01*
X162945500Y-101398415D01*
X162945500Y-100421055D01*
X162963806Y-100376861D01*
X163008000Y-100358555D01*
X163017006Y-100359207D01*
X163032740Y-100361500D01*
X163032742Y-100361500D01*
X163399259Y-100361500D01*
X163399260Y-100361500D01*
X163467393Y-100351573D01*
X163572483Y-100300198D01*
X163655198Y-100217483D01*
X163706573Y-100112393D01*
X163716500Y-100044260D01*
X163716500Y-98327740D01*
X163706573Y-98259607D01*
X163655198Y-98154517D01*
X163572483Y-98071802D01*
X163467393Y-98020427D01*
X163467391Y-98020426D01*
X163467390Y-98020426D01*
X163413267Y-98012540D01*
X163399260Y-98010500D01*
X163032740Y-98010500D01*
X163021121Y-98012192D01*
X162964609Y-98020426D01*
X162859515Y-98071803D01*
X162776803Y-98154515D01*
X162725426Y-98259609D01*
X162715500Y-98327740D01*
X162715500Y-99235641D01*
X162697194Y-99279835D01*
X162471835Y-99505194D01*
X162427641Y-99523500D01*
X159806833Y-99523500D01*
X159762639Y-99505194D01*
X159745102Y-99470777D01*
X159743658Y-99461657D01*
X159737646Y-99423696D01*
X159680050Y-99310658D01*
X159590342Y-99220950D01*
X159477305Y-99163354D01*
X159477298Y-99163352D01*
X159383532Y-99148501D01*
X159383520Y-99148500D01*
X159383519Y-99148500D01*
X159383516Y-99148500D01*
X158920485Y-99148500D01*
X158920480Y-99148501D01*
X158826695Y-99163354D01*
X158826694Y-99163354D01*
X158713657Y-99220950D01*
X158623950Y-99310657D01*
X158566354Y-99423694D01*
X158566352Y-99423701D01*
X158551501Y-99517467D01*
X158551500Y-99517483D01*
X158102499Y-99517483D01*
X158102499Y-99517482D01*
X158087646Y-99423696D01*
X158030050Y-99310658D01*
X157940342Y-99220950D01*
X157827305Y-99163354D01*
X157827298Y-99163352D01*
X157733532Y-99148501D01*
X157733520Y-99148500D01*
X157733519Y-99148500D01*
X157733516Y-99148500D01*
X157270485Y-99148500D01*
X157270480Y-99148501D01*
X157176695Y-99163354D01*
X157176694Y-99163354D01*
X157063657Y-99220950D01*
X156973950Y-99310657D01*
X156916354Y-99423694D01*
X156916352Y-99423701D01*
X156908896Y-99470778D01*
X156883902Y-99511564D01*
X156847166Y-99523500D01*
X155005096Y-99523500D01*
X154960902Y-99505194D01*
X154949839Y-99490204D01*
X154949794Y-99490118D01*
X154900775Y-99423701D01*
X154869150Y-99380850D01*
X154759882Y-99300207D01*
X154719281Y-99286000D01*
X154631701Y-99255354D01*
X154631696Y-99255353D01*
X154611699Y-99253478D01*
X154601266Y-99252500D01*
X153542734Y-99252500D01*
X153533124Y-99253401D01*
X153512303Y-99255353D01*
X153512298Y-99255354D01*
X153384117Y-99300207D01*
X153384116Y-99300207D01*
X153274850Y-99380850D01*
X153194207Y-99490116D01*
X153194207Y-99490117D01*
X153149354Y-99618298D01*
X153149353Y-99618303D01*
X153146500Y-99648737D01*
X151532186Y-99648737D01*
X151489454Y-99606005D01*
X151384939Y-99557268D01*
X151337327Y-99551000D01*
X151124000Y-99551000D01*
X151124000Y-99978000D01*
X150924000Y-99978000D01*
X150924000Y-99551000D01*
X150710688Y-99551000D01*
X150710686Y-99551001D01*
X150663057Y-99557270D01*
X150558545Y-99606005D01*
X150558545Y-99606006D01*
X150477006Y-99687545D01*
X150477005Y-99687545D01*
X150428268Y-99792060D01*
X150422000Y-99839672D01*
X142688500Y-99839672D01*
X142688500Y-97085000D01*
X143703700Y-97085000D01*
X143722866Y-97316305D01*
X143722868Y-97316315D01*
X143779839Y-97541287D01*
X143779841Y-97541295D01*
X143779843Y-97541300D01*
X143834226Y-97665279D01*
X143873077Y-97753851D01*
X143873079Y-97753854D01*
X143894511Y-97786658D01*
X144000021Y-97948153D01*
X144113848Y-98071803D01*
X144157217Y-98118914D01*
X144157220Y-98118917D01*
X144340372Y-98261469D01*
X144340374Y-98261470D01*
X144544497Y-98371936D01*
X144764019Y-98447298D01*
X144992951Y-98485500D01*
X144992954Y-98485500D01*
X145225046Y-98485500D01*
X145225049Y-98485500D01*
X145453981Y-98447298D01*
X145673503Y-98371936D01*
X145877626Y-98261470D01*
X146060784Y-98118913D01*
X146217979Y-97948153D01*
X146344924Y-97753849D01*
X146438157Y-97541300D01*
X146495134Y-97316305D01*
X146514300Y-97085000D01*
X146495134Y-96853695D01*
X146438157Y-96628700D01*
X146344924Y-96416151D01*
X146217979Y-96221847D01*
X146060784Y-96051087D01*
X146060783Y-96051086D01*
X146060782Y-96051085D01*
X146060779Y-96051082D01*
X145877627Y-95908530D01*
X145877625Y-95908529D01*
X145813425Y-95873786D01*
X145673503Y-95798064D01*
X145453981Y-95722702D01*
X145225049Y-95684500D01*
X144992951Y-95684500D01*
X144821252Y-95713151D01*
X144764018Y-95722702D01*
X144565010Y-95791022D01*
X144544497Y-95798064D01*
X144480296Y-95832807D01*
X144340374Y-95908529D01*
X144340372Y-95908530D01*
X144157220Y-96051082D01*
X144157217Y-96051085D01*
X144000024Y-96221843D01*
X144000020Y-96221848D01*
X143873079Y-96416145D01*
X143873077Y-96416148D01*
X143779844Y-96628697D01*
X143779839Y-96628712D01*
X143722868Y-96853684D01*
X143722866Y-96853694D01*
X143703700Y-97085000D01*
X142688500Y-97085000D01*
X142688500Y-93966313D01*
X150422001Y-93966313D01*
X150428270Y-94013942D01*
X150477005Y-94118454D01*
X150558545Y-94199994D01*
X150663060Y-94248731D01*
X150710678Y-94254999D01*
X150923999Y-94254999D01*
X151124000Y-94254999D01*
X151337312Y-94254999D01*
X151337313Y-94254998D01*
X151384942Y-94248729D01*
X151489454Y-94199994D01*
X151489455Y-94199994D01*
X151570994Y-94118455D01*
X151570994Y-94118454D01*
X151619731Y-94013939D01*
X151625999Y-93966327D01*
X151626000Y-93966314D01*
X151626000Y-93828000D01*
X151124000Y-93828000D01*
X151124000Y-94254999D01*
X150923999Y-94254999D01*
X150924000Y-94254998D01*
X150924000Y-93828000D01*
X150422001Y-93828000D01*
X150422001Y-93966313D01*
X142688500Y-93966313D01*
X142688500Y-90842273D01*
X144141500Y-90842273D01*
X144141500Y-93167726D01*
X144156311Y-93280228D01*
X144156314Y-93280239D01*
X144196700Y-93377740D01*
X144214302Y-93420233D01*
X144306549Y-93540451D01*
X144426767Y-93632698D01*
X144566764Y-93690687D01*
X144566770Y-93690687D01*
X144566771Y-93690688D01*
X144583072Y-93692834D01*
X144679280Y-93705500D01*
X144679286Y-93705500D01*
X145504714Y-93705500D01*
X145504720Y-93705500D01*
X145617236Y-93690687D01*
X145757233Y-93632698D01*
X145877451Y-93540451D01*
X145916415Y-93489672D01*
X150422000Y-93489672D01*
X150422000Y-93628000D01*
X150924000Y-93628000D01*
X151124000Y-93628000D01*
X151625999Y-93628000D01*
X151625999Y-93548737D01*
X153146500Y-93548737D01*
X153146500Y-94157262D01*
X153149353Y-94187696D01*
X153149354Y-94187701D01*
X153194207Y-94315882D01*
X153194207Y-94315883D01*
X153208481Y-94335223D01*
X153274850Y-94425150D01*
X153384118Y-94505793D01*
X153512301Y-94550646D01*
X153542734Y-94553500D01*
X153542738Y-94553500D01*
X154601262Y-94553500D01*
X154601266Y-94553500D01*
X154631699Y-94550646D01*
X154759882Y-94505793D01*
X154869150Y-94425150D01*
X154939495Y-94329835D01*
X154949794Y-94315881D01*
X154949839Y-94315796D01*
X154949884Y-94315757D01*
X154952575Y-94312113D01*
X154953478Y-94312780D01*
X154986673Y-94285277D01*
X155005096Y-94282500D01*
X156847167Y-94282500D01*
X156891361Y-94300806D01*
X156908898Y-94335223D01*
X156916354Y-94382304D01*
X156916354Y-94382305D01*
X156938185Y-94425150D01*
X156973950Y-94495342D01*
X157063658Y-94585050D01*
X157176696Y-94642646D01*
X157176699Y-94642646D01*
X157176701Y-94642647D01*
X157270467Y-94657498D01*
X157270469Y-94657498D01*
X157270481Y-94657500D01*
X157733518Y-94657499D01*
X157827304Y-94642646D01*
X157940342Y-94585050D01*
X158030050Y-94495342D01*
X158087646Y-94382304D01*
X158098186Y-94315757D01*
X158102498Y-94288532D01*
X158102498Y-94288531D01*
X158102500Y-94288519D01*
X158102499Y-93675482D01*
X158087646Y-93581696D01*
X158030050Y-93468658D01*
X157940342Y-93378950D01*
X157930627Y-93374000D01*
X157827305Y-93321354D01*
X157827298Y-93321352D01*
X157733532Y-93306501D01*
X157733520Y-93306500D01*
X157733519Y-93306500D01*
X157733516Y-93306500D01*
X157270485Y-93306500D01*
X157270480Y-93306501D01*
X157176695Y-93321354D01*
X157176694Y-93321354D01*
X157063657Y-93378950D01*
X156973950Y-93468657D01*
X156916354Y-93581694D01*
X156916352Y-93581701D01*
X156908896Y-93628778D01*
X156883902Y-93669564D01*
X156847166Y-93681500D01*
X155060000Y-93681500D01*
X155015806Y-93663194D01*
X154997500Y-93619000D01*
X154997500Y-93548737D01*
X154994646Y-93518303D01*
X154994645Y-93518298D01*
X154967967Y-93442057D01*
X154949793Y-93390118D01*
X154937897Y-93374000D01*
X154923783Y-93354875D01*
X154869150Y-93280850D01*
X154759882Y-93200207D01*
X154737805Y-93192482D01*
X154631701Y-93155354D01*
X154631696Y-93155353D01*
X154611699Y-93153478D01*
X154601266Y-93152500D01*
X153542734Y-93152500D01*
X153533124Y-93153401D01*
X153512303Y-93155353D01*
X153512298Y-93155354D01*
X153384117Y-93200207D01*
X153384116Y-93200207D01*
X153274850Y-93280850D01*
X153194207Y-93390116D01*
X153194207Y-93390117D01*
X153149354Y-93518298D01*
X153149353Y-93518303D01*
X153146500Y-93548737D01*
X151625999Y-93548737D01*
X151625999Y-93489688D01*
X151625998Y-93489686D01*
X151619729Y-93442057D01*
X151570994Y-93337545D01*
X151489454Y-93256005D01*
X151384939Y-93207268D01*
X151337327Y-93201000D01*
X151124000Y-93201000D01*
X151124000Y-93628000D01*
X150924000Y-93628000D01*
X150924000Y-93201000D01*
X150710688Y-93201000D01*
X150710686Y-93201001D01*
X150663057Y-93207270D01*
X150558545Y-93256005D01*
X150558545Y-93256006D01*
X150477006Y-93337545D01*
X150477005Y-93337545D01*
X150428268Y-93442060D01*
X150422000Y-93489672D01*
X145916415Y-93489672D01*
X145969698Y-93420233D01*
X146027687Y-93280236D01*
X146042500Y-93167720D01*
X146042500Y-92441000D01*
X146060806Y-92396806D01*
X146105000Y-92378500D01*
X150312416Y-92378500D01*
X150356610Y-92396806D01*
X150368103Y-92412625D01*
X150380242Y-92436448D01*
X150400818Y-92476832D01*
X150420950Y-92516342D01*
X150510658Y-92606050D01*
X150623696Y-92663646D01*
X150623699Y-92663646D01*
X150623701Y-92663647D01*
X150717467Y-92678498D01*
X150717469Y-92678498D01*
X150717481Y-92678500D01*
X151330518Y-92678499D01*
X151424304Y-92663646D01*
X151537342Y-92606050D01*
X151627050Y-92516342D01*
X151679896Y-92412625D01*
X151716270Y-92381559D01*
X151735584Y-92378500D01*
X153136790Y-92378500D01*
X153180984Y-92396806D01*
X153192047Y-92411796D01*
X153194206Y-92415881D01*
X153199091Y-92422500D01*
X153274850Y-92525150D01*
X153384118Y-92605793D01*
X153512301Y-92650646D01*
X153542734Y-92653500D01*
X153542738Y-92653500D01*
X154601262Y-92653500D01*
X154601266Y-92653500D01*
X154631699Y-92650646D01*
X154759882Y-92605793D01*
X154869150Y-92525150D01*
X154949793Y-92415882D01*
X154994646Y-92287699D01*
X154997500Y-92257266D01*
X154997500Y-91648734D01*
X154994646Y-91618301D01*
X154949793Y-91490118D01*
X154940481Y-91477501D01*
X154893526Y-91413879D01*
X154869150Y-91380850D01*
X154759882Y-91300207D01*
X154631701Y-91255354D01*
X154631696Y-91255353D01*
X154611699Y-91253478D01*
X154601266Y-91252500D01*
X153542734Y-91252500D01*
X153533124Y-91253401D01*
X153512303Y-91255353D01*
X153512298Y-91255354D01*
X153384117Y-91300207D01*
X153384116Y-91300207D01*
X153274850Y-91380850D01*
X153194207Y-91490116D01*
X153194207Y-91490117D01*
X153149354Y-91618298D01*
X153149353Y-91618303D01*
X153146500Y-91648737D01*
X153146500Y-91715000D01*
X153128194Y-91759194D01*
X153084000Y-91777500D01*
X151735584Y-91777500D01*
X151691390Y-91759194D01*
X151679896Y-91743374D01*
X151627050Y-91639658D01*
X151537342Y-91549950D01*
X151424305Y-91492354D01*
X151424298Y-91492352D01*
X151330532Y-91477501D01*
X151330520Y-91477500D01*
X151330519Y-91477500D01*
X151330516Y-91477500D01*
X150717485Y-91477500D01*
X150717480Y-91477501D01*
X150623695Y-91492354D01*
X150623694Y-91492354D01*
X150510657Y-91549950D01*
X150420949Y-91639658D01*
X150368104Y-91743374D01*
X150331730Y-91774441D01*
X150312416Y-91777500D01*
X146105000Y-91777500D01*
X146060806Y-91759194D01*
X146042500Y-91715000D01*
X146042500Y-90842286D01*
X146042499Y-90842273D01*
X146027688Y-90729771D01*
X146027687Y-90729770D01*
X146027687Y-90729764D01*
X145969698Y-90589767D01*
X145877451Y-90469549D01*
X145757233Y-90377302D01*
X145757229Y-90377300D01*
X145617239Y-90319314D01*
X145617237Y-90319313D01*
X145617236Y-90319313D01*
X145617234Y-90319312D01*
X145617228Y-90319311D01*
X145504726Y-90304500D01*
X145504720Y-90304500D01*
X144679280Y-90304500D01*
X144679273Y-90304500D01*
X144566771Y-90319311D01*
X144566760Y-90319314D01*
X144426770Y-90377300D01*
X144426767Y-90377301D01*
X144426767Y-90377302D01*
X144392607Y-90403514D01*
X144306549Y-90469549D01*
X144214300Y-90589770D01*
X144156314Y-90729760D01*
X144156311Y-90729771D01*
X144141500Y-90842273D01*
X142688500Y-90842273D01*
X142688500Y-90322359D01*
X142706806Y-90278165D01*
X143002165Y-89982806D01*
X143046359Y-89964500D01*
X155757402Y-89964500D01*
X155801596Y-89982806D01*
X155817770Y-90010820D01*
X155823979Y-90033989D01*
X155823980Y-90033992D01*
X155836693Y-90056012D01*
X155863538Y-90102509D01*
X155863540Y-90102511D01*
X157717540Y-91956511D01*
X157773489Y-92012460D01*
X157842011Y-92052021D01*
X157865396Y-92058287D01*
X157918432Y-92072499D01*
X157918438Y-92072500D01*
X157997562Y-92072500D01*
X158175774Y-92072500D01*
X158219968Y-92090806D01*
X158237504Y-92125221D01*
X158238280Y-92130120D01*
X158238281Y-92130126D01*
X158238282Y-92130130D01*
X158299471Y-92250219D01*
X158394780Y-92345528D01*
X158514869Y-92406717D01*
X158514871Y-92406717D01*
X158514874Y-92406719D01*
X158514877Y-92406719D01*
X158514879Y-92406720D01*
X158614498Y-92422498D01*
X158614504Y-92422498D01*
X158614512Y-92422500D01*
X158614514Y-92422500D01*
X159181486Y-92422500D01*
X159181488Y-92422500D01*
X159223267Y-92415883D01*
X159281120Y-92406720D01*
X159281120Y-92406719D01*
X159281126Y-92406719D01*
X159401220Y-92345528D01*
X159496528Y-92250220D01*
X159557719Y-92130126D01*
X159558495Y-92125221D01*
X159583489Y-92084436D01*
X159620226Y-92072500D01*
X160969774Y-92072500D01*
X161013968Y-92090806D01*
X161031504Y-92125221D01*
X161032280Y-92130120D01*
X161032281Y-92130126D01*
X161032282Y-92130130D01*
X161093471Y-92250219D01*
X161188780Y-92345528D01*
X161308869Y-92406717D01*
X161308870Y-92406717D01*
X161308874Y-92406719D01*
X161338777Y-92411455D01*
X161379563Y-92436448D01*
X161391500Y-92473185D01*
X161391500Y-92751567D01*
X161411978Y-92827986D01*
X161411978Y-92827988D01*
X161451218Y-92895953D01*
X161451540Y-92896511D01*
X162697194Y-94142165D01*
X162715500Y-94186359D01*
X162715500Y-95094259D01*
X162722017Y-95138989D01*
X162710274Y-95185361D01*
X162669181Y-95209847D01*
X162660170Y-95210500D01*
X160831359Y-95210500D01*
X160787165Y-95192194D01*
X159770805Y-94175834D01*
X159752499Y-94131640D01*
X159752499Y-93675485D01*
X159752499Y-93675483D01*
X159752499Y-93675482D01*
X159737646Y-93581696D01*
X159680050Y-93468658D01*
X159590342Y-93378950D01*
X159580627Y-93374000D01*
X159477305Y-93321354D01*
X159477298Y-93321352D01*
X159383532Y-93306501D01*
X159383520Y-93306500D01*
X159383519Y-93306500D01*
X159383516Y-93306500D01*
X158920485Y-93306500D01*
X158920480Y-93306501D01*
X158826695Y-93321354D01*
X158826694Y-93321354D01*
X158713657Y-93378950D01*
X158623950Y-93468657D01*
X158566354Y-93581694D01*
X158566352Y-93581701D01*
X158551501Y-93675467D01*
X158551500Y-93675483D01*
X158551500Y-94288514D01*
X158551501Y-94288519D01*
X158566354Y-94382304D01*
X158566354Y-94382305D01*
X158588185Y-94425150D01*
X158623950Y-94495342D01*
X158713658Y-94585050D01*
X158826696Y-94642646D01*
X158826699Y-94642646D01*
X158826701Y-94642647D01*
X158920467Y-94657498D01*
X158920469Y-94657498D01*
X158920481Y-94657500D01*
X159376640Y-94657499D01*
X159420834Y-94675805D01*
X160496483Y-95751455D01*
X160496492Y-95751462D01*
X160565006Y-95791019D01*
X160565009Y-95791020D01*
X160565012Y-95791022D01*
X160565013Y-95791022D01*
X160565015Y-95791023D01*
X160591293Y-95798064D01*
X160641438Y-95811500D01*
X160641439Y-95811500D01*
X164225561Y-95811500D01*
X164225566Y-95811499D01*
X164248270Y-95805414D01*
X164301988Y-95791021D01*
X164370510Y-95751460D01*
X164426459Y-95695511D01*
X164702835Y-95419133D01*
X164733055Y-95403974D01*
X164732756Y-95403006D01*
X164737396Y-95401572D01*
X164792772Y-95374500D01*
X164842483Y-95350198D01*
X164925198Y-95267483D01*
X164976573Y-95162393D01*
X164986500Y-95094260D01*
X164986500Y-93377740D01*
X164976573Y-93309607D01*
X164925198Y-93204517D01*
X164842483Y-93121802D01*
X164842481Y-93121800D01*
X164821549Y-93111567D01*
X164789886Y-93075710D01*
X164786500Y-93055418D01*
X164786500Y-92476832D01*
X164804806Y-92432638D01*
X164839220Y-92415102D01*
X164886304Y-92407646D01*
X164999342Y-92350050D01*
X165089050Y-92260342D01*
X165146646Y-92147304D01*
X165161500Y-92053519D01*
X165161499Y-91590482D01*
X165146646Y-91496696D01*
X165089050Y-91383658D01*
X164999342Y-91293950D01*
X164927780Y-91257487D01*
X164886305Y-91236354D01*
X164886298Y-91236352D01*
X164792532Y-91221501D01*
X164792520Y-91221500D01*
X164792519Y-91221500D01*
X164792516Y-91221500D01*
X164179485Y-91221500D01*
X164179480Y-91221501D01*
X164085695Y-91236354D01*
X164085694Y-91236354D01*
X163972657Y-91293950D01*
X163882950Y-91383657D01*
X163825354Y-91496694D01*
X163825352Y-91496701D01*
X163810501Y-91590467D01*
X163810500Y-91590483D01*
X163810500Y-92053514D01*
X163810501Y-92053519D01*
X163825354Y-92147304D01*
X163825354Y-92147305D01*
X163867990Y-92230981D01*
X163882950Y-92260342D01*
X163972658Y-92350050D01*
X164085696Y-92407646D01*
X164132778Y-92415103D01*
X164173563Y-92440096D01*
X164185500Y-92476833D01*
X164185500Y-93055418D01*
X164167194Y-93099612D01*
X164150451Y-93111567D01*
X164129518Y-93121800D01*
X164046803Y-93204515D01*
X163995426Y-93309609D01*
X163985500Y-93377740D01*
X163985500Y-95094259D01*
X163992017Y-95138989D01*
X163980274Y-95185361D01*
X163939181Y-95209847D01*
X163930170Y-95210500D01*
X163771830Y-95210500D01*
X163727636Y-95192194D01*
X163709330Y-95148000D01*
X163709983Y-95138989D01*
X163716500Y-95094259D01*
X163716500Y-93377740D01*
X163715955Y-93374000D01*
X163706573Y-93309607D01*
X163655198Y-93204517D01*
X163572483Y-93121802D01*
X163467393Y-93070427D01*
X163467391Y-93070426D01*
X163467390Y-93070426D01*
X163413267Y-93062540D01*
X163399260Y-93060500D01*
X163032740Y-93060500D01*
X163021121Y-93062192D01*
X162964609Y-93070426D01*
X162859515Y-93121803D01*
X162776801Y-93204517D01*
X162760309Y-93238252D01*
X162724452Y-93269915D01*
X162676709Y-93266950D01*
X162659966Y-93254995D01*
X162010806Y-92605835D01*
X161992500Y-92561641D01*
X161992500Y-92473185D01*
X162010806Y-92428991D01*
X162045221Y-92411455D01*
X162075126Y-92406719D01*
X162195220Y-92345528D01*
X162290528Y-92250220D01*
X162351719Y-92130126D01*
X162367500Y-92030488D01*
X162367500Y-91513512D01*
X162364837Y-91496701D01*
X162351720Y-91413879D01*
X162351719Y-91413877D01*
X162351719Y-91413874D01*
X162351717Y-91413871D01*
X162351717Y-91413869D01*
X162290528Y-91293780D01*
X162195219Y-91198471D01*
X162075130Y-91137282D01*
X162075120Y-91137279D01*
X161975501Y-91121501D01*
X161975489Y-91121500D01*
X161975488Y-91121500D01*
X161408512Y-91121500D01*
X161408510Y-91121500D01*
X161408498Y-91121501D01*
X161308879Y-91137279D01*
X161308869Y-91137282D01*
X161188780Y-91198471D01*
X161093471Y-91293780D01*
X161032282Y-91413869D01*
X161032281Y-91413873D01*
X161032281Y-91413874D01*
X161031504Y-91418778D01*
X161006511Y-91459564D01*
X160969774Y-91471500D01*
X159620226Y-91471500D01*
X159576032Y-91453194D01*
X159558495Y-91418778D01*
X159557719Y-91413874D01*
X159557717Y-91413871D01*
X159557717Y-91413869D01*
X159496528Y-91293780D01*
X159401219Y-91198471D01*
X159281130Y-91137282D01*
X159281120Y-91137279D01*
X159181501Y-91121501D01*
X159181489Y-91121500D01*
X159181488Y-91121500D01*
X158614512Y-91121500D01*
X158614510Y-91121500D01*
X158614498Y-91121501D01*
X158514879Y-91137279D01*
X158514869Y-91137282D01*
X158394780Y-91198471D01*
X158299471Y-91293780D01*
X158238282Y-91413869D01*
X158238281Y-91413873D01*
X158238281Y-91413874D01*
X158237504Y-91418778D01*
X158212511Y-91459564D01*
X158175774Y-91471500D01*
X158108359Y-91471500D01*
X158064165Y-91453194D01*
X157091374Y-90480403D01*
X158296001Y-90480403D01*
X158305968Y-90548824D01*
X158305969Y-90548825D01*
X158357565Y-90654368D01*
X158440631Y-90737434D01*
X158546175Y-90789031D01*
X158614588Y-90798998D01*
X158614602Y-90798999D01*
X158797999Y-90798999D01*
X158998000Y-90798999D01*
X159181404Y-90798999D01*
X159249824Y-90789031D01*
X159249825Y-90789030D01*
X159355368Y-90737434D01*
X159438434Y-90654368D01*
X159490031Y-90548824D01*
X159500000Y-90480404D01*
X159500000Y-90480403D01*
X161090001Y-90480403D01*
X161099968Y-90548824D01*
X161099969Y-90548825D01*
X161151565Y-90654368D01*
X161234631Y-90737434D01*
X161340175Y-90789031D01*
X161408588Y-90798998D01*
X161408602Y-90798999D01*
X161591999Y-90798999D01*
X161792000Y-90798999D01*
X161975404Y-90798999D01*
X162043824Y-90789031D01*
X162043825Y-90789030D01*
X162149368Y-90737434D01*
X162232434Y-90654368D01*
X162284031Y-90548824D01*
X162294000Y-90480404D01*
X162294000Y-90322000D01*
X161792000Y-90322000D01*
X161792000Y-90798999D01*
X161591999Y-90798999D01*
X161592000Y-90798998D01*
X161592000Y-90322000D01*
X161090001Y-90322000D01*
X161090001Y-90480403D01*
X159500000Y-90480403D01*
X159500000Y-90322000D01*
X158998000Y-90322000D01*
X158998000Y-90798999D01*
X158797999Y-90798999D01*
X158798000Y-90798998D01*
X158798000Y-90322000D01*
X158296001Y-90322000D01*
X158296001Y-90480403D01*
X157091374Y-90480403D01*
X156574566Y-89963595D01*
X158296000Y-89963595D01*
X158296000Y-90122000D01*
X158798000Y-90122000D01*
X158998000Y-90122000D01*
X159499999Y-90122000D01*
X159499999Y-89963596D01*
X159499999Y-89963595D01*
X161090000Y-89963595D01*
X161090000Y-90122000D01*
X161592000Y-90122000D01*
X161792000Y-90122000D01*
X162293999Y-90122000D01*
X162293999Y-89963596D01*
X162284031Y-89895175D01*
X162284030Y-89895174D01*
X162232434Y-89789631D01*
X162149368Y-89706565D01*
X162043824Y-89654968D01*
X161975404Y-89645000D01*
X161792000Y-89645000D01*
X161792000Y-90122000D01*
X161592000Y-90122000D01*
X161592000Y-89645000D01*
X161408596Y-89645000D01*
X161340175Y-89654968D01*
X161340174Y-89654969D01*
X161234631Y-89706565D01*
X161151565Y-89789631D01*
X161099968Y-89895175D01*
X161090000Y-89963595D01*
X159499999Y-89963595D01*
X159490031Y-89895175D01*
X159490030Y-89895174D01*
X159438434Y-89789631D01*
X159355368Y-89706565D01*
X159249824Y-89654968D01*
X159181404Y-89645000D01*
X158998000Y-89645000D01*
X158998000Y-90122000D01*
X158798000Y-90122000D01*
X158798000Y-89645000D01*
X158614596Y-89645000D01*
X158546175Y-89654968D01*
X158546174Y-89654969D01*
X158440631Y-89706565D01*
X158357565Y-89789631D01*
X158305968Y-89895175D01*
X158296000Y-89963595D01*
X156574566Y-89963595D01*
X156422806Y-89811835D01*
X156404500Y-89767641D01*
X156404500Y-89111832D01*
X156422806Y-89067638D01*
X156457220Y-89050102D01*
X156504304Y-89042646D01*
X156617342Y-88985050D01*
X156707050Y-88895342D01*
X156764646Y-88782304D01*
X156778424Y-88695313D01*
X158296001Y-88695313D01*
X158302270Y-88742942D01*
X158351005Y-88847454D01*
X158432545Y-88928994D01*
X158537060Y-88977731D01*
X158584678Y-88983999D01*
X158797999Y-88983999D01*
X158998000Y-88983999D01*
X159211312Y-88983999D01*
X159211313Y-88983998D01*
X159258942Y-88977729D01*
X159363454Y-88928994D01*
X159363455Y-88928994D01*
X159444994Y-88847455D01*
X159444994Y-88847454D01*
X159493731Y-88742939D01*
X159499999Y-88695327D01*
X159500000Y-88695314D01*
X159500000Y-88557000D01*
X158998000Y-88557000D01*
X158998000Y-88983999D01*
X158797999Y-88983999D01*
X158798000Y-88983998D01*
X158798000Y-88557000D01*
X158296001Y-88557000D01*
X158296001Y-88695313D01*
X156778424Y-88695313D01*
X156779500Y-88688519D01*
X156779499Y-88225482D01*
X156778420Y-88218672D01*
X158296000Y-88218672D01*
X158296000Y-88357000D01*
X158798000Y-88357000D01*
X158998000Y-88357000D01*
X159499999Y-88357000D01*
X159499999Y-88218688D01*
X159499998Y-88218686D01*
X159493729Y-88171057D01*
X159444994Y-88066545D01*
X159363454Y-87985005D01*
X159258939Y-87936268D01*
X159211327Y-87930000D01*
X158998000Y-87930000D01*
X158998000Y-88357000D01*
X158798000Y-88357000D01*
X158798000Y-87930000D01*
X158584688Y-87930000D01*
X158584686Y-87930001D01*
X158537057Y-87936270D01*
X158432545Y-87985005D01*
X158432545Y-87985006D01*
X158351006Y-88066545D01*
X158351005Y-88066545D01*
X158302268Y-88171060D01*
X158296000Y-88218672D01*
X156778420Y-88218672D01*
X156764646Y-88131696D01*
X156707050Y-88018658D01*
X156617342Y-87928950D01*
X156583448Y-87911680D01*
X156504305Y-87871354D01*
X156504298Y-87871352D01*
X156410532Y-87856501D01*
X156410520Y-87856500D01*
X156410519Y-87856500D01*
X156410516Y-87856500D01*
X155797485Y-87856500D01*
X155797480Y-87856501D01*
X155703695Y-87871354D01*
X155703694Y-87871354D01*
X155590657Y-87928950D01*
X155500949Y-88018658D01*
X155448104Y-88122374D01*
X155411730Y-88153441D01*
X155392416Y-88156500D01*
X155301359Y-88156500D01*
X155257165Y-88138194D01*
X155152806Y-88033835D01*
X155134500Y-87989641D01*
X155134500Y-86575483D01*
X155428500Y-86575483D01*
X155428500Y-87038514D01*
X155428501Y-87038519D01*
X155443354Y-87132304D01*
X155443354Y-87132305D01*
X155466843Y-87178404D01*
X155500950Y-87245342D01*
X155590658Y-87335050D01*
X155703696Y-87392646D01*
X155703699Y-87392646D01*
X155703701Y-87392647D01*
X155797467Y-87407498D01*
X155797469Y-87407498D01*
X155797481Y-87407500D01*
X156410518Y-87407499D01*
X156504304Y-87392646D01*
X156617342Y-87335050D01*
X156707050Y-87245342D01*
X156759896Y-87141625D01*
X156796270Y-87110559D01*
X156815584Y-87107500D01*
X158186416Y-87107500D01*
X158230610Y-87125806D01*
X158242104Y-87141626D01*
X158285600Y-87226993D01*
X158294950Y-87245342D01*
X158384658Y-87335050D01*
X158497696Y-87392646D01*
X158497699Y-87392646D01*
X158497701Y-87392647D01*
X158591467Y-87407498D01*
X158591469Y-87407498D01*
X158591481Y-87407500D01*
X159047640Y-87407499D01*
X159091834Y-87425805D01*
X159520540Y-87854511D01*
X159576489Y-87910460D01*
X159645011Y-87950021D01*
X159668396Y-87956287D01*
X159721432Y-87970499D01*
X159721438Y-87970500D01*
X159800562Y-87970500D01*
X161002324Y-87970500D01*
X161046518Y-87988806D01*
X161064824Y-88033000D01*
X161058012Y-88061373D01*
X161053974Y-88069299D01*
X161032281Y-88111872D01*
X161032279Y-88111879D01*
X161016501Y-88211498D01*
X161016500Y-88211514D01*
X161016500Y-88728485D01*
X161016501Y-88728501D01*
X161032279Y-88828120D01*
X161032282Y-88828130D01*
X161093471Y-88948219D01*
X161188780Y-89043528D01*
X161308869Y-89104717D01*
X161308871Y-89104717D01*
X161308874Y-89104719D01*
X161308877Y-89104719D01*
X161308879Y-89104720D01*
X161408498Y-89120498D01*
X161408504Y-89120498D01*
X161408512Y-89120500D01*
X161408514Y-89120500D01*
X161975486Y-89120500D01*
X161975488Y-89120500D01*
X162022198Y-89113102D01*
X162075120Y-89104720D01*
X162075120Y-89104719D01*
X162075126Y-89104719D01*
X162195220Y-89043528D01*
X162290528Y-88948220D01*
X162338217Y-88854624D01*
X162374592Y-88823559D01*
X162393905Y-88820500D01*
X163774416Y-88820500D01*
X163818610Y-88838806D01*
X163830103Y-88854625D01*
X163844413Y-88882710D01*
X163877792Y-88948220D01*
X163882950Y-88958342D01*
X163972658Y-89048050D01*
X164085696Y-89105646D01*
X164132778Y-89113103D01*
X164173563Y-89138096D01*
X164185500Y-89174833D01*
X164185500Y-89517167D01*
X164167194Y-89561361D01*
X164132777Y-89578897D01*
X164102949Y-89583621D01*
X164085695Y-89586354D01*
X164085694Y-89586354D01*
X163972657Y-89643950D01*
X163882950Y-89733657D01*
X163825354Y-89846694D01*
X163825352Y-89846701D01*
X163810501Y-89940467D01*
X163810500Y-89940483D01*
X163810500Y-90403514D01*
X163810501Y-90403519D01*
X163825354Y-90497304D01*
X163825354Y-90497305D01*
X163851605Y-90548824D01*
X163882950Y-90610342D01*
X163972658Y-90700050D01*
X164085696Y-90757646D01*
X164085699Y-90757646D01*
X164085701Y-90757647D01*
X164179467Y-90772498D01*
X164179469Y-90772498D01*
X164179481Y-90772500D01*
X164635640Y-90772499D01*
X164679834Y-90790805D01*
X165437194Y-91548165D01*
X165455500Y-91592359D01*
X165455500Y-93055418D01*
X165437194Y-93099612D01*
X165420451Y-93111567D01*
X165399518Y-93121800D01*
X165316803Y-93204515D01*
X165265426Y-93309609D01*
X165255500Y-93377740D01*
X165255500Y-95094259D01*
X165265426Y-95162390D01*
X165265426Y-95162391D01*
X165265427Y-95162393D01*
X165316802Y-95267483D01*
X165399517Y-95350198D01*
X165504607Y-95401573D01*
X165572740Y-95411500D01*
X165572741Y-95411500D01*
X165939259Y-95411500D01*
X165939260Y-95411500D01*
X166007393Y-95401573D01*
X166112483Y-95350198D01*
X166195198Y-95267483D01*
X166246573Y-95162393D01*
X166256500Y-95094260D01*
X166256500Y-93377740D01*
X166525500Y-93377740D01*
X166525500Y-95094259D01*
X166535426Y-95162390D01*
X166535426Y-95162391D01*
X166535427Y-95162393D01*
X166586802Y-95267483D01*
X166669517Y-95350198D01*
X166774607Y-95401573D01*
X166842740Y-95411500D01*
X166842741Y-95411500D01*
X167209259Y-95411500D01*
X167209260Y-95411500D01*
X167277393Y-95401573D01*
X167382483Y-95350198D01*
X167465198Y-95267483D01*
X167481689Y-95233748D01*
X167517545Y-95202085D01*
X167565288Y-95205048D01*
X167582030Y-95217001D01*
X167629489Y-95264460D01*
X167698011Y-95304021D01*
X167721396Y-95310287D01*
X167774432Y-95324499D01*
X167774438Y-95324500D01*
X168589774Y-95324500D01*
X168633968Y-95342806D01*
X168651504Y-95377221D01*
X168651558Y-95377559D01*
X168652281Y-95382126D01*
X168652282Y-95382130D01*
X168713471Y-95502219D01*
X168808780Y-95597528D01*
X168928869Y-95658717D01*
X168928871Y-95658717D01*
X168928874Y-95658719D01*
X168928877Y-95658719D01*
X168928879Y-95658720D01*
X169028498Y-95674498D01*
X169028504Y-95674498D01*
X169028512Y-95674500D01*
X169028514Y-95674500D01*
X169595486Y-95674500D01*
X169595488Y-95674500D01*
X169689280Y-95659645D01*
X169695120Y-95658720D01*
X169695120Y-95658719D01*
X169695126Y-95658719D01*
X169815220Y-95597528D01*
X169910528Y-95502220D01*
X169958217Y-95408624D01*
X169994592Y-95377559D01*
X170013905Y-95374500D01*
X170796438Y-95374500D01*
X171394416Y-95374500D01*
X171438610Y-95392806D01*
X171450103Y-95408625D01*
X171464413Y-95436710D01*
X171497792Y-95502220D01*
X171502950Y-95512342D01*
X171592658Y-95602050D01*
X171705696Y-95659646D01*
X171705699Y-95659646D01*
X171705701Y-95659647D01*
X171799467Y-95674498D01*
X171799469Y-95674498D01*
X171799481Y-95674500D01*
X172412518Y-95674499D01*
X172506304Y-95659646D01*
X172619342Y-95602050D01*
X172709050Y-95512342D01*
X172766646Y-95399304D01*
X172781500Y-95305519D01*
X172781499Y-94842482D01*
X172766646Y-94748696D01*
X172709050Y-94635658D01*
X172619342Y-94545950D01*
X172619008Y-94545780D01*
X172506305Y-94488354D01*
X172506298Y-94488352D01*
X172412532Y-94473501D01*
X172412520Y-94473500D01*
X172412519Y-94473500D01*
X172412516Y-94473500D01*
X171799485Y-94473500D01*
X171799480Y-94473501D01*
X171705695Y-94488354D01*
X171705694Y-94488354D01*
X171592657Y-94545950D01*
X171502949Y-94635658D01*
X171450104Y-94739374D01*
X171413730Y-94770441D01*
X171394416Y-94773500D01*
X171199000Y-94773500D01*
X171154806Y-94755194D01*
X171136500Y-94711000D01*
X171136500Y-92672438D01*
X171136499Y-92672432D01*
X171118711Y-92606050D01*
X171116021Y-92596011D01*
X171076460Y-92527489D01*
X171020511Y-92471540D01*
X170579456Y-92030485D01*
X170130516Y-91581544D01*
X170130512Y-91581541D01*
X170130511Y-91581540D01*
X170061989Y-91541979D01*
X170061988Y-91541978D01*
X170061987Y-91541978D01*
X170012117Y-91528615D01*
X169974167Y-91499494D01*
X169972618Y-91496641D01*
X169915050Y-91383658D01*
X169825342Y-91293950D01*
X169753780Y-91257487D01*
X169712305Y-91236354D01*
X169712298Y-91236352D01*
X169618532Y-91221501D01*
X169618520Y-91221500D01*
X169618519Y-91221500D01*
X169618516Y-91221500D01*
X169005485Y-91221500D01*
X169005480Y-91221501D01*
X168911695Y-91236354D01*
X168911694Y-91236354D01*
X168798657Y-91293950D01*
X168708950Y-91383657D01*
X168651354Y-91496694D01*
X168651352Y-91496701D01*
X168636501Y-91590467D01*
X168636500Y-91590483D01*
X168636500Y-92053514D01*
X168636501Y-92053519D01*
X168651354Y-92147304D01*
X168651354Y-92147305D01*
X168693990Y-92230981D01*
X168708950Y-92260342D01*
X168798658Y-92350050D01*
X168911696Y-92407646D01*
X168911699Y-92407646D01*
X168911701Y-92407647D01*
X169005467Y-92422498D01*
X169005469Y-92422498D01*
X169005481Y-92422500D01*
X169618518Y-92422499D01*
X169712304Y-92407646D01*
X169825342Y-92350050D01*
X169893017Y-92282374D01*
X169937210Y-92264069D01*
X169981404Y-92282375D01*
X170517194Y-92818165D01*
X170535500Y-92862359D01*
X170535500Y-94711000D01*
X170517194Y-94755194D01*
X170473000Y-94773500D01*
X170042145Y-94773500D01*
X169997951Y-94755194D01*
X169980415Y-94720779D01*
X169971719Y-94665874D01*
X169971717Y-94665871D01*
X169971717Y-94665869D01*
X169910528Y-94545780D01*
X169815219Y-94450471D01*
X169695130Y-94389282D01*
X169695120Y-94389279D01*
X169595501Y-94373501D01*
X169595489Y-94373500D01*
X169595488Y-94373500D01*
X169028512Y-94373500D01*
X169028510Y-94373500D01*
X169028498Y-94373501D01*
X168928879Y-94389279D01*
X168928869Y-94389282D01*
X168808780Y-94450471D01*
X168713471Y-94545780D01*
X168652282Y-94665869D01*
X168652281Y-94665873D01*
X168652281Y-94665874D01*
X168651504Y-94670778D01*
X168626511Y-94711564D01*
X168589774Y-94723500D01*
X167964359Y-94723500D01*
X167920165Y-94705194D01*
X167544806Y-94329835D01*
X167526500Y-94285641D01*
X167526500Y-93732403D01*
X168710001Y-93732403D01*
X168719968Y-93800824D01*
X168719969Y-93800825D01*
X168771565Y-93906368D01*
X168854631Y-93989434D01*
X168960175Y-94041031D01*
X169028588Y-94050998D01*
X169028602Y-94050999D01*
X169211999Y-94050999D01*
X169412000Y-94050999D01*
X169595404Y-94050999D01*
X169663824Y-94041031D01*
X169663825Y-94041030D01*
X169769368Y-93989434D01*
X169852434Y-93906368D01*
X169904031Y-93800824D01*
X169914000Y-93732404D01*
X169914000Y-93574000D01*
X169412000Y-93574000D01*
X169412000Y-94050999D01*
X169211999Y-94050999D01*
X169212000Y-94050998D01*
X169212000Y-93574000D01*
X168710001Y-93574000D01*
X168710001Y-93732403D01*
X167526500Y-93732403D01*
X167526500Y-93377740D01*
X167525955Y-93374000D01*
X167516573Y-93309607D01*
X167470614Y-93215595D01*
X168710000Y-93215595D01*
X168710000Y-93374000D01*
X169212000Y-93374000D01*
X169412000Y-93374000D01*
X169913999Y-93374000D01*
X169913999Y-93215596D01*
X169904031Y-93147175D01*
X169904030Y-93147174D01*
X169852434Y-93041631D01*
X169769368Y-92958565D01*
X169663824Y-92906968D01*
X169595404Y-92897000D01*
X169412000Y-92897000D01*
X169412000Y-93374000D01*
X169212000Y-93374000D01*
X169212000Y-92897000D01*
X169028596Y-92897000D01*
X168960175Y-92906968D01*
X168960174Y-92906969D01*
X168854631Y-92958565D01*
X168771565Y-93041631D01*
X168719968Y-93147175D01*
X168710000Y-93215595D01*
X167470614Y-93215595D01*
X167465198Y-93204517D01*
X167382483Y-93121802D01*
X167277393Y-93070427D01*
X167277391Y-93070426D01*
X167277390Y-93070426D01*
X167223267Y-93062540D01*
X167209260Y-93060500D01*
X166842740Y-93060500D01*
X166831121Y-93062192D01*
X166774609Y-93070426D01*
X166669515Y-93121803D01*
X166586803Y-93204515D01*
X166535426Y-93309609D01*
X166525500Y-93377740D01*
X166256500Y-93377740D01*
X166246573Y-93309607D01*
X166195198Y-93204517D01*
X166112483Y-93121802D01*
X166112481Y-93121800D01*
X166091549Y-93111567D01*
X166059886Y-93075710D01*
X166056500Y-93055418D01*
X166056500Y-91402438D01*
X166056499Y-91402432D01*
X166045616Y-91361822D01*
X166036021Y-91326011D01*
X165996460Y-91257489D01*
X165940511Y-91201540D01*
X165179805Y-90440834D01*
X165161499Y-90396642D01*
X165161499Y-89940482D01*
X165146646Y-89846696D01*
X165089050Y-89733658D01*
X164999342Y-89643950D01*
X164961048Y-89624438D01*
X164886305Y-89586354D01*
X164886298Y-89586352D01*
X164839222Y-89578896D01*
X164798436Y-89553902D01*
X164786500Y-89517166D01*
X164786500Y-89174832D01*
X164804806Y-89130638D01*
X164839220Y-89113102D01*
X164886304Y-89105646D01*
X164999342Y-89048050D01*
X165089050Y-88958342D01*
X165146646Y-88845304D01*
X165161500Y-88751519D01*
X165161499Y-88288482D01*
X165146646Y-88194696D01*
X165089050Y-88081658D01*
X165084586Y-88077194D01*
X165066280Y-88033000D01*
X165084586Y-87988806D01*
X165128780Y-87970500D01*
X168411641Y-87970500D01*
X168455835Y-87988806D01*
X168618194Y-88151165D01*
X168636500Y-88195359D01*
X168636500Y-88678485D01*
X168636501Y-88678501D01*
X168652279Y-88778120D01*
X168652282Y-88778130D01*
X168713471Y-88898219D01*
X168808780Y-88993528D01*
X168928869Y-89054717D01*
X168928870Y-89054717D01*
X168928874Y-89054719D01*
X168958777Y-89059455D01*
X168999563Y-89084448D01*
X169011500Y-89121185D01*
X169011500Y-89517167D01*
X168993194Y-89561361D01*
X168958777Y-89578897D01*
X168928949Y-89583621D01*
X168911695Y-89586354D01*
X168911694Y-89586354D01*
X168798657Y-89643950D01*
X168708950Y-89733657D01*
X168651354Y-89846694D01*
X168651352Y-89846701D01*
X168636501Y-89940467D01*
X168636500Y-89940483D01*
X168636500Y-90403514D01*
X168636501Y-90403519D01*
X168651354Y-90497304D01*
X168651354Y-90497305D01*
X168677605Y-90548824D01*
X168708950Y-90610342D01*
X168798658Y-90700050D01*
X168911696Y-90757646D01*
X168911699Y-90757646D01*
X168911701Y-90757647D01*
X169005467Y-90772498D01*
X169005469Y-90772498D01*
X169005481Y-90772500D01*
X169618518Y-90772499D01*
X169712304Y-90757646D01*
X169825342Y-90700050D01*
X169915050Y-90610342D01*
X169967896Y-90506625D01*
X170004270Y-90475559D01*
X170023584Y-90472500D01*
X172463641Y-90472500D01*
X172507835Y-90490806D01*
X176231194Y-94214165D01*
X176249500Y-94258359D01*
X176249500Y-97588415D01*
X176231194Y-97632609D01*
X176215375Y-97644103D01*
X176111657Y-97696950D01*
X176069194Y-97739414D01*
X176025000Y-97757720D01*
X175980806Y-97739414D01*
X175962500Y-97695220D01*
X175962500Y-96940438D01*
X175962499Y-96940432D01*
X175951616Y-96899822D01*
X175942021Y-96864011D01*
X175902460Y-96795489D01*
X175846511Y-96739540D01*
X172799805Y-93692834D01*
X172781499Y-93648642D01*
X172781499Y-93192482D01*
X172766646Y-93098696D01*
X172709050Y-92985658D01*
X172619342Y-92895950D01*
X172506305Y-92838354D01*
X172506298Y-92838352D01*
X172412532Y-92823501D01*
X172412520Y-92823500D01*
X172412519Y-92823500D01*
X172412516Y-92823500D01*
X171799485Y-92823500D01*
X171799480Y-92823501D01*
X171705695Y-92838354D01*
X171705694Y-92838354D01*
X171592657Y-92895950D01*
X171502950Y-92985657D01*
X171445354Y-93098694D01*
X171445352Y-93098701D01*
X171430501Y-93192467D01*
X171430500Y-93192483D01*
X171430500Y-93655514D01*
X171430501Y-93655519D01*
X171445354Y-93749304D01*
X171445354Y-93749305D01*
X171471605Y-93800824D01*
X171502950Y-93862342D01*
X171592658Y-93952050D01*
X171705696Y-94009646D01*
X171705699Y-94009646D01*
X171705701Y-94009647D01*
X171799467Y-94024498D01*
X171799469Y-94024498D01*
X171799481Y-94024500D01*
X172255640Y-94024499D01*
X172299834Y-94042805D01*
X175343194Y-97086165D01*
X175361500Y-97130359D01*
X175361500Y-97606758D01*
X175343194Y-97650952D01*
X175299000Y-97669258D01*
X175270626Y-97662446D01*
X175225308Y-97639355D01*
X175225298Y-97639352D01*
X175131532Y-97624501D01*
X175131520Y-97624500D01*
X175131519Y-97624500D01*
X175131516Y-97624500D01*
X174668485Y-97624500D01*
X174668480Y-97624501D01*
X174574695Y-97639354D01*
X174574694Y-97639354D01*
X174461657Y-97696950D01*
X174371950Y-97786657D01*
X174314354Y-97899694D01*
X174312835Y-97904373D01*
X174310604Y-97903648D01*
X174289825Y-97937562D01*
X174253086Y-97949500D01*
X172817584Y-97949500D01*
X172773390Y-97931194D01*
X172761896Y-97915374D01*
X172709050Y-97811658D01*
X172619342Y-97721950D01*
X172506305Y-97664354D01*
X172506298Y-97664352D01*
X172412532Y-97649501D01*
X172412520Y-97649500D01*
X172412519Y-97649500D01*
X172412516Y-97649500D01*
X171799485Y-97649500D01*
X171799480Y-97649501D01*
X171705695Y-97664354D01*
X171705694Y-97664354D01*
X171592657Y-97721950D01*
X171502950Y-97811657D01*
X171445353Y-97924697D01*
X171445352Y-97924699D01*
X171441856Y-97946777D01*
X171416862Y-97987564D01*
X171380126Y-97999500D01*
X170034226Y-97999500D01*
X169990032Y-97981194D01*
X169972495Y-97946778D01*
X169971719Y-97941874D01*
X169971717Y-97941871D01*
X169971717Y-97941869D01*
X169910528Y-97821780D01*
X169815219Y-97726471D01*
X169695130Y-97665282D01*
X169695120Y-97665279D01*
X169595501Y-97649501D01*
X169595489Y-97649500D01*
X169595488Y-97649500D01*
X169595486Y-97649500D01*
X169087815Y-97649500D01*
X169056564Y-97641126D01*
X169038990Y-97630979D01*
X168962567Y-97610500D01*
X168962562Y-97610500D01*
X166016439Y-97610500D01*
X166016433Y-97610500D01*
X165940011Y-97630979D01*
X165940006Y-97630981D01*
X165907933Y-97649499D01*
X165907933Y-97649500D01*
X165871489Y-97670540D01*
X165571488Y-97970541D01*
X165539162Y-98002866D01*
X165508947Y-98018027D01*
X165509246Y-98018994D01*
X165504608Y-98020426D01*
X165504607Y-98020427D01*
X165399517Y-98071802D01*
X165399515Y-98071803D01*
X165316803Y-98154515D01*
X165265426Y-98259609D01*
X165256680Y-98319644D01*
X165255500Y-98327740D01*
X165255500Y-100044260D01*
X165257540Y-100058267D01*
X165265426Y-100112390D01*
X165265426Y-100112391D01*
X165265427Y-100112393D01*
X165316802Y-100217483D01*
X165399517Y-100300198D01*
X165504607Y-100351573D01*
X165572740Y-100361500D01*
X165572741Y-100361500D01*
X165939259Y-100361500D01*
X165939260Y-100361500D01*
X166007393Y-100351573D01*
X166112483Y-100300198D01*
X166195198Y-100217483D01*
X166246573Y-100112393D01*
X166255321Y-100052355D01*
X166599001Y-100052355D01*
X166601687Y-100075521D01*
X166601688Y-100075522D01*
X166643516Y-100170252D01*
X166643517Y-100170254D01*
X166716744Y-100243481D01*
X166811483Y-100285312D01*
X166834644Y-100287999D01*
X166925999Y-100287999D01*
X167126000Y-100287999D01*
X167217355Y-100287999D01*
X167240521Y-100285312D01*
X167240522Y-100285311D01*
X167335252Y-100243483D01*
X167335254Y-100243483D01*
X167408481Y-100170255D01*
X167435791Y-100108403D01*
X168710001Y-100108403D01*
X168719968Y-100176824D01*
X168719969Y-100176825D01*
X168771565Y-100282368D01*
X168854631Y-100365434D01*
X168960175Y-100417031D01*
X169028588Y-100426998D01*
X169028602Y-100426999D01*
X169211999Y-100426999D01*
X169412000Y-100426999D01*
X169595404Y-100426999D01*
X169663824Y-100417031D01*
X169663825Y-100417030D01*
X169769368Y-100365434D01*
X169852434Y-100282368D01*
X169904031Y-100176824D01*
X169914000Y-100108404D01*
X169914000Y-99950000D01*
X169412000Y-99950000D01*
X169412000Y-100426999D01*
X169211999Y-100426999D01*
X169212000Y-100426998D01*
X169212000Y-99950000D01*
X168710001Y-99950000D01*
X168710001Y-100108403D01*
X167435791Y-100108403D01*
X167450312Y-100075516D01*
X167453000Y-100052355D01*
X167453000Y-99591595D01*
X168710000Y-99591595D01*
X168710000Y-99750000D01*
X169212000Y-99750000D01*
X169412000Y-99750000D01*
X169913999Y-99750000D01*
X169913999Y-99591596D01*
X169904031Y-99523175D01*
X169904030Y-99523174D01*
X169852434Y-99417631D01*
X169769368Y-99334565D01*
X169663824Y-99282968D01*
X169595404Y-99273000D01*
X169412000Y-99273000D01*
X169412000Y-99750000D01*
X169212000Y-99750000D01*
X169212000Y-99273000D01*
X169028596Y-99273000D01*
X168960175Y-99282968D01*
X168960174Y-99282969D01*
X168854631Y-99334565D01*
X168771565Y-99417631D01*
X168719968Y-99523175D01*
X168710000Y-99591595D01*
X167453000Y-99591595D01*
X167453000Y-99286000D01*
X167126000Y-99286000D01*
X167126000Y-100287999D01*
X166925999Y-100287999D01*
X166926000Y-100287998D01*
X166926000Y-99286000D01*
X166599001Y-99286000D01*
X166599001Y-100052355D01*
X166255321Y-100052355D01*
X166256500Y-100044260D01*
X166256500Y-98327740D01*
X166249983Y-98283011D01*
X166261726Y-98236639D01*
X166302819Y-98212153D01*
X166311830Y-98211500D01*
X166543293Y-98211500D01*
X166587487Y-98229806D01*
X166605793Y-98274000D01*
X166602056Y-98291715D01*
X166602920Y-98291951D01*
X166601687Y-98296479D01*
X166599000Y-98319644D01*
X166599000Y-99086000D01*
X167452999Y-99086000D01*
X167452999Y-98319644D01*
X167450312Y-98296478D01*
X167449078Y-98291941D01*
X167451349Y-98291323D01*
X167450430Y-98251419D01*
X167483466Y-98216824D01*
X167508708Y-98211500D01*
X168574000Y-98211500D01*
X168618194Y-98229806D01*
X168636500Y-98274000D01*
X168636500Y-98558485D01*
X168636501Y-98558501D01*
X168652279Y-98658120D01*
X168652282Y-98658130D01*
X168713471Y-98778219D01*
X168808780Y-98873528D01*
X168928869Y-98934717D01*
X168928871Y-98934717D01*
X168928874Y-98934719D01*
X168928877Y-98934719D01*
X168928879Y-98934720D01*
X169028498Y-98950498D01*
X169028504Y-98950498D01*
X169028512Y-98950500D01*
X169028514Y-98950500D01*
X169595486Y-98950500D01*
X169595488Y-98950500D01*
X169695126Y-98934719D01*
X169815220Y-98873528D01*
X169910528Y-98778220D01*
X169971719Y-98658126D01*
X169972495Y-98653221D01*
X169997489Y-98612436D01*
X170034226Y-98600500D01*
X171419892Y-98600500D01*
X171464086Y-98618806D01*
X171475580Y-98634626D01*
X171502950Y-98688342D01*
X171592658Y-98778050D01*
X171705696Y-98835646D01*
X171705699Y-98835646D01*
X171705701Y-98835647D01*
X171799467Y-98850498D01*
X171799469Y-98850498D01*
X171799481Y-98850500D01*
X172412518Y-98850499D01*
X172506304Y-98835646D01*
X172619342Y-98778050D01*
X172709050Y-98688342D01*
X172761896Y-98584625D01*
X172798270Y-98553559D01*
X172817584Y-98550500D01*
X174237318Y-98550500D01*
X174281512Y-98568806D01*
X174297861Y-98604290D01*
X174299117Y-98604092D01*
X174299501Y-98606516D01*
X174299501Y-98606518D01*
X174306898Y-98653223D01*
X174314354Y-98700304D01*
X174314354Y-98700305D01*
X174353967Y-98778049D01*
X174371950Y-98813342D01*
X174461658Y-98903050D01*
X174574696Y-98960646D01*
X174574699Y-98960646D01*
X174574701Y-98960647D01*
X174668467Y-98975498D01*
X174668469Y-98975498D01*
X174668481Y-98975500D01*
X175131518Y-98975499D01*
X175225304Y-98960646D01*
X175270626Y-98937552D01*
X175318313Y-98933800D01*
X175354688Y-98964866D01*
X175361500Y-98993241D01*
X175361500Y-103765000D01*
X175343194Y-103809194D01*
X175299000Y-103827500D01*
X175132734Y-103827500D01*
X175123124Y-103828401D01*
X175102303Y-103830353D01*
X175102298Y-103830354D01*
X174974117Y-103875207D01*
X174974116Y-103875207D01*
X174864850Y-103955850D01*
X174784207Y-104065116D01*
X174784207Y-104065117D01*
X174739354Y-104193298D01*
X174739353Y-104193303D01*
X174737233Y-104215908D01*
X174736991Y-104218504D01*
X174736500Y-104223737D01*
X174736500Y-104832262D01*
X174739353Y-104862696D01*
X174739354Y-104862701D01*
X174784207Y-104990882D01*
X174784207Y-104990883D01*
X174824528Y-105045516D01*
X174864850Y-105100150D01*
X174974118Y-105180793D01*
X175102301Y-105225646D01*
X175132734Y-105228500D01*
X175132738Y-105228500D01*
X176191262Y-105228500D01*
X176191266Y-105228500D01*
X176221699Y-105225646D01*
X176349882Y-105180793D01*
X176459150Y-105100150D01*
X176539793Y-104990882D01*
X176584646Y-104862699D01*
X176587500Y-104832266D01*
X176587500Y-104223734D01*
X176584646Y-104193301D01*
X176539793Y-104065118D01*
X176459150Y-103955850D01*
X176349882Y-103875207D01*
X176221701Y-103830354D01*
X176221696Y-103830353D01*
X176201699Y-103828478D01*
X176191266Y-103827500D01*
X176191262Y-103827500D01*
X176025000Y-103827500D01*
X175980806Y-103809194D01*
X175962500Y-103765000D01*
X175962500Y-98904780D01*
X175980806Y-98860586D01*
X176025000Y-98842280D01*
X176069194Y-98860586D01*
X176111658Y-98903050D01*
X176224696Y-98960646D01*
X176224699Y-98960646D01*
X176224701Y-98960647D01*
X176318467Y-98975498D01*
X176318469Y-98975498D01*
X176318481Y-98975500D01*
X176781518Y-98975499D01*
X176875304Y-98960646D01*
X176988342Y-98903050D01*
X177078050Y-98813342D01*
X177135646Y-98700304D01*
X177150500Y-98606519D01*
X177150499Y-97993482D01*
X177135646Y-97899696D01*
X177078050Y-97786658D01*
X176988342Y-97696950D01*
X176933994Y-97669258D01*
X176884625Y-97644103D01*
X176853559Y-97607728D01*
X176850500Y-97588415D01*
X176850500Y-94068439D01*
X176850498Y-94068431D01*
X176830023Y-93992015D01*
X176830019Y-93992006D01*
X176790462Y-93923492D01*
X176790455Y-93923483D01*
X172798516Y-89931544D01*
X172798512Y-89931541D01*
X172798511Y-89931540D01*
X172729989Y-89891979D01*
X172729988Y-89891978D01*
X172729987Y-89891978D01*
X172653567Y-89871500D01*
X172653562Y-89871500D01*
X170023584Y-89871500D01*
X169979390Y-89853194D01*
X169967896Y-89837374D01*
X169915050Y-89733658D01*
X169825342Y-89643950D01*
X169712305Y-89586354D01*
X169712298Y-89586352D01*
X169665222Y-89578896D01*
X169624436Y-89553902D01*
X169612500Y-89517166D01*
X169612500Y-89121185D01*
X169630806Y-89076991D01*
X169665221Y-89059455D01*
X169695126Y-89054719D01*
X169815220Y-88993528D01*
X169910528Y-88898220D01*
X169971719Y-88778126D01*
X169976613Y-88747221D01*
X170001607Y-88706436D01*
X170038344Y-88694500D01*
X171383774Y-88694500D01*
X171427968Y-88712806D01*
X171445504Y-88747221D01*
X171446184Y-88751516D01*
X171446281Y-88752126D01*
X171446282Y-88752130D01*
X171507471Y-88872219D01*
X171602780Y-88967528D01*
X171722869Y-89028717D01*
X171722871Y-89028717D01*
X171722874Y-89028719D01*
X171722877Y-89028719D01*
X171722879Y-89028720D01*
X171822498Y-89044498D01*
X171822504Y-89044498D01*
X171822512Y-89044500D01*
X171822514Y-89044500D01*
X172389486Y-89044500D01*
X172389488Y-89044500D01*
X172489126Y-89028719D01*
X172609220Y-88967528D01*
X172704528Y-88872220D01*
X172765719Y-88752126D01*
X172781500Y-88652488D01*
X172781500Y-88135512D01*
X172780895Y-88131695D01*
X172765720Y-88035879D01*
X172765719Y-88035877D01*
X172765719Y-88035874D01*
X172765717Y-88035871D01*
X172765717Y-88035869D01*
X172704528Y-87915780D01*
X172609219Y-87820471D01*
X172489130Y-87759282D01*
X172489120Y-87759279D01*
X172389501Y-87743501D01*
X172389489Y-87743500D01*
X172389488Y-87743500D01*
X171822512Y-87743500D01*
X171822510Y-87743500D01*
X171822498Y-87743501D01*
X171722879Y-87759279D01*
X171722869Y-87759282D01*
X171602780Y-87820471D01*
X171507471Y-87915780D01*
X171446282Y-88035869D01*
X171446281Y-88035873D01*
X171446281Y-88035874D01*
X171445504Y-88040778D01*
X171420511Y-88081564D01*
X171383774Y-88093500D01*
X170026133Y-88093500D01*
X169981939Y-88075194D01*
X169970445Y-88059374D01*
X169960969Y-88040777D01*
X169910528Y-87941780D01*
X169815220Y-87846472D01*
X169815219Y-87846471D01*
X169695130Y-87785282D01*
X169695120Y-87785279D01*
X169595501Y-87769501D01*
X169595489Y-87769500D01*
X169595488Y-87769500D01*
X169595486Y-87769500D01*
X169112359Y-87769500D01*
X169068165Y-87751194D01*
X168821650Y-87504679D01*
X168803344Y-87460485D01*
X168821650Y-87416291D01*
X168865844Y-87397985D01*
X168893294Y-87404336D01*
X168960172Y-87437030D01*
X169028588Y-87446998D01*
X169028602Y-87446999D01*
X169211999Y-87446999D01*
X169412000Y-87446999D01*
X169595404Y-87446999D01*
X169663824Y-87437031D01*
X169663825Y-87437030D01*
X169769368Y-87385434D01*
X169852434Y-87302368D01*
X169904031Y-87196824D01*
X169914000Y-87128404D01*
X169914000Y-87102403D01*
X171504001Y-87102403D01*
X171513968Y-87170824D01*
X171513969Y-87170825D01*
X171565565Y-87276368D01*
X171648631Y-87359434D01*
X171754175Y-87411031D01*
X171822588Y-87420998D01*
X171822602Y-87420999D01*
X172005999Y-87420999D01*
X172206000Y-87420999D01*
X172389404Y-87420999D01*
X172457824Y-87411031D01*
X172457825Y-87411030D01*
X172563368Y-87359434D01*
X172646434Y-87276368D01*
X172698031Y-87170824D01*
X172708000Y-87102404D01*
X172708000Y-86944000D01*
X172206000Y-86944000D01*
X172206000Y-87420999D01*
X172005999Y-87420999D01*
X172006000Y-87420998D01*
X172006000Y-86944000D01*
X171504001Y-86944000D01*
X171504001Y-87102403D01*
X169914000Y-87102403D01*
X169914000Y-86970000D01*
X169412000Y-86970000D01*
X169412000Y-87446999D01*
X169211999Y-87446999D01*
X169212000Y-87446998D01*
X169212000Y-86970000D01*
X168710001Y-86970000D01*
X168710001Y-87128403D01*
X168719968Y-87196824D01*
X168719969Y-87196825D01*
X168771566Y-87302369D01*
X168774573Y-87306581D01*
X168773340Y-87307460D01*
X168789301Y-87345992D01*
X168770995Y-87390186D01*
X168726801Y-87408492D01*
X168695550Y-87400118D01*
X168677990Y-87389979D01*
X168601567Y-87369500D01*
X168601562Y-87369500D01*
X165074837Y-87369500D01*
X165030643Y-87351194D01*
X165012337Y-87307000D01*
X165030643Y-87262806D01*
X165032994Y-87260455D01*
X165032994Y-87260454D01*
X165081731Y-87155939D01*
X165087999Y-87108327D01*
X165088000Y-87108314D01*
X165088000Y-86970000D01*
X163884001Y-86970000D01*
X163884001Y-87108313D01*
X163890270Y-87155942D01*
X163939005Y-87260454D01*
X163941357Y-87262806D01*
X163959663Y-87307000D01*
X163941357Y-87351194D01*
X163897163Y-87369500D01*
X162324183Y-87369500D01*
X162279989Y-87351194D01*
X162261683Y-87307000D01*
X162268033Y-87279551D01*
X162284030Y-87246826D01*
X162294000Y-87178404D01*
X162294000Y-87020000D01*
X161090001Y-87020000D01*
X161090001Y-87178403D01*
X161099968Y-87246824D01*
X161099970Y-87246828D01*
X161115967Y-87279551D01*
X161118930Y-87327294D01*
X161087266Y-87363150D01*
X161059817Y-87369500D01*
X159911359Y-87369500D01*
X159867165Y-87351194D01*
X159591805Y-87075834D01*
X159573499Y-87031642D01*
X159573499Y-86661595D01*
X161090000Y-86661595D01*
X161090000Y-86820000D01*
X161592000Y-86820000D01*
X161792000Y-86820000D01*
X162293999Y-86820000D01*
X162293999Y-86661596D01*
X162289639Y-86631672D01*
X163884000Y-86631672D01*
X163884000Y-86770000D01*
X164386000Y-86770000D01*
X164586000Y-86770000D01*
X165087999Y-86770000D01*
X165087999Y-86631688D01*
X165087998Y-86631686D01*
X165085354Y-86611595D01*
X168710000Y-86611595D01*
X168710000Y-86770000D01*
X169212000Y-86770000D01*
X169412000Y-86770000D01*
X169913999Y-86770000D01*
X169913999Y-86611596D01*
X169910211Y-86585595D01*
X171504000Y-86585595D01*
X171504000Y-86744000D01*
X172006000Y-86744000D01*
X172206000Y-86744000D01*
X172707999Y-86744000D01*
X172707999Y-86585596D01*
X172698031Y-86517175D01*
X172698030Y-86517174D01*
X172646434Y-86411631D01*
X172563368Y-86328565D01*
X172457824Y-86276968D01*
X172389404Y-86267000D01*
X172206000Y-86267000D01*
X172206000Y-86744000D01*
X172006000Y-86744000D01*
X172006000Y-86267000D01*
X171822596Y-86267000D01*
X171754175Y-86276968D01*
X171754174Y-86276969D01*
X171648631Y-86328565D01*
X171565565Y-86411631D01*
X171513968Y-86517175D01*
X171504000Y-86585595D01*
X169910211Y-86585595D01*
X169904031Y-86543175D01*
X169904030Y-86543174D01*
X169852434Y-86437631D01*
X169769368Y-86354565D01*
X169663824Y-86302968D01*
X169595404Y-86293000D01*
X169412000Y-86293000D01*
X169412000Y-86770000D01*
X169212000Y-86770000D01*
X169212000Y-86293000D01*
X169028596Y-86293000D01*
X168960175Y-86302968D01*
X168960174Y-86302969D01*
X168854631Y-86354565D01*
X168771565Y-86437631D01*
X168719968Y-86543175D01*
X168710000Y-86611595D01*
X165085354Y-86611595D01*
X165081729Y-86584057D01*
X165032994Y-86479545D01*
X164951454Y-86398005D01*
X164846939Y-86349268D01*
X164799327Y-86343000D01*
X164586000Y-86343000D01*
X164586000Y-86770000D01*
X164386000Y-86770000D01*
X164386000Y-86343000D01*
X164172688Y-86343000D01*
X164172686Y-86343001D01*
X164125057Y-86349270D01*
X164020545Y-86398005D01*
X164020545Y-86398006D01*
X163939006Y-86479545D01*
X163939005Y-86479545D01*
X163890268Y-86584060D01*
X163884000Y-86631672D01*
X162289639Y-86631672D01*
X162284031Y-86593175D01*
X162284030Y-86593174D01*
X162232434Y-86487631D01*
X162149368Y-86404565D01*
X162043824Y-86352968D01*
X161975404Y-86343000D01*
X161792000Y-86343000D01*
X161792000Y-86820000D01*
X161592000Y-86820000D01*
X161592000Y-86343000D01*
X161408596Y-86343000D01*
X161340175Y-86352968D01*
X161340174Y-86352969D01*
X161234631Y-86404565D01*
X161151565Y-86487631D01*
X161099968Y-86593175D01*
X161090000Y-86661595D01*
X159573499Y-86661595D01*
X159573499Y-86575482D01*
X159558646Y-86481696D01*
X159501050Y-86368658D01*
X159411342Y-86278950D01*
X159334159Y-86239623D01*
X159298305Y-86221354D01*
X159298298Y-86221352D01*
X159204532Y-86206501D01*
X159204520Y-86206500D01*
X159204519Y-86206500D01*
X159204516Y-86206500D01*
X158591485Y-86206500D01*
X158591480Y-86206501D01*
X158497695Y-86221354D01*
X158497694Y-86221354D01*
X158384657Y-86278950D01*
X158294949Y-86368658D01*
X158279996Y-86398006D01*
X158244249Y-86468165D01*
X158242104Y-86472374D01*
X158205730Y-86503441D01*
X158186416Y-86506500D01*
X156815584Y-86506500D01*
X156771390Y-86488194D01*
X156759896Y-86472374D01*
X156757751Y-86468165D01*
X156707050Y-86368658D01*
X156617342Y-86278950D01*
X156540159Y-86239623D01*
X156504305Y-86221354D01*
X156504298Y-86221352D01*
X156410532Y-86206501D01*
X156410520Y-86206500D01*
X156410519Y-86206500D01*
X156410516Y-86206500D01*
X155797485Y-86206500D01*
X155797480Y-86206501D01*
X155703695Y-86221354D01*
X155703694Y-86221354D01*
X155590657Y-86278950D01*
X155500950Y-86368657D01*
X155443354Y-86481694D01*
X155443352Y-86481701D01*
X155428501Y-86575467D01*
X155428500Y-86575483D01*
X155134500Y-86575483D01*
X155134500Y-86512359D01*
X155152806Y-86468165D01*
X156464165Y-85156806D01*
X156508359Y-85138500D01*
X159427402Y-85138500D01*
X159471596Y-85156806D01*
X159489132Y-85191223D01*
X159494547Y-85225416D01*
X159494548Y-85225418D01*
X159494548Y-85225419D01*
X159494549Y-85225420D01*
X159554842Y-85343751D01*
X159648749Y-85437658D01*
X159767080Y-85497951D01*
X159767083Y-85497951D01*
X159767085Y-85497952D01*
X159865240Y-85513498D01*
X159865246Y-85513498D01*
X159865254Y-85513500D01*
X159865256Y-85513500D01*
X160368744Y-85513500D01*
X160368746Y-85513500D01*
X160466920Y-85497951D01*
X160585251Y-85437658D01*
X160679158Y-85343751D01*
X160739451Y-85225420D01*
X160755000Y-85127246D01*
X160755000Y-84548756D01*
X161054000Y-84548756D01*
X161054000Y-85127243D01*
X161054001Y-85127259D01*
X161069547Y-85225414D01*
X161069549Y-85225421D01*
X161087422Y-85260498D01*
X161129842Y-85343751D01*
X161223749Y-85437658D01*
X161342080Y-85497951D01*
X161342083Y-85497951D01*
X161342085Y-85497952D01*
X161440240Y-85513498D01*
X161440246Y-85513498D01*
X161440254Y-85513500D01*
X161916641Y-85513500D01*
X161960835Y-85531806D01*
X162469983Y-86040955D01*
X162469992Y-86040962D01*
X162538506Y-86080519D01*
X162538509Y-86080520D01*
X162538512Y-86080522D01*
X162538513Y-86080522D01*
X162538515Y-86080523D01*
X162585279Y-86093053D01*
X162614938Y-86101000D01*
X162614939Y-86101000D01*
X165595062Y-86101000D01*
X165595067Y-86100999D01*
X165617771Y-86094914D01*
X165671489Y-86080521D01*
X165740011Y-86040960D01*
X165795960Y-85985011D01*
X166116367Y-85664603D01*
X166160560Y-85646298D01*
X166188007Y-85652648D01*
X166266607Y-85691073D01*
X166334740Y-85701000D01*
X166334741Y-85701000D01*
X166701259Y-85701000D01*
X166701260Y-85701000D01*
X166769393Y-85691073D01*
X166874483Y-85639698D01*
X166957198Y-85556983D01*
X167008573Y-85451893D01*
X167018500Y-85383760D01*
X167018500Y-85201000D01*
X167036806Y-85156806D01*
X167081000Y-85138500D01*
X168737864Y-85138500D01*
X168782058Y-85156806D01*
X168808780Y-85183528D01*
X168928869Y-85244717D01*
X168928871Y-85244717D01*
X168928874Y-85244719D01*
X168928877Y-85244719D01*
X168928879Y-85244720D01*
X169028498Y-85260498D01*
X169028504Y-85260498D01*
X169028512Y-85260500D01*
X169028514Y-85260500D01*
X169595486Y-85260500D01*
X169595488Y-85260500D01*
X169695126Y-85244719D01*
X169815220Y-85183528D01*
X169910528Y-85088220D01*
X169971719Y-84968126D01*
X169976613Y-84937221D01*
X170001607Y-84896436D01*
X170038344Y-84884500D01*
X171383774Y-84884500D01*
X171427968Y-84902806D01*
X171445504Y-84937221D01*
X171446280Y-84942120D01*
X171446281Y-84942126D01*
X171446282Y-84942130D01*
X171507471Y-85062219D01*
X171602780Y-85157528D01*
X171722869Y-85218717D01*
X171722871Y-85218717D01*
X171722874Y-85218719D01*
X171722877Y-85218719D01*
X171722879Y-85218720D01*
X171822498Y-85234498D01*
X171822504Y-85234498D01*
X171822512Y-85234500D01*
X171822514Y-85234500D01*
X172389486Y-85234500D01*
X172389488Y-85234500D01*
X172446818Y-85225420D01*
X172489120Y-85218720D01*
X172489120Y-85218719D01*
X172489126Y-85218719D01*
X172609220Y-85157528D01*
X172704528Y-85062220D01*
X172765719Y-84942126D01*
X172781500Y-84842488D01*
X172781500Y-84325512D01*
X172765719Y-84225874D01*
X172765717Y-84225871D01*
X172765717Y-84225869D01*
X172704528Y-84105780D01*
X172609219Y-84010471D01*
X172489130Y-83949282D01*
X172489120Y-83949279D01*
X172389501Y-83933501D01*
X172389489Y-83933500D01*
X172389488Y-83933500D01*
X171822512Y-83933500D01*
X171822510Y-83933500D01*
X171822498Y-83933501D01*
X171722879Y-83949279D01*
X171722869Y-83949282D01*
X171602780Y-84010471D01*
X171507471Y-84105780D01*
X171446282Y-84225869D01*
X171446281Y-84225873D01*
X171446281Y-84225874D01*
X171445504Y-84230778D01*
X171420511Y-84271564D01*
X171383774Y-84283500D01*
X170026133Y-84283500D01*
X169981939Y-84265194D01*
X169970445Y-84249374D01*
X169960969Y-84230777D01*
X169910528Y-84131780D01*
X169815220Y-84036472D01*
X169815219Y-84036471D01*
X169695130Y-83975282D01*
X169695120Y-83975279D01*
X169595501Y-83959501D01*
X169595489Y-83959500D01*
X169595488Y-83959500D01*
X169028512Y-83959500D01*
X169028510Y-83959500D01*
X169028498Y-83959501D01*
X168928879Y-83975279D01*
X168928869Y-83975282D01*
X168808780Y-84036471D01*
X168713471Y-84131780D01*
X168652282Y-84251869D01*
X168652279Y-84251879D01*
X168636501Y-84351498D01*
X168636500Y-84351514D01*
X168636500Y-84475000D01*
X168618194Y-84519194D01*
X168574000Y-84537500D01*
X167081000Y-84537500D01*
X167036806Y-84519194D01*
X167018500Y-84475000D01*
X167018500Y-84292240D01*
X167017227Y-84283500D01*
X167008573Y-84224107D01*
X166957198Y-84119017D01*
X166874483Y-84036302D01*
X166769393Y-83984927D01*
X166769391Y-83984926D01*
X166769390Y-83984926D01*
X166703195Y-83975282D01*
X166701260Y-83975000D01*
X166334740Y-83975000D01*
X166332805Y-83975282D01*
X166266609Y-83984926D01*
X166161515Y-84036303D01*
X166078803Y-84119015D01*
X166027426Y-84224109D01*
X166017500Y-84292240D01*
X166017500Y-84887641D01*
X165999194Y-84931835D01*
X165449335Y-85481694D01*
X165405141Y-85500000D01*
X165173830Y-85500000D01*
X165129636Y-85481694D01*
X165111330Y-85437500D01*
X165111983Y-85428489D01*
X165118500Y-85383759D01*
X165118500Y-84292240D01*
X165117227Y-84283500D01*
X165108573Y-84224107D01*
X165057198Y-84119017D01*
X164974483Y-84036302D01*
X164869393Y-83984927D01*
X164869391Y-83984926D01*
X164869390Y-83984926D01*
X164803195Y-83975282D01*
X164801260Y-83975000D01*
X164434740Y-83975000D01*
X164432805Y-83975282D01*
X164366609Y-83984926D01*
X164261515Y-84036303D01*
X164178803Y-84119015D01*
X164127426Y-84224109D01*
X164117500Y-84292240D01*
X164117500Y-85383759D01*
X164124017Y-85428489D01*
X164112274Y-85474861D01*
X164071181Y-85499347D01*
X164062170Y-85500000D01*
X162804859Y-85500000D01*
X162760665Y-85481694D01*
X162348306Y-85069335D01*
X162330000Y-85025141D01*
X162330000Y-84548756D01*
X162329998Y-84548740D01*
X162314452Y-84450585D01*
X162314450Y-84450578D01*
X162254157Y-84332248D01*
X162160251Y-84238342D01*
X162041921Y-84178049D01*
X162041914Y-84178047D01*
X161943759Y-84162501D01*
X161943747Y-84162500D01*
X161943746Y-84162500D01*
X161440254Y-84162500D01*
X161440252Y-84162500D01*
X161440240Y-84162501D01*
X161342085Y-84178047D01*
X161342078Y-84178049D01*
X161223748Y-84238342D01*
X161129842Y-84332248D01*
X161069549Y-84450578D01*
X161069547Y-84450585D01*
X161054001Y-84548740D01*
X161054000Y-84548756D01*
X160755000Y-84548756D01*
X160755000Y-84548754D01*
X160752413Y-84532423D01*
X160739452Y-84450585D01*
X160739450Y-84450578D01*
X160679157Y-84332248D01*
X160585251Y-84238342D01*
X160466921Y-84178049D01*
X160466914Y-84178047D01*
X160368759Y-84162501D01*
X160368747Y-84162500D01*
X160368746Y-84162500D01*
X159865254Y-84162500D01*
X159865252Y-84162500D01*
X159865240Y-84162501D01*
X159767085Y-84178047D01*
X159767078Y-84178049D01*
X159648748Y-84238342D01*
X159554842Y-84332248D01*
X159494548Y-84450581D01*
X159494547Y-84450583D01*
X159489132Y-84484777D01*
X159464138Y-84525564D01*
X159427402Y-84537500D01*
X156318432Y-84537500D01*
X156242013Y-84557978D01*
X156242011Y-84557978D01*
X156173487Y-84597541D01*
X156173483Y-84597544D01*
X154959710Y-85811319D01*
X154649489Y-86121540D01*
X154621515Y-86149514D01*
X154593541Y-86177487D01*
X154553978Y-86246011D01*
X154553978Y-86246013D01*
X154533500Y-86322432D01*
X154533500Y-88179567D01*
X154545804Y-88225482D01*
X154553979Y-88255989D01*
X154581705Y-88304012D01*
X154593540Y-88324511D01*
X154593544Y-88324515D01*
X154966483Y-88697455D01*
X154966492Y-88697462D01*
X155035006Y-88737019D01*
X155035009Y-88737020D01*
X155035012Y-88737022D01*
X155035013Y-88737022D01*
X155035015Y-88737023D01*
X155057106Y-88742942D01*
X155111438Y-88757500D01*
X155190562Y-88757500D01*
X155392416Y-88757500D01*
X155436610Y-88775806D01*
X155448104Y-88791626D01*
X155489168Y-88872220D01*
X155500950Y-88895342D01*
X155590658Y-88985050D01*
X155703696Y-89042646D01*
X155750778Y-89050103D01*
X155791563Y-89075096D01*
X155803500Y-89111833D01*
X155803500Y-89301000D01*
X155785194Y-89345194D01*
X155741000Y-89363500D01*
X142856432Y-89363500D01*
X142780013Y-89383978D01*
X142780011Y-89383978D01*
X142711487Y-89423541D01*
X142711483Y-89423544D01*
X142323194Y-89811835D01*
X142203489Y-89931540D01*
X142175515Y-89959514D01*
X142147541Y-89987487D01*
X142107978Y-90056011D01*
X142107979Y-90056012D01*
X142087500Y-90132432D01*
X142087500Y-101579640D01*
X142069194Y-101623834D01*
X138771833Y-104921194D01*
X138727639Y-104939500D01*
X138271485Y-104939500D01*
X138271480Y-104939501D01*
X138177695Y-104954354D01*
X138177694Y-104954354D01*
X138064657Y-105011950D01*
X137974950Y-105101657D01*
X137917354Y-105214694D01*
X137917352Y-105214701D01*
X137902501Y-105308467D01*
X137902500Y-105308483D01*
X136392500Y-105308483D01*
X136392500Y-97085000D01*
X137686700Y-97085000D01*
X137705866Y-97316305D01*
X137705868Y-97316315D01*
X137762839Y-97541287D01*
X137762841Y-97541295D01*
X137762843Y-97541300D01*
X137817226Y-97665279D01*
X137856077Y-97753851D01*
X137856079Y-97753854D01*
X137877511Y-97786658D01*
X137983021Y-97948153D01*
X138096848Y-98071803D01*
X138140217Y-98118914D01*
X138140220Y-98118917D01*
X138323372Y-98261469D01*
X138323374Y-98261470D01*
X138527497Y-98371936D01*
X138747019Y-98447298D01*
X138975951Y-98485500D01*
X138975954Y-98485500D01*
X139208046Y-98485500D01*
X139208049Y-98485500D01*
X139436981Y-98447298D01*
X139656503Y-98371936D01*
X139860626Y-98261470D01*
X140043784Y-98118913D01*
X140200979Y-97948153D01*
X140327924Y-97753849D01*
X140421157Y-97541300D01*
X140478134Y-97316305D01*
X140497300Y-97085000D01*
X140478134Y-96853695D01*
X140421157Y-96628700D01*
X140327924Y-96416151D01*
X140200979Y-96221847D01*
X140043784Y-96051087D01*
X140043783Y-96051086D01*
X140043782Y-96051085D01*
X140043779Y-96051082D01*
X139860627Y-95908530D01*
X139860625Y-95908529D01*
X139796425Y-95873786D01*
X139656503Y-95798064D01*
X139436981Y-95722702D01*
X139208049Y-95684500D01*
X138975951Y-95684500D01*
X138804252Y-95713151D01*
X138747018Y-95722702D01*
X138548010Y-95791022D01*
X138527497Y-95798064D01*
X138463296Y-95832807D01*
X138323374Y-95908529D01*
X138323372Y-95908530D01*
X138140220Y-96051082D01*
X138140217Y-96051085D01*
X137983024Y-96221843D01*
X137983020Y-96221848D01*
X137856079Y-96416145D01*
X137856077Y-96416148D01*
X137762844Y-96628697D01*
X137762839Y-96628712D01*
X137705868Y-96853684D01*
X137705866Y-96853694D01*
X137686700Y-97085000D01*
X136392500Y-97085000D01*
X136392500Y-93233081D01*
X137805338Y-93233081D01*
X137811994Y-93255988D01*
X137892636Y-93392349D01*
X138004650Y-93504363D01*
X138141011Y-93585005D01*
X138293138Y-93629202D01*
X138328678Y-93631999D01*
X139455319Y-93631999D01*
X139455323Y-93631998D01*
X139490861Y-93629202D01*
X139642988Y-93585005D01*
X139779349Y-93504363D01*
X139891363Y-93392349D01*
X139972006Y-93255987D01*
X139978659Y-93233080D01*
X138892000Y-92146421D01*
X137805338Y-93233081D01*
X136392500Y-93233081D01*
X136392500Y-92990578D01*
X137765000Y-92990578D01*
X138750579Y-92005000D01*
X138750579Y-92004999D01*
X139033421Y-92004999D01*
X139033421Y-92005000D01*
X140018998Y-92990578D01*
X140018999Y-92990578D01*
X140018999Y-91019420D01*
X140018998Y-91019420D01*
X139033421Y-92004999D01*
X138750579Y-92004999D01*
X137765000Y-91019420D01*
X137765000Y-92990578D01*
X136392500Y-92990578D01*
X136392500Y-90776917D01*
X137805338Y-90776917D01*
X138891999Y-91863578D01*
X139978659Y-90776918D01*
X139972006Y-90754013D01*
X139891363Y-90617650D01*
X139779349Y-90505636D01*
X139642988Y-90424994D01*
X139490861Y-90380797D01*
X139455321Y-90378000D01*
X138328680Y-90378000D01*
X138328676Y-90378001D01*
X138293138Y-90380797D01*
X138141011Y-90424994D01*
X138004650Y-90505636D01*
X137892636Y-90617650D01*
X137811995Y-90754009D01*
X137805338Y-90776917D01*
X136392500Y-90776917D01*
X136392500Y-87842739D01*
X137677500Y-87842739D01*
X137677500Y-88437260D01*
X137680313Y-88467271D01*
X137680313Y-88467272D01*
X137680314Y-88467274D01*
X137693016Y-88503574D01*
X137724545Y-88593680D01*
X137764307Y-88647554D01*
X137804070Y-88701430D01*
X137871933Y-88751516D01*
X137911819Y-88780954D01*
X137911820Y-88780954D01*
X137911821Y-88780955D01*
X138038226Y-88825186D01*
X138068236Y-88828000D01*
X138068239Y-88828000D01*
X139087761Y-88828000D01*
X139087764Y-88828000D01*
X139117774Y-88825186D01*
X139244179Y-88780955D01*
X139282445Y-88752712D01*
X139319559Y-88740500D01*
X141183102Y-88740500D01*
X141183118Y-88740501D01*
X141186943Y-88740501D01*
X141345055Y-88740501D01*
X141345057Y-88740501D01*
X141497785Y-88699577D01*
X141579345Y-88652488D01*
X141634716Y-88620520D01*
X141746520Y-88508716D01*
X141746520Y-88508714D01*
X141751661Y-88503574D01*
X141751665Y-88503569D01*
X142163251Y-88091982D01*
X142207444Y-88073677D01*
X142213561Y-88073977D01*
X142342413Y-88086668D01*
X142371999Y-88089583D01*
X142372000Y-88089583D01*
X142577934Y-88069300D01*
X142775954Y-88009232D01*
X142958450Y-87911685D01*
X143118410Y-87780410D01*
X143249685Y-87620450D01*
X143347232Y-87437954D01*
X143407300Y-87239934D01*
X143427583Y-87034000D01*
X143417734Y-86933999D01*
X143940121Y-86933999D01*
X143940122Y-86934000D01*
X144421157Y-86934000D01*
X144412000Y-86968174D01*
X144412000Y-87099826D01*
X144421157Y-87134000D01*
X143940122Y-87134000D01*
X143949137Y-87225524D01*
X144005004Y-87409692D01*
X144095720Y-87579412D01*
X144095728Y-87579423D01*
X144217812Y-87728184D01*
X144217815Y-87728187D01*
X144366576Y-87850271D01*
X144366587Y-87850279D01*
X144536307Y-87940995D01*
X144720476Y-87996863D01*
X144812000Y-88005876D01*
X144812000Y-87524842D01*
X144846174Y-87534000D01*
X144977826Y-87534000D01*
X145012000Y-87524842D01*
X145012000Y-88005876D01*
X145103523Y-87996863D01*
X145287692Y-87940995D01*
X145457412Y-87850279D01*
X145457423Y-87850271D01*
X145606184Y-87728187D01*
X145606187Y-87728184D01*
X145728271Y-87579423D01*
X145728279Y-87579412D01*
X145818995Y-87409692D01*
X145874862Y-87225524D01*
X145883878Y-87134000D01*
X145402843Y-87134000D01*
X145412000Y-87099826D01*
X145412000Y-87033999D01*
X146396417Y-87033999D01*
X146396417Y-87034000D01*
X146416699Y-87239930D01*
X146416700Y-87239935D01*
X146476766Y-87437949D01*
X146476768Y-87437954D01*
X146574311Y-87620444D01*
X146574319Y-87620455D01*
X146705588Y-87780408D01*
X146705591Y-87780411D01*
X146786086Y-87846471D01*
X146865550Y-87911685D01*
X146865553Y-87911686D01*
X146865555Y-87911688D01*
X146911541Y-87936268D01*
X147048046Y-88009232D01*
X147246066Y-88069300D01*
X147452000Y-88089583D01*
X147657934Y-88069300D01*
X147855954Y-88009232D01*
X148038450Y-87911685D01*
X148198410Y-87780410D01*
X148329685Y-87620450D01*
X148427232Y-87437954D01*
X148487300Y-87239934D01*
X148507583Y-87034000D01*
X148487300Y-86828066D01*
X148427232Y-86630046D01*
X148329685Y-86447550D01*
X148198410Y-86287590D01*
X148185468Y-86276969D01*
X148048120Y-86164251D01*
X148941500Y-86164251D01*
X148941500Y-87903748D01*
X148953132Y-87962230D01*
X148953133Y-87962232D01*
X148997447Y-88028552D01*
X149063767Y-88072866D01*
X149063769Y-88072867D01*
X149122252Y-88084500D01*
X150861748Y-88084500D01*
X150920231Y-88072867D01*
X150986552Y-88028552D01*
X151030867Y-87962231D01*
X151042500Y-87903748D01*
X151042500Y-86164252D01*
X151030867Y-86105769D01*
X151030866Y-86105767D01*
X150986552Y-86039447D01*
X150920232Y-85995133D01*
X150920230Y-85995132D01*
X150861748Y-85983500D01*
X149122252Y-85983500D01*
X149063769Y-85995132D01*
X149063767Y-85995133D01*
X148997447Y-86039447D01*
X148953133Y-86105767D01*
X148953132Y-86105769D01*
X148941500Y-86164251D01*
X148048120Y-86164251D01*
X148038455Y-86156319D01*
X148038453Y-86156318D01*
X148038450Y-86156315D01*
X148038448Y-86156313D01*
X148038444Y-86156311D01*
X147855954Y-86058768D01*
X147855949Y-86058766D01*
X147657935Y-85998700D01*
X147657930Y-85998699D01*
X147452000Y-85978417D01*
X147246069Y-85998699D01*
X147246064Y-85998700D01*
X147048050Y-86058766D01*
X147048045Y-86058768D01*
X146865555Y-86156311D01*
X146865544Y-86156319D01*
X146705591Y-86287588D01*
X146705588Y-86287591D01*
X146574319Y-86447544D01*
X146574311Y-86447555D01*
X146476768Y-86630045D01*
X146476766Y-86630050D01*
X146416700Y-86828064D01*
X146416699Y-86828069D01*
X146396417Y-87033999D01*
X145412000Y-87033999D01*
X145412000Y-86968174D01*
X145402843Y-86934000D01*
X145883878Y-86934000D01*
X145883878Y-86933999D01*
X145874862Y-86842475D01*
X145818995Y-86658307D01*
X145728279Y-86488587D01*
X145728271Y-86488576D01*
X145606187Y-86339815D01*
X145606184Y-86339812D01*
X145457423Y-86217728D01*
X145457412Y-86217720D01*
X145287692Y-86127004D01*
X145103524Y-86071137D01*
X145012000Y-86062121D01*
X145012000Y-86543157D01*
X144977826Y-86534000D01*
X144846174Y-86534000D01*
X144812000Y-86543157D01*
X144812000Y-86062121D01*
X144811999Y-86062121D01*
X144720475Y-86071137D01*
X144536307Y-86127004D01*
X144366587Y-86217720D01*
X144366576Y-86217728D01*
X144217815Y-86339812D01*
X144217812Y-86339815D01*
X144095728Y-86488576D01*
X144095720Y-86488587D01*
X144005004Y-86658307D01*
X143949137Y-86842475D01*
X143940121Y-86933999D01*
X143417734Y-86933999D01*
X143407300Y-86828066D01*
X143347232Y-86630046D01*
X143249685Y-86447550D01*
X143118410Y-86287590D01*
X143105468Y-86276969D01*
X142958455Y-86156319D01*
X142958453Y-86156318D01*
X142958450Y-86156315D01*
X142958448Y-86156313D01*
X142958444Y-86156311D01*
X142775954Y-86058768D01*
X142775949Y-86058766D01*
X142577935Y-85998700D01*
X142577930Y-85998699D01*
X142372000Y-85978417D01*
X142166069Y-85998699D01*
X142166064Y-85998700D01*
X141968050Y-86058766D01*
X141968045Y-86058768D01*
X141785555Y-86156311D01*
X141785544Y-86156319D01*
X141625591Y-86287588D01*
X141625588Y-86287591D01*
X141494319Y-86447544D01*
X141494311Y-86447555D01*
X141396768Y-86630045D01*
X141396766Y-86630050D01*
X141336700Y-86828064D01*
X141336699Y-86828069D01*
X141316417Y-87033999D01*
X141316417Y-87034000D01*
X141332020Y-87192428D01*
X141318134Y-87238204D01*
X141314015Y-87242748D01*
X141035571Y-87521194D01*
X140991377Y-87539500D01*
X139319559Y-87539500D01*
X139282445Y-87527287D01*
X139244180Y-87499045D01*
X139180976Y-87476929D01*
X139117774Y-87454814D01*
X139117772Y-87454813D01*
X139117771Y-87454813D01*
X139096203Y-87452791D01*
X139087764Y-87452000D01*
X138068236Y-87452000D01*
X138060520Y-87452723D01*
X138038228Y-87454813D01*
X138038226Y-87454814D01*
X137911819Y-87499045D01*
X137804070Y-87578570D01*
X137724545Y-87686319D01*
X137680314Y-87812726D01*
X137680313Y-87812728D01*
X137677500Y-87842739D01*
X136392500Y-87842739D01*
X136392500Y-83775889D01*
X136392614Y-83772116D01*
X136395739Y-83720450D01*
X136410496Y-83476477D01*
X136411403Y-83469012D01*
X136464450Y-83179545D01*
X136466255Y-83172222D01*
X136478166Y-83133999D01*
X141316417Y-83133999D01*
X141316417Y-83134000D01*
X141336699Y-83339930D01*
X141336700Y-83339935D01*
X141396766Y-83537949D01*
X141396768Y-83537954D01*
X141494311Y-83720444D01*
X141494313Y-83720448D01*
X141494315Y-83720450D01*
X141625590Y-83880410D01*
X141785550Y-84011685D01*
X141785553Y-84011686D01*
X141785555Y-84011688D01*
X141831921Y-84036471D01*
X141968046Y-84109232D01*
X142166066Y-84169300D01*
X142372000Y-84189583D01*
X142577934Y-84169300D01*
X142775954Y-84109232D01*
X142958450Y-84011685D01*
X143118410Y-83880410D01*
X143249685Y-83720450D01*
X143347232Y-83537954D01*
X143407300Y-83339934D01*
X143427583Y-83134000D01*
X143427583Y-83133999D01*
X143856417Y-83133999D01*
X143856417Y-83134000D01*
X143876699Y-83339930D01*
X143876700Y-83339935D01*
X143936766Y-83537949D01*
X143936768Y-83537954D01*
X144034311Y-83720444D01*
X144034313Y-83720448D01*
X144034315Y-83720450D01*
X144165590Y-83880410D01*
X144325550Y-84011685D01*
X144325553Y-84011686D01*
X144325555Y-84011688D01*
X144371921Y-84036471D01*
X144508046Y-84109232D01*
X144706066Y-84169300D01*
X144912000Y-84189583D01*
X145117934Y-84169300D01*
X145315954Y-84109232D01*
X145498450Y-84011685D01*
X145658410Y-83880410D01*
X145789685Y-83720450D01*
X145887232Y-83537954D01*
X145947300Y-83339934D01*
X145967583Y-83134000D01*
X145967583Y-83133999D01*
X146396417Y-83133999D01*
X146396417Y-83134000D01*
X146416699Y-83339930D01*
X146416700Y-83339935D01*
X146476766Y-83537949D01*
X146476768Y-83537954D01*
X146574311Y-83720444D01*
X146574313Y-83720448D01*
X146574315Y-83720450D01*
X146705590Y-83880410D01*
X146865550Y-84011685D01*
X146865553Y-84011686D01*
X146865555Y-84011688D01*
X146911921Y-84036471D01*
X147048046Y-84109232D01*
X147246066Y-84169300D01*
X147452000Y-84189583D01*
X147657934Y-84169300D01*
X147855954Y-84109232D01*
X148038450Y-84011685D01*
X148198410Y-83880410D01*
X148329685Y-83720450D01*
X148427232Y-83537954D01*
X148487300Y-83339934D01*
X148507583Y-83134000D01*
X148507583Y-83133999D01*
X148936417Y-83133999D01*
X148936417Y-83134000D01*
X148956699Y-83339930D01*
X148956700Y-83339935D01*
X149016766Y-83537949D01*
X149016768Y-83537954D01*
X149114311Y-83720444D01*
X149114313Y-83720448D01*
X149114315Y-83720450D01*
X149245590Y-83880410D01*
X149405550Y-84011685D01*
X149405553Y-84011686D01*
X149405555Y-84011688D01*
X149451921Y-84036471D01*
X149588046Y-84109232D01*
X149786066Y-84169300D01*
X149992000Y-84189583D01*
X150197934Y-84169300D01*
X150395954Y-84109232D01*
X150578450Y-84011685D01*
X150738410Y-83880410D01*
X150869685Y-83720450D01*
X150967232Y-83537954D01*
X151027300Y-83339934D01*
X151047583Y-83134000D01*
X151045374Y-83111577D01*
X151027300Y-82928069D01*
X151027300Y-82928066D01*
X150967232Y-82730046D01*
X150898592Y-82601631D01*
X150869688Y-82547555D01*
X150869686Y-82547553D01*
X150869685Y-82547550D01*
X150824891Y-82492968D01*
X150738411Y-82387591D01*
X150738408Y-82387588D01*
X150588120Y-82264251D01*
X151481500Y-82264251D01*
X151481500Y-84003748D01*
X151493132Y-84062230D01*
X151493133Y-84062232D01*
X151537447Y-84128552D01*
X151603767Y-84172866D01*
X151603769Y-84172867D01*
X151662252Y-84184500D01*
X153401748Y-84184500D01*
X153460231Y-84172867D01*
X153526552Y-84128552D01*
X153570867Y-84062231D01*
X153582500Y-84003748D01*
X153582500Y-82264252D01*
X153570867Y-82205769D01*
X153570866Y-82205767D01*
X153526552Y-82139447D01*
X153460232Y-82095133D01*
X153460230Y-82095132D01*
X153401748Y-82083500D01*
X151662252Y-82083500D01*
X151603769Y-82095132D01*
X151603767Y-82095133D01*
X151537447Y-82139447D01*
X151493133Y-82205767D01*
X151493132Y-82205769D01*
X151481500Y-82264251D01*
X150588120Y-82264251D01*
X150578455Y-82256319D01*
X150578453Y-82256318D01*
X150578450Y-82256315D01*
X150578448Y-82256313D01*
X150578444Y-82256311D01*
X150395954Y-82158768D01*
X150395949Y-82158766D01*
X150197935Y-82098700D01*
X150197930Y-82098699D01*
X149992000Y-82078417D01*
X149786069Y-82098699D01*
X149786064Y-82098700D01*
X149588050Y-82158766D01*
X149588045Y-82158768D01*
X149405555Y-82256311D01*
X149405544Y-82256319D01*
X149245591Y-82387588D01*
X149245588Y-82387591D01*
X149114319Y-82547544D01*
X149114311Y-82547555D01*
X149016768Y-82730045D01*
X149016766Y-82730050D01*
X148956700Y-82928064D01*
X148956699Y-82928069D01*
X148936417Y-83133999D01*
X148507583Y-83133999D01*
X148505374Y-83111577D01*
X148487300Y-82928069D01*
X148487300Y-82928066D01*
X148427232Y-82730046D01*
X148358592Y-82601631D01*
X148329688Y-82547555D01*
X148329686Y-82547553D01*
X148329685Y-82547550D01*
X148284891Y-82492968D01*
X148198411Y-82387591D01*
X148198408Y-82387588D01*
X148038455Y-82256319D01*
X148038453Y-82256318D01*
X148038450Y-82256315D01*
X148038448Y-82256313D01*
X148038444Y-82256311D01*
X147855954Y-82158768D01*
X147855949Y-82158766D01*
X147657935Y-82098700D01*
X147657930Y-82098699D01*
X147452000Y-82078417D01*
X147246069Y-82098699D01*
X147246064Y-82098700D01*
X147048050Y-82158766D01*
X147048045Y-82158768D01*
X146865555Y-82256311D01*
X146865544Y-82256319D01*
X146705591Y-82387588D01*
X146705588Y-82387591D01*
X146574319Y-82547544D01*
X146574311Y-82547555D01*
X146476768Y-82730045D01*
X146476766Y-82730050D01*
X146416700Y-82928064D01*
X146416699Y-82928069D01*
X146396417Y-83133999D01*
X145967583Y-83133999D01*
X145965374Y-83111577D01*
X145947300Y-82928069D01*
X145947300Y-82928066D01*
X145887232Y-82730046D01*
X145818592Y-82601631D01*
X145789688Y-82547555D01*
X145789686Y-82547553D01*
X145789685Y-82547550D01*
X145744891Y-82492968D01*
X145658411Y-82387591D01*
X145658408Y-82387588D01*
X145498455Y-82256319D01*
X145498453Y-82256318D01*
X145498450Y-82256315D01*
X145498448Y-82256313D01*
X145498444Y-82256311D01*
X145315954Y-82158768D01*
X145315949Y-82158766D01*
X145117935Y-82098700D01*
X145117930Y-82098699D01*
X144912000Y-82078417D01*
X144706069Y-82098699D01*
X144706064Y-82098700D01*
X144508050Y-82158766D01*
X144508045Y-82158768D01*
X144325555Y-82256311D01*
X144325544Y-82256319D01*
X144165591Y-82387588D01*
X144165588Y-82387591D01*
X144034319Y-82547544D01*
X144034311Y-82547555D01*
X143936768Y-82730045D01*
X143936766Y-82730050D01*
X143876700Y-82928064D01*
X143876699Y-82928069D01*
X143856417Y-83133999D01*
X143427583Y-83133999D01*
X143425374Y-83111577D01*
X143407300Y-82928069D01*
X143407300Y-82928066D01*
X143347232Y-82730046D01*
X143278592Y-82601631D01*
X143249688Y-82547555D01*
X143249686Y-82547553D01*
X143249685Y-82547550D01*
X143204891Y-82492968D01*
X143118411Y-82387591D01*
X143118408Y-82387588D01*
X142958455Y-82256319D01*
X142958453Y-82256318D01*
X142958450Y-82256315D01*
X142958448Y-82256313D01*
X142958444Y-82256311D01*
X142775954Y-82158768D01*
X142775949Y-82158766D01*
X142577935Y-82098700D01*
X142577930Y-82098699D01*
X142372000Y-82078417D01*
X142166069Y-82098699D01*
X142166064Y-82098700D01*
X141968050Y-82158766D01*
X141968045Y-82158768D01*
X141785555Y-82256311D01*
X141785544Y-82256319D01*
X141625591Y-82387588D01*
X141625588Y-82387591D01*
X141494319Y-82547544D01*
X141494311Y-82547555D01*
X141396768Y-82730045D01*
X141396766Y-82730050D01*
X141336700Y-82928064D01*
X141336699Y-82928069D01*
X141316417Y-83133999D01*
X136478166Y-83133999D01*
X136553803Y-82891270D01*
X136556477Y-82884220D01*
X136677258Y-82615854D01*
X136680753Y-82609198D01*
X136833006Y-82357340D01*
X136837270Y-82351162D01*
X137018773Y-82119490D01*
X137023764Y-82113857D01*
X137231857Y-81905764D01*
X137237490Y-81900773D01*
X137469162Y-81719270D01*
X137475340Y-81715006D01*
X137727198Y-81562753D01*
X137733854Y-81559258D01*
X138002226Y-81438474D01*
X138009270Y-81435803D01*
X138290226Y-81348253D01*
X138297545Y-81346450D01*
X138587012Y-81293403D01*
X138594477Y-81292496D01*
X138876680Y-81275426D01*
X138890116Y-81274614D01*
X138893889Y-81274500D01*
X138957892Y-81274500D01*
X164668142Y-81274500D01*
X164712336Y-81292806D01*
G37*
G04 #@! TD.AperFunction*
G04 #@! TD*
M02*
