G04 #@! TF.GenerationSoftware,KiCad,Pcbnew,8.0.4*
G04 #@! TF.CreationDate,2024-08-01T22:41:18+02:00*
G04 #@! TF.ProjectId,Headless TEF Audio board,48656164-6c65-4737-9320-544546204175,1*
G04 #@! TF.SameCoordinates,Original*
G04 #@! TF.FileFunction,Other,User*
%FSLAX46Y46*%
G04 Gerber Fmt 4.6, Leading zero omitted, Abs format (unit mm)*
G04 Created by KiCad (PCBNEW 8.0.4) date 2024-08-01 22:41:18*
%MOMM*%
%LPD*%
G01*
G04 APERTURE LIST*
%ADD10C,0.050000*%
G04 APERTURE END LIST*
D10*
G04 #@! TO.C,C5*
X168582000Y-92769000D02*
X170042000Y-92769000D01*
X168582000Y-95729000D02*
X168582000Y-92769000D01*
X170042000Y-92769000D02*
X170042000Y-95729000D01*
X170042000Y-95729000D02*
X168582000Y-95729000D01*
G04 #@! TO.C,C13*
X168582000Y-82355000D02*
X170042000Y-82355000D01*
X168582000Y-85315000D02*
X168582000Y-82355000D01*
X170042000Y-82355000D02*
X170042000Y-85315000D01*
X170042000Y-85315000D02*
X168582000Y-85315000D01*
G04 #@! TO.C,C10*
X158168000Y-89517000D02*
X159628000Y-89517000D01*
X158168000Y-92477000D02*
X158168000Y-89517000D01*
X159628000Y-89517000D02*
X159628000Y-92477000D01*
X159628000Y-92477000D02*
X158168000Y-92477000D01*
G04 #@! TO.C,C14*
X171376000Y-82329000D02*
X172836000Y-82329000D01*
X171376000Y-85289000D02*
X171376000Y-82329000D01*
X172836000Y-82329000D02*
X172836000Y-85289000D01*
X172836000Y-85289000D02*
X171376000Y-85289000D01*
G04 #@! TO.C,U2*
X163868000Y-81650500D02*
X163868000Y-85750500D01*
X163868000Y-85750500D02*
X167268000Y-85750500D01*
X167268000Y-81650500D02*
X163868000Y-81650500D01*
X167268000Y-85750500D02*
X167268000Y-81650500D01*
G04 #@! TO.C,C6*
X160962000Y-86215000D02*
X162422000Y-86215000D01*
X160962000Y-89175000D02*
X160962000Y-86215000D01*
X162422000Y-86215000D02*
X162422000Y-89175000D01*
X162422000Y-89175000D02*
X160962000Y-89175000D01*
G04 #@! TO.C,JP1*
X139714000Y-104508000D02*
X139714000Y-108308000D01*
X139714000Y-108308000D02*
X140364000Y-108958000D01*
X140364000Y-103858000D02*
X139714000Y-104508000D01*
X140364000Y-108958000D02*
X141364000Y-108958000D01*
X141364000Y-103858000D02*
X140364000Y-103858000D01*
X141364000Y-108958000D02*
X142014000Y-108308000D01*
X142014000Y-104508000D02*
X141364000Y-103858000D01*
X142014000Y-108308000D02*
X142014000Y-104508000D01*
G04 #@! TO.C,R5*
X168582000Y-89517000D02*
X170042000Y-89517000D01*
X168582000Y-92477000D02*
X168582000Y-89517000D01*
X170042000Y-89517000D02*
X170042000Y-92477000D01*
X170042000Y-92477000D02*
X168582000Y-92477000D01*
G04 #@! TO.C,FB1*
X159424500Y-84108000D02*
X162384500Y-84108000D01*
X159424500Y-85568000D02*
X159424500Y-84108000D01*
X162384500Y-84108000D02*
X162384500Y-85568000D01*
X162384500Y-85568000D02*
X159424500Y-85568000D01*
G04 #@! TO.C,R4*
X171376000Y-97595000D02*
X172836000Y-97595000D01*
X171376000Y-100555000D02*
X171376000Y-97595000D01*
X172836000Y-97595000D02*
X172836000Y-100555000D01*
X172836000Y-100555000D02*
X171376000Y-100555000D01*
G04 #@! TO.C,R3*
X171376000Y-92769000D02*
X172836000Y-92769000D01*
X171376000Y-95729000D02*
X171376000Y-92769000D01*
X172836000Y-92769000D02*
X172836000Y-95729000D01*
X172836000Y-95729000D02*
X171376000Y-95729000D01*
G04 #@! TO.C,R6*
X174245000Y-97570000D02*
X177205000Y-97570000D01*
X174245000Y-99030000D02*
X174245000Y-97570000D01*
X177205000Y-97570000D02*
X177205000Y-99030000D01*
X177205000Y-99030000D02*
X174245000Y-99030000D01*
G04 #@! TO.C,C3*
X174682000Y-103778000D02*
X176642000Y-103778000D01*
X174682000Y-107178000D02*
X174682000Y-103778000D01*
X176642000Y-103778000D02*
X176642000Y-107178000D01*
X176642000Y-107178000D02*
X174682000Y-107178000D01*
G04 #@! TO.C,R1*
X155374000Y-86152000D02*
X156834000Y-86152000D01*
X155374000Y-89112000D02*
X155374000Y-86152000D01*
X156834000Y-86152000D02*
X156834000Y-89112000D01*
X156834000Y-89112000D02*
X155374000Y-89112000D01*
G04 #@! TO.C,U1*
X162421000Y-93011000D02*
X162421000Y-100411000D01*
X162421000Y-100411000D02*
X167821000Y-100411000D01*
X167821000Y-93011000D02*
X162421000Y-93011000D01*
X167821000Y-100411000D02*
X167821000Y-93011000D01*
G04 #@! TO.C,C1*
X171376000Y-86139000D02*
X172836000Y-86139000D01*
X171376000Y-89099000D02*
X171376000Y-86139000D01*
X172836000Y-86139000D02*
X172836000Y-89099000D01*
X172836000Y-89099000D02*
X171376000Y-89099000D01*
G04 #@! TO.C,F1*
X137628000Y-85522500D02*
X139528000Y-85522500D01*
X137628000Y-88882500D02*
X137628000Y-85522500D01*
X139528000Y-85522500D02*
X139528000Y-88882500D01*
X139528000Y-88882500D02*
X137628000Y-88882500D01*
G04 #@! TO.C,R13*
X150294000Y-91423000D02*
X151754000Y-91423000D01*
X150294000Y-94383000D02*
X150294000Y-91423000D01*
X151754000Y-91423000D02*
X151754000Y-94383000D01*
X151754000Y-94383000D02*
X150294000Y-94383000D01*
G04 #@! TO.C,R11*
X156847000Y-93252000D02*
X159807000Y-93252000D01*
X156847000Y-94712000D02*
X156847000Y-93252000D01*
X159807000Y-93252000D02*
X159807000Y-94712000D01*
X159807000Y-94712000D02*
X156847000Y-94712000D01*
G04 #@! TO.C,C7*
X168582000Y-97595000D02*
X170042000Y-97595000D01*
X168582000Y-100555000D02*
X168582000Y-97595000D01*
X170042000Y-97595000D02*
X170042000Y-100555000D01*
X170042000Y-100555000D02*
X168582000Y-100555000D01*
G04 #@! TO.C,R12*
X156847000Y-99094000D02*
X159807000Y-99094000D01*
X156847000Y-100554000D02*
X156847000Y-99094000D01*
X159807000Y-99094000D02*
X159807000Y-100554000D01*
X159807000Y-100554000D02*
X156847000Y-100554000D01*
G04 #@! TO.C,R2*
X158168000Y-86152000D02*
X159628000Y-86152000D01*
X158168000Y-89112000D02*
X158168000Y-86152000D01*
X159628000Y-86152000D02*
X159628000Y-89112000D01*
X159628000Y-89112000D02*
X158168000Y-89112000D01*
G04 #@! TO.C,C9*
X160962000Y-89517000D02*
X162422000Y-89517000D01*
X160962000Y-92477000D02*
X160962000Y-89517000D01*
X162422000Y-89517000D02*
X162422000Y-92477000D01*
X162422000Y-92477000D02*
X160962000Y-92477000D01*
G04 #@! TO.C,R9*
X163756000Y-89517000D02*
X165216000Y-89517000D01*
X163756000Y-92477000D02*
X163756000Y-89517000D01*
X165216000Y-89517000D02*
X165216000Y-92477000D01*
X165216000Y-92477000D02*
X163756000Y-92477000D01*
G04 #@! TO.C,R15*
X137848000Y-104885000D02*
X139308000Y-104885000D01*
X137848000Y-107845000D02*
X137848000Y-104885000D01*
X139308000Y-104885000D02*
X139308000Y-107845000D01*
X139308000Y-107845000D02*
X137848000Y-107845000D01*
G04 #@! TO.C,C12*
X153092000Y-99203000D02*
X155052000Y-99203000D01*
X153092000Y-102603000D02*
X153092000Y-99203000D01*
X155052000Y-99203000D02*
X155052000Y-102603000D01*
X155052000Y-102603000D02*
X153092000Y-102603000D01*
G04 #@! TO.C,C8*
X165229000Y-104174000D02*
X168189000Y-104174000D01*
X165229000Y-105634000D02*
X165229000Y-104174000D01*
X168189000Y-104174000D02*
X168189000Y-105634000D01*
X168189000Y-105634000D02*
X165229000Y-105634000D01*
G04 #@! TO.C,R14*
X150294000Y-99423000D02*
X151754000Y-99423000D01*
X150294000Y-102383000D02*
X150294000Y-99423000D01*
X151754000Y-99423000D02*
X151754000Y-102383000D01*
X151754000Y-102383000D02*
X150294000Y-102383000D01*
G04 #@! TO.C,C11*
X153092000Y-91203000D02*
X155052000Y-91203000D01*
X153092000Y-94603000D02*
X153092000Y-91203000D01*
X155052000Y-91203000D02*
X155052000Y-94603000D01*
X155052000Y-94603000D02*
X153092000Y-94603000D01*
G04 #@! TO.C,R10*
X161990000Y-101380000D02*
X164950000Y-101380000D01*
X161990000Y-102840000D02*
X161990000Y-101380000D01*
X164950000Y-101380000D02*
X164950000Y-102840000D01*
X164950000Y-102840000D02*
X161990000Y-102840000D01*
G04 #@! TO.C,R7*
X163756000Y-86215000D02*
X165216000Y-86215000D01*
X163756000Y-89175000D02*
X163756000Y-86215000D01*
X165216000Y-86215000D02*
X165216000Y-89175000D01*
X165216000Y-89175000D02*
X163756000Y-89175000D01*
G04 #@! TO.C,C2*
X168582000Y-86165000D02*
X170042000Y-86165000D01*
X168582000Y-89125000D02*
X168582000Y-86165000D01*
X170042000Y-86165000D02*
X170042000Y-89125000D01*
X170042000Y-89125000D02*
X168582000Y-89125000D01*
G04 #@! TO.C,C4*
X169856000Y-103778000D02*
X171816000Y-103778000D01*
X169856000Y-107178000D02*
X169856000Y-103778000D01*
X171816000Y-103778000D02*
X171816000Y-107178000D01*
X171816000Y-107178000D02*
X169856000Y-107178000D01*
G04 #@! TO.C,R8*
X165229000Y-101380000D02*
X168189000Y-101380000D01*
X165229000Y-102840000D02*
X165229000Y-101380000D01*
X168189000Y-101380000D02*
X168189000Y-102840000D01*
X168189000Y-102840000D02*
X165229000Y-102840000D01*
G04 #@! TD*
M02*
