M48
; DRILL file {KiCad 8.0.4} date 2024-08-01T22:41:18+0200
; FORMAT={-:-/ absolute / metric / decimal}
; #@! TF.CreationDate,2024-08-01T22:41:18+02:00
; #@! TF.GenerationSoftware,Kicad,Pcbnew,8.0.4
; #@! TF.FileFunction,Plated,1,2,PTH
FMAT,2
METRIC
; #@! TA.AperFunction,Plated,PTH,ViaDrill
T1C0.300
; #@! TA.AperFunction,Plated,PTH,ComponentDrill
T2C0.800
; #@! TA.AperFunction,Plated,PTH,ComponentDrill
T3C1.000
%
G90
G05
T1
X141.308Y-92.987
X141.32Y-90.97
X143.275Y-90.97
X151.025Y-98.862
X151.032Y-94.862
X157.808Y-89.294
X163.067Y-89.726
X163.083Y-86.458
X165.502Y-83.822
X166.983Y-100.841
X168.844Y-104.909
X169.167Y-101.715
X169.312Y-81.79
X170.676Y-86.283
X172.106Y-81.79
T2
X140.864Y-105.158
X140.864Y-107.698
T3
X142.372Y-83.134
X142.372Y-87.034
X144.912Y-83.134
X144.912Y-87.034
X145.312Y-106.884
X147.452Y-83.134
X147.452Y-87.034
X147.852Y-106.884
X148.865Y-110.484
X149.992Y-83.134
X149.992Y-87.034
X150.392Y-106.884
X151.405Y-110.484
X152.532Y-83.134
X152.932Y-106.884
X153.945Y-110.484
X155.472Y-106.884
X156.485Y-110.484
X159.025Y-110.484
X161.565Y-110.484
X164.105Y-110.484
X170.709Y-110.484
X173.249Y-110.484
X175.789Y-110.484
M30
