%TF.GenerationSoftware,KiCad,Pcbnew,8.0.4*%
%TF.CreationDate,2024-08-01T22:41:18+02:00*%
%TF.ProjectId,Headless TEF Audio board,48656164-6c65-4737-9320-544546204175,1*%
%TF.SameCoordinates,Original*%
%TF.FileFunction,Drillmap*%
%TF.FilePolarity,Positive*%
%FSLAX45Y45*%
G04 Gerber Fmt 4.5, Leading zero omitted, Abs format (unit mm)*
G04 Created by KiCad (PCBNEW 8.0.4) date 2024-08-01 22:41:18*
%MOMM*%
%LPD*%
G01*
G04 APERTURE LIST*
%ADD10C,0.200000*%
%ADD11C,0.100000*%
G04 APERTURE END LIST*
D10*
X18121200Y-10977800D02*
X18121200Y-8377400D01*
X13883200Y-11277800D02*
X17820200Y-11277800D01*
X13589200Y-10977800D02*
X13589200Y-8377400D01*
X13589200Y-8377400D02*
G75*
G02*
X13889200Y-8077400I300000J0D01*
G01*
X18121200Y-10977800D02*
G75*
G02*
X17820200Y-11277800I-300500J500D01*
G01*
X13883200Y-11277800D02*
G75*
G02*
X13589201Y-10977800I1940J295960D01*
G01*
X17820200Y-8077400D02*
X13889200Y-8077400D01*
X17820200Y-8077400D02*
G75*
G02*
X18121200Y-8377400I500J-300500D01*
G01*
D11*
X13999200Y-9708500D02*
G75*
G02*
X13819200Y-9708500I-90000J0D01*
G01*
X13819200Y-9708500D02*
G75*
G02*
X13999200Y-9708500I90000J0D01*
G01*
X14600900Y-9708500D02*
G75*
G02*
X14420900Y-9708500I-90000J0D01*
G01*
X14420900Y-9708500D02*
G75*
G02*
X14600900Y-9708500I90000J0D01*
G01*
D10*
X13839950Y-11599284D02*
X13839950Y-11399284D01*
X13839950Y-11399284D02*
X13887569Y-11399284D01*
X13887569Y-11399284D02*
X13916141Y-11408808D01*
X13916141Y-11408808D02*
X13935188Y-11427856D01*
X13935188Y-11427856D02*
X13944712Y-11446903D01*
X13944712Y-11446903D02*
X13954236Y-11484998D01*
X13954236Y-11484998D02*
X13954236Y-11513570D01*
X13954236Y-11513570D02*
X13944712Y-11551665D01*
X13944712Y-11551665D02*
X13935188Y-11570713D01*
X13935188Y-11570713D02*
X13916141Y-11589760D01*
X13916141Y-11589760D02*
X13887569Y-11599284D01*
X13887569Y-11599284D02*
X13839950Y-11599284D01*
X14039950Y-11599284D02*
X14039950Y-11465951D01*
X14039950Y-11504046D02*
X14049474Y-11484998D01*
X14049474Y-11484998D02*
X14058998Y-11475475D01*
X14058998Y-11475475D02*
X14078046Y-11465951D01*
X14078046Y-11465951D02*
X14097093Y-11465951D01*
X14163760Y-11599284D02*
X14163760Y-11465951D01*
X14163760Y-11399284D02*
X14154236Y-11408808D01*
X14154236Y-11408808D02*
X14163760Y-11418332D01*
X14163760Y-11418332D02*
X14173284Y-11408808D01*
X14173284Y-11408808D02*
X14163760Y-11399284D01*
X14163760Y-11399284D02*
X14163760Y-11418332D01*
X14287569Y-11599284D02*
X14268522Y-11589760D01*
X14268522Y-11589760D02*
X14258998Y-11570713D01*
X14258998Y-11570713D02*
X14258998Y-11399284D01*
X14392331Y-11599284D02*
X14373284Y-11589760D01*
X14373284Y-11589760D02*
X14363760Y-11570713D01*
X14363760Y-11570713D02*
X14363760Y-11399284D01*
X14620903Y-11599284D02*
X14620903Y-11399284D01*
X14620903Y-11399284D02*
X14687569Y-11542141D01*
X14687569Y-11542141D02*
X14754236Y-11399284D01*
X14754236Y-11399284D02*
X14754236Y-11599284D01*
X14935188Y-11599284D02*
X14935188Y-11494522D01*
X14935188Y-11494522D02*
X14925665Y-11475475D01*
X14925665Y-11475475D02*
X14906617Y-11465951D01*
X14906617Y-11465951D02*
X14868522Y-11465951D01*
X14868522Y-11465951D02*
X14849474Y-11475475D01*
X14935188Y-11589760D02*
X14916141Y-11599284D01*
X14916141Y-11599284D02*
X14868522Y-11599284D01*
X14868522Y-11599284D02*
X14849474Y-11589760D01*
X14849474Y-11589760D02*
X14839950Y-11570713D01*
X14839950Y-11570713D02*
X14839950Y-11551665D01*
X14839950Y-11551665D02*
X14849474Y-11532617D01*
X14849474Y-11532617D02*
X14868522Y-11523094D01*
X14868522Y-11523094D02*
X14916141Y-11523094D01*
X14916141Y-11523094D02*
X14935188Y-11513570D01*
X15030427Y-11465951D02*
X15030427Y-11665951D01*
X15030427Y-11475475D02*
X15049474Y-11465951D01*
X15049474Y-11465951D02*
X15087569Y-11465951D01*
X15087569Y-11465951D02*
X15106617Y-11475475D01*
X15106617Y-11475475D02*
X15116141Y-11484998D01*
X15116141Y-11484998D02*
X15125665Y-11504046D01*
X15125665Y-11504046D02*
X15125665Y-11561189D01*
X15125665Y-11561189D02*
X15116141Y-11580236D01*
X15116141Y-11580236D02*
X15106617Y-11589760D01*
X15106617Y-11589760D02*
X15087569Y-11599284D01*
X15087569Y-11599284D02*
X15049474Y-11599284D01*
X15049474Y-11599284D02*
X15030427Y-11589760D01*
X15211379Y-11580236D02*
X15220903Y-11589760D01*
X15220903Y-11589760D02*
X15211379Y-11599284D01*
X15211379Y-11599284D02*
X15201855Y-11589760D01*
X15201855Y-11589760D02*
X15211379Y-11580236D01*
X15211379Y-11580236D02*
X15211379Y-11599284D01*
X15211379Y-11475475D02*
X15220903Y-11484998D01*
X15220903Y-11484998D02*
X15211379Y-11494522D01*
X15211379Y-11494522D02*
X15201855Y-11484998D01*
X15201855Y-11484998D02*
X15211379Y-11475475D01*
X15211379Y-11475475D02*
X15211379Y-11494522D01*
M02*
