G04 #@! TF.GenerationSoftware,KiCad,Pcbnew,8.0.4*
G04 #@! TF.CreationDate,2024-08-01T22:41:18+02:00*
G04 #@! TF.ProjectId,Headless TEF Audio board,48656164-6c65-4737-9320-544546204175,1*
G04 #@! TF.SameCoordinates,Original*
G04 #@! TF.FileFunction,Legend,Top*
G04 #@! TF.FilePolarity,Positive*
%FSLAX46Y46*%
G04 Gerber Fmt 4.6, Leading zero omitted, Abs format (unit mm)*
G04 Created by KiCad (PCBNEW 8.0.4) date 2024-08-01 22:41:18*
%MOMM*%
%LPD*%
G01*
G04 APERTURE LIST*
G04 Aperture macros list*
%AMRoundRect*
0 Rectangle with rounded corners*
0 $1 Rounding radius*
0 $2 $3 $4 $5 $6 $7 $8 $9 X,Y pos of 4 corners*
0 Add a 4 corners polygon primitive as box body*
4,1,4,$2,$3,$4,$5,$6,$7,$8,$9,$2,$3,0*
0 Add four circle primitives for the rounded corners*
1,1,$1+$1,$2,$3*
1,1,$1+$1,$4,$5*
1,1,$1+$1,$6,$7*
1,1,$1+$1,$8,$9*
0 Add four rect primitives between the rounded corners*
20,1,$1+$1,$2,$3,$4,$5,0*
20,1,$1+$1,$4,$5,$6,$7,0*
20,1,$1+$1,$6,$7,$8,$9,0*
20,1,$1+$1,$8,$9,$2,$3,0*%
G04 Aperture macros list end*
%ADD10C,0.250000*%
%ADD11C,0.150000*%
%ADD12C,0.120000*%
%ADD13RoundRect,0.225000X0.250000X-0.225000X0.250000X0.225000X-0.250000X0.225000X-0.250000X-0.225000X0*%
%ADD14RoundRect,0.150000X-0.150000X0.512500X-0.150000X-0.512500X0.150000X-0.512500X0.150000X0.512500X0*%
%ADD15C,1.400000*%
%ADD16RoundRect,0.200000X-0.275000X0.200000X-0.275000X-0.200000X0.275000X-0.200000X0.275000X0.200000X0*%
%ADD17RoundRect,0.218750X-0.218750X-0.256250X0.218750X-0.256250X0.218750X0.256250X-0.218750X0.256250X0*%
%ADD18RoundRect,0.200000X0.275000X-0.200000X0.275000X0.200000X-0.275000X0.200000X-0.275000X-0.200000X0*%
%ADD19RoundRect,0.500000X0.500000X-1.000000X0.500000X1.000000X-0.500000X1.000000X-0.500000X-1.000000X0*%
%ADD20RoundRect,0.375000X0.375000X-1.125000X0.375000X1.125000X-0.375000X1.125000X-0.375000X-1.125000X0*%
%ADD21RoundRect,0.200000X0.200000X0.275000X-0.200000X0.275000X-0.200000X-0.275000X0.200000X-0.275000X0*%
%ADD22RoundRect,0.250000X0.475000X-0.250000X0.475000X0.250000X-0.475000X0.250000X-0.475000X-0.250000X0*%
%ADD23RoundRect,0.150000X0.150000X-0.825000X0.150000X0.825000X-0.150000X0.825000X-0.150000X-0.825000X0*%
%ADD24RoundRect,0.243750X-0.456250X0.243750X-0.456250X-0.243750X0.456250X-0.243750X0.456250X0.243750X0*%
%ADD25RoundRect,0.225000X-0.250000X0.225000X-0.250000X-0.225000X0.250000X-0.225000X0.250000X0.225000X0*%
%ADD26RoundRect,0.250000X-0.475000X0.250000X-0.475000X-0.250000X0.475000X-0.250000X0.475000X0.250000X0*%
%ADD27RoundRect,0.225000X-0.225000X-0.250000X0.225000X-0.250000X0.225000X0.250000X-0.225000X0.250000X0*%
%ADD28RoundRect,0.200000X-0.200000X-0.275000X0.200000X-0.275000X0.200000X0.275000X-0.200000X0.275000X0*%
%ADD29R,1.700000X1.700000*%
%ADD30O,1.700000X1.700000*%
G04 APERTURE END LIST*
D10*
X178053352Y-88790571D02*
X178053352Y-88219143D01*
X178396209Y-88904857D02*
X177196209Y-88504857D01*
X177196209Y-88504857D02*
X178396209Y-88104857D01*
X177196209Y-87704857D02*
X178167638Y-87704857D01*
X178167638Y-87704857D02*
X178281924Y-87647714D01*
X178281924Y-87647714D02*
X178339067Y-87590572D01*
X178339067Y-87590572D02*
X178396209Y-87476286D01*
X178396209Y-87476286D02*
X178396209Y-87247714D01*
X178396209Y-87247714D02*
X178339067Y-87133429D01*
X178339067Y-87133429D02*
X178281924Y-87076286D01*
X178281924Y-87076286D02*
X178167638Y-87019143D01*
X178167638Y-87019143D02*
X177196209Y-87019143D01*
X178396209Y-86447714D02*
X177196209Y-86447714D01*
X177196209Y-86447714D02*
X177196209Y-86162000D01*
X177196209Y-86162000D02*
X177253352Y-85990571D01*
X177253352Y-85990571D02*
X177367638Y-85876286D01*
X177367638Y-85876286D02*
X177481924Y-85819143D01*
X177481924Y-85819143D02*
X177710495Y-85762000D01*
X177710495Y-85762000D02*
X177881924Y-85762000D01*
X177881924Y-85762000D02*
X178110495Y-85819143D01*
X178110495Y-85819143D02*
X178224781Y-85876286D01*
X178224781Y-85876286D02*
X178339067Y-85990571D01*
X178339067Y-85990571D02*
X178396209Y-86162000D01*
X178396209Y-86162000D02*
X178396209Y-86447714D01*
X178396209Y-85247714D02*
X177196209Y-85247714D01*
X177196209Y-84447714D02*
X177196209Y-84219142D01*
X177196209Y-84219142D02*
X177253352Y-84104857D01*
X177253352Y-84104857D02*
X177367638Y-83990571D01*
X177367638Y-83990571D02*
X177596209Y-83933428D01*
X177596209Y-83933428D02*
X177996209Y-83933428D01*
X177996209Y-83933428D02*
X178224781Y-83990571D01*
X178224781Y-83990571D02*
X178339067Y-84104857D01*
X178339067Y-84104857D02*
X178396209Y-84219142D01*
X178396209Y-84219142D02*
X178396209Y-84447714D01*
X178396209Y-84447714D02*
X178339067Y-84562000D01*
X178339067Y-84562000D02*
X178224781Y-84676285D01*
X178224781Y-84676285D02*
X177996209Y-84733428D01*
X177996209Y-84733428D02*
X177596209Y-84733428D01*
X177596209Y-84733428D02*
X177367638Y-84676285D01*
X177367638Y-84676285D02*
X177253352Y-84562000D01*
X177253352Y-84562000D02*
X177196209Y-84447714D01*
X180328142Y-87676285D02*
X179128142Y-87676285D01*
X179699571Y-87676285D02*
X179699571Y-86990571D01*
X180328142Y-86990571D02*
X179128142Y-86990571D01*
X179985285Y-86476285D02*
X179985285Y-85904857D01*
X180328142Y-86590571D02*
X179128142Y-86190571D01*
X179128142Y-86190571D02*
X180328142Y-85790571D01*
X179128142Y-85562000D02*
X179128142Y-84876286D01*
X180328142Y-85219143D02*
X179128142Y-85219143D01*
X179413857Y-108562384D02*
X179356714Y-108676669D01*
X179356714Y-108676669D02*
X179356714Y-108905241D01*
X179356714Y-108905241D02*
X179413857Y-109019527D01*
X179413857Y-109019527D02*
X179528142Y-109133812D01*
X179528142Y-109133812D02*
X179642428Y-109190955D01*
X179642428Y-109190955D02*
X179871000Y-109190955D01*
X179871000Y-109190955D02*
X179985285Y-109133812D01*
X179985285Y-109133812D02*
X180099571Y-109019527D01*
X180099571Y-109019527D02*
X180156714Y-108905241D01*
X180156714Y-108905241D02*
X180156714Y-108676669D01*
X180156714Y-108676669D02*
X180099571Y-108562384D01*
X178956714Y-108790955D02*
X179013857Y-109076669D01*
X179013857Y-109076669D02*
X179185285Y-109362384D01*
X179185285Y-109362384D02*
X179471000Y-109533812D01*
X179471000Y-109533812D02*
X179756714Y-109590955D01*
X179756714Y-109590955D02*
X180042428Y-109533812D01*
X180042428Y-109533812D02*
X180328142Y-109362384D01*
X180328142Y-109362384D02*
X180499571Y-109076669D01*
X180499571Y-109076669D02*
X180556714Y-108790955D01*
X180556714Y-108790955D02*
X180499571Y-108505241D01*
X180499571Y-108505241D02*
X180328142Y-108219527D01*
X180328142Y-108219527D02*
X180042428Y-108048098D01*
X180042428Y-108048098D02*
X179756714Y-107990955D01*
X179756714Y-107990955D02*
X179471000Y-108048098D01*
X179471000Y-108048098D02*
X179185285Y-108219527D01*
X179185285Y-108219527D02*
X179013857Y-108505241D01*
X179013857Y-108505241D02*
X178956714Y-108790955D01*
X179242428Y-106619526D02*
X179185285Y-106562383D01*
X179185285Y-106562383D02*
X179128142Y-106448098D01*
X179128142Y-106448098D02*
X179128142Y-106162383D01*
X179128142Y-106162383D02*
X179185285Y-106048098D01*
X179185285Y-106048098D02*
X179242428Y-105990955D01*
X179242428Y-105990955D02*
X179356714Y-105933812D01*
X179356714Y-105933812D02*
X179471000Y-105933812D01*
X179471000Y-105933812D02*
X179642428Y-105990955D01*
X179642428Y-105990955D02*
X180328142Y-106676669D01*
X180328142Y-106676669D02*
X180328142Y-105933812D01*
X179128142Y-105190955D02*
X179128142Y-105076669D01*
X179128142Y-105076669D02*
X179185285Y-104962383D01*
X179185285Y-104962383D02*
X179242428Y-104905241D01*
X179242428Y-104905241D02*
X179356714Y-104848098D01*
X179356714Y-104848098D02*
X179585285Y-104790955D01*
X179585285Y-104790955D02*
X179871000Y-104790955D01*
X179871000Y-104790955D02*
X180099571Y-104848098D01*
X180099571Y-104848098D02*
X180213857Y-104905241D01*
X180213857Y-104905241D02*
X180271000Y-104962383D01*
X180271000Y-104962383D02*
X180328142Y-105076669D01*
X180328142Y-105076669D02*
X180328142Y-105190955D01*
X180328142Y-105190955D02*
X180271000Y-105305241D01*
X180271000Y-105305241D02*
X180213857Y-105362383D01*
X180213857Y-105362383D02*
X180099571Y-105419526D01*
X180099571Y-105419526D02*
X179871000Y-105476669D01*
X179871000Y-105476669D02*
X179585285Y-105476669D01*
X179585285Y-105476669D02*
X179356714Y-105419526D01*
X179356714Y-105419526D02*
X179242428Y-105362383D01*
X179242428Y-105362383D02*
X179185285Y-105305241D01*
X179185285Y-105305241D02*
X179128142Y-105190955D01*
X179242428Y-104333812D02*
X179185285Y-104276669D01*
X179185285Y-104276669D02*
X179128142Y-104162384D01*
X179128142Y-104162384D02*
X179128142Y-103876669D01*
X179128142Y-103876669D02*
X179185285Y-103762384D01*
X179185285Y-103762384D02*
X179242428Y-103705241D01*
X179242428Y-103705241D02*
X179356714Y-103648098D01*
X179356714Y-103648098D02*
X179471000Y-103648098D01*
X179471000Y-103648098D02*
X179642428Y-103705241D01*
X179642428Y-103705241D02*
X180328142Y-104390955D01*
X180328142Y-104390955D02*
X180328142Y-103648098D01*
X179528142Y-102619527D02*
X180328142Y-102619527D01*
X179071000Y-102905241D02*
X179928142Y-103190955D01*
X179928142Y-103190955D02*
X179928142Y-102448098D01*
X179699571Y-100676669D02*
X179699571Y-101076669D01*
X180328142Y-101076669D02*
X179128142Y-101076669D01*
X179128142Y-101076669D02*
X179128142Y-100505241D01*
X180328142Y-100048098D02*
X179128142Y-100048098D01*
X179128142Y-100048098D02*
X179985285Y-99648098D01*
X179985285Y-99648098D02*
X179128142Y-99248098D01*
X179128142Y-99248098D02*
X180328142Y-99248098D01*
X180328142Y-98676669D02*
X179128142Y-98676669D01*
X179128142Y-98676669D02*
X179128142Y-98390955D01*
X179128142Y-98390955D02*
X179185285Y-98219526D01*
X179185285Y-98219526D02*
X179299571Y-98105241D01*
X179299571Y-98105241D02*
X179413857Y-98048098D01*
X179413857Y-98048098D02*
X179642428Y-97990955D01*
X179642428Y-97990955D02*
X179813857Y-97990955D01*
X179813857Y-97990955D02*
X180042428Y-98048098D01*
X180042428Y-98048098D02*
X180156714Y-98105241D01*
X180156714Y-98105241D02*
X180271000Y-98219526D01*
X180271000Y-98219526D02*
X180328142Y-98390955D01*
X180328142Y-98390955D02*
X180328142Y-98676669D01*
X179128142Y-97590955D02*
X180328142Y-96790955D01*
X179128142Y-96790955D02*
X180328142Y-97590955D01*
X180213857Y-96333812D02*
X180271000Y-96276669D01*
X180271000Y-96276669D02*
X180328142Y-96333812D01*
X180328142Y-96333812D02*
X180271000Y-96390955D01*
X180271000Y-96390955D02*
X180213857Y-96333812D01*
X180213857Y-96333812D02*
X180328142Y-96333812D01*
X180328142Y-95590955D02*
X180271000Y-95705240D01*
X180271000Y-95705240D02*
X180213857Y-95762383D01*
X180213857Y-95762383D02*
X180099571Y-95819526D01*
X180099571Y-95819526D02*
X179756714Y-95819526D01*
X179756714Y-95819526D02*
X179642428Y-95762383D01*
X179642428Y-95762383D02*
X179585285Y-95705240D01*
X179585285Y-95705240D02*
X179528142Y-95590955D01*
X179528142Y-95590955D02*
X179528142Y-95419526D01*
X179528142Y-95419526D02*
X179585285Y-95305240D01*
X179585285Y-95305240D02*
X179642428Y-95248098D01*
X179642428Y-95248098D02*
X179756714Y-95190955D01*
X179756714Y-95190955D02*
X180099571Y-95190955D01*
X180099571Y-95190955D02*
X180213857Y-95248098D01*
X180213857Y-95248098D02*
X180271000Y-95305240D01*
X180271000Y-95305240D02*
X180328142Y-95419526D01*
X180328142Y-95419526D02*
X180328142Y-95590955D01*
X180328142Y-94676669D02*
X179528142Y-94676669D01*
X179756714Y-94676669D02*
X179642428Y-94619526D01*
X179642428Y-94619526D02*
X179585285Y-94562384D01*
X179585285Y-94562384D02*
X179528142Y-94448098D01*
X179528142Y-94448098D02*
X179528142Y-94333812D01*
X179528142Y-93419527D02*
X180499571Y-93419527D01*
X180499571Y-93419527D02*
X180613857Y-93476669D01*
X180613857Y-93476669D02*
X180671000Y-93533812D01*
X180671000Y-93533812D02*
X180728142Y-93648098D01*
X180728142Y-93648098D02*
X180728142Y-93819527D01*
X180728142Y-93819527D02*
X180671000Y-93933812D01*
X180271000Y-93419527D02*
X180328142Y-93533812D01*
X180328142Y-93533812D02*
X180328142Y-93762384D01*
X180328142Y-93762384D02*
X180271000Y-93876669D01*
X180271000Y-93876669D02*
X180213857Y-93933812D01*
X180213857Y-93933812D02*
X180099571Y-93990955D01*
X180099571Y-93990955D02*
X179756714Y-93990955D01*
X179756714Y-93990955D02*
X179642428Y-93933812D01*
X179642428Y-93933812D02*
X179585285Y-93876669D01*
X179585285Y-93876669D02*
X179528142Y-93762384D01*
X179528142Y-93762384D02*
X179528142Y-93533812D01*
X179528142Y-93533812D02*
X179585285Y-93419527D01*
D11*
X171101580Y-94415666D02*
X171149200Y-94463285D01*
X171149200Y-94463285D02*
X171196819Y-94606142D01*
X171196819Y-94606142D02*
X171196819Y-94701380D01*
X171196819Y-94701380D02*
X171149200Y-94844237D01*
X171149200Y-94844237D02*
X171053961Y-94939475D01*
X171053961Y-94939475D02*
X170958723Y-94987094D01*
X170958723Y-94987094D02*
X170768247Y-95034713D01*
X170768247Y-95034713D02*
X170625390Y-95034713D01*
X170625390Y-95034713D02*
X170434914Y-94987094D01*
X170434914Y-94987094D02*
X170339676Y-94939475D01*
X170339676Y-94939475D02*
X170244438Y-94844237D01*
X170244438Y-94844237D02*
X170196819Y-94701380D01*
X170196819Y-94701380D02*
X170196819Y-94606142D01*
X170196819Y-94606142D02*
X170244438Y-94463285D01*
X170244438Y-94463285D02*
X170292057Y-94415666D01*
X170196819Y-93510904D02*
X170196819Y-93987094D01*
X170196819Y-93987094D02*
X170673009Y-94034713D01*
X170673009Y-94034713D02*
X170625390Y-93987094D01*
X170625390Y-93987094D02*
X170577771Y-93891856D01*
X170577771Y-93891856D02*
X170577771Y-93653761D01*
X170577771Y-93653761D02*
X170625390Y-93558523D01*
X170625390Y-93558523D02*
X170673009Y-93510904D01*
X170673009Y-93510904D02*
X170768247Y-93463285D01*
X170768247Y-93463285D02*
X171006342Y-93463285D01*
X171006342Y-93463285D02*
X171101580Y-93510904D01*
X171101580Y-93510904D02*
X171149200Y-93558523D01*
X171149200Y-93558523D02*
X171196819Y-93653761D01*
X171196819Y-93653761D02*
X171196819Y-93891856D01*
X171196819Y-93891856D02*
X171149200Y-93987094D01*
X171149200Y-93987094D02*
X171101580Y-94034713D01*
X171101580Y-84477857D02*
X171149200Y-84525476D01*
X171149200Y-84525476D02*
X171196819Y-84668333D01*
X171196819Y-84668333D02*
X171196819Y-84763571D01*
X171196819Y-84763571D02*
X171149200Y-84906428D01*
X171149200Y-84906428D02*
X171053961Y-85001666D01*
X171053961Y-85001666D02*
X170958723Y-85049285D01*
X170958723Y-85049285D02*
X170768247Y-85096904D01*
X170768247Y-85096904D02*
X170625390Y-85096904D01*
X170625390Y-85096904D02*
X170434914Y-85049285D01*
X170434914Y-85049285D02*
X170339676Y-85001666D01*
X170339676Y-85001666D02*
X170244438Y-84906428D01*
X170244438Y-84906428D02*
X170196819Y-84763571D01*
X170196819Y-84763571D02*
X170196819Y-84668333D01*
X170196819Y-84668333D02*
X170244438Y-84525476D01*
X170244438Y-84525476D02*
X170292057Y-84477857D01*
X171196819Y-83525476D02*
X171196819Y-84096904D01*
X171196819Y-83811190D02*
X170196819Y-83811190D01*
X170196819Y-83811190D02*
X170339676Y-83906428D01*
X170339676Y-83906428D02*
X170434914Y-84001666D01*
X170434914Y-84001666D02*
X170482533Y-84096904D01*
X170196819Y-83192142D02*
X170196819Y-82573095D01*
X170196819Y-82573095D02*
X170577771Y-82906428D01*
X170577771Y-82906428D02*
X170577771Y-82763571D01*
X170577771Y-82763571D02*
X170625390Y-82668333D01*
X170625390Y-82668333D02*
X170673009Y-82620714D01*
X170673009Y-82620714D02*
X170768247Y-82573095D01*
X170768247Y-82573095D02*
X171006342Y-82573095D01*
X171006342Y-82573095D02*
X171101580Y-82620714D01*
X171101580Y-82620714D02*
X171149200Y-82668333D01*
X171149200Y-82668333D02*
X171196819Y-82763571D01*
X171196819Y-82763571D02*
X171196819Y-83049285D01*
X171196819Y-83049285D02*
X171149200Y-83144523D01*
X171149200Y-83144523D02*
X171101580Y-83192142D01*
X160687580Y-91639857D02*
X160735200Y-91687476D01*
X160735200Y-91687476D02*
X160782819Y-91830333D01*
X160782819Y-91830333D02*
X160782819Y-91925571D01*
X160782819Y-91925571D02*
X160735200Y-92068428D01*
X160735200Y-92068428D02*
X160639961Y-92163666D01*
X160639961Y-92163666D02*
X160544723Y-92211285D01*
X160544723Y-92211285D02*
X160354247Y-92258904D01*
X160354247Y-92258904D02*
X160211390Y-92258904D01*
X160211390Y-92258904D02*
X160020914Y-92211285D01*
X160020914Y-92211285D02*
X159925676Y-92163666D01*
X159925676Y-92163666D02*
X159830438Y-92068428D01*
X159830438Y-92068428D02*
X159782819Y-91925571D01*
X159782819Y-91925571D02*
X159782819Y-91830333D01*
X159782819Y-91830333D02*
X159830438Y-91687476D01*
X159830438Y-91687476D02*
X159878057Y-91639857D01*
X160782819Y-90687476D02*
X160782819Y-91258904D01*
X160782819Y-90973190D02*
X159782819Y-90973190D01*
X159782819Y-90973190D02*
X159925676Y-91068428D01*
X159925676Y-91068428D02*
X160020914Y-91163666D01*
X160020914Y-91163666D02*
X160068533Y-91258904D01*
X159782819Y-90068428D02*
X159782819Y-89973190D01*
X159782819Y-89973190D02*
X159830438Y-89877952D01*
X159830438Y-89877952D02*
X159878057Y-89830333D01*
X159878057Y-89830333D02*
X159973295Y-89782714D01*
X159973295Y-89782714D02*
X160163771Y-89735095D01*
X160163771Y-89735095D02*
X160401866Y-89735095D01*
X160401866Y-89735095D02*
X160592342Y-89782714D01*
X160592342Y-89782714D02*
X160687580Y-89830333D01*
X160687580Y-89830333D02*
X160735200Y-89877952D01*
X160735200Y-89877952D02*
X160782819Y-89973190D01*
X160782819Y-89973190D02*
X160782819Y-90068428D01*
X160782819Y-90068428D02*
X160735200Y-90163666D01*
X160735200Y-90163666D02*
X160687580Y-90211285D01*
X160687580Y-90211285D02*
X160592342Y-90258904D01*
X160592342Y-90258904D02*
X160401866Y-90306523D01*
X160401866Y-90306523D02*
X160163771Y-90306523D01*
X160163771Y-90306523D02*
X159973295Y-90258904D01*
X159973295Y-90258904D02*
X159878057Y-90211285D01*
X159878057Y-90211285D02*
X159830438Y-90163666D01*
X159830438Y-90163666D02*
X159782819Y-90068428D01*
X173895580Y-84451857D02*
X173943200Y-84499476D01*
X173943200Y-84499476D02*
X173990819Y-84642333D01*
X173990819Y-84642333D02*
X173990819Y-84737571D01*
X173990819Y-84737571D02*
X173943200Y-84880428D01*
X173943200Y-84880428D02*
X173847961Y-84975666D01*
X173847961Y-84975666D02*
X173752723Y-85023285D01*
X173752723Y-85023285D02*
X173562247Y-85070904D01*
X173562247Y-85070904D02*
X173419390Y-85070904D01*
X173419390Y-85070904D02*
X173228914Y-85023285D01*
X173228914Y-85023285D02*
X173133676Y-84975666D01*
X173133676Y-84975666D02*
X173038438Y-84880428D01*
X173038438Y-84880428D02*
X172990819Y-84737571D01*
X172990819Y-84737571D02*
X172990819Y-84642333D01*
X172990819Y-84642333D02*
X173038438Y-84499476D01*
X173038438Y-84499476D02*
X173086057Y-84451857D01*
X173990819Y-83499476D02*
X173990819Y-84070904D01*
X173990819Y-83785190D02*
X172990819Y-83785190D01*
X172990819Y-83785190D02*
X173133676Y-83880428D01*
X173133676Y-83880428D02*
X173228914Y-83975666D01*
X173228914Y-83975666D02*
X173276533Y-84070904D01*
X173324152Y-82642333D02*
X173990819Y-82642333D01*
X172943200Y-82880428D02*
X173657485Y-83118523D01*
X173657485Y-83118523D02*
X173657485Y-82499476D01*
X167374819Y-84462404D02*
X168184342Y-84462404D01*
X168184342Y-84462404D02*
X168279580Y-84414785D01*
X168279580Y-84414785D02*
X168327200Y-84367166D01*
X168327200Y-84367166D02*
X168374819Y-84271928D01*
X168374819Y-84271928D02*
X168374819Y-84081452D01*
X168374819Y-84081452D02*
X168327200Y-83986214D01*
X168327200Y-83986214D02*
X168279580Y-83938595D01*
X168279580Y-83938595D02*
X168184342Y-83890976D01*
X168184342Y-83890976D02*
X167374819Y-83890976D01*
X167470057Y-83462404D02*
X167422438Y-83414785D01*
X167422438Y-83414785D02*
X167374819Y-83319547D01*
X167374819Y-83319547D02*
X167374819Y-83081452D01*
X167374819Y-83081452D02*
X167422438Y-82986214D01*
X167422438Y-82986214D02*
X167470057Y-82938595D01*
X167470057Y-82938595D02*
X167565295Y-82890976D01*
X167565295Y-82890976D02*
X167660533Y-82890976D01*
X167660533Y-82890976D02*
X167803390Y-82938595D01*
X167803390Y-82938595D02*
X168374819Y-83510023D01*
X168374819Y-83510023D02*
X168374819Y-82890976D01*
X163481580Y-87861666D02*
X163529200Y-87909285D01*
X163529200Y-87909285D02*
X163576819Y-88052142D01*
X163576819Y-88052142D02*
X163576819Y-88147380D01*
X163576819Y-88147380D02*
X163529200Y-88290237D01*
X163529200Y-88290237D02*
X163433961Y-88385475D01*
X163433961Y-88385475D02*
X163338723Y-88433094D01*
X163338723Y-88433094D02*
X163148247Y-88480713D01*
X163148247Y-88480713D02*
X163005390Y-88480713D01*
X163005390Y-88480713D02*
X162814914Y-88433094D01*
X162814914Y-88433094D02*
X162719676Y-88385475D01*
X162719676Y-88385475D02*
X162624438Y-88290237D01*
X162624438Y-88290237D02*
X162576819Y-88147380D01*
X162576819Y-88147380D02*
X162576819Y-88052142D01*
X162576819Y-88052142D02*
X162624438Y-87909285D01*
X162624438Y-87909285D02*
X162672057Y-87861666D01*
X162576819Y-87004523D02*
X162576819Y-87194999D01*
X162576819Y-87194999D02*
X162624438Y-87290237D01*
X162624438Y-87290237D02*
X162672057Y-87337856D01*
X162672057Y-87337856D02*
X162814914Y-87433094D01*
X162814914Y-87433094D02*
X163005390Y-87480713D01*
X163005390Y-87480713D02*
X163386342Y-87480713D01*
X163386342Y-87480713D02*
X163481580Y-87433094D01*
X163481580Y-87433094D02*
X163529200Y-87385475D01*
X163529200Y-87385475D02*
X163576819Y-87290237D01*
X163576819Y-87290237D02*
X163576819Y-87099761D01*
X163576819Y-87099761D02*
X163529200Y-87004523D01*
X163529200Y-87004523D02*
X163481580Y-86956904D01*
X163481580Y-86956904D02*
X163386342Y-86909285D01*
X163386342Y-86909285D02*
X163148247Y-86909285D01*
X163148247Y-86909285D02*
X163053009Y-86956904D01*
X163053009Y-86956904D02*
X163005390Y-87004523D01*
X163005390Y-87004523D02*
X162957771Y-87099761D01*
X162957771Y-87099761D02*
X162957771Y-87290237D01*
X162957771Y-87290237D02*
X163005390Y-87385475D01*
X163005390Y-87385475D02*
X163053009Y-87433094D01*
X163053009Y-87433094D02*
X163148247Y-87480713D01*
X139554476Y-110184819D02*
X139554476Y-109184819D01*
X139554476Y-109184819D02*
X139887809Y-109899104D01*
X139887809Y-109899104D02*
X140221142Y-109184819D01*
X140221142Y-109184819D02*
X140221142Y-110184819D01*
X140697333Y-110184819D02*
X140697333Y-109184819D01*
X140697333Y-109184819D02*
X141078285Y-109184819D01*
X141078285Y-109184819D02*
X141173523Y-109232438D01*
X141173523Y-109232438D02*
X141221142Y-109280057D01*
X141221142Y-109280057D02*
X141268761Y-109375295D01*
X141268761Y-109375295D02*
X141268761Y-109518152D01*
X141268761Y-109518152D02*
X141221142Y-109613390D01*
X141221142Y-109613390D02*
X141173523Y-109661009D01*
X141173523Y-109661009D02*
X141078285Y-109708628D01*
X141078285Y-109708628D02*
X140697333Y-109708628D01*
X141602095Y-109184819D02*
X142268761Y-110184819D01*
X142268761Y-109184819D02*
X141602095Y-110184819D01*
X171196819Y-91163666D02*
X170720628Y-91496999D01*
X171196819Y-91735094D02*
X170196819Y-91735094D01*
X170196819Y-91735094D02*
X170196819Y-91354142D01*
X170196819Y-91354142D02*
X170244438Y-91258904D01*
X170244438Y-91258904D02*
X170292057Y-91211285D01*
X170292057Y-91211285D02*
X170387295Y-91163666D01*
X170387295Y-91163666D02*
X170530152Y-91163666D01*
X170530152Y-91163666D02*
X170625390Y-91211285D01*
X170625390Y-91211285D02*
X170673009Y-91258904D01*
X170673009Y-91258904D02*
X170720628Y-91354142D01*
X170720628Y-91354142D02*
X170720628Y-91735094D01*
X170196819Y-90258904D02*
X170196819Y-90735094D01*
X170196819Y-90735094D02*
X170673009Y-90782713D01*
X170673009Y-90782713D02*
X170625390Y-90735094D01*
X170625390Y-90735094D02*
X170577771Y-90639856D01*
X170577771Y-90639856D02*
X170577771Y-90401761D01*
X170577771Y-90401761D02*
X170625390Y-90306523D01*
X170625390Y-90306523D02*
X170673009Y-90258904D01*
X170673009Y-90258904D02*
X170768247Y-90211285D01*
X170768247Y-90211285D02*
X171006342Y-90211285D01*
X171006342Y-90211285D02*
X171101580Y-90258904D01*
X171101580Y-90258904D02*
X171149200Y-90306523D01*
X171149200Y-90306523D02*
X171196819Y-90401761D01*
X171196819Y-90401761D02*
X171196819Y-90639856D01*
X171196819Y-90639856D02*
X171149200Y-90735094D01*
X171149200Y-90735094D02*
X171101580Y-90782713D01*
X160071166Y-83339009D02*
X159737833Y-83339009D01*
X159737833Y-83862819D02*
X159737833Y-82862819D01*
X159737833Y-82862819D02*
X160214023Y-82862819D01*
X160928309Y-83339009D02*
X161071166Y-83386628D01*
X161071166Y-83386628D02*
X161118785Y-83434247D01*
X161118785Y-83434247D02*
X161166404Y-83529485D01*
X161166404Y-83529485D02*
X161166404Y-83672342D01*
X161166404Y-83672342D02*
X161118785Y-83767580D01*
X161118785Y-83767580D02*
X161071166Y-83815200D01*
X161071166Y-83815200D02*
X160975928Y-83862819D01*
X160975928Y-83862819D02*
X160594976Y-83862819D01*
X160594976Y-83862819D02*
X160594976Y-82862819D01*
X160594976Y-82862819D02*
X160928309Y-82862819D01*
X160928309Y-82862819D02*
X161023547Y-82910438D01*
X161023547Y-82910438D02*
X161071166Y-82958057D01*
X161071166Y-82958057D02*
X161118785Y-83053295D01*
X161118785Y-83053295D02*
X161118785Y-83148533D01*
X161118785Y-83148533D02*
X161071166Y-83243771D01*
X161071166Y-83243771D02*
X161023547Y-83291390D01*
X161023547Y-83291390D02*
X160928309Y-83339009D01*
X160928309Y-83339009D02*
X160594976Y-83339009D01*
X162118785Y-83862819D02*
X161547357Y-83862819D01*
X161833071Y-83862819D02*
X161833071Y-82862819D01*
X161833071Y-82862819D02*
X161737833Y-83005676D01*
X161737833Y-83005676D02*
X161642595Y-83100914D01*
X161642595Y-83100914D02*
X161547357Y-83148533D01*
X173990819Y-99241666D02*
X173514628Y-99574999D01*
X173990819Y-99813094D02*
X172990819Y-99813094D01*
X172990819Y-99813094D02*
X172990819Y-99432142D01*
X172990819Y-99432142D02*
X173038438Y-99336904D01*
X173038438Y-99336904D02*
X173086057Y-99289285D01*
X173086057Y-99289285D02*
X173181295Y-99241666D01*
X173181295Y-99241666D02*
X173324152Y-99241666D01*
X173324152Y-99241666D02*
X173419390Y-99289285D01*
X173419390Y-99289285D02*
X173467009Y-99336904D01*
X173467009Y-99336904D02*
X173514628Y-99432142D01*
X173514628Y-99432142D02*
X173514628Y-99813094D01*
X173324152Y-98384523D02*
X173990819Y-98384523D01*
X172943200Y-98622618D02*
X173657485Y-98860713D01*
X173657485Y-98860713D02*
X173657485Y-98241666D01*
X173990819Y-94415666D02*
X173514628Y-94748999D01*
X173990819Y-94987094D02*
X172990819Y-94987094D01*
X172990819Y-94987094D02*
X172990819Y-94606142D01*
X172990819Y-94606142D02*
X173038438Y-94510904D01*
X173038438Y-94510904D02*
X173086057Y-94463285D01*
X173086057Y-94463285D02*
X173181295Y-94415666D01*
X173181295Y-94415666D02*
X173324152Y-94415666D01*
X173324152Y-94415666D02*
X173419390Y-94463285D01*
X173419390Y-94463285D02*
X173467009Y-94510904D01*
X173467009Y-94510904D02*
X173514628Y-94606142D01*
X173514628Y-94606142D02*
X173514628Y-94987094D01*
X172990819Y-94082332D02*
X172990819Y-93463285D01*
X172990819Y-93463285D02*
X173371771Y-93796618D01*
X173371771Y-93796618D02*
X173371771Y-93653761D01*
X173371771Y-93653761D02*
X173419390Y-93558523D01*
X173419390Y-93558523D02*
X173467009Y-93510904D01*
X173467009Y-93510904D02*
X173562247Y-93463285D01*
X173562247Y-93463285D02*
X173800342Y-93463285D01*
X173800342Y-93463285D02*
X173895580Y-93510904D01*
X173895580Y-93510904D02*
X173943200Y-93558523D01*
X173943200Y-93558523D02*
X173990819Y-93653761D01*
X173990819Y-93653761D02*
X173990819Y-93939475D01*
X173990819Y-93939475D02*
X173943200Y-94034713D01*
X173943200Y-94034713D02*
X173895580Y-94082332D01*
X175558333Y-100184819D02*
X175225000Y-99708628D01*
X174986905Y-100184819D02*
X174986905Y-99184819D01*
X174986905Y-99184819D02*
X175367857Y-99184819D01*
X175367857Y-99184819D02*
X175463095Y-99232438D01*
X175463095Y-99232438D02*
X175510714Y-99280057D01*
X175510714Y-99280057D02*
X175558333Y-99375295D01*
X175558333Y-99375295D02*
X175558333Y-99518152D01*
X175558333Y-99518152D02*
X175510714Y-99613390D01*
X175510714Y-99613390D02*
X175463095Y-99661009D01*
X175463095Y-99661009D02*
X175367857Y-99708628D01*
X175367857Y-99708628D02*
X174986905Y-99708628D01*
X176415476Y-99184819D02*
X176225000Y-99184819D01*
X176225000Y-99184819D02*
X176129762Y-99232438D01*
X176129762Y-99232438D02*
X176082143Y-99280057D01*
X176082143Y-99280057D02*
X175986905Y-99422914D01*
X175986905Y-99422914D02*
X175939286Y-99613390D01*
X175939286Y-99613390D02*
X175939286Y-99994342D01*
X175939286Y-99994342D02*
X175986905Y-100089580D01*
X175986905Y-100089580D02*
X176034524Y-100137200D01*
X176034524Y-100137200D02*
X176129762Y-100184819D01*
X176129762Y-100184819D02*
X176320238Y-100184819D01*
X176320238Y-100184819D02*
X176415476Y-100137200D01*
X176415476Y-100137200D02*
X176463095Y-100089580D01*
X176463095Y-100089580D02*
X176510714Y-99994342D01*
X176510714Y-99994342D02*
X176510714Y-99756247D01*
X176510714Y-99756247D02*
X176463095Y-99661009D01*
X176463095Y-99661009D02*
X176415476Y-99613390D01*
X176415476Y-99613390D02*
X176320238Y-99565771D01*
X176320238Y-99565771D02*
X176129762Y-99565771D01*
X176129762Y-99565771D02*
X176034524Y-99613390D01*
X176034524Y-99613390D02*
X175986905Y-99661009D01*
X175986905Y-99661009D02*
X175939286Y-99756247D01*
X177701580Y-105644666D02*
X177749200Y-105692285D01*
X177749200Y-105692285D02*
X177796819Y-105835142D01*
X177796819Y-105835142D02*
X177796819Y-105930380D01*
X177796819Y-105930380D02*
X177749200Y-106073237D01*
X177749200Y-106073237D02*
X177653961Y-106168475D01*
X177653961Y-106168475D02*
X177558723Y-106216094D01*
X177558723Y-106216094D02*
X177368247Y-106263713D01*
X177368247Y-106263713D02*
X177225390Y-106263713D01*
X177225390Y-106263713D02*
X177034914Y-106216094D01*
X177034914Y-106216094D02*
X176939676Y-106168475D01*
X176939676Y-106168475D02*
X176844438Y-106073237D01*
X176844438Y-106073237D02*
X176796819Y-105930380D01*
X176796819Y-105930380D02*
X176796819Y-105835142D01*
X176796819Y-105835142D02*
X176844438Y-105692285D01*
X176844438Y-105692285D02*
X176892057Y-105644666D01*
X176796819Y-105311332D02*
X176796819Y-104692285D01*
X176796819Y-104692285D02*
X177177771Y-105025618D01*
X177177771Y-105025618D02*
X177177771Y-104882761D01*
X177177771Y-104882761D02*
X177225390Y-104787523D01*
X177225390Y-104787523D02*
X177273009Y-104739904D01*
X177273009Y-104739904D02*
X177368247Y-104692285D01*
X177368247Y-104692285D02*
X177606342Y-104692285D01*
X177606342Y-104692285D02*
X177701580Y-104739904D01*
X177701580Y-104739904D02*
X177749200Y-104787523D01*
X177749200Y-104787523D02*
X177796819Y-104882761D01*
X177796819Y-104882761D02*
X177796819Y-105168475D01*
X177796819Y-105168475D02*
X177749200Y-105263713D01*
X177749200Y-105263713D02*
X177701580Y-105311332D01*
X157988819Y-87798666D02*
X157512628Y-88131999D01*
X157988819Y-88370094D02*
X156988819Y-88370094D01*
X156988819Y-88370094D02*
X156988819Y-87989142D01*
X156988819Y-87989142D02*
X157036438Y-87893904D01*
X157036438Y-87893904D02*
X157084057Y-87846285D01*
X157084057Y-87846285D02*
X157179295Y-87798666D01*
X157179295Y-87798666D02*
X157322152Y-87798666D01*
X157322152Y-87798666D02*
X157417390Y-87846285D01*
X157417390Y-87846285D02*
X157465009Y-87893904D01*
X157465009Y-87893904D02*
X157512628Y-87989142D01*
X157512628Y-87989142D02*
X157512628Y-88370094D01*
X157988819Y-86846285D02*
X157988819Y-87417713D01*
X157988819Y-87131999D02*
X156988819Y-87131999D01*
X156988819Y-87131999D02*
X157131676Y-87227237D01*
X157131676Y-87227237D02*
X157226914Y-87322475D01*
X157226914Y-87322475D02*
X157274533Y-87417713D01*
X161175819Y-97472904D02*
X161985342Y-97472904D01*
X161985342Y-97472904D02*
X162080580Y-97425285D01*
X162080580Y-97425285D02*
X162128200Y-97377666D01*
X162128200Y-97377666D02*
X162175819Y-97282428D01*
X162175819Y-97282428D02*
X162175819Y-97091952D01*
X162175819Y-97091952D02*
X162128200Y-96996714D01*
X162128200Y-96996714D02*
X162080580Y-96949095D01*
X162080580Y-96949095D02*
X161985342Y-96901476D01*
X161985342Y-96901476D02*
X161175819Y-96901476D01*
X162175819Y-95901476D02*
X162175819Y-96472904D01*
X162175819Y-96187190D02*
X161175819Y-96187190D01*
X161175819Y-96187190D02*
X161318676Y-96282428D01*
X161318676Y-96282428D02*
X161413914Y-96377666D01*
X161413914Y-96377666D02*
X161461533Y-96472904D01*
X173895580Y-87785666D02*
X173943200Y-87833285D01*
X173943200Y-87833285D02*
X173990819Y-87976142D01*
X173990819Y-87976142D02*
X173990819Y-88071380D01*
X173990819Y-88071380D02*
X173943200Y-88214237D01*
X173943200Y-88214237D02*
X173847961Y-88309475D01*
X173847961Y-88309475D02*
X173752723Y-88357094D01*
X173752723Y-88357094D02*
X173562247Y-88404713D01*
X173562247Y-88404713D02*
X173419390Y-88404713D01*
X173419390Y-88404713D02*
X173228914Y-88357094D01*
X173228914Y-88357094D02*
X173133676Y-88309475D01*
X173133676Y-88309475D02*
X173038438Y-88214237D01*
X173038438Y-88214237D02*
X172990819Y-88071380D01*
X172990819Y-88071380D02*
X172990819Y-87976142D01*
X172990819Y-87976142D02*
X173038438Y-87833285D01*
X173038438Y-87833285D02*
X173086057Y-87785666D01*
X173990819Y-86833285D02*
X173990819Y-87404713D01*
X173990819Y-87118999D02*
X172990819Y-87118999D01*
X172990819Y-87118999D02*
X173133676Y-87214237D01*
X173133676Y-87214237D02*
X173228914Y-87309475D01*
X173228914Y-87309475D02*
X173276533Y-87404713D01*
X137079009Y-87535833D02*
X137079009Y-87869166D01*
X137602819Y-87869166D02*
X136602819Y-87869166D01*
X136602819Y-87869166D02*
X136602819Y-87392976D01*
X137602819Y-86488214D02*
X137602819Y-87059642D01*
X137602819Y-86773928D02*
X136602819Y-86773928D01*
X136602819Y-86773928D02*
X136745676Y-86869166D01*
X136745676Y-86869166D02*
X136840914Y-86964404D01*
X136840914Y-86964404D02*
X136888533Y-87059642D01*
X152908819Y-93545857D02*
X152432628Y-93879190D01*
X152908819Y-94117285D02*
X151908819Y-94117285D01*
X151908819Y-94117285D02*
X151908819Y-93736333D01*
X151908819Y-93736333D02*
X151956438Y-93641095D01*
X151956438Y-93641095D02*
X152004057Y-93593476D01*
X152004057Y-93593476D02*
X152099295Y-93545857D01*
X152099295Y-93545857D02*
X152242152Y-93545857D01*
X152242152Y-93545857D02*
X152337390Y-93593476D01*
X152337390Y-93593476D02*
X152385009Y-93641095D01*
X152385009Y-93641095D02*
X152432628Y-93736333D01*
X152432628Y-93736333D02*
X152432628Y-94117285D01*
X152908819Y-92593476D02*
X152908819Y-93164904D01*
X152908819Y-92879190D02*
X151908819Y-92879190D01*
X151908819Y-92879190D02*
X152051676Y-92974428D01*
X152051676Y-92974428D02*
X152146914Y-93069666D01*
X152146914Y-93069666D02*
X152194533Y-93164904D01*
X151908819Y-92260142D02*
X151908819Y-91641095D01*
X151908819Y-91641095D02*
X152289771Y-91974428D01*
X152289771Y-91974428D02*
X152289771Y-91831571D01*
X152289771Y-91831571D02*
X152337390Y-91736333D01*
X152337390Y-91736333D02*
X152385009Y-91688714D01*
X152385009Y-91688714D02*
X152480247Y-91641095D01*
X152480247Y-91641095D02*
X152718342Y-91641095D01*
X152718342Y-91641095D02*
X152813580Y-91688714D01*
X152813580Y-91688714D02*
X152861200Y-91736333D01*
X152861200Y-91736333D02*
X152908819Y-91831571D01*
X152908819Y-91831571D02*
X152908819Y-92117285D01*
X152908819Y-92117285D02*
X152861200Y-92212523D01*
X152861200Y-92212523D02*
X152813580Y-92260142D01*
X157684142Y-95866819D02*
X157350809Y-95390628D01*
X157112714Y-95866819D02*
X157112714Y-94866819D01*
X157112714Y-94866819D02*
X157493666Y-94866819D01*
X157493666Y-94866819D02*
X157588904Y-94914438D01*
X157588904Y-94914438D02*
X157636523Y-94962057D01*
X157636523Y-94962057D02*
X157684142Y-95057295D01*
X157684142Y-95057295D02*
X157684142Y-95200152D01*
X157684142Y-95200152D02*
X157636523Y-95295390D01*
X157636523Y-95295390D02*
X157588904Y-95343009D01*
X157588904Y-95343009D02*
X157493666Y-95390628D01*
X157493666Y-95390628D02*
X157112714Y-95390628D01*
X158636523Y-95866819D02*
X158065095Y-95866819D01*
X158350809Y-95866819D02*
X158350809Y-94866819D01*
X158350809Y-94866819D02*
X158255571Y-95009676D01*
X158255571Y-95009676D02*
X158160333Y-95104914D01*
X158160333Y-95104914D02*
X158065095Y-95152533D01*
X159588904Y-95866819D02*
X159017476Y-95866819D01*
X159303190Y-95866819D02*
X159303190Y-94866819D01*
X159303190Y-94866819D02*
X159207952Y-95009676D01*
X159207952Y-95009676D02*
X159112714Y-95104914D01*
X159112714Y-95104914D02*
X159017476Y-95152533D01*
X171101580Y-99241666D02*
X171149200Y-99289285D01*
X171149200Y-99289285D02*
X171196819Y-99432142D01*
X171196819Y-99432142D02*
X171196819Y-99527380D01*
X171196819Y-99527380D02*
X171149200Y-99670237D01*
X171149200Y-99670237D02*
X171053961Y-99765475D01*
X171053961Y-99765475D02*
X170958723Y-99813094D01*
X170958723Y-99813094D02*
X170768247Y-99860713D01*
X170768247Y-99860713D02*
X170625390Y-99860713D01*
X170625390Y-99860713D02*
X170434914Y-99813094D01*
X170434914Y-99813094D02*
X170339676Y-99765475D01*
X170339676Y-99765475D02*
X170244438Y-99670237D01*
X170244438Y-99670237D02*
X170196819Y-99527380D01*
X170196819Y-99527380D02*
X170196819Y-99432142D01*
X170196819Y-99432142D02*
X170244438Y-99289285D01*
X170244438Y-99289285D02*
X170292057Y-99241666D01*
X170196819Y-98908332D02*
X170196819Y-98241666D01*
X170196819Y-98241666D02*
X171196819Y-98670237D01*
X157684142Y-101708819D02*
X157350809Y-101232628D01*
X157112714Y-101708819D02*
X157112714Y-100708819D01*
X157112714Y-100708819D02*
X157493666Y-100708819D01*
X157493666Y-100708819D02*
X157588904Y-100756438D01*
X157588904Y-100756438D02*
X157636523Y-100804057D01*
X157636523Y-100804057D02*
X157684142Y-100899295D01*
X157684142Y-100899295D02*
X157684142Y-101042152D01*
X157684142Y-101042152D02*
X157636523Y-101137390D01*
X157636523Y-101137390D02*
X157588904Y-101185009D01*
X157588904Y-101185009D02*
X157493666Y-101232628D01*
X157493666Y-101232628D02*
X157112714Y-101232628D01*
X158636523Y-101708819D02*
X158065095Y-101708819D01*
X158350809Y-101708819D02*
X158350809Y-100708819D01*
X158350809Y-100708819D02*
X158255571Y-100851676D01*
X158255571Y-100851676D02*
X158160333Y-100946914D01*
X158160333Y-100946914D02*
X158065095Y-100994533D01*
X159017476Y-100804057D02*
X159065095Y-100756438D01*
X159065095Y-100756438D02*
X159160333Y-100708819D01*
X159160333Y-100708819D02*
X159398428Y-100708819D01*
X159398428Y-100708819D02*
X159493666Y-100756438D01*
X159493666Y-100756438D02*
X159541285Y-100804057D01*
X159541285Y-100804057D02*
X159588904Y-100899295D01*
X159588904Y-100899295D02*
X159588904Y-100994533D01*
X159588904Y-100994533D02*
X159541285Y-101137390D01*
X159541285Y-101137390D02*
X158969857Y-101708819D01*
X158969857Y-101708819D02*
X159588904Y-101708819D01*
X160782819Y-87798666D02*
X160306628Y-88131999D01*
X160782819Y-88370094D02*
X159782819Y-88370094D01*
X159782819Y-88370094D02*
X159782819Y-87989142D01*
X159782819Y-87989142D02*
X159830438Y-87893904D01*
X159830438Y-87893904D02*
X159878057Y-87846285D01*
X159878057Y-87846285D02*
X159973295Y-87798666D01*
X159973295Y-87798666D02*
X160116152Y-87798666D01*
X160116152Y-87798666D02*
X160211390Y-87846285D01*
X160211390Y-87846285D02*
X160259009Y-87893904D01*
X160259009Y-87893904D02*
X160306628Y-87989142D01*
X160306628Y-87989142D02*
X160306628Y-88370094D01*
X159878057Y-87417713D02*
X159830438Y-87370094D01*
X159830438Y-87370094D02*
X159782819Y-87274856D01*
X159782819Y-87274856D02*
X159782819Y-87036761D01*
X159782819Y-87036761D02*
X159830438Y-86941523D01*
X159830438Y-86941523D02*
X159878057Y-86893904D01*
X159878057Y-86893904D02*
X159973295Y-86846285D01*
X159973295Y-86846285D02*
X160068533Y-86846285D01*
X160068533Y-86846285D02*
X160211390Y-86893904D01*
X160211390Y-86893904D02*
X160782819Y-87465332D01*
X160782819Y-87465332D02*
X160782819Y-86846285D01*
X163481580Y-91163666D02*
X163529200Y-91211285D01*
X163529200Y-91211285D02*
X163576819Y-91354142D01*
X163576819Y-91354142D02*
X163576819Y-91449380D01*
X163576819Y-91449380D02*
X163529200Y-91592237D01*
X163529200Y-91592237D02*
X163433961Y-91687475D01*
X163433961Y-91687475D02*
X163338723Y-91735094D01*
X163338723Y-91735094D02*
X163148247Y-91782713D01*
X163148247Y-91782713D02*
X163005390Y-91782713D01*
X163005390Y-91782713D02*
X162814914Y-91735094D01*
X162814914Y-91735094D02*
X162719676Y-91687475D01*
X162719676Y-91687475D02*
X162624438Y-91592237D01*
X162624438Y-91592237D02*
X162576819Y-91449380D01*
X162576819Y-91449380D02*
X162576819Y-91354142D01*
X162576819Y-91354142D02*
X162624438Y-91211285D01*
X162624438Y-91211285D02*
X162672057Y-91163666D01*
X163576819Y-90687475D02*
X163576819Y-90496999D01*
X163576819Y-90496999D02*
X163529200Y-90401761D01*
X163529200Y-90401761D02*
X163481580Y-90354142D01*
X163481580Y-90354142D02*
X163338723Y-90258904D01*
X163338723Y-90258904D02*
X163148247Y-90211285D01*
X163148247Y-90211285D02*
X162767295Y-90211285D01*
X162767295Y-90211285D02*
X162672057Y-90258904D01*
X162672057Y-90258904D02*
X162624438Y-90306523D01*
X162624438Y-90306523D02*
X162576819Y-90401761D01*
X162576819Y-90401761D02*
X162576819Y-90592237D01*
X162576819Y-90592237D02*
X162624438Y-90687475D01*
X162624438Y-90687475D02*
X162672057Y-90735094D01*
X162672057Y-90735094D02*
X162767295Y-90782713D01*
X162767295Y-90782713D02*
X163005390Y-90782713D01*
X163005390Y-90782713D02*
X163100628Y-90735094D01*
X163100628Y-90735094D02*
X163148247Y-90687475D01*
X163148247Y-90687475D02*
X163195866Y-90592237D01*
X163195866Y-90592237D02*
X163195866Y-90401761D01*
X163195866Y-90401761D02*
X163148247Y-90306523D01*
X163148247Y-90306523D02*
X163100628Y-90258904D01*
X163100628Y-90258904D02*
X163005390Y-90211285D01*
X166370819Y-91163666D02*
X165894628Y-91496999D01*
X166370819Y-91735094D02*
X165370819Y-91735094D01*
X165370819Y-91735094D02*
X165370819Y-91354142D01*
X165370819Y-91354142D02*
X165418438Y-91258904D01*
X165418438Y-91258904D02*
X165466057Y-91211285D01*
X165466057Y-91211285D02*
X165561295Y-91163666D01*
X165561295Y-91163666D02*
X165704152Y-91163666D01*
X165704152Y-91163666D02*
X165799390Y-91211285D01*
X165799390Y-91211285D02*
X165847009Y-91258904D01*
X165847009Y-91258904D02*
X165894628Y-91354142D01*
X165894628Y-91354142D02*
X165894628Y-91735094D01*
X166370819Y-90687475D02*
X166370819Y-90496999D01*
X166370819Y-90496999D02*
X166323200Y-90401761D01*
X166323200Y-90401761D02*
X166275580Y-90354142D01*
X166275580Y-90354142D02*
X166132723Y-90258904D01*
X166132723Y-90258904D02*
X165942247Y-90211285D01*
X165942247Y-90211285D02*
X165561295Y-90211285D01*
X165561295Y-90211285D02*
X165466057Y-90258904D01*
X165466057Y-90258904D02*
X165418438Y-90306523D01*
X165418438Y-90306523D02*
X165370819Y-90401761D01*
X165370819Y-90401761D02*
X165370819Y-90592237D01*
X165370819Y-90592237D02*
X165418438Y-90687475D01*
X165418438Y-90687475D02*
X165466057Y-90735094D01*
X165466057Y-90735094D02*
X165561295Y-90782713D01*
X165561295Y-90782713D02*
X165799390Y-90782713D01*
X165799390Y-90782713D02*
X165894628Y-90735094D01*
X165894628Y-90735094D02*
X165942247Y-90687475D01*
X165942247Y-90687475D02*
X165989866Y-90592237D01*
X165989866Y-90592237D02*
X165989866Y-90401761D01*
X165989866Y-90401761D02*
X165942247Y-90306523D01*
X165942247Y-90306523D02*
X165894628Y-90258904D01*
X165894628Y-90258904D02*
X165799390Y-90211285D01*
X137602819Y-107007857D02*
X137126628Y-107341190D01*
X137602819Y-107579285D02*
X136602819Y-107579285D01*
X136602819Y-107579285D02*
X136602819Y-107198333D01*
X136602819Y-107198333D02*
X136650438Y-107103095D01*
X136650438Y-107103095D02*
X136698057Y-107055476D01*
X136698057Y-107055476D02*
X136793295Y-107007857D01*
X136793295Y-107007857D02*
X136936152Y-107007857D01*
X136936152Y-107007857D02*
X137031390Y-107055476D01*
X137031390Y-107055476D02*
X137079009Y-107103095D01*
X137079009Y-107103095D02*
X137126628Y-107198333D01*
X137126628Y-107198333D02*
X137126628Y-107579285D01*
X137602819Y-106055476D02*
X137602819Y-106626904D01*
X137602819Y-106341190D02*
X136602819Y-106341190D01*
X136602819Y-106341190D02*
X136745676Y-106436428D01*
X136745676Y-106436428D02*
X136840914Y-106531666D01*
X136840914Y-106531666D02*
X136888533Y-106626904D01*
X136602819Y-105150714D02*
X136602819Y-105626904D01*
X136602819Y-105626904D02*
X137079009Y-105674523D01*
X137079009Y-105674523D02*
X137031390Y-105626904D01*
X137031390Y-105626904D02*
X136983771Y-105531666D01*
X136983771Y-105531666D02*
X136983771Y-105293571D01*
X136983771Y-105293571D02*
X137031390Y-105198333D01*
X137031390Y-105198333D02*
X137079009Y-105150714D01*
X137079009Y-105150714D02*
X137174247Y-105103095D01*
X137174247Y-105103095D02*
X137412342Y-105103095D01*
X137412342Y-105103095D02*
X137507580Y-105150714D01*
X137507580Y-105150714D02*
X137555200Y-105198333D01*
X137555200Y-105198333D02*
X137602819Y-105293571D01*
X137602819Y-105293571D02*
X137602819Y-105531666D01*
X137602819Y-105531666D02*
X137555200Y-105626904D01*
X137555200Y-105626904D02*
X137507580Y-105674523D01*
X156111580Y-101545857D02*
X156159200Y-101593476D01*
X156159200Y-101593476D02*
X156206819Y-101736333D01*
X156206819Y-101736333D02*
X156206819Y-101831571D01*
X156206819Y-101831571D02*
X156159200Y-101974428D01*
X156159200Y-101974428D02*
X156063961Y-102069666D01*
X156063961Y-102069666D02*
X155968723Y-102117285D01*
X155968723Y-102117285D02*
X155778247Y-102164904D01*
X155778247Y-102164904D02*
X155635390Y-102164904D01*
X155635390Y-102164904D02*
X155444914Y-102117285D01*
X155444914Y-102117285D02*
X155349676Y-102069666D01*
X155349676Y-102069666D02*
X155254438Y-101974428D01*
X155254438Y-101974428D02*
X155206819Y-101831571D01*
X155206819Y-101831571D02*
X155206819Y-101736333D01*
X155206819Y-101736333D02*
X155254438Y-101593476D01*
X155254438Y-101593476D02*
X155302057Y-101545857D01*
X156206819Y-100593476D02*
X156206819Y-101164904D01*
X156206819Y-100879190D02*
X155206819Y-100879190D01*
X155206819Y-100879190D02*
X155349676Y-100974428D01*
X155349676Y-100974428D02*
X155444914Y-101069666D01*
X155444914Y-101069666D02*
X155492533Y-101164904D01*
X155302057Y-100212523D02*
X155254438Y-100164904D01*
X155254438Y-100164904D02*
X155206819Y-100069666D01*
X155206819Y-100069666D02*
X155206819Y-99831571D01*
X155206819Y-99831571D02*
X155254438Y-99736333D01*
X155254438Y-99736333D02*
X155302057Y-99688714D01*
X155302057Y-99688714D02*
X155397295Y-99641095D01*
X155397295Y-99641095D02*
X155492533Y-99641095D01*
X155492533Y-99641095D02*
X155635390Y-99688714D01*
X155635390Y-99688714D02*
X156206819Y-100260142D01*
X156206819Y-100260142D02*
X156206819Y-99641095D01*
X166542333Y-106693580D02*
X166494714Y-106741200D01*
X166494714Y-106741200D02*
X166351857Y-106788819D01*
X166351857Y-106788819D02*
X166256619Y-106788819D01*
X166256619Y-106788819D02*
X166113762Y-106741200D01*
X166113762Y-106741200D02*
X166018524Y-106645961D01*
X166018524Y-106645961D02*
X165970905Y-106550723D01*
X165970905Y-106550723D02*
X165923286Y-106360247D01*
X165923286Y-106360247D02*
X165923286Y-106217390D01*
X165923286Y-106217390D02*
X165970905Y-106026914D01*
X165970905Y-106026914D02*
X166018524Y-105931676D01*
X166018524Y-105931676D02*
X166113762Y-105836438D01*
X166113762Y-105836438D02*
X166256619Y-105788819D01*
X166256619Y-105788819D02*
X166351857Y-105788819D01*
X166351857Y-105788819D02*
X166494714Y-105836438D01*
X166494714Y-105836438D02*
X166542333Y-105884057D01*
X167113762Y-106217390D02*
X167018524Y-106169771D01*
X167018524Y-106169771D02*
X166970905Y-106122152D01*
X166970905Y-106122152D02*
X166923286Y-106026914D01*
X166923286Y-106026914D02*
X166923286Y-105979295D01*
X166923286Y-105979295D02*
X166970905Y-105884057D01*
X166970905Y-105884057D02*
X167018524Y-105836438D01*
X167018524Y-105836438D02*
X167113762Y-105788819D01*
X167113762Y-105788819D02*
X167304238Y-105788819D01*
X167304238Y-105788819D02*
X167399476Y-105836438D01*
X167399476Y-105836438D02*
X167447095Y-105884057D01*
X167447095Y-105884057D02*
X167494714Y-105979295D01*
X167494714Y-105979295D02*
X167494714Y-106026914D01*
X167494714Y-106026914D02*
X167447095Y-106122152D01*
X167447095Y-106122152D02*
X167399476Y-106169771D01*
X167399476Y-106169771D02*
X167304238Y-106217390D01*
X167304238Y-106217390D02*
X167113762Y-106217390D01*
X167113762Y-106217390D02*
X167018524Y-106265009D01*
X167018524Y-106265009D02*
X166970905Y-106312628D01*
X166970905Y-106312628D02*
X166923286Y-106407866D01*
X166923286Y-106407866D02*
X166923286Y-106598342D01*
X166923286Y-106598342D02*
X166970905Y-106693580D01*
X166970905Y-106693580D02*
X167018524Y-106741200D01*
X167018524Y-106741200D02*
X167113762Y-106788819D01*
X167113762Y-106788819D02*
X167304238Y-106788819D01*
X167304238Y-106788819D02*
X167399476Y-106741200D01*
X167399476Y-106741200D02*
X167447095Y-106693580D01*
X167447095Y-106693580D02*
X167494714Y-106598342D01*
X167494714Y-106598342D02*
X167494714Y-106407866D01*
X167494714Y-106407866D02*
X167447095Y-106312628D01*
X167447095Y-106312628D02*
X167399476Y-106265009D01*
X167399476Y-106265009D02*
X167304238Y-106217390D01*
X152908819Y-101545857D02*
X152432628Y-101879190D01*
X152908819Y-102117285D02*
X151908819Y-102117285D01*
X151908819Y-102117285D02*
X151908819Y-101736333D01*
X151908819Y-101736333D02*
X151956438Y-101641095D01*
X151956438Y-101641095D02*
X152004057Y-101593476D01*
X152004057Y-101593476D02*
X152099295Y-101545857D01*
X152099295Y-101545857D02*
X152242152Y-101545857D01*
X152242152Y-101545857D02*
X152337390Y-101593476D01*
X152337390Y-101593476D02*
X152385009Y-101641095D01*
X152385009Y-101641095D02*
X152432628Y-101736333D01*
X152432628Y-101736333D02*
X152432628Y-102117285D01*
X152908819Y-100593476D02*
X152908819Y-101164904D01*
X152908819Y-100879190D02*
X151908819Y-100879190D01*
X151908819Y-100879190D02*
X152051676Y-100974428D01*
X152051676Y-100974428D02*
X152146914Y-101069666D01*
X152146914Y-101069666D02*
X152194533Y-101164904D01*
X152242152Y-99736333D02*
X152908819Y-99736333D01*
X151861200Y-99974428D02*
X152575485Y-100212523D01*
X152575485Y-100212523D02*
X152575485Y-99593476D01*
X156111580Y-93545857D02*
X156159200Y-93593476D01*
X156159200Y-93593476D02*
X156206819Y-93736333D01*
X156206819Y-93736333D02*
X156206819Y-93831571D01*
X156206819Y-93831571D02*
X156159200Y-93974428D01*
X156159200Y-93974428D02*
X156063961Y-94069666D01*
X156063961Y-94069666D02*
X155968723Y-94117285D01*
X155968723Y-94117285D02*
X155778247Y-94164904D01*
X155778247Y-94164904D02*
X155635390Y-94164904D01*
X155635390Y-94164904D02*
X155444914Y-94117285D01*
X155444914Y-94117285D02*
X155349676Y-94069666D01*
X155349676Y-94069666D02*
X155254438Y-93974428D01*
X155254438Y-93974428D02*
X155206819Y-93831571D01*
X155206819Y-93831571D02*
X155206819Y-93736333D01*
X155206819Y-93736333D02*
X155254438Y-93593476D01*
X155254438Y-93593476D02*
X155302057Y-93545857D01*
X156206819Y-92593476D02*
X156206819Y-93164904D01*
X156206819Y-92879190D02*
X155206819Y-92879190D01*
X155206819Y-92879190D02*
X155349676Y-92974428D01*
X155349676Y-92974428D02*
X155444914Y-93069666D01*
X155444914Y-93069666D02*
X155492533Y-93164904D01*
X156206819Y-91641095D02*
X156206819Y-92212523D01*
X156206819Y-91926809D02*
X155206819Y-91926809D01*
X155206819Y-91926809D02*
X155349676Y-92022047D01*
X155349676Y-92022047D02*
X155444914Y-92117285D01*
X155444914Y-92117285D02*
X155492533Y-92212523D01*
X162827142Y-103994819D02*
X162493809Y-103518628D01*
X162255714Y-103994819D02*
X162255714Y-102994819D01*
X162255714Y-102994819D02*
X162636666Y-102994819D01*
X162636666Y-102994819D02*
X162731904Y-103042438D01*
X162731904Y-103042438D02*
X162779523Y-103090057D01*
X162779523Y-103090057D02*
X162827142Y-103185295D01*
X162827142Y-103185295D02*
X162827142Y-103328152D01*
X162827142Y-103328152D02*
X162779523Y-103423390D01*
X162779523Y-103423390D02*
X162731904Y-103471009D01*
X162731904Y-103471009D02*
X162636666Y-103518628D01*
X162636666Y-103518628D02*
X162255714Y-103518628D01*
X163779523Y-103994819D02*
X163208095Y-103994819D01*
X163493809Y-103994819D02*
X163493809Y-102994819D01*
X163493809Y-102994819D02*
X163398571Y-103137676D01*
X163398571Y-103137676D02*
X163303333Y-103232914D01*
X163303333Y-103232914D02*
X163208095Y-103280533D01*
X164398571Y-102994819D02*
X164493809Y-102994819D01*
X164493809Y-102994819D02*
X164589047Y-103042438D01*
X164589047Y-103042438D02*
X164636666Y-103090057D01*
X164636666Y-103090057D02*
X164684285Y-103185295D01*
X164684285Y-103185295D02*
X164731904Y-103375771D01*
X164731904Y-103375771D02*
X164731904Y-103613866D01*
X164731904Y-103613866D02*
X164684285Y-103804342D01*
X164684285Y-103804342D02*
X164636666Y-103899580D01*
X164636666Y-103899580D02*
X164589047Y-103947200D01*
X164589047Y-103947200D02*
X164493809Y-103994819D01*
X164493809Y-103994819D02*
X164398571Y-103994819D01*
X164398571Y-103994819D02*
X164303333Y-103947200D01*
X164303333Y-103947200D02*
X164255714Y-103899580D01*
X164255714Y-103899580D02*
X164208095Y-103804342D01*
X164208095Y-103804342D02*
X164160476Y-103613866D01*
X164160476Y-103613866D02*
X164160476Y-103375771D01*
X164160476Y-103375771D02*
X164208095Y-103185295D01*
X164208095Y-103185295D02*
X164255714Y-103090057D01*
X164255714Y-103090057D02*
X164303333Y-103042438D01*
X164303333Y-103042438D02*
X164398571Y-102994819D01*
X166464819Y-88052666D02*
X165988628Y-88385999D01*
X166464819Y-88624094D02*
X165464819Y-88624094D01*
X165464819Y-88624094D02*
X165464819Y-88243142D01*
X165464819Y-88243142D02*
X165512438Y-88147904D01*
X165512438Y-88147904D02*
X165560057Y-88100285D01*
X165560057Y-88100285D02*
X165655295Y-88052666D01*
X165655295Y-88052666D02*
X165798152Y-88052666D01*
X165798152Y-88052666D02*
X165893390Y-88100285D01*
X165893390Y-88100285D02*
X165941009Y-88147904D01*
X165941009Y-88147904D02*
X165988628Y-88243142D01*
X165988628Y-88243142D02*
X165988628Y-88624094D01*
X165464819Y-87719332D02*
X165464819Y-87052666D01*
X165464819Y-87052666D02*
X166464819Y-87481237D01*
X171101580Y-87811666D02*
X171149200Y-87859285D01*
X171149200Y-87859285D02*
X171196819Y-88002142D01*
X171196819Y-88002142D02*
X171196819Y-88097380D01*
X171196819Y-88097380D02*
X171149200Y-88240237D01*
X171149200Y-88240237D02*
X171053961Y-88335475D01*
X171053961Y-88335475D02*
X170958723Y-88383094D01*
X170958723Y-88383094D02*
X170768247Y-88430713D01*
X170768247Y-88430713D02*
X170625390Y-88430713D01*
X170625390Y-88430713D02*
X170434914Y-88383094D01*
X170434914Y-88383094D02*
X170339676Y-88335475D01*
X170339676Y-88335475D02*
X170244438Y-88240237D01*
X170244438Y-88240237D02*
X170196819Y-88097380D01*
X170196819Y-88097380D02*
X170196819Y-88002142D01*
X170196819Y-88002142D02*
X170244438Y-87859285D01*
X170244438Y-87859285D02*
X170292057Y-87811666D01*
X170292057Y-87430713D02*
X170244438Y-87383094D01*
X170244438Y-87383094D02*
X170196819Y-87287856D01*
X170196819Y-87287856D02*
X170196819Y-87049761D01*
X170196819Y-87049761D02*
X170244438Y-86954523D01*
X170244438Y-86954523D02*
X170292057Y-86906904D01*
X170292057Y-86906904D02*
X170387295Y-86859285D01*
X170387295Y-86859285D02*
X170482533Y-86859285D01*
X170482533Y-86859285D02*
X170625390Y-86906904D01*
X170625390Y-86906904D02*
X171196819Y-87478332D01*
X171196819Y-87478332D02*
X171196819Y-86859285D01*
X172875580Y-105644666D02*
X172923200Y-105692285D01*
X172923200Y-105692285D02*
X172970819Y-105835142D01*
X172970819Y-105835142D02*
X172970819Y-105930380D01*
X172970819Y-105930380D02*
X172923200Y-106073237D01*
X172923200Y-106073237D02*
X172827961Y-106168475D01*
X172827961Y-106168475D02*
X172732723Y-106216094D01*
X172732723Y-106216094D02*
X172542247Y-106263713D01*
X172542247Y-106263713D02*
X172399390Y-106263713D01*
X172399390Y-106263713D02*
X172208914Y-106216094D01*
X172208914Y-106216094D02*
X172113676Y-106168475D01*
X172113676Y-106168475D02*
X172018438Y-106073237D01*
X172018438Y-106073237D02*
X171970819Y-105930380D01*
X171970819Y-105930380D02*
X171970819Y-105835142D01*
X171970819Y-105835142D02*
X172018438Y-105692285D01*
X172018438Y-105692285D02*
X172066057Y-105644666D01*
X172304152Y-104787523D02*
X172970819Y-104787523D01*
X171923200Y-105025618D02*
X172637485Y-105263713D01*
X172637485Y-105263713D02*
X172637485Y-104644666D01*
X166542333Y-103994819D02*
X166209000Y-103518628D01*
X165970905Y-103994819D02*
X165970905Y-102994819D01*
X165970905Y-102994819D02*
X166351857Y-102994819D01*
X166351857Y-102994819D02*
X166447095Y-103042438D01*
X166447095Y-103042438D02*
X166494714Y-103090057D01*
X166494714Y-103090057D02*
X166542333Y-103185295D01*
X166542333Y-103185295D02*
X166542333Y-103328152D01*
X166542333Y-103328152D02*
X166494714Y-103423390D01*
X166494714Y-103423390D02*
X166447095Y-103471009D01*
X166447095Y-103471009D02*
X166351857Y-103518628D01*
X166351857Y-103518628D02*
X165970905Y-103518628D01*
X167113762Y-103423390D02*
X167018524Y-103375771D01*
X167018524Y-103375771D02*
X166970905Y-103328152D01*
X166970905Y-103328152D02*
X166923286Y-103232914D01*
X166923286Y-103232914D02*
X166923286Y-103185295D01*
X166923286Y-103185295D02*
X166970905Y-103090057D01*
X166970905Y-103090057D02*
X167018524Y-103042438D01*
X167018524Y-103042438D02*
X167113762Y-102994819D01*
X167113762Y-102994819D02*
X167304238Y-102994819D01*
X167304238Y-102994819D02*
X167399476Y-103042438D01*
X167399476Y-103042438D02*
X167447095Y-103090057D01*
X167447095Y-103090057D02*
X167494714Y-103185295D01*
X167494714Y-103185295D02*
X167494714Y-103232914D01*
X167494714Y-103232914D02*
X167447095Y-103328152D01*
X167447095Y-103328152D02*
X167399476Y-103375771D01*
X167399476Y-103375771D02*
X167304238Y-103423390D01*
X167304238Y-103423390D02*
X167113762Y-103423390D01*
X167113762Y-103423390D02*
X167018524Y-103471009D01*
X167018524Y-103471009D02*
X166970905Y-103518628D01*
X166970905Y-103518628D02*
X166923286Y-103613866D01*
X166923286Y-103613866D02*
X166923286Y-103804342D01*
X166923286Y-103804342D02*
X166970905Y-103899580D01*
X166970905Y-103899580D02*
X167018524Y-103947200D01*
X167018524Y-103947200D02*
X167113762Y-103994819D01*
X167113762Y-103994819D02*
X167304238Y-103994819D01*
X167304238Y-103994819D02*
X167399476Y-103947200D01*
X167399476Y-103947200D02*
X167447095Y-103899580D01*
X167447095Y-103899580D02*
X167494714Y-103804342D01*
X167494714Y-103804342D02*
X167494714Y-103613866D01*
X167494714Y-103613866D02*
X167447095Y-103518628D01*
X167447095Y-103518628D02*
X167399476Y-103471009D01*
X167399476Y-103471009D02*
X167304238Y-103423390D01*
D12*
G04 #@! TO.C,C5*
X168802000Y-94389580D02*
X168802000Y-94108420D01*
X169822000Y-94389580D02*
X169822000Y-94108420D01*
G04 #@! TO.C,C13*
X168802000Y-83975580D02*
X168802000Y-83694420D01*
X169822000Y-83975580D02*
X169822000Y-83694420D01*
G04 #@! TO.C,C10*
X158388000Y-91137580D02*
X158388000Y-90856420D01*
X159408000Y-91137580D02*
X159408000Y-90856420D01*
G04 #@! TO.C,C14*
X171596000Y-83949580D02*
X171596000Y-83668420D01*
X172616000Y-83949580D02*
X172616000Y-83668420D01*
G04 #@! TO.C,U2*
X164008000Y-83700500D02*
X164008000Y-82900500D01*
X164008000Y-83700500D02*
X164008000Y-84500500D01*
X167128000Y-83700500D02*
X167128000Y-82900500D01*
X167128000Y-83700500D02*
X167128000Y-84500500D01*
X167408000Y-82640500D02*
X167078000Y-82400500D01*
X167408000Y-82160500D01*
X167408000Y-82640500D01*
G36*
X167408000Y-82640500D02*
G01*
X167078000Y-82400500D01*
X167408000Y-82160500D01*
X167408000Y-82640500D01*
G37*
G04 #@! TO.C,C6*
X161182000Y-87835580D02*
X161182000Y-87554420D01*
X162202000Y-87835580D02*
X162202000Y-87554420D01*
D11*
G04 #@! TO.C,JP1*
X139964000Y-104628000D02*
X140464000Y-104128000D01*
X139964000Y-108228000D02*
X139964000Y-104628000D01*
X140464000Y-104128000D02*
X141264000Y-104128000D01*
X140464000Y-108728000D02*
X139964000Y-108228000D01*
X141264000Y-104128000D02*
X141764000Y-104628000D01*
X141264000Y-108728000D02*
X140464000Y-108728000D01*
X141764000Y-104628000D02*
X141764000Y-108228000D01*
X141764000Y-108228000D02*
X141264000Y-108728000D01*
D12*
G04 #@! TO.C,R5*
X168789500Y-90759742D02*
X168789500Y-91234258D01*
X169834500Y-90759742D02*
X169834500Y-91234258D01*
G04 #@! TO.C,FB1*
X160741721Y-84328000D02*
X161067279Y-84328000D01*
X160741721Y-85348000D02*
X161067279Y-85348000D01*
G04 #@! TO.C,R4*
X171583500Y-99312258D02*
X171583500Y-98837742D01*
X172628500Y-99312258D02*
X172628500Y-98837742D01*
G04 #@! TO.C,R3*
X171583500Y-94011742D02*
X171583500Y-94486258D01*
X172628500Y-94011742D02*
X172628500Y-94486258D01*
G04 #@! TO.C,J2*
X136092000Y-91878000D02*
X137362000Y-91878000D01*
X136092000Y-101784000D02*
X136092000Y-91878000D01*
X137362000Y-91878000D02*
X137362000Y-94037000D01*
X137362000Y-94037000D02*
X140410000Y-94037000D01*
X140410000Y-91878000D02*
X143839000Y-91878000D01*
X140410000Y-94037000D02*
X140410000Y-91878000D01*
X143839000Y-91878000D02*
X143839000Y-94037000D01*
X143839000Y-94037000D02*
X146379000Y-94037000D01*
X143839000Y-99879000D02*
X143839000Y-101784000D01*
X143839000Y-101784000D02*
X136092000Y-101784000D01*
X146379000Y-91878000D02*
X148284000Y-91878000D01*
X146379000Y-94037000D02*
X146379000Y-91878000D01*
X147014000Y-99879000D02*
X143839000Y-99879000D01*
X147014000Y-101784000D02*
X147014000Y-99879000D01*
X148284000Y-91878000D02*
X148284000Y-101784000D01*
X148284000Y-101784000D02*
X147014000Y-101784000D01*
G04 #@! TO.C,R6*
X175962258Y-97777500D02*
X175487742Y-97777500D01*
X175962258Y-98822500D02*
X175487742Y-98822500D01*
G04 #@! TO.C,C3*
X174927000Y-105739252D02*
X174927000Y-105216748D01*
X176397000Y-105739252D02*
X176397000Y-105216748D01*
G04 #@! TO.C,R1*
X155581500Y-87869258D02*
X155581500Y-87394742D01*
X156626500Y-87869258D02*
X156626500Y-87394742D01*
G04 #@! TO.C,U1*
X162561000Y-96711000D02*
X162561000Y-94761000D01*
X162561000Y-96711000D02*
X162561000Y-98661000D01*
X167681000Y-96711000D02*
X167681000Y-94761000D01*
X167681000Y-96711000D02*
X167681000Y-98661000D01*
X162656000Y-99411000D02*
X162326000Y-99651000D01*
X162326000Y-99171000D01*
X162656000Y-99411000D01*
G36*
X162656000Y-99411000D02*
G01*
X162326000Y-99651000D01*
X162326000Y-99171000D01*
X162656000Y-99411000D01*
G37*
G04 #@! TO.C,C1*
X171596000Y-87759580D02*
X171596000Y-87478420D01*
X172616000Y-87759580D02*
X172616000Y-87478420D01*
G04 #@! TO.C,F1*
X137868000Y-86943922D02*
X137868000Y-87461078D01*
X139288000Y-86943922D02*
X139288000Y-87461078D01*
G04 #@! TO.C,R13*
X150501500Y-92665742D02*
X150501500Y-93140258D01*
X151546500Y-92665742D02*
X151546500Y-93140258D01*
G04 #@! TO.C,R11*
X158564258Y-93459500D02*
X158089742Y-93459500D01*
X158564258Y-94504500D02*
X158089742Y-94504500D01*
G04 #@! TO.C,C7*
X168802000Y-98934420D02*
X168802000Y-99215580D01*
X169822000Y-98934420D02*
X169822000Y-99215580D01*
G04 #@! TO.C,R12*
X158564258Y-99301500D02*
X158089742Y-99301500D01*
X158564258Y-100346500D02*
X158089742Y-100346500D01*
G04 #@! TO.C,R2*
X158375500Y-87394742D02*
X158375500Y-87869258D01*
X159420500Y-87394742D02*
X159420500Y-87869258D01*
G04 #@! TO.C,C9*
X161182000Y-91137580D02*
X161182000Y-90856420D01*
X162202000Y-91137580D02*
X162202000Y-90856420D01*
G04 #@! TO.C,R9*
X163963500Y-90759742D02*
X163963500Y-91234258D01*
X165008500Y-90759742D02*
X165008500Y-91234258D01*
G04 #@! TO.C,R15*
X138055500Y-106127742D02*
X138055500Y-106602258D01*
X139100500Y-106127742D02*
X139100500Y-106602258D01*
G04 #@! TO.C,C12*
X153337000Y-100641748D02*
X153337000Y-101164252D01*
X154807000Y-100641748D02*
X154807000Y-101164252D01*
G04 #@! TO.C,C8*
X166568420Y-104394000D02*
X166849580Y-104394000D01*
X166568420Y-105414000D02*
X166849580Y-105414000D01*
G04 #@! TO.C,R14*
X150501500Y-101140258D02*
X150501500Y-100665742D01*
X151546500Y-101140258D02*
X151546500Y-100665742D01*
G04 #@! TO.C,C11*
X153337000Y-93164252D02*
X153337000Y-92641748D01*
X154807000Y-93164252D02*
X154807000Y-92641748D01*
G04 #@! TO.C,R10*
X163707258Y-101587500D02*
X163232742Y-101587500D01*
X163707258Y-102632500D02*
X163232742Y-102632500D01*
G04 #@! TO.C,R7*
X163963500Y-87932258D02*
X163963500Y-87457742D01*
X165008500Y-87932258D02*
X165008500Y-87457742D01*
G04 #@! TO.C,C2*
X168802000Y-87785580D02*
X168802000Y-87504420D01*
X169822000Y-87785580D02*
X169822000Y-87504420D01*
G04 #@! TO.C,C4*
X170101000Y-105739252D02*
X170101000Y-105216748D01*
X171571000Y-105739252D02*
X171571000Y-105216748D01*
G04 #@! TO.C,R8*
X166471742Y-101587500D02*
X166946258Y-101587500D01*
X166471742Y-102632500D02*
X166946258Y-102632500D01*
G04 #@! TD*
%LPC*%
D13*
G04 #@! TO.C,C5*
X169312000Y-95024000D03*
X169312000Y-93474000D03*
G04 #@! TD*
G04 #@! TO.C,C13*
X169312000Y-84610000D03*
X169312000Y-83060000D03*
G04 #@! TD*
G04 #@! TO.C,C10*
X158898000Y-91772000D03*
X158898000Y-90222000D03*
G04 #@! TD*
G04 #@! TO.C,C14*
X172106000Y-84584000D03*
X172106000Y-83034000D03*
G04 #@! TD*
D14*
G04 #@! TO.C,U2*
X166518000Y-82563000D03*
X165568000Y-82563000D03*
X164618000Y-82563000D03*
X164618000Y-84838000D03*
X166518000Y-84838000D03*
G04 #@! TD*
D13*
G04 #@! TO.C,C6*
X161692000Y-88470000D03*
X161692000Y-86920000D03*
G04 #@! TD*
D15*
G04 #@! TO.C,JP1*
X140864000Y-105158000D03*
X140864000Y-107698000D03*
G04 #@! TD*
D16*
G04 #@! TO.C,R5*
X169312000Y-90172000D03*
X169312000Y-91822000D03*
G04 #@! TD*
D17*
G04 #@! TO.C,FB1*
X160117000Y-84838000D03*
X161692000Y-84838000D03*
G04 #@! TD*
D18*
G04 #@! TO.C,R4*
X172106000Y-99900000D03*
X172106000Y-98250000D03*
G04 #@! TD*
D16*
G04 #@! TO.C,R3*
X172106000Y-93424000D03*
X172106000Y-95074000D03*
G04 #@! TD*
D19*
G04 #@! TO.C,J2*
X138892000Y-92005000D03*
X145392000Y-101784000D03*
D20*
X145092000Y-92005000D03*
G04 #@! TD*
D21*
G04 #@! TO.C,R6*
X176550000Y-98300000D03*
X174900000Y-98300000D03*
G04 #@! TD*
D22*
G04 #@! TO.C,C3*
X175662000Y-106428000D03*
X175662000Y-104528000D03*
G04 #@! TD*
D18*
G04 #@! TO.C,R1*
X156104000Y-88457000D03*
X156104000Y-86807000D03*
G04 #@! TD*
D23*
G04 #@! TO.C,U1*
X163216000Y-99186000D03*
X164486000Y-99186000D03*
X165756000Y-99186000D03*
X167026000Y-99186000D03*
X167026000Y-94236000D03*
X165756000Y-94236000D03*
X164486000Y-94236000D03*
X163216000Y-94236000D03*
G04 #@! TD*
D13*
G04 #@! TO.C,C1*
X172106000Y-88394000D03*
X172106000Y-86844000D03*
G04 #@! TD*
D24*
G04 #@! TO.C,F1*
X138578000Y-86265000D03*
X138578000Y-88140000D03*
G04 #@! TD*
D16*
G04 #@! TO.C,R13*
X151024000Y-92078000D03*
X151024000Y-93728000D03*
G04 #@! TD*
D21*
G04 #@! TO.C,R11*
X159152000Y-93982000D03*
X157502000Y-93982000D03*
G04 #@! TD*
D25*
G04 #@! TO.C,C7*
X169312000Y-98300000D03*
X169312000Y-99850000D03*
G04 #@! TD*
D21*
G04 #@! TO.C,R12*
X159152000Y-99824000D03*
X157502000Y-99824000D03*
G04 #@! TD*
D16*
G04 #@! TO.C,R2*
X158898000Y-86807000D03*
X158898000Y-88457000D03*
G04 #@! TD*
D13*
G04 #@! TO.C,C9*
X161692000Y-91772000D03*
X161692000Y-90222000D03*
G04 #@! TD*
D16*
G04 #@! TO.C,R9*
X164486000Y-90172000D03*
X164486000Y-91822000D03*
G04 #@! TD*
G04 #@! TO.C,R15*
X138578000Y-105540000D03*
X138578000Y-107190000D03*
G04 #@! TD*
D26*
G04 #@! TO.C,C12*
X154072000Y-99953000D03*
X154072000Y-101853000D03*
G04 #@! TD*
D27*
G04 #@! TO.C,C8*
X165934000Y-104904000D03*
X167484000Y-104904000D03*
G04 #@! TD*
D18*
G04 #@! TO.C,R14*
X151024000Y-101728000D03*
X151024000Y-100078000D03*
G04 #@! TD*
D22*
G04 #@! TO.C,C11*
X154072000Y-93853000D03*
X154072000Y-91953000D03*
G04 #@! TD*
D21*
G04 #@! TO.C,R10*
X164295000Y-102110000D03*
X162645000Y-102110000D03*
G04 #@! TD*
D18*
G04 #@! TO.C,R7*
X164486000Y-88520000D03*
X164486000Y-86870000D03*
G04 #@! TD*
D13*
G04 #@! TO.C,C2*
X169312000Y-88420000D03*
X169312000Y-86870000D03*
G04 #@! TD*
D22*
G04 #@! TO.C,C4*
X170836000Y-106428000D03*
X170836000Y-104528000D03*
G04 #@! TD*
D28*
G04 #@! TO.C,R8*
X165884000Y-102110000D03*
X167534000Y-102110000D03*
G04 #@! TD*
D29*
G04 #@! TO.C,J4*
X152532000Y-83134000D03*
D30*
X149992000Y-83134000D03*
X147452000Y-83134000D03*
X144912000Y-83134000D03*
X142372000Y-83134000D03*
G04 #@! TD*
D29*
G04 #@! TO.C,J3*
X145312000Y-106884000D03*
D30*
X147852000Y-106884000D03*
X150392000Y-106884000D03*
X152932000Y-106884000D03*
X155472000Y-106884000D03*
G04 #@! TD*
D29*
G04 #@! TO.C,J6*
X149992000Y-87034000D03*
D30*
X147452000Y-87034000D03*
X144912000Y-87034000D03*
X142372000Y-87034000D03*
G04 #@! TD*
D29*
G04 #@! TO.C,J1*
X175789000Y-110484000D03*
D30*
X173249000Y-110484000D03*
X170709000Y-110484000D03*
G04 #@! TD*
D29*
G04 #@! TO.C,J5*
X148865000Y-110484000D03*
D30*
X151405000Y-110484000D03*
X153945000Y-110484000D03*
X156485000Y-110484000D03*
X159025000Y-110484000D03*
X161565000Y-110484000D03*
X164105000Y-110484000D03*
G04 #@! TD*
%LPD*%
M02*
