G04 #@! TF.GenerationSoftware,KiCad,Pcbnew,8.0.4*
G04 #@! TF.CreationDate,2024-08-01T22:41:18+02:00*
G04 #@! TF.ProjectId,Headless TEF Audio board,48656164-6c65-4737-9320-544546204175,1*
G04 #@! TF.SameCoordinates,Original*
G04 #@! TF.FileFunction,Other,User*
%FSLAX46Y46*%
G04 Gerber Fmt 4.6, Leading zero omitted, Abs format (unit mm)*
G04 Created by KiCad (PCBNEW 8.0.4) date 2024-08-01 22:41:18*
%MOMM*%
%LPD*%
G01*
G04 APERTURE LIST*
%ADD10C,0.050000*%
G04 APERTURE END LIST*
D10*
G04 #@! TO.C,J4*
X140582000Y-81334000D02*
X140582000Y-84934000D01*
X140582000Y-84934000D02*
X154332000Y-84934000D01*
X154332000Y-81334000D02*
X140582000Y-81334000D01*
X154332000Y-84934000D02*
X154332000Y-81334000D01*
G04 #@! TO.C,J3*
X143512000Y-105084000D02*
X143512000Y-108684000D01*
X143512000Y-108684000D02*
X157262000Y-108684000D01*
X157262000Y-105084000D02*
X143512000Y-105084000D01*
X157262000Y-108684000D02*
X157262000Y-105084000D01*
G04 #@! TO.C,J6*
X140592000Y-85234000D02*
X140592000Y-88834000D01*
X140592000Y-88834000D02*
X151792000Y-88834000D01*
X151792000Y-85234000D02*
X140592000Y-85234000D01*
X151792000Y-88834000D02*
X151792000Y-85234000D01*
G04 #@! TO.C,J1*
X168939000Y-108684000D02*
X168939000Y-112284000D01*
X168939000Y-112284000D02*
X177589000Y-112284000D01*
X177589000Y-108684000D02*
X168939000Y-108684000D01*
X177589000Y-112284000D02*
X177589000Y-108684000D01*
G04 #@! TO.C,J5*
X147065000Y-108684000D02*
X147065000Y-112284000D01*
X147065000Y-112284000D02*
X165915000Y-112284000D01*
X165915000Y-108684000D02*
X147065000Y-108684000D01*
X165915000Y-112284000D02*
X165915000Y-108684000D01*
G04 #@! TD*
M02*
