G04 #@! TF.GenerationSoftware,KiCad,Pcbnew,8.0.4*
G04 #@! TF.CreationDate,2024-08-01T22:41:18+02:00*
G04 #@! TF.ProjectId,Headless TEF Audio board,48656164-6c65-4737-9320-544546204175,1*
G04 #@! TF.SameCoordinates,Original*
G04 #@! TF.FileFunction,Copper,L2,Bot*
G04 #@! TF.FilePolarity,Positive*
%FSLAX46Y46*%
G04 Gerber Fmt 4.6, Leading zero omitted, Abs format (unit mm)*
G04 Created by KiCad (PCBNEW 8.0.4) date 2024-08-01 22:41:18*
%MOMM*%
%LPD*%
G01*
G04 APERTURE LIST*
G04 #@! TA.AperFunction,ComponentPad*
%ADD10C,1.400000*%
G04 #@! TD*
G04 #@! TA.AperFunction,ComponentPad*
%ADD11R,1.700000X1.700000*%
G04 #@! TD*
G04 #@! TA.AperFunction,ComponentPad*
%ADD12O,1.700000X1.700000*%
G04 #@! TD*
G04 #@! TA.AperFunction,ViaPad*
%ADD13C,0.600000*%
G04 #@! TD*
G04 APERTURE END LIST*
D10*
G04 #@! TO.P,JP1,1,A*
G04 #@! TO.N,GND*
X140864000Y-105158000D03*
G04 #@! TO.P,JP1,2,B*
G04 #@! TO.N,Net-(J5-Pin_2)*
X140864000Y-107698000D03*
G04 #@! TD*
D11*
G04 #@! TO.P,J4,1,Pin_1*
G04 #@! TO.N,unconnected-(J4-Pin_1-Pad1)*
X152532000Y-83134000D03*
D12*
G04 #@! TO.P,J4,2,Pin_2*
G04 #@! TO.N,unconnected-(J4-Pin_2-Pad2)*
X149992000Y-83134000D03*
G04 #@! TO.P,J4,3,Pin_3*
G04 #@! TO.N,unconnected-(J4-Pin_3-Pad3)*
X147452000Y-83134000D03*
G04 #@! TO.P,J4,4,Pin_4*
G04 #@! TO.N,unconnected-(J4-Pin_4-Pad4)*
X144912000Y-83134000D03*
G04 #@! TO.P,J4,5,Pin_5*
G04 #@! TO.N,unconnected-(J4-Pin_5-Pad5)*
X142372000Y-83134000D03*
G04 #@! TD*
D11*
G04 #@! TO.P,J3,1,Pin_1*
G04 #@! TO.N,GND*
X145312000Y-106884000D03*
D12*
G04 #@! TO.P,J3,2,Pin_2*
G04 #@! TO.N,unconnected-(J3-Pin_2-Pad2)*
X147852000Y-106884000D03*
G04 #@! TO.P,J3,3,Pin_3*
G04 #@! TO.N,unconnected-(J3-Pin_3-Pad3)*
X150392000Y-106884000D03*
G04 #@! TO.P,J3,4,Pin_4*
G04 #@! TO.N,unconnected-(J3-Pin_4-Pad4)*
X152932000Y-106884000D03*
G04 #@! TO.P,J3,5,Pin_5*
G04 #@! TO.N,unconnected-(J3-Pin_5-Pad5)*
X155472000Y-106884000D03*
G04 #@! TD*
D11*
G04 #@! TO.P,J6,1,Pin_1*
G04 #@! TO.N,unconnected-(J6-Pin_1-Pad1)*
X149992000Y-87034000D03*
D12*
G04 #@! TO.P,J6,2,Pin_2*
G04 #@! TO.N,unconnected-(J6-Pin_2-Pad2)*
X147452000Y-87034000D03*
G04 #@! TO.P,J6,3,Pin_3*
G04 #@! TO.N,GND*
X144912000Y-87034000D03*
G04 #@! TO.P,J6,4,Pin_4*
G04 #@! TO.N,Net-(J6-Pin_4)*
X142372000Y-87034000D03*
G04 #@! TD*
D11*
G04 #@! TO.P,J1,1,Pin_1*
G04 #@! TO.N,Net-(J1-Pin_1)*
X175789000Y-110484000D03*
D12*
G04 #@! TO.P,J1,2,Pin_2*
G04 #@! TO.N,GND*
X173249000Y-110484000D03*
G04 #@! TO.P,J1,3,Pin_3*
G04 #@! TO.N,Net-(J1-Pin_3)*
X170709000Y-110484000D03*
G04 #@! TD*
D11*
G04 #@! TO.P,J5,1,Pin_1*
G04 #@! TO.N,unconnected-(J5-Pin_1-Pad1)*
X148865000Y-110484000D03*
D12*
G04 #@! TO.P,J5,2,Pin_2*
G04 #@! TO.N,Net-(J5-Pin_2)*
X151405000Y-110484000D03*
G04 #@! TO.P,J5,3,Pin_3*
G04 #@! TO.N,unconnected-(J5-Pin_3-Pad3)*
X153945000Y-110484000D03*
G04 #@! TO.P,J5,4,Pin_4*
G04 #@! TO.N,unconnected-(J5-Pin_4-Pad4)*
X156485000Y-110484000D03*
G04 #@! TO.P,J5,5,Pin_5*
G04 #@! TO.N,unconnected-(J5-Pin_5-Pad5)*
X159025000Y-110484000D03*
G04 #@! TO.P,J5,6,Pin_6*
G04 #@! TO.N,GND*
X161565000Y-110484000D03*
G04 #@! TO.P,J5,7,Pin_7*
G04 #@! TO.N,unconnected-(J5-Pin_7-Pad7)*
X164105000Y-110484000D03*
G04 #@! TD*
D13*
G04 #@! TO.N,GND*
X141319938Y-90969965D03*
X168843974Y-104908598D03*
X169312000Y-81790000D03*
X143275407Y-90969965D03*
X169166722Y-101714731D03*
X165502000Y-83822000D03*
X163082724Y-86458275D03*
X141307925Y-92987358D03*
X157807514Y-89294359D03*
X170675786Y-86283465D03*
X151024864Y-98862086D03*
X172106000Y-81790000D03*
X151031783Y-94861624D03*
X166983430Y-100841414D03*
X163066608Y-89726419D03*
G04 #@! TD*
G04 #@! TA.AperFunction,Conductor*
G04 #@! TO.N,GND*
G36*
X178133827Y-81274614D02*
G01*
X178136940Y-81274608D01*
X178136941Y-81274609D01*
X178200951Y-81274502D01*
X178204718Y-81274609D01*
X178500987Y-81292036D01*
X178508447Y-81292929D01*
X178798603Y-81345603D01*
X178805928Y-81347395D01*
X179087608Y-81434657D01*
X179094662Y-81437320D01*
X179363761Y-81557892D01*
X179370441Y-81561384D01*
X179623057Y-81713523D01*
X179629264Y-81717792D01*
X179631173Y-81719282D01*
X179861688Y-81899261D01*
X179867346Y-81904256D01*
X180076205Y-82112422D01*
X180081219Y-82118063D01*
X180263462Y-82349883D01*
X180267758Y-82356086D01*
X180420728Y-82608182D01*
X180424244Y-82614852D01*
X180545714Y-82883551D01*
X180548402Y-82890604D01*
X180636597Y-83171983D01*
X180638415Y-83179308D01*
X180692049Y-83469255D01*
X180692972Y-83476745D01*
X180707353Y-83708108D01*
X180711380Y-83772884D01*
X180711500Y-83776762D01*
X180711500Y-109775236D01*
X180711380Y-109779114D01*
X180692972Y-110075254D01*
X180692049Y-110082744D01*
X180638415Y-110372691D01*
X180636597Y-110380016D01*
X180548402Y-110661395D01*
X180545714Y-110668448D01*
X180424244Y-110937147D01*
X180420725Y-110943824D01*
X180267759Y-111195912D01*
X180263462Y-111202116D01*
X180081219Y-111433936D01*
X180076205Y-111439577D01*
X179867346Y-111647743D01*
X179861688Y-111652738D01*
X179629270Y-111834203D01*
X179623052Y-111838480D01*
X179370445Y-111990613D01*
X179363756Y-111994109D01*
X179094665Y-112114678D01*
X179087604Y-112117343D01*
X178805929Y-112204603D01*
X178798598Y-112206397D01*
X178555277Y-112250568D01*
X178508463Y-112259067D01*
X178500972Y-112259964D01*
X178204722Y-112277389D01*
X178200948Y-112277497D01*
X178133827Y-112277385D01*
X178132060Y-112277500D01*
X138837238Y-112277500D01*
X138833040Y-112277359D01*
X138801818Y-112275256D01*
X138541436Y-112257721D01*
X138533917Y-112256753D01*
X138248378Y-112202246D01*
X138241031Y-112200376D01*
X137964178Y-112111694D01*
X137957112Y-112108948D01*
X137693035Y-111987398D01*
X137686353Y-111983816D01*
X137438935Y-111831186D01*
X137432736Y-111826821D01*
X137205625Y-111645362D01*
X137200000Y-111640279D01*
X136996528Y-111432653D01*
X136991569Y-111426939D01*
X136814717Y-111196185D01*
X136810487Y-111189910D01*
X136662880Y-110939447D01*
X136659444Y-110932714D01*
X136543250Y-110666226D01*
X136540647Y-110659106D01*
X136528376Y-110617953D01*
X136457574Y-110380510D01*
X136455858Y-110373154D01*
X136407127Y-110086539D01*
X136406313Y-110079009D01*
X136406136Y-110075254D01*
X136392569Y-109787019D01*
X136392500Y-109784080D01*
X136392500Y-109781805D01*
X136392506Y-109780951D01*
X136393353Y-109718945D01*
X136392929Y-109715344D01*
X136392500Y-109708035D01*
X136392500Y-109614251D01*
X147814500Y-109614251D01*
X147814500Y-111353748D01*
X147826132Y-111412230D01*
X147826133Y-111412232D01*
X147870447Y-111478552D01*
X147936767Y-111522866D01*
X147936769Y-111522867D01*
X147995252Y-111534500D01*
X149734748Y-111534500D01*
X149793231Y-111522867D01*
X149859552Y-111478552D01*
X149903867Y-111412231D01*
X149915500Y-111353748D01*
X149915500Y-110483999D01*
X150349417Y-110483999D01*
X150349417Y-110484000D01*
X150369699Y-110689930D01*
X150369700Y-110689935D01*
X150429766Y-110887949D01*
X150429768Y-110887954D01*
X150527311Y-111070444D01*
X150527319Y-111070455D01*
X150630506Y-111196190D01*
X150658590Y-111230410D01*
X150818550Y-111361685D01*
X150818553Y-111361686D01*
X150818555Y-111361688D01*
X150873385Y-111390995D01*
X151001046Y-111459232D01*
X151199066Y-111519300D01*
X151405000Y-111539583D01*
X151610934Y-111519300D01*
X151808954Y-111459232D01*
X151991450Y-111361685D01*
X152151410Y-111230410D01*
X152282685Y-111070450D01*
X152380232Y-110887954D01*
X152440300Y-110689934D01*
X152460583Y-110484000D01*
X152460583Y-110483999D01*
X152889417Y-110483999D01*
X152889417Y-110484000D01*
X152909699Y-110689930D01*
X152909700Y-110689935D01*
X152969766Y-110887949D01*
X152969768Y-110887954D01*
X153067311Y-111070444D01*
X153067319Y-111070455D01*
X153170506Y-111196190D01*
X153198590Y-111230410D01*
X153358550Y-111361685D01*
X153358553Y-111361686D01*
X153358555Y-111361688D01*
X153413385Y-111390995D01*
X153541046Y-111459232D01*
X153739066Y-111519300D01*
X153945000Y-111539583D01*
X154150934Y-111519300D01*
X154348954Y-111459232D01*
X154531450Y-111361685D01*
X154691410Y-111230410D01*
X154822685Y-111070450D01*
X154920232Y-110887954D01*
X154980300Y-110689934D01*
X155000583Y-110484000D01*
X155000583Y-110483999D01*
X155429417Y-110483999D01*
X155429417Y-110484000D01*
X155449699Y-110689930D01*
X155449700Y-110689935D01*
X155509766Y-110887949D01*
X155509768Y-110887954D01*
X155607311Y-111070444D01*
X155607319Y-111070455D01*
X155710506Y-111196190D01*
X155738590Y-111230410D01*
X155898550Y-111361685D01*
X155898553Y-111361686D01*
X155898555Y-111361688D01*
X155953385Y-111390995D01*
X156081046Y-111459232D01*
X156279066Y-111519300D01*
X156485000Y-111539583D01*
X156690934Y-111519300D01*
X156888954Y-111459232D01*
X157071450Y-111361685D01*
X157231410Y-111230410D01*
X157362685Y-111070450D01*
X157460232Y-110887954D01*
X157520300Y-110689934D01*
X157540583Y-110484000D01*
X157540583Y-110483999D01*
X157969417Y-110483999D01*
X157969417Y-110484000D01*
X157989699Y-110689930D01*
X157989700Y-110689935D01*
X158049766Y-110887949D01*
X158049768Y-110887954D01*
X158147311Y-111070444D01*
X158147319Y-111070455D01*
X158250506Y-111196190D01*
X158278590Y-111230410D01*
X158438550Y-111361685D01*
X158438553Y-111361686D01*
X158438555Y-111361688D01*
X158493385Y-111390995D01*
X158621046Y-111459232D01*
X158819066Y-111519300D01*
X159025000Y-111539583D01*
X159230934Y-111519300D01*
X159428954Y-111459232D01*
X159611450Y-111361685D01*
X159771410Y-111230410D01*
X159902685Y-111070450D01*
X160000232Y-110887954D01*
X160060300Y-110689934D01*
X160080583Y-110484000D01*
X160070734Y-110383999D01*
X160593121Y-110383999D01*
X160593122Y-110384000D01*
X161074157Y-110384000D01*
X161065000Y-110418174D01*
X161065000Y-110549826D01*
X161074157Y-110584000D01*
X160593122Y-110584000D01*
X160602137Y-110675524D01*
X160658004Y-110859692D01*
X160748720Y-111029412D01*
X160748728Y-111029423D01*
X160870812Y-111178184D01*
X160870815Y-111178187D01*
X161019576Y-111300271D01*
X161019587Y-111300279D01*
X161189307Y-111390995D01*
X161373476Y-111446863D01*
X161465000Y-111455876D01*
X161465000Y-110974842D01*
X161499174Y-110984000D01*
X161630826Y-110984000D01*
X161665000Y-110974842D01*
X161665000Y-111455876D01*
X161756523Y-111446863D01*
X161940692Y-111390995D01*
X162110412Y-111300279D01*
X162110423Y-111300271D01*
X162259184Y-111178187D01*
X162259187Y-111178184D01*
X162381271Y-111029423D01*
X162381279Y-111029412D01*
X162471995Y-110859692D01*
X162527862Y-110675524D01*
X162536878Y-110584000D01*
X162055843Y-110584000D01*
X162065000Y-110549826D01*
X162065000Y-110483999D01*
X163049417Y-110483999D01*
X163049417Y-110484000D01*
X163069699Y-110689930D01*
X163069700Y-110689935D01*
X163129766Y-110887949D01*
X163129768Y-110887954D01*
X163227311Y-111070444D01*
X163227319Y-111070455D01*
X163330506Y-111196190D01*
X163358590Y-111230410D01*
X163518550Y-111361685D01*
X163518553Y-111361686D01*
X163518555Y-111361688D01*
X163573385Y-111390995D01*
X163701046Y-111459232D01*
X163899066Y-111519300D01*
X164105000Y-111539583D01*
X164310934Y-111519300D01*
X164508954Y-111459232D01*
X164691450Y-111361685D01*
X164851410Y-111230410D01*
X164982685Y-111070450D01*
X165080232Y-110887954D01*
X165140300Y-110689934D01*
X165160583Y-110484000D01*
X165160583Y-110483999D01*
X169653417Y-110483999D01*
X169653417Y-110484000D01*
X169673699Y-110689930D01*
X169673700Y-110689935D01*
X169733766Y-110887949D01*
X169733768Y-110887954D01*
X169831311Y-111070444D01*
X169831319Y-111070455D01*
X169934506Y-111196190D01*
X169962590Y-111230410D01*
X170122550Y-111361685D01*
X170122553Y-111361686D01*
X170122555Y-111361688D01*
X170177385Y-111390995D01*
X170305046Y-111459232D01*
X170503066Y-111519300D01*
X170709000Y-111539583D01*
X170914934Y-111519300D01*
X171112954Y-111459232D01*
X171295450Y-111361685D01*
X171455410Y-111230410D01*
X171586685Y-111070450D01*
X171684232Y-110887954D01*
X171744300Y-110689934D01*
X171764583Y-110484000D01*
X171754734Y-110383999D01*
X172277121Y-110383999D01*
X172277122Y-110384000D01*
X172758157Y-110384000D01*
X172749000Y-110418174D01*
X172749000Y-110549826D01*
X172758157Y-110584000D01*
X172277122Y-110584000D01*
X172286137Y-110675524D01*
X172342004Y-110859692D01*
X172432720Y-111029412D01*
X172432728Y-111029423D01*
X172554812Y-111178184D01*
X172554815Y-111178187D01*
X172703576Y-111300271D01*
X172703587Y-111300279D01*
X172873307Y-111390995D01*
X173057476Y-111446863D01*
X173149000Y-111455876D01*
X173149000Y-110974842D01*
X173183174Y-110984000D01*
X173314826Y-110984000D01*
X173349000Y-110974842D01*
X173349000Y-111455876D01*
X173440523Y-111446863D01*
X173624692Y-111390995D01*
X173794412Y-111300279D01*
X173794423Y-111300271D01*
X173943184Y-111178187D01*
X173943187Y-111178184D01*
X174065271Y-111029423D01*
X174065279Y-111029412D01*
X174155995Y-110859692D01*
X174211862Y-110675524D01*
X174220878Y-110584000D01*
X173739843Y-110584000D01*
X173749000Y-110549826D01*
X173749000Y-110418174D01*
X173739843Y-110384000D01*
X174220878Y-110384000D01*
X174220878Y-110383999D01*
X174211862Y-110292475D01*
X174155995Y-110108307D01*
X174065279Y-109938587D01*
X174065271Y-109938576D01*
X173943187Y-109789815D01*
X173943184Y-109789812D01*
X173794423Y-109667728D01*
X173794412Y-109667720D01*
X173694377Y-109614251D01*
X174738500Y-109614251D01*
X174738500Y-111353748D01*
X174750132Y-111412230D01*
X174750133Y-111412232D01*
X174794447Y-111478552D01*
X174860767Y-111522866D01*
X174860769Y-111522867D01*
X174919252Y-111534500D01*
X176658748Y-111534500D01*
X176717231Y-111522867D01*
X176783552Y-111478552D01*
X176827867Y-111412231D01*
X176839500Y-111353748D01*
X176839500Y-109614252D01*
X176827867Y-109555769D01*
X176827866Y-109555767D01*
X176783552Y-109489447D01*
X176717232Y-109445133D01*
X176717230Y-109445132D01*
X176658748Y-109433500D01*
X174919252Y-109433500D01*
X174860769Y-109445132D01*
X174860767Y-109445133D01*
X174794447Y-109489447D01*
X174750133Y-109555767D01*
X174750132Y-109555769D01*
X174738500Y-109614251D01*
X173694377Y-109614251D01*
X173624692Y-109577004D01*
X173440524Y-109521137D01*
X173349000Y-109512121D01*
X173349000Y-109993157D01*
X173314826Y-109984000D01*
X173183174Y-109984000D01*
X173149000Y-109993157D01*
X173149000Y-109512121D01*
X173148999Y-109512121D01*
X173057475Y-109521137D01*
X172873307Y-109577004D01*
X172703587Y-109667720D01*
X172703576Y-109667728D01*
X172554815Y-109789812D01*
X172554812Y-109789815D01*
X172432728Y-109938576D01*
X172432720Y-109938587D01*
X172342004Y-110108307D01*
X172286137Y-110292475D01*
X172277121Y-110383999D01*
X171754734Y-110383999D01*
X171744300Y-110278066D01*
X171684232Y-110080046D01*
X171586685Y-109897550D01*
X171455410Y-109737590D01*
X171428589Y-109715579D01*
X171295455Y-109606319D01*
X171295453Y-109606318D01*
X171295450Y-109606315D01*
X171295448Y-109606313D01*
X171295444Y-109606311D01*
X171112954Y-109508768D01*
X171112949Y-109508766D01*
X170914935Y-109448700D01*
X170914930Y-109448699D01*
X170709000Y-109428417D01*
X170503069Y-109448699D01*
X170503064Y-109448700D01*
X170305050Y-109508766D01*
X170305045Y-109508768D01*
X170122555Y-109606311D01*
X170122544Y-109606319D01*
X169962591Y-109737588D01*
X169962588Y-109737591D01*
X169831319Y-109897544D01*
X169831311Y-109897555D01*
X169733768Y-110080045D01*
X169733766Y-110080050D01*
X169673700Y-110278064D01*
X169673699Y-110278069D01*
X169653417Y-110483999D01*
X165160583Y-110483999D01*
X165140300Y-110278066D01*
X165080232Y-110080046D01*
X164982685Y-109897550D01*
X164851410Y-109737590D01*
X164824589Y-109715579D01*
X164691455Y-109606319D01*
X164691453Y-109606318D01*
X164691450Y-109606315D01*
X164691448Y-109606313D01*
X164691444Y-109606311D01*
X164508954Y-109508768D01*
X164508949Y-109508766D01*
X164310935Y-109448700D01*
X164310930Y-109448699D01*
X164105000Y-109428417D01*
X163899069Y-109448699D01*
X163899064Y-109448700D01*
X163701050Y-109508766D01*
X163701045Y-109508768D01*
X163518555Y-109606311D01*
X163518544Y-109606319D01*
X163358591Y-109737588D01*
X163358588Y-109737591D01*
X163227319Y-109897544D01*
X163227311Y-109897555D01*
X163129768Y-110080045D01*
X163129766Y-110080050D01*
X163069700Y-110278064D01*
X163069699Y-110278069D01*
X163049417Y-110483999D01*
X162065000Y-110483999D01*
X162065000Y-110418174D01*
X162055843Y-110384000D01*
X162536878Y-110384000D01*
X162536878Y-110383999D01*
X162527862Y-110292475D01*
X162471995Y-110108307D01*
X162381279Y-109938587D01*
X162381271Y-109938576D01*
X162259187Y-109789815D01*
X162259184Y-109789812D01*
X162110423Y-109667728D01*
X162110412Y-109667720D01*
X161940692Y-109577004D01*
X161756524Y-109521137D01*
X161665000Y-109512121D01*
X161665000Y-109993157D01*
X161630826Y-109984000D01*
X161499174Y-109984000D01*
X161465000Y-109993157D01*
X161465000Y-109512121D01*
X161464999Y-109512121D01*
X161373475Y-109521137D01*
X161189307Y-109577004D01*
X161019587Y-109667720D01*
X161019576Y-109667728D01*
X160870815Y-109789812D01*
X160870812Y-109789815D01*
X160748728Y-109938576D01*
X160748720Y-109938587D01*
X160658004Y-110108307D01*
X160602137Y-110292475D01*
X160593121Y-110383999D01*
X160070734Y-110383999D01*
X160060300Y-110278066D01*
X160000232Y-110080046D01*
X159902685Y-109897550D01*
X159771410Y-109737590D01*
X159744589Y-109715579D01*
X159611455Y-109606319D01*
X159611453Y-109606318D01*
X159611450Y-109606315D01*
X159611448Y-109606313D01*
X159611444Y-109606311D01*
X159428954Y-109508768D01*
X159428949Y-109508766D01*
X159230935Y-109448700D01*
X159230930Y-109448699D01*
X159025000Y-109428417D01*
X158819069Y-109448699D01*
X158819064Y-109448700D01*
X158621050Y-109508766D01*
X158621045Y-109508768D01*
X158438555Y-109606311D01*
X158438544Y-109606319D01*
X158278591Y-109737588D01*
X158278588Y-109737591D01*
X158147319Y-109897544D01*
X158147311Y-109897555D01*
X158049768Y-110080045D01*
X158049766Y-110080050D01*
X157989700Y-110278064D01*
X157989699Y-110278069D01*
X157969417Y-110483999D01*
X157540583Y-110483999D01*
X157520300Y-110278066D01*
X157460232Y-110080046D01*
X157362685Y-109897550D01*
X157231410Y-109737590D01*
X157204589Y-109715579D01*
X157071455Y-109606319D01*
X157071453Y-109606318D01*
X157071450Y-109606315D01*
X157071448Y-109606313D01*
X157071444Y-109606311D01*
X156888954Y-109508768D01*
X156888949Y-109508766D01*
X156690935Y-109448700D01*
X156690930Y-109448699D01*
X156485000Y-109428417D01*
X156279069Y-109448699D01*
X156279064Y-109448700D01*
X156081050Y-109508766D01*
X156081045Y-109508768D01*
X155898555Y-109606311D01*
X155898544Y-109606319D01*
X155738591Y-109737588D01*
X155738588Y-109737591D01*
X155607319Y-109897544D01*
X155607311Y-109897555D01*
X155509768Y-110080045D01*
X155509766Y-110080050D01*
X155449700Y-110278064D01*
X155449699Y-110278069D01*
X155429417Y-110483999D01*
X155000583Y-110483999D01*
X154980300Y-110278066D01*
X154920232Y-110080046D01*
X154822685Y-109897550D01*
X154691410Y-109737590D01*
X154664589Y-109715579D01*
X154531455Y-109606319D01*
X154531453Y-109606318D01*
X154531450Y-109606315D01*
X154531448Y-109606313D01*
X154531444Y-109606311D01*
X154348954Y-109508768D01*
X154348949Y-109508766D01*
X154150935Y-109448700D01*
X154150930Y-109448699D01*
X153945000Y-109428417D01*
X153739069Y-109448699D01*
X153739064Y-109448700D01*
X153541050Y-109508766D01*
X153541045Y-109508768D01*
X153358555Y-109606311D01*
X153358544Y-109606319D01*
X153198591Y-109737588D01*
X153198588Y-109737591D01*
X153067319Y-109897544D01*
X153067311Y-109897555D01*
X152969768Y-110080045D01*
X152969766Y-110080050D01*
X152909700Y-110278064D01*
X152909699Y-110278069D01*
X152889417Y-110483999D01*
X152460583Y-110483999D01*
X152440300Y-110278066D01*
X152380232Y-110080046D01*
X152282685Y-109897550D01*
X152151410Y-109737590D01*
X152124589Y-109715579D01*
X151991455Y-109606319D01*
X151991453Y-109606318D01*
X151991450Y-109606315D01*
X151991448Y-109606313D01*
X151991444Y-109606311D01*
X151808954Y-109508768D01*
X151808949Y-109508766D01*
X151610935Y-109448700D01*
X151610930Y-109448699D01*
X151405000Y-109428417D01*
X151199069Y-109448699D01*
X151199064Y-109448700D01*
X151001050Y-109508766D01*
X151001045Y-109508768D01*
X150818555Y-109606311D01*
X150818544Y-109606319D01*
X150658591Y-109737588D01*
X150658588Y-109737591D01*
X150527319Y-109897544D01*
X150527311Y-109897555D01*
X150429768Y-110080045D01*
X150429766Y-110080050D01*
X150369700Y-110278064D01*
X150369699Y-110278069D01*
X150349417Y-110483999D01*
X149915500Y-110483999D01*
X149915500Y-109614252D01*
X149903867Y-109555769D01*
X149903866Y-109555767D01*
X149859552Y-109489447D01*
X149793232Y-109445133D01*
X149793230Y-109445132D01*
X149734748Y-109433500D01*
X147995252Y-109433500D01*
X147936769Y-109445132D01*
X147936767Y-109445133D01*
X147870447Y-109489447D01*
X147826133Y-109555767D01*
X147826132Y-109555769D01*
X147814500Y-109614251D01*
X136392500Y-109614251D01*
X136392500Y-107698000D01*
X139958540Y-107698000D01*
X139978326Y-107886258D01*
X140036818Y-108066278D01*
X140036820Y-108066282D01*
X140036821Y-108066284D01*
X140131467Y-108230216D01*
X140244118Y-108355327D01*
X140258128Y-108370887D01*
X140258129Y-108370888D01*
X140411265Y-108482148D01*
X140411274Y-108482153D01*
X140584185Y-108559139D01*
X140584188Y-108559140D01*
X140584197Y-108559144D01*
X140769354Y-108598500D01*
X140958646Y-108598500D01*
X141143803Y-108559144D01*
X141316730Y-108482151D01*
X141469871Y-108370888D01*
X141596533Y-108230216D01*
X141691179Y-108066284D01*
X141749674Y-107886256D01*
X141764362Y-107746507D01*
X144334999Y-107746507D01*
X144342369Y-107783553D01*
X144342369Y-107783554D01*
X144370438Y-107825561D01*
X144412446Y-107853630D01*
X144449493Y-107861000D01*
X145212000Y-107861000D01*
X145212000Y-107374842D01*
X145246174Y-107384000D01*
X145377826Y-107384000D01*
X145412000Y-107374842D01*
X145412000Y-107861000D01*
X146174507Y-107861000D01*
X146211553Y-107853630D01*
X146211554Y-107853630D01*
X146253561Y-107825561D01*
X146281630Y-107783554D01*
X146281630Y-107783553D01*
X146289000Y-107746507D01*
X146289000Y-106984000D01*
X145802843Y-106984000D01*
X145812000Y-106949826D01*
X145812000Y-106883999D01*
X146796417Y-106883999D01*
X146796417Y-106884000D01*
X146816699Y-107089930D01*
X146816700Y-107089935D01*
X146876766Y-107287949D01*
X146876768Y-107287954D01*
X146974311Y-107470444D01*
X146974319Y-107470455D01*
X147006562Y-107509744D01*
X147105590Y-107630410D01*
X147265550Y-107761685D01*
X147265553Y-107761686D01*
X147265555Y-107761688D01*
X147340912Y-107801967D01*
X147448046Y-107859232D01*
X147646066Y-107919300D01*
X147852000Y-107939583D01*
X148057934Y-107919300D01*
X148255954Y-107859232D01*
X148438450Y-107761685D01*
X148598410Y-107630410D01*
X148729685Y-107470450D01*
X148827232Y-107287954D01*
X148887300Y-107089934D01*
X148907583Y-106884000D01*
X148907583Y-106883999D01*
X149336417Y-106883999D01*
X149336417Y-106884000D01*
X149356699Y-107089930D01*
X149356700Y-107089935D01*
X149416766Y-107287949D01*
X149416768Y-107287954D01*
X149514311Y-107470444D01*
X149514319Y-107470455D01*
X149546562Y-107509744D01*
X149645590Y-107630410D01*
X149805550Y-107761685D01*
X149805553Y-107761686D01*
X149805555Y-107761688D01*
X149880912Y-107801967D01*
X149988046Y-107859232D01*
X150186066Y-107919300D01*
X150392000Y-107939583D01*
X150597934Y-107919300D01*
X150795954Y-107859232D01*
X150978450Y-107761685D01*
X151138410Y-107630410D01*
X151269685Y-107470450D01*
X151367232Y-107287954D01*
X151427300Y-107089934D01*
X151447583Y-106884000D01*
X151447583Y-106883999D01*
X151876417Y-106883999D01*
X151876417Y-106884000D01*
X151896699Y-107089930D01*
X151896700Y-107089935D01*
X151956766Y-107287949D01*
X151956768Y-107287954D01*
X152054311Y-107470444D01*
X152054319Y-107470455D01*
X152086562Y-107509744D01*
X152185590Y-107630410D01*
X152345550Y-107761685D01*
X152345553Y-107761686D01*
X152345555Y-107761688D01*
X152420912Y-107801967D01*
X152528046Y-107859232D01*
X152726066Y-107919300D01*
X152932000Y-107939583D01*
X153137934Y-107919300D01*
X153335954Y-107859232D01*
X153518450Y-107761685D01*
X153678410Y-107630410D01*
X153809685Y-107470450D01*
X153907232Y-107287954D01*
X153967300Y-107089934D01*
X153987583Y-106884000D01*
X153987583Y-106883999D01*
X154416417Y-106883999D01*
X154416417Y-106884000D01*
X154436699Y-107089930D01*
X154436700Y-107089935D01*
X154496766Y-107287949D01*
X154496768Y-107287954D01*
X154594311Y-107470444D01*
X154594319Y-107470455D01*
X154626562Y-107509744D01*
X154725590Y-107630410D01*
X154885550Y-107761685D01*
X154885553Y-107761686D01*
X154885555Y-107761688D01*
X154960912Y-107801967D01*
X155068046Y-107859232D01*
X155266066Y-107919300D01*
X155472000Y-107939583D01*
X155677934Y-107919300D01*
X155875954Y-107859232D01*
X156058450Y-107761685D01*
X156218410Y-107630410D01*
X156349685Y-107470450D01*
X156447232Y-107287954D01*
X156507300Y-107089934D01*
X156527583Y-106884000D01*
X156507300Y-106678066D01*
X156447232Y-106480046D01*
X156349685Y-106297550D01*
X156218410Y-106137590D01*
X156058450Y-106006315D01*
X156058448Y-106006313D01*
X156058444Y-106006311D01*
X155875954Y-105908768D01*
X155875949Y-105908766D01*
X155677935Y-105848700D01*
X155677930Y-105848699D01*
X155472000Y-105828417D01*
X155266069Y-105848699D01*
X155266064Y-105848700D01*
X155068050Y-105908766D01*
X155068045Y-105908768D01*
X154885555Y-106006311D01*
X154885544Y-106006319D01*
X154725591Y-106137588D01*
X154725588Y-106137591D01*
X154594319Y-106297544D01*
X154594311Y-106297555D01*
X154496768Y-106480045D01*
X154496766Y-106480050D01*
X154436700Y-106678064D01*
X154436699Y-106678069D01*
X154416417Y-106883999D01*
X153987583Y-106883999D01*
X153967300Y-106678066D01*
X153907232Y-106480046D01*
X153809685Y-106297550D01*
X153678410Y-106137590D01*
X153518450Y-106006315D01*
X153518448Y-106006313D01*
X153518444Y-106006311D01*
X153335954Y-105908768D01*
X153335949Y-105908766D01*
X153137935Y-105848700D01*
X153137930Y-105848699D01*
X152932000Y-105828417D01*
X152726069Y-105848699D01*
X152726064Y-105848700D01*
X152528050Y-105908766D01*
X152528045Y-105908768D01*
X152345555Y-106006311D01*
X152345544Y-106006319D01*
X152185591Y-106137588D01*
X152185588Y-106137591D01*
X152054319Y-106297544D01*
X152054311Y-106297555D01*
X151956768Y-106480045D01*
X151956766Y-106480050D01*
X151896700Y-106678064D01*
X151896699Y-106678069D01*
X151876417Y-106883999D01*
X151447583Y-106883999D01*
X151427300Y-106678066D01*
X151367232Y-106480046D01*
X151269685Y-106297550D01*
X151138410Y-106137590D01*
X150978450Y-106006315D01*
X150978448Y-106006313D01*
X150978444Y-106006311D01*
X150795954Y-105908768D01*
X150795949Y-105908766D01*
X150597935Y-105848700D01*
X150597930Y-105848699D01*
X150392000Y-105828417D01*
X150186069Y-105848699D01*
X150186064Y-105848700D01*
X149988050Y-105908766D01*
X149988045Y-105908768D01*
X149805555Y-106006311D01*
X149805544Y-106006319D01*
X149645591Y-106137588D01*
X149645588Y-106137591D01*
X149514319Y-106297544D01*
X149514311Y-106297555D01*
X149416768Y-106480045D01*
X149416766Y-106480050D01*
X149356700Y-106678064D01*
X149356699Y-106678069D01*
X149336417Y-106883999D01*
X148907583Y-106883999D01*
X148887300Y-106678066D01*
X148827232Y-106480046D01*
X148729685Y-106297550D01*
X148598410Y-106137590D01*
X148438450Y-106006315D01*
X148438448Y-106006313D01*
X148438444Y-106006311D01*
X148255954Y-105908768D01*
X148255949Y-105908766D01*
X148057935Y-105848700D01*
X148057930Y-105848699D01*
X147852000Y-105828417D01*
X147646069Y-105848699D01*
X147646064Y-105848700D01*
X147448050Y-105908766D01*
X147448045Y-105908768D01*
X147265555Y-106006311D01*
X147265544Y-106006319D01*
X147105591Y-106137588D01*
X147105588Y-106137591D01*
X146974319Y-106297544D01*
X146974311Y-106297555D01*
X146876768Y-106480045D01*
X146876766Y-106480050D01*
X146816700Y-106678064D01*
X146816699Y-106678069D01*
X146796417Y-106883999D01*
X145812000Y-106883999D01*
X145812000Y-106818174D01*
X145802843Y-106784000D01*
X146289000Y-106784000D01*
X146289000Y-106021492D01*
X146281630Y-105984446D01*
X146281630Y-105984445D01*
X146253561Y-105942438D01*
X146211553Y-105914369D01*
X146174507Y-105907000D01*
X145412000Y-105907000D01*
X145412000Y-106393157D01*
X145377826Y-106384000D01*
X145246174Y-106384000D01*
X145212000Y-106393157D01*
X145212000Y-105907000D01*
X144449493Y-105907000D01*
X144412446Y-105914369D01*
X144412445Y-105914369D01*
X144370438Y-105942438D01*
X144342369Y-105984445D01*
X144342369Y-105984446D01*
X144335000Y-106021492D01*
X144335000Y-106784000D01*
X144821157Y-106784000D01*
X144812000Y-106818174D01*
X144812000Y-106949826D01*
X144821157Y-106984000D01*
X144335000Y-106984000D01*
X144335000Y-107746507D01*
X144334999Y-107746507D01*
X141764362Y-107746507D01*
X141769460Y-107698000D01*
X141749674Y-107509744D01*
X141708817Y-107384000D01*
X141691181Y-107329721D01*
X141691180Y-107329719D01*
X141691179Y-107329716D01*
X141596533Y-107165784D01*
X141469871Y-107025112D01*
X141469870Y-107025111D01*
X141316734Y-106913851D01*
X141316725Y-106913846D01*
X141143814Y-106836860D01*
X141143797Y-106836854D01*
X140958646Y-106797500D01*
X140769354Y-106797500D01*
X140584202Y-106836854D01*
X140584185Y-106836860D01*
X140411274Y-106913846D01*
X140411265Y-106913851D01*
X140258129Y-107025111D01*
X140258128Y-107025112D01*
X140131466Y-107165785D01*
X140036818Y-107329721D01*
X139978326Y-107509741D01*
X139958540Y-107698000D01*
X136392500Y-107698000D01*
X136392500Y-105158000D01*
X140032445Y-105158000D01*
X140050616Y-105330892D01*
X140104335Y-105496219D01*
X140191258Y-105646776D01*
X140191259Y-105646777D01*
X140211414Y-105669161D01*
X140211415Y-105669161D01*
X140519414Y-105361161D01*
X140543920Y-105403606D01*
X140618394Y-105478080D01*
X140660836Y-105502584D01*
X140353842Y-105809578D01*
X140448217Y-105878145D01*
X140607031Y-105948854D01*
X140607038Y-105948856D01*
X140777079Y-105985000D01*
X140950921Y-105985000D01*
X141120961Y-105948856D01*
X141120968Y-105948854D01*
X141279783Y-105878144D01*
X141374156Y-105809578D01*
X141067162Y-105502584D01*
X141109606Y-105478080D01*
X141184080Y-105403606D01*
X141208584Y-105361162D01*
X141516583Y-105669161D01*
X141536742Y-105646774D01*
X141623664Y-105496219D01*
X141677383Y-105330892D01*
X141695554Y-105158000D01*
X141677383Y-104985107D01*
X141623664Y-104819780D01*
X141536742Y-104669225D01*
X141516583Y-104646837D01*
X141208583Y-104954836D01*
X141184080Y-104912394D01*
X141109606Y-104837920D01*
X141067161Y-104813414D01*
X141374156Y-104506420D01*
X141279779Y-104437853D01*
X141120968Y-104367145D01*
X141120961Y-104367143D01*
X140950921Y-104331000D01*
X140777079Y-104331000D01*
X140607038Y-104367143D01*
X140607023Y-104367148D01*
X140448224Y-104437851D01*
X140448220Y-104437853D01*
X140353843Y-104506421D01*
X140660837Y-104813415D01*
X140618394Y-104837920D01*
X140543920Y-104912394D01*
X140519415Y-104954836D01*
X140211415Y-104646836D01*
X140211414Y-104646837D01*
X140191260Y-104669220D01*
X140104335Y-104819780D01*
X140050616Y-104985107D01*
X140032445Y-105158000D01*
X136392500Y-105158000D01*
X136392500Y-97085000D01*
X137686700Y-97085000D01*
X137705866Y-97316305D01*
X137705868Y-97316315D01*
X137762839Y-97541287D01*
X137762841Y-97541295D01*
X137762843Y-97541300D01*
X137856076Y-97753849D01*
X137983021Y-97948153D01*
X137983024Y-97948156D01*
X138140217Y-98118914D01*
X138140220Y-98118917D01*
X138323372Y-98261469D01*
X138323374Y-98261470D01*
X138527497Y-98371936D01*
X138747019Y-98447298D01*
X138975951Y-98485500D01*
X138975954Y-98485500D01*
X139208046Y-98485500D01*
X139208049Y-98485500D01*
X139436981Y-98447298D01*
X139656503Y-98371936D01*
X139860626Y-98261470D01*
X140043784Y-98118913D01*
X140200979Y-97948153D01*
X140327924Y-97753849D01*
X140421157Y-97541300D01*
X140478134Y-97316305D01*
X140497300Y-97085000D01*
X143703700Y-97085000D01*
X143722866Y-97316305D01*
X143722868Y-97316315D01*
X143779839Y-97541287D01*
X143779841Y-97541295D01*
X143779843Y-97541300D01*
X143873076Y-97753849D01*
X144000021Y-97948153D01*
X144000024Y-97948156D01*
X144157217Y-98118914D01*
X144157220Y-98118917D01*
X144340372Y-98261469D01*
X144340374Y-98261470D01*
X144544497Y-98371936D01*
X144764019Y-98447298D01*
X144992951Y-98485500D01*
X144992954Y-98485500D01*
X145225046Y-98485500D01*
X145225049Y-98485500D01*
X145453981Y-98447298D01*
X145673503Y-98371936D01*
X145877626Y-98261470D01*
X146060784Y-98118913D01*
X146217979Y-97948153D01*
X146344924Y-97753849D01*
X146438157Y-97541300D01*
X146495134Y-97316305D01*
X146514300Y-97085000D01*
X146495134Y-96853695D01*
X146438157Y-96628700D01*
X146344924Y-96416151D01*
X146217979Y-96221847D01*
X146060784Y-96051087D01*
X146060783Y-96051086D01*
X146060782Y-96051085D01*
X146060779Y-96051082D01*
X145877627Y-95908530D01*
X145877625Y-95908529D01*
X145813425Y-95873786D01*
X145673503Y-95798064D01*
X145453981Y-95722702D01*
X145225049Y-95684500D01*
X144992951Y-95684500D01*
X144821252Y-95713151D01*
X144764018Y-95722702D01*
X144544497Y-95798064D01*
X144480296Y-95832807D01*
X144340374Y-95908529D01*
X144340372Y-95908530D01*
X144157220Y-96051082D01*
X144157217Y-96051085D01*
X144000024Y-96221843D01*
X144000020Y-96221848D01*
X143873079Y-96416145D01*
X143873077Y-96416148D01*
X143779844Y-96628697D01*
X143779839Y-96628712D01*
X143722868Y-96853684D01*
X143722866Y-96853694D01*
X143703700Y-97085000D01*
X140497300Y-97085000D01*
X140478134Y-96853695D01*
X140421157Y-96628700D01*
X140327924Y-96416151D01*
X140200979Y-96221847D01*
X140043784Y-96051087D01*
X140043783Y-96051086D01*
X140043782Y-96051085D01*
X140043779Y-96051082D01*
X139860627Y-95908530D01*
X139860625Y-95908529D01*
X139796425Y-95873786D01*
X139656503Y-95798064D01*
X139436981Y-95722702D01*
X139208049Y-95684500D01*
X138975951Y-95684500D01*
X138804252Y-95713151D01*
X138747018Y-95722702D01*
X138527497Y-95798064D01*
X138463296Y-95832807D01*
X138323374Y-95908529D01*
X138323372Y-95908530D01*
X138140220Y-96051082D01*
X138140217Y-96051085D01*
X137983024Y-96221843D01*
X137983020Y-96221848D01*
X137856079Y-96416145D01*
X137856077Y-96416148D01*
X137762844Y-96628697D01*
X137762839Y-96628712D01*
X137705868Y-96853684D01*
X137705866Y-96853694D01*
X137686700Y-97085000D01*
X136392500Y-97085000D01*
X136392500Y-87033999D01*
X141316417Y-87033999D01*
X141316417Y-87034000D01*
X141336699Y-87239930D01*
X141336700Y-87239935D01*
X141396766Y-87437949D01*
X141396768Y-87437954D01*
X141494311Y-87620444D01*
X141494313Y-87620448D01*
X141494315Y-87620450D01*
X141625590Y-87780410D01*
X141785550Y-87911685D01*
X141785553Y-87911686D01*
X141785555Y-87911688D01*
X141840385Y-87940995D01*
X141968046Y-88009232D01*
X142166066Y-88069300D01*
X142372000Y-88089583D01*
X142577934Y-88069300D01*
X142775954Y-88009232D01*
X142958450Y-87911685D01*
X143118410Y-87780410D01*
X143249685Y-87620450D01*
X143347232Y-87437954D01*
X143407300Y-87239934D01*
X143427583Y-87034000D01*
X143417734Y-86933999D01*
X143940121Y-86933999D01*
X143940122Y-86934000D01*
X144421157Y-86934000D01*
X144412000Y-86968174D01*
X144412000Y-87099826D01*
X144421157Y-87134000D01*
X143940122Y-87134000D01*
X143949137Y-87225524D01*
X144005004Y-87409692D01*
X144095720Y-87579412D01*
X144095728Y-87579423D01*
X144217812Y-87728184D01*
X144217815Y-87728187D01*
X144366576Y-87850271D01*
X144366587Y-87850279D01*
X144536307Y-87940995D01*
X144720476Y-87996863D01*
X144812000Y-88005876D01*
X144812000Y-87524842D01*
X144846174Y-87534000D01*
X144977826Y-87534000D01*
X145012000Y-87524842D01*
X145012000Y-88005876D01*
X145103523Y-87996863D01*
X145287692Y-87940995D01*
X145457412Y-87850279D01*
X145457423Y-87850271D01*
X145606184Y-87728187D01*
X145606187Y-87728184D01*
X145728271Y-87579423D01*
X145728279Y-87579412D01*
X145818995Y-87409692D01*
X145874862Y-87225524D01*
X145883878Y-87134000D01*
X145402843Y-87134000D01*
X145412000Y-87099826D01*
X145412000Y-87033999D01*
X146396417Y-87033999D01*
X146396417Y-87034000D01*
X146416699Y-87239930D01*
X146416700Y-87239935D01*
X146476766Y-87437949D01*
X146476768Y-87437954D01*
X146574311Y-87620444D01*
X146574313Y-87620448D01*
X146574315Y-87620450D01*
X146705590Y-87780410D01*
X146865550Y-87911685D01*
X146865553Y-87911686D01*
X146865555Y-87911688D01*
X146920385Y-87940995D01*
X147048046Y-88009232D01*
X147246066Y-88069300D01*
X147452000Y-88089583D01*
X147657934Y-88069300D01*
X147855954Y-88009232D01*
X148038450Y-87911685D01*
X148198410Y-87780410D01*
X148329685Y-87620450D01*
X148427232Y-87437954D01*
X148487300Y-87239934D01*
X148507583Y-87034000D01*
X148487300Y-86828066D01*
X148427232Y-86630046D01*
X148329685Y-86447550D01*
X148198410Y-86287590D01*
X148113282Y-86217728D01*
X148048120Y-86164251D01*
X148941500Y-86164251D01*
X148941500Y-87903748D01*
X148953132Y-87962230D01*
X148953133Y-87962232D01*
X148997447Y-88028552D01*
X149063767Y-88072866D01*
X149063769Y-88072867D01*
X149122252Y-88084500D01*
X150861748Y-88084500D01*
X150920231Y-88072867D01*
X150986552Y-88028552D01*
X151030867Y-87962231D01*
X151042500Y-87903748D01*
X151042500Y-86164252D01*
X151030867Y-86105769D01*
X151030866Y-86105767D01*
X150986552Y-86039447D01*
X150920232Y-85995133D01*
X150920230Y-85995132D01*
X150861748Y-85983500D01*
X149122252Y-85983500D01*
X149063769Y-85995132D01*
X149063767Y-85995133D01*
X148997447Y-86039447D01*
X148953133Y-86105767D01*
X148953132Y-86105769D01*
X148941500Y-86164251D01*
X148048120Y-86164251D01*
X148038455Y-86156319D01*
X148038453Y-86156318D01*
X148038450Y-86156315D01*
X148038448Y-86156313D01*
X148038444Y-86156311D01*
X147855954Y-86058768D01*
X147855949Y-86058766D01*
X147657935Y-85998700D01*
X147657930Y-85998699D01*
X147452000Y-85978417D01*
X147246069Y-85998699D01*
X147246064Y-85998700D01*
X147048050Y-86058766D01*
X147048045Y-86058768D01*
X146865555Y-86156311D01*
X146865544Y-86156319D01*
X146705591Y-86287588D01*
X146705588Y-86287591D01*
X146574319Y-86447544D01*
X146574311Y-86447555D01*
X146476768Y-86630045D01*
X146476766Y-86630050D01*
X146416700Y-86828064D01*
X146416699Y-86828069D01*
X146396417Y-87033999D01*
X145412000Y-87033999D01*
X145412000Y-86968174D01*
X145402843Y-86934000D01*
X145883878Y-86934000D01*
X145883878Y-86933999D01*
X145874862Y-86842475D01*
X145818995Y-86658307D01*
X145728279Y-86488587D01*
X145728271Y-86488576D01*
X145606187Y-86339815D01*
X145606184Y-86339812D01*
X145457423Y-86217728D01*
X145457412Y-86217720D01*
X145287692Y-86127004D01*
X145103524Y-86071137D01*
X145012000Y-86062121D01*
X145012000Y-86543157D01*
X144977826Y-86534000D01*
X144846174Y-86534000D01*
X144812000Y-86543157D01*
X144812000Y-86062121D01*
X144811999Y-86062121D01*
X144720475Y-86071137D01*
X144536307Y-86127004D01*
X144366587Y-86217720D01*
X144366576Y-86217728D01*
X144217815Y-86339812D01*
X144217812Y-86339815D01*
X144095728Y-86488576D01*
X144095720Y-86488587D01*
X144005004Y-86658307D01*
X143949137Y-86842475D01*
X143940121Y-86933999D01*
X143417734Y-86933999D01*
X143407300Y-86828066D01*
X143347232Y-86630046D01*
X143249685Y-86447550D01*
X143118410Y-86287590D01*
X143033282Y-86217728D01*
X142958455Y-86156319D01*
X142958453Y-86156318D01*
X142958450Y-86156315D01*
X142958448Y-86156313D01*
X142958444Y-86156311D01*
X142775954Y-86058768D01*
X142775949Y-86058766D01*
X142577935Y-85998700D01*
X142577930Y-85998699D01*
X142372000Y-85978417D01*
X142166069Y-85998699D01*
X142166064Y-85998700D01*
X141968050Y-86058766D01*
X141968045Y-86058768D01*
X141785555Y-86156311D01*
X141785544Y-86156319D01*
X141625591Y-86287588D01*
X141625588Y-86287591D01*
X141494319Y-86447544D01*
X141494311Y-86447555D01*
X141396768Y-86630045D01*
X141396766Y-86630050D01*
X141336700Y-86828064D01*
X141336699Y-86828069D01*
X141316417Y-87033999D01*
X136392500Y-87033999D01*
X136392500Y-83775889D01*
X136392614Y-83772116D01*
X136395739Y-83720450D01*
X136410496Y-83476477D01*
X136411403Y-83469012D01*
X136464450Y-83179545D01*
X136466255Y-83172222D01*
X136478166Y-83133999D01*
X141316417Y-83133999D01*
X141316417Y-83134000D01*
X141336699Y-83339930D01*
X141336700Y-83339935D01*
X141396766Y-83537949D01*
X141396768Y-83537954D01*
X141494311Y-83720444D01*
X141494313Y-83720448D01*
X141494315Y-83720450D01*
X141625590Y-83880410D01*
X141785550Y-84011685D01*
X141785553Y-84011686D01*
X141785555Y-84011688D01*
X141860912Y-84051967D01*
X141968046Y-84109232D01*
X142166066Y-84169300D01*
X142372000Y-84189583D01*
X142577934Y-84169300D01*
X142775954Y-84109232D01*
X142958450Y-84011685D01*
X143118410Y-83880410D01*
X143249685Y-83720450D01*
X143347232Y-83537954D01*
X143407300Y-83339934D01*
X143427583Y-83134000D01*
X143427583Y-83133999D01*
X143856417Y-83133999D01*
X143856417Y-83134000D01*
X143876699Y-83339930D01*
X143876700Y-83339935D01*
X143936766Y-83537949D01*
X143936768Y-83537954D01*
X144034311Y-83720444D01*
X144034313Y-83720448D01*
X144034315Y-83720450D01*
X144165590Y-83880410D01*
X144325550Y-84011685D01*
X144325553Y-84011686D01*
X144325555Y-84011688D01*
X144400912Y-84051967D01*
X144508046Y-84109232D01*
X144706066Y-84169300D01*
X144912000Y-84189583D01*
X145117934Y-84169300D01*
X145315954Y-84109232D01*
X145498450Y-84011685D01*
X145658410Y-83880410D01*
X145789685Y-83720450D01*
X145887232Y-83537954D01*
X145947300Y-83339934D01*
X145967583Y-83134000D01*
X145967583Y-83133999D01*
X146396417Y-83133999D01*
X146396417Y-83134000D01*
X146416699Y-83339930D01*
X146416700Y-83339935D01*
X146476766Y-83537949D01*
X146476768Y-83537954D01*
X146574311Y-83720444D01*
X146574313Y-83720448D01*
X146574315Y-83720450D01*
X146705590Y-83880410D01*
X146865550Y-84011685D01*
X146865553Y-84011686D01*
X146865555Y-84011688D01*
X146940912Y-84051967D01*
X147048046Y-84109232D01*
X147246066Y-84169300D01*
X147452000Y-84189583D01*
X147657934Y-84169300D01*
X147855954Y-84109232D01*
X148038450Y-84011685D01*
X148198410Y-83880410D01*
X148329685Y-83720450D01*
X148427232Y-83537954D01*
X148487300Y-83339934D01*
X148507583Y-83134000D01*
X148507583Y-83133999D01*
X148936417Y-83133999D01*
X148936417Y-83134000D01*
X148956699Y-83339930D01*
X148956700Y-83339935D01*
X149016766Y-83537949D01*
X149016768Y-83537954D01*
X149114311Y-83720444D01*
X149114313Y-83720448D01*
X149114315Y-83720450D01*
X149245590Y-83880410D01*
X149405550Y-84011685D01*
X149405553Y-84011686D01*
X149405555Y-84011688D01*
X149480912Y-84051967D01*
X149588046Y-84109232D01*
X149786066Y-84169300D01*
X149992000Y-84189583D01*
X150197934Y-84169300D01*
X150395954Y-84109232D01*
X150578450Y-84011685D01*
X150738410Y-83880410D01*
X150869685Y-83720450D01*
X150967232Y-83537954D01*
X151027300Y-83339934D01*
X151047583Y-83134000D01*
X151027300Y-82928066D01*
X150967232Y-82730046D01*
X150902090Y-82608175D01*
X150869688Y-82547555D01*
X150869686Y-82547553D01*
X150869685Y-82547550D01*
X150738410Y-82387590D01*
X150700023Y-82356087D01*
X150588120Y-82264251D01*
X151481500Y-82264251D01*
X151481500Y-84003748D01*
X151493132Y-84062230D01*
X151493133Y-84062232D01*
X151537447Y-84128552D01*
X151603767Y-84172866D01*
X151603769Y-84172867D01*
X151662252Y-84184500D01*
X153401748Y-84184500D01*
X153460231Y-84172867D01*
X153526552Y-84128552D01*
X153570867Y-84062231D01*
X153582500Y-84003748D01*
X153582500Y-82264252D01*
X153570867Y-82205769D01*
X153570866Y-82205767D01*
X153526552Y-82139447D01*
X153460232Y-82095133D01*
X153460230Y-82095132D01*
X153401748Y-82083500D01*
X151662252Y-82083500D01*
X151603769Y-82095132D01*
X151603767Y-82095133D01*
X151537447Y-82139447D01*
X151493133Y-82205767D01*
X151493132Y-82205769D01*
X151481500Y-82264251D01*
X150588120Y-82264251D01*
X150578455Y-82256319D01*
X150578453Y-82256318D01*
X150578450Y-82256315D01*
X150578448Y-82256313D01*
X150578444Y-82256311D01*
X150395954Y-82158768D01*
X150395949Y-82158766D01*
X150197935Y-82098700D01*
X150197930Y-82098699D01*
X149992000Y-82078417D01*
X149786069Y-82098699D01*
X149786064Y-82098700D01*
X149588050Y-82158766D01*
X149588045Y-82158768D01*
X149405555Y-82256311D01*
X149405544Y-82256319D01*
X149245591Y-82387588D01*
X149245588Y-82387591D01*
X149114319Y-82547544D01*
X149114311Y-82547555D01*
X149016768Y-82730045D01*
X149016766Y-82730050D01*
X148956700Y-82928064D01*
X148956699Y-82928069D01*
X148936417Y-83133999D01*
X148507583Y-83133999D01*
X148487300Y-82928066D01*
X148427232Y-82730046D01*
X148362090Y-82608175D01*
X148329688Y-82547555D01*
X148329686Y-82547553D01*
X148329685Y-82547550D01*
X148198410Y-82387590D01*
X148160023Y-82356087D01*
X148038455Y-82256319D01*
X148038453Y-82256318D01*
X148038450Y-82256315D01*
X148038448Y-82256313D01*
X148038444Y-82256311D01*
X147855954Y-82158768D01*
X147855949Y-82158766D01*
X147657935Y-82098700D01*
X147657930Y-82098699D01*
X147452000Y-82078417D01*
X147246069Y-82098699D01*
X147246064Y-82098700D01*
X147048050Y-82158766D01*
X147048045Y-82158768D01*
X146865555Y-82256311D01*
X146865544Y-82256319D01*
X146705591Y-82387588D01*
X146705588Y-82387591D01*
X146574319Y-82547544D01*
X146574311Y-82547555D01*
X146476768Y-82730045D01*
X146476766Y-82730050D01*
X146416700Y-82928064D01*
X146416699Y-82928069D01*
X146396417Y-83133999D01*
X145967583Y-83133999D01*
X145947300Y-82928066D01*
X145887232Y-82730046D01*
X145822090Y-82608175D01*
X145789688Y-82547555D01*
X145789686Y-82547553D01*
X145789685Y-82547550D01*
X145658410Y-82387590D01*
X145620023Y-82356087D01*
X145498455Y-82256319D01*
X145498453Y-82256318D01*
X145498450Y-82256315D01*
X145498448Y-82256313D01*
X145498444Y-82256311D01*
X145315954Y-82158768D01*
X145315949Y-82158766D01*
X145117935Y-82098700D01*
X145117930Y-82098699D01*
X144912000Y-82078417D01*
X144706069Y-82098699D01*
X144706064Y-82098700D01*
X144508050Y-82158766D01*
X144508045Y-82158768D01*
X144325555Y-82256311D01*
X144325544Y-82256319D01*
X144165591Y-82387588D01*
X144165588Y-82387591D01*
X144034319Y-82547544D01*
X144034311Y-82547555D01*
X143936768Y-82730045D01*
X143936766Y-82730050D01*
X143876700Y-82928064D01*
X143876699Y-82928069D01*
X143856417Y-83133999D01*
X143427583Y-83133999D01*
X143407300Y-82928066D01*
X143347232Y-82730046D01*
X143282090Y-82608175D01*
X143249688Y-82547555D01*
X143249686Y-82547553D01*
X143249685Y-82547550D01*
X143118410Y-82387590D01*
X143080023Y-82356087D01*
X142958455Y-82256319D01*
X142958453Y-82256318D01*
X142958450Y-82256315D01*
X142958448Y-82256313D01*
X142958444Y-82256311D01*
X142775954Y-82158768D01*
X142775949Y-82158766D01*
X142577935Y-82098700D01*
X142577930Y-82098699D01*
X142372000Y-82078417D01*
X142166069Y-82098699D01*
X142166064Y-82098700D01*
X141968050Y-82158766D01*
X141968045Y-82158768D01*
X141785555Y-82256311D01*
X141785544Y-82256319D01*
X141625591Y-82387588D01*
X141625588Y-82387591D01*
X141494319Y-82547544D01*
X141494311Y-82547555D01*
X141396768Y-82730045D01*
X141396766Y-82730050D01*
X141336700Y-82928064D01*
X141336699Y-82928069D01*
X141316417Y-83133999D01*
X136478166Y-83133999D01*
X136553803Y-82891270D01*
X136556477Y-82884220D01*
X136677258Y-82615854D01*
X136680753Y-82609198D01*
X136833006Y-82357340D01*
X136837270Y-82351162D01*
X137018773Y-82119490D01*
X137023764Y-82113857D01*
X137231857Y-81905764D01*
X137237490Y-81900773D01*
X137469162Y-81719270D01*
X137475340Y-81715006D01*
X137727198Y-81562753D01*
X137733854Y-81559258D01*
X138002226Y-81438474D01*
X138009270Y-81435803D01*
X138290226Y-81348253D01*
X138297545Y-81346450D01*
X138587012Y-81293403D01*
X138594477Y-81292496D01*
X138876680Y-81275426D01*
X138890116Y-81274614D01*
X138893889Y-81274500D01*
X138957892Y-81274500D01*
X178132060Y-81274500D01*
X178133827Y-81274614D01*
G37*
G04 #@! TD.AperFunction*
G04 #@! TD*
M02*
